<?xml version="1.0" encoding="UTF-8" ?>
<!DOCTYPE svg PUBLIC "-//W3C//DTD SVG 1.1//EN" "http://www.w3.org/Graphics/SVG/1.1/DTD/svg11.dtd">
<svg width="600pt" height="693pt" viewBox="0 0 600 693" version="1.1" xmlns="http://www.w3.org/2000/svg">
<g id="#499900e9">
<path fill="#499900" opacity="0.91" d=" M 0.00 0.00 L 600.00 0.00 L 600.00 693.00 L 0.00 693.00 L 0.00 0.00 M 57.08 19.26 C 39.50 21.93 23.26 33.42 15.83 49.71 C 12.76 56.34 11.23 63.66 11.32 70.97 C 11.33 254.64 11.32 438.32 11.33 621.99 C 11.26 630.95 13.74 639.90 18.37 647.57 C 25.76 660.00 38.46 668.93 52.46 672.31 C 59.82 674.22 67.48 674.02 75.02 673.99 C 227.65 673.97 380.29 674.02 532.93 673.97 C 548.89 674.25 564.97 667.62 575.65 655.66 C 583.91 646.58 588.77 634.40 588.67 622.08 C 588.69 438.37 588.68 254.66 588.67 70.95 C 588.75 63.94 587.35 56.92 584.52 50.50 C 576.07 30.94 555.05 18.34 533.95 18.53 C 378.63 18.50 223.31 18.53 67.98 18.51 C 64.33 18.50 60.68 18.67 57.08 19.26 Z" />
<path fill="#499900" opacity="0.91" d=" M 62.39 57.29 C 76.53 43.36 96.19 35.16 116.07 35.23 C 238.38 35.21 360.69 35.23 483.00 35.22 C 508.01 34.73 532.51 47.62 546.85 68.00 C 556.82 81.86 562.12 98.94 561.96 116.00 C 561.96 203.32 561.96 290.65 561.96 377.97 C 561.68 390.98 562.98 404.20 559.90 416.98 C 555.20 438.04 541.63 456.99 523.04 468.00 C 511.60 474.85 498.35 478.64 485.01 478.81 C 474.92 478.88 464.84 478.82 454.75 478.84 C 454.71 477.61 454.46 476.42 453.66 475.47 C 432.74 445.91 412.11 416.15 391.10 386.66 C 394.07 382.83 397.31 379.22 400.37 375.46 C 401.57 373.99 402.72 372.38 404.45 371.50 C 421.37 362.24 437.41 350.69 449.47 335.47 C 459.96 322.35 466.75 306.42 469.46 289.87 C 469.80 288.21 469.78 286.36 470.88 284.96 C 486.70 262.09 502.50 239.19 518.29 216.30 C 526.47 203.43 524.67 185.71 514.74 174.29 C 517.83 167.03 519.45 158.73 517.13 151.00 C 514.83 142.67 508.03 136.12 500.01 133.21 C 496.12 124.66 488.18 118.26 479.15 115.86 C 470.88 113.51 461.87 114.70 454.23 118.54 C 447.09 115.06 438.70 114.28 431.05 116.41 C 422.14 118.82 414.61 124.77 408.85 131.82 C 387.18 158.82 365.76 186.03 344.01 212.96 C 341.81 205.16 338.72 197.66 336.32 189.93 C 333.57 181.02 329.62 171.80 321.79 166.19 C 314.22 160.50 304.23 159.69 295.11 160.71 C 288.06 161.66 281.57 165.58 277.22 171.16 C 270.94 178.87 268.16 188.57 264.68 197.69 C 262.66 202.43 261.37 207.41 259.77 212.29 C 237.94 185.38 216.54 158.10 194.83 131.08 C 189.14 124.19 181.80 118.34 173.10 115.88 C 165.38 113.62 156.85 114.33 149.66 117.95 C 142.36 114.43 133.93 112.98 125.98 114.89 C 116.40 117.03 107.78 123.60 103.77 132.64 C 96.22 135.33 89.76 141.27 87.11 148.91 C 84.14 157.00 85.69 165.97 89.02 173.70 C 79.28 184.89 77.34 202.12 85.01 214.94 C 101.11 238.47 117.49 261.83 133.53 285.41 C 136.39 304.61 143.97 323.33 156.89 338.01 C 167.79 350.75 181.53 360.74 196.01 369.03 C 198.03 370.25 200.42 371.06 201.90 373.00 C 205.46 377.31 209.07 381.59 212.66 385.88 C 191.49 416.00 170.33 446.14 149.15 476.26 C 149.14 476.90 149.11 478.19 149.09 478.84 C 137.73 478.82 126.37 478.88 115.01 478.81 C 89.90 478.64 65.67 464.98 51.86 444.13 C 42.73 430.63 37.92 414.32 38.08 398.03 C 38.07 307.35 38.08 216.68 38.07 126.00 C 38.11 120.99 37.98 115.98 38.20 110.97 C 39.15 90.89 47.93 71.28 62.39 57.29 Z" />
<path fill="#499900" opacity="0.91" d=" M 113.95 142.04 C 114.94 132.31 124.40 124.80 134.02 125.28 C 139.48 125.29 144.57 127.90 148.53 131.51 C 149.56 132.78 150.73 131.27 151.53 130.60 C 156.09 126.29 162.97 124.78 168.97 126.49 C 175.95 128.36 181.45 133.53 185.84 139.06 C 206.27 164.68 226.69 190.31 247.12 215.94 C 250.84 220.77 255.25 225.53 261.03 227.82 C 265.00 229.40 267.55 224.98 269.03 222.03 C 272.34 215.48 273.63 208.16 276.46 201.41 C 279.46 193.90 281.53 185.86 286.19 179.13 C 289.24 174.59 294.43 171.35 300.01 171.56 C 305.78 171.26 312.09 172.41 316.15 176.87 C 322.54 183.73 323.94 193.41 327.23 201.87 C 330.51 209.69 331.72 218.41 336.42 225.61 C 337.69 227.65 340.11 229.58 342.64 228.46 C 348.00 226.40 352.17 222.09 355.72 217.70 C 376.07 192.11 396.49 166.56 416.86 140.98 C 421.51 134.91 427.30 129.06 434.93 127.07 C 441.49 125.21 448.88 127.39 453.48 132.40 C 454.45 133.72 455.44 131.76 456.28 131.29 C 461.69 126.28 469.91 124.47 476.88 127.00 C 483.62 129.29 489.05 135.45 489.75 142.64 C 496.23 142.73 502.69 146.71 504.69 153.04 C 507.35 161.17 503.87 169.68 499.69 176.63 C 508.63 182.63 513.18 194.53 509.93 204.89 C 508.84 209.52 505.64 213.15 503.07 217.02 C 488.23 238.52 473.38 260.01 458.56 281.51 C 457.65 282.85 457.70 284.55 457.41 286.09 C 455.25 301.22 449.45 315.91 440.05 328.02 C 429.28 342.07 414.64 352.58 399.32 361.17 C 397.21 362.41 394.73 363.23 393.21 365.27 C 387.47 372.19 381.67 379.05 375.91 385.95 C 396.39 415.10 416.85 444.26 437.37 473.38 C 434.22 475.26 431.00 477.02 427.81 478.83 C 406.68 448.76 385.54 418.70 364.43 388.62 C 362.71 386.62 363.28 383.68 365.10 381.97 C 372.45 373.41 379.42 364.48 386.98 356.12 C 401.91 348.02 416.73 338.91 427.89 325.86 C 438.13 314.16 444.29 299.26 446.33 283.91 C 446.67 281.59 446.69 279.06 448.24 277.15 C 464.58 253.54 480.86 229.89 497.19 206.28 C 501.58 199.66 499.79 189.93 493.49 185.15 C 469.01 217.82 444.44 250.44 420.03 283.16 C 416.46 282.13 413.63 279.53 410.34 277.89 C 435.49 244.24 460.75 210.65 485.95 177.03 C 489.68 172.32 493.11 167.06 494.15 161.03 C 494.56 158.52 494.43 155.43 492.31 153.69 C 489.79 151.95 486.14 153.16 484.40 155.44 C 455.05 193.23 425.74 231.04 396.40 268.84 C 393.31 266.90 390.21 264.98 387.11 263.06 C 417.26 224.19 447.44 185.33 477.57 146.44 C 480.62 141.23 474.24 134.91 468.87 136.14 C 463.68 137.15 460.95 142.15 458.11 146.08 C 431.27 182.22 404.57 218.48 377.65 254.55 C 374.60 252.57 371.44 250.79 368.32 248.92 C 394.49 213.61 420.64 178.29 446.83 143.00 C 446.09 139.47 442.88 136.07 439.03 136.60 C 434.27 137.49 430.72 141.23 427.74 144.80 C 406.13 171.85 384.60 198.95 362.99 225.98 C 358.05 231.40 352.19 236.57 344.94 238.45 C 338.83 240.05 332.14 237.60 328.23 232.72 C 321.69 225.00 320.32 214.65 316.67 205.53 C 314.11 198.95 312.70 191.90 309.31 185.67 C 306.75 180.47 297.84 180.01 295.20 185.35 C 291.41 191.70 289.55 198.94 286.76 205.73 C 283.28 214.70 281.82 224.84 275.31 232.32 C 271.42 237.03 264.86 239.41 258.89 237.85 C 251.57 236.00 245.65 230.78 240.70 225.31 C 219.24 198.43 197.82 171.51 176.36 144.62 C 173.53 141.20 170.33 137.69 165.99 136.27 C 161.95 134.72 157.11 138.47 157.14 142.60 C 183.15 177.89 209.35 213.05 235.42 248.30 C 232.29 250.19 229.15 252.06 225.99 253.90 C 198.92 217.35 171.81 180.82 144.76 144.25 C 142.16 140.38 139.04 135.82 133.95 135.40 C 128.89 134.94 123.30 140.89 126.14 145.77 C 156.26 184.69 186.49 223.55 216.64 262.45 C 213.54 264.37 210.45 266.31 207.34 268.21 C 178.13 230.57 148.91 192.93 119.72 155.27 C 118.07 152.83 114.57 151.43 111.83 152.80 C 109.47 154.25 109.20 157.39 109.51 159.89 C 110.23 164.86 112.65 169.44 115.58 173.46 C 141.53 208.03 167.44 242.63 193.40 277.20 C 190.32 279.18 187.15 281.00 184.02 282.89 C 159.58 250.21 134.97 217.65 110.64 184.90 C 108.91 185.13 107.95 186.70 107.00 187.97 C 103.44 193.04 103.10 200.31 106.47 205.55 C 122.72 229.02 138.89 252.54 155.15 276.01 C 157.89 279.44 157.07 284.14 158.21 288.16 C 161.19 304.83 169.73 320.35 182.15 331.85 C 191.77 340.94 203.03 348.12 214.72 354.25 C 216.69 355.15 218.16 356.77 219.47 358.44 C 225.99 366.31 232.62 374.08 239.12 381.95 C 240.74 383.67 240.71 386.40 239.20 388.18 C 218.13 418.19 197.04 448.18 175.96 478.18 C 172.74 476.42 169.57 474.58 166.36 472.81 C 186.85 443.65 207.36 414.50 227.83 385.33 C 222.63 379.12 217.42 372.91 212.23 366.69 C 210.87 365.08 209.65 363.22 207.68 362.30 C 188.63 352.12 170.31 338.91 158.76 320.28 C 152.12 309.63 148.01 297.49 146.27 285.08 C 145.98 283.63 146.03 282.03 145.13 280.79 C 128.92 257.34 112.74 233.86 96.53 210.41 C 89.25 199.34 93.03 183.21 104.03 176.04 C 99.94 169.18 96.51 160.89 98.90 152.83 C 100.78 146.32 107.32 142.10 113.95 142.04 Z" />
<path fill="#499900" opacity="0.91" d=" M 54.68 504.10 C 72.15 504.09 89.61 504.09 107.08 504.10 C 107.11 533.41 107.05 562.73 107.11 592.05 C 107.22 599.65 107.52 607.77 111.62 614.43 C 114.85 619.79 120.96 622.69 127.01 623.42 C 133.59 624.15 140.69 623.95 146.60 620.63 C 150.91 618.22 153.88 613.92 155.30 609.26 C 157.54 602.05 157.35 594.41 157.39 586.94 C 157.38 559.33 157.40 531.71 157.38 504.10 C 174.84 504.09 192.31 504.10 209.78 504.09 C 209.75 532.40 209.78 560.70 209.77 589.01 C 209.94 601.48 209.93 614.35 205.25 626.13 C 200.46 639.21 189.66 649.57 176.84 654.79 C 158.94 662.21 139.06 662.95 119.95 661.82 C 102.10 660.54 83.09 656.09 70.05 643.00 C 58.83 631.81 54.75 615.47 54.69 600.04 C 54.66 568.06 54.69 536.08 54.68 504.10 Z" />
<path fill="#499900" opacity="0.91" d=" M 226.95 504.10 C 244.85 504.13 262.75 504.02 280.65 504.15 C 297.22 531.88 313.71 559.65 330.53 587.22 C 330.72 559.51 330.56 531.80 330.61 504.09 C 347.13 504.09 363.64 504.09 380.16 504.10 C 380.22 555.55 380.04 607.00 380.25 658.45 C 363.25 658.77 346.22 658.47 329.20 658.60 C 311.64 630.24 294.11 601.87 276.58 573.49 C 276.38 601.85 276.55 630.22 276.50 658.58 C 260.00 658.60 243.50 658.55 227.01 658.60 C 226.88 607.10 226.99 555.60 226.95 504.10 Z" />
<path fill="#499900" opacity="0.91" d=" M 398.04 504.09 C 444.98 504.11 491.91 504.10 538.84 504.09 C 538.81 517.29 538.85 530.48 538.82 543.68 C 509.36 543.64 479.91 543.68 450.45 543.66 C 450.42 550.08 450.45 556.51 450.43 562.94 C 477.20 562.98 503.97 562.92 530.74 562.97 C 530.73 575.22 530.73 587.47 530.74 599.72 C 503.98 599.70 477.22 599.73 450.46 599.70 C 450.40 606.12 450.48 612.54 450.41 618.96 C 480.76 619.12 511.12 618.98 541.47 619.03 C 541.46 632.21 541.46 645.40 541.47 658.58 C 493.67 658.62 445.87 658.55 398.07 658.61 C 398.03 607.11 398.07 555.60 398.04 504.09 Z" />
</g>
<g id="#ffffffff">
</g>
</svg>
