<?xml version="1.0" encoding="utf-8"?>
<svg width="1080pt" height="1080pt" viewBox="0 0 1080 1080" version="1.1" xmlns="http://www.w3.org/2000/svg">
  <g id="#ffffffff"/>
  <g id="#ed1b24ff" style="" transform="matrix(1.38023, 0, 0, 1.38023, -204.795349, -205.866211)">
    <path fill="#ed1b24" opacity="1.00" d=" M 542.43 226.52 C 548.85 217.70 556.07 209.42 564.68 202.68 C 564.13 218.48 565.23 234.50 569.69 249.74 C 573.91 264.80 580.33 279.26 588.76 292.44 C 595.12 301.57 601.21 310.94 608.78 319.14 C 621.75 334.45 636.22 348.40 650.47 362.50 C 661.98 374.02 673.92 385.19 684.07 397.97 C 690.18 405.05 693.57 413.89 697.34 422.32 C 705.48 444.07 707.63 468.12 702.96 490.89 C 698.18 515.80 686.25 538.90 670.83 558.86 C 662.95 567.96 655.20 577.20 646.43 585.46 C 620.78 609.26 589.98 627.45 556.77 638.47 C 545.96 641.97 534.77 644.55 523.44 645.44 C 525.23 643.53 527.26 641.87 529.40 640.36 C 546.35 627.94 561.51 612.96 573.55 595.70 C 582.96 581.97 590.31 566.78 595.23 550.88 C 601.55 531.39 603.02 510.49 600.52 490.21 C 598.79 476.16 594.90 462.37 588.35 449.78 C 578.22 430.22 566.66 411.44 555.85 392.25 C 546.59 376.10 538.71 359.18 531.89 341.87 C 524.82 322.46 520.09 301.71 521.91 280.96 C 523.27 261.34 530.55 242.18 542.43 226.52 Z"/>
    <path fill="#ed1b24" opacity="1.00" d=" M 419.31 335.06 C 432.76 303.75 458.47 279.11 487.71 262.35 C 486.39 277.83 485.46 293.49 487.41 308.97 C 489.41 329.70 496.01 350.11 507.14 367.75 C 516.20 383.21 528.56 396.30 540.17 409.83 C 548.96 419.34 556.99 429.94 561.58 442.15 C 566.36 456.99 572.72 471.35 575.98 486.67 C 581.01 505.73 581.95 525.79 579.51 545.31 C 576.40 565.90 568.13 585.76 555.11 602.07 C 547.43 612.62 537.85 621.64 527.76 629.86 C 522.01 634.21 516.55 638.99 510.27 642.58 C 515.73 633.12 516.53 621.71 515.28 611.06 C 512.04 592.43 503.06 575.27 491.89 560.19 C 484.81 550.01 477.06 540.32 469.41 530.57 C 458.69 517.87 447.52 505.47 438.25 491.63 C 431.05 482.13 425.56 471.47 421.38 460.33 C 415.99 446.99 412.10 433.06 409.84 418.86 C 408.58 406.95 406.90 394.93 408.29 382.96 C 409.10 366.51 412.77 350.20 419.31 335.06 Z"/>
    <path fill="#ed1b24" opacity="1.00" d=" M 372.99 457.20 C 375.82 443.48 379.64 427.79 392.32 419.80 C 395.50 430.16 397.78 440.79 401.52 450.99 C 405.19 463.03 409.36 474.98 414.77 486.36 C 418.58 494.14 424.87 500.28 429.72 507.38 C 449.83 534.10 470.75 560.35 487.87 589.15 C 494.32 601.08 501.08 613.34 502.75 627.01 C 503.97 633.55 502.19 640.31 498.97 646.02 C 490.87 633.72 481.50 622.09 469.80 613.03 C 452.55 597.80 432.39 586.24 415.77 570.27 C 406.25 561.09 396.94 551.48 389.90 540.20 C 385.00 532.18 379.93 524.14 376.91 515.19 C 370.48 496.64 370.10 476.46 372.99 457.20 Z"/>
    <path fill="#ed1b24" opacity="1.00" d=" M 397.29 659.14 C 398.83 658.84 400.39 658.72 401.96 658.70 C 491.99 658.68 582.03 658.71 672.07 658.68 C 676.34 658.75 680.84 659.99 683.91 663.11 C 689.41 668.83 690.08 678.68 684.96 684.86 C 682.52 688.40 678.30 690.31 674.06 690.38 C 583.03 690.40 491.99 690.37 400.95 690.40 C 395.23 690.48 388.95 687.91 386.71 682.27 C 381.69 673.62 386.95 660.42 397.29 659.14 Z"/>
    <path fill="#ed1b24" opacity="1.00" d=" M 352.43 846.69 C 368.26 846.11 384.14 846.55 400.00 846.41 C 503.33 846.42 606.67 846.39 710.00 846.42 C 715.33 846.54 720.90 845.90 725.93 848.10 C 732.44 850.27 737.26 857.12 736.14 864.07 C 735.68 869.35 731.58 873.52 727.06 875.83 C 723.64 877.57 719.75 877.75 715.99 877.71 C 598.66 877.71 481.33 877.71 364.00 877.71 C 358.39 877.47 352.45 878.55 347.19 876.08 C 342.72 874.23 338.58 870.65 337.53 865.77 C 337.10 861.90 337.02 857.60 339.42 854.31 C 342.16 849.77 347.46 847.69 352.43 846.69 Z"/>
  </g>
  <g id="#2e3192ff" style="" transform="matrix(1.38023, 0, 0, 1.38023, -204.795349, -205.866211)">
    <path fill="#2e3192" opacity="1.00" d=" M 382.91 715.13 C 399.14 711.09 416.25 714.57 431.34 721.11 C 431.65 731.26 431.46 741.43 431.38 751.59 C 420.49 745.62 408.72 739.51 395.93 740.21 C 387.81 740.22 379.71 744.40 375.34 751.33 C 370.57 758.67 369.52 767.89 370.66 776.42 C 371.79 785.34 377.97 793.34 386.26 796.79 C 392.21 799.48 398.98 799.78 405.35 798.75 C 414.69 797.34 422.97 792.58 431.41 788.67 C 431.54 798.50 431.46 808.34 431.48 818.18 C 429.41 820.26 426.23 820.39 423.58 821.28 C 409.93 825.12 395.28 827.34 381.34 823.61 C 361.75 818.19 345.93 801.13 342.06 781.16 C 339.77 767.48 341.48 752.77 348.88 740.83 C 356.60 728.54 368.72 718.74 382.91 715.13 Z"/>
    <path fill="#2e3192" opacity="1.00" d=" M 563.39 714.68 C 579.13 712.12 596.17 714.48 609.56 723.55 C 621.79 731.48 630.72 744.55 632.97 759.03 C 634.88 771.91 633.57 785.69 627.06 797.17 C 619.77 810.04 607.02 819.63 592.74 823.38 C 581.02 826.11 568.63 826.11 556.98 822.99 C 543.22 818.99 531.37 809.23 524.37 796.78 C 517.02 782.72 516.13 765.72 520.84 750.67 C 527.20 732.15 544.37 718.39 563.39 714.68 M 568.43 739.58 C 557.00 741.91 548.72 752.77 547.52 764.08 C 547.06 770.53 546.82 777.34 549.65 783.36 C 553.38 792.00 561.65 799.02 571.18 800.05 C 578.93 800.99 587.42 799.74 593.56 794.59 C 601.58 788.43 605.15 777.86 604.51 768.00 C 604.67 757.59 599.20 747.02 589.82 742.16 C 583.34 738.46 575.58 739.00 568.43 739.58 Z"/>
    <path fill="#2e3192" opacity="1.00" d=" M 184.40 714.64 C 193.90 714.75 203.41 714.52 212.91 714.79 C 217.34 724.31 220.73 734.30 224.87 743.96 C 229.71 756.35 234.89 768.60 239.56 781.06 C 247.90 761.38 255.58 741.44 263.63 721.64 C 264.66 719.30 265.25 716.68 266.96 714.72 C 276.28 714.55 285.62 714.73 294.95 714.65 C 289.64 729.80 283.11 744.50 277.39 759.51 C 269.46 779.17 261.73 798.91 253.74 818.55 C 253.09 820.22 252.57 821.94 252.10 823.69 C 244.01 824.63 235.77 824.32 227.64 823.89 C 213.50 787.37 198.63 751.12 184.40 714.64 Z"/>
    <path fill="#2e3192" opacity="1.00" d=" M 304.82 714.69 C 314.28 714.59 323.73 714.69 333.19 714.67 C 333.03 751.17 333.20 787.66 333.10 824.16 C 323.71 824.26 314.32 824.26 304.93 824.16 C 304.77 787.67 304.98 751.18 304.82 714.69 Z"/>
    <path fill="#2e3192" opacity="1.00" d=" M 438.74 714.64 C 465.04 714.71 491.35 714.49 517.65 714.76 C 517.48 723.69 517.60 732.62 517.58 741.55 C 509.12 741.44 500.66 741.41 492.21 741.58 C 492.23 769.11 492.21 796.65 492.21 824.18 C 482.84 824.25 473.47 824.22 464.10 824.23 C 463.78 796.66 463.98 769.09 463.98 741.52 C 455.58 741.46 447.19 741.42 438.79 741.56 C 438.70 732.58 438.78 723.61 438.74 714.64 Z"/>
    <path fill="#2e3192" opacity="1.00" d=" M 646.90 714.64 C 659.93 714.65 672.96 714.71 685.99 714.63 C 697.23 714.90 709.32 718.18 716.79 727.12 C 726.73 739.25 725.38 757.98 716.01 770.04 C 712.83 774.15 708.24 776.66 704.05 779.57 C 711.41 789.10 718.06 799.16 725.12 808.91 C 728.58 813.98 732.43 818.78 735.47 824.13 C 724.74 824.09 713.94 824.62 703.25 823.90 C 696.57 815.16 690.47 805.95 684.04 797.01 C 681.06 792.70 677.91 788.51 675.28 783.98 C 675.02 797.37 675.25 810.76 675.13 824.15 C 665.73 824.26 656.32 824.25 646.92 824.14 C 646.84 787.64 646.88 751.14 646.90 714.64 M 673.19 735.70 C 673.29 744.86 673.19 754.01 673.27 763.17 C 678.85 763.21 684.71 763.29 689.89 760.90 C 698.18 757.43 699.69 743.94 691.95 739.09 C 686.50 735.29 679.52 735.61 673.19 735.70 Z"/>
    <path fill="#2e3192" opacity="1.00" d=" M 744.46 714.66 C 753.84 714.69 763.23 714.52 772.61 714.75 C 772.46 751.19 772.53 787.64 772.58 824.09 C 763.22 824.39 753.85 824.11 744.49 824.23 C 744.43 787.71 744.50 751.18 744.46 714.66 Z"/>
    <path fill="#2e3192" opacity="1.00" d=" M 826.27 717.07 C 826.77 715.95 827.39 714.34 828.96 714.65 C 835.40 714.57 841.84 714.82 848.29 714.65 C 852.94 723.60 856.22 733.18 860.48 742.32 C 869.82 764.32 879.35 786.23 888.75 808.20 C 891.10 813.46 893.41 818.74 895.37 824.18 C 885.75 824.04 876.09 824.65 866.50 823.84 C 864.16 816.86 860.87 810.28 858.10 803.48 C 845.03 803.51 831.95 803.37 818.88 803.54 C 814.70 809.69 813.43 817.36 809.66 823.76 C 807.85 824.42 805.89 824.16 804.02 824.25 C 796.46 824.16 788.90 824.29 781.34 824.15 C 785.02 814.13 789.57 804.46 793.59 794.57 C 804.41 768.71 815.50 742.95 826.27 717.07 M 825.16 782.40 C 833.85 782.50 842.54 782.43 851.23 782.41 C 846.94 772.04 842.37 761.79 838.00 751.45 C 833.72 761.77 829.03 771.92 825.16 782.40 Z"/>
  </g>
</svg>