<?xml version="1.0" encoding="UTF-8" ?>
<!DOCTYPE svg PUBLIC "-//W3C//DTD SVG 1.1//EN" "http://www.w3.org/Graphics/SVG/1.1/DTD/svg11.dtd">
<svg width="1394pt" height="1132pt" viewBox="0 0 1394 1132" version="1.1" xmlns="http://www.w3.org/2000/svg">
<g id="#063578ff">
<path fill="#063578" opacity="1.00" d=" M 0.00 0.00 L 1394.00 0.00 L 1394.00 1132.00 L 0.00 1132.00 L 0.00 0.00 M 971.58 366.70 C 967.72 370.19 966.09 376.37 968.56 381.13 C 972.95 390.41 977.69 400.35 976.45 410.91 C 975.79 414.08 974.13 416.94 972.66 419.80 C 968.53 427.26 965.95 435.54 964.64 443.95 C 963.75 456.77 965.46 469.85 962.11 482.41 C 956.33 500.89 949.19 518.91 942.62 537.12 C 937.87 549.31 932.86 561.39 928.02 573.54 C 926.73 571.59 925.58 569.56 924.69 567.41 C 919.51 554.70 909.19 544.61 897.36 537.95 C 904.87 529.86 910.49 519.87 912.73 509.03 C 914.27 496.38 914.19 483.06 909.44 471.07 C 903.67 455.24 891.35 442.34 876.67 434.35 C 864.90 427.92 851.27 425.87 838.00 425.81 C 815.00 425.80 792.00 425.85 769.00 425.76 C 766.48 425.71 763.98 426.05 761.50 426.38 C 761.70 465.59 761.55 504.80 761.60 544.00 C 761.51 584.55 761.77 625.11 761.41 665.65 C 766.91 666.42 772.46 666.07 778.00 666.11 C 806.98 666.08 835.97 666.24 864.96 665.83 C 870.11 665.60 875.20 664.54 880.21 663.32 C 885.97 661.89 891.13 658.86 896.68 656.86 C 895.04 659.85 893.64 662.99 892.76 666.30 C 895.97 666.42 899.19 666.35 902.40 666.28 C 921.27 666.36 940.13 666.21 959.00 666.23 C 970.98 666.43 982.93 665.34 994.92 665.79 C 997.68 665.84 1000.46 665.84 1003.24 665.91 C 1005.61 656.69 1006.27 647.14 1008.43 637.88 C 1008.44 632.83 1010.57 628.12 1010.72 623.09 C 1010.88 618.97 1012.86 615.15 1012.70 611.00 C 1012.64 606.86 1015.04 603.16 1014.73 599.00 C 1014.54 594.86 1016.92 591.15 1016.71 587.03 C 1016.59 584.42 1017.00 581.85 1017.88 579.40 C 1019.20 575.98 1018.22 572.20 1019.45 568.76 C 1020.17 566.57 1020.78 564.33 1020.70 562.01 C 1020.59 557.56 1022.66 553.43 1022.72 548.99 C 1022.92 544.92 1024.79 541.12 1024.68 537.01 C 1024.69 532.14 1026.76 527.59 1026.88 522.74 C 1032.37 519.39 1037.01 514.74 1042.84 511.96 C 1042.81 515.77 1040.78 519.16 1040.56 522.94 C 1040.20 527.32 1038.61 531.53 1038.65 535.96 C 1038.59 542.99 1038.56 550.02 1038.67 557.05 C 1041.51 586.01 1054.79 614.00 1075.88 634.13 C 1098.37 657.17 1130.91 669.69 1163.00 668.86 C 1192.32 669.03 1221.25 657.51 1243.15 638.14 C 1251.03 631.94 1257.08 623.89 1262.89 615.80 C 1273.22 601.43 1279.76 584.44 1282.68 567.08 C 1282.60 562.94 1283.65 558.93 1284.44 554.91 C 1284.73 549.09 1284.86 543.20 1284.31 537.40 C 1283.07 532.73 1282.80 527.91 1282.43 523.13 C 1281.11 518.44 1280.19 513.64 1278.78 508.98 C 1275.80 499.10 1271.31 489.71 1265.86 480.96 C 1261.20 473.23 1255.10 466.54 1249.37 459.62 C 1242.74 453.84 1236.19 447.86 1228.74 443.14 C 1209.62 430.61 1186.89 423.33 1163.98 423.37 C 1138.90 422.54 1113.73 430.04 1092.91 443.99 C 1086.77 447.86 1081.61 453.07 1075.53 457.01 C 1073.71 452.04 1076.30 447.02 1075.53 441.97 C 1072.82 437.36 1067.55 434.93 1064.78 430.34 C 1062.57 427.21 1064.25 423.05 1062.48 419.75 C 1059.69 412.49 1049.96 411.43 1047.46 403.96 C 1046.20 399.03 1042.42 394.59 1037.31 393.51 C 1031.66 391.37 1025.24 394.06 1021.29 398.27 C 1017.71 402.01 1014.19 405.80 1010.51 409.44 C 1009.57 409.42 1008.65 409.41 1007.74 409.41 C 1007.18 406.95 1006.57 404.49 1006.52 401.97 C 1006.14 394.09 1002.91 386.67 998.73 380.10 C 995.07 374.32 989.90 369.43 983.75 366.39 C 979.93 364.87 975.27 364.74 971.58 366.70 M 399.77 423.57 C 386.74 452.76 374.28 482.19 361.19 511.35 C 345.92 545.16 331.31 579.26 316.04 613.07 C 308.21 630.67 300.71 648.41 292.68 665.93 C 299.78 666.47 306.89 665.86 314.00 665.91 C 322.19 665.92 330.37 665.95 338.56 665.85 C 344.06 651.34 350.92 637.32 355.69 622.55 C 386.00 621.94 416.34 622.59 446.65 622.22 C 453.00 636.25 458.63 650.61 464.13 664.99 C 466.04 666.47 468.69 666.05 470.97 666.16 C 484.33 665.72 497.71 666.58 511.06 665.81 C 508.27 661.85 506.73 657.23 504.88 652.80 C 495.38 630.86 485.27 609.19 475.68 587.29 C 467.20 567.29 458.28 547.48 449.23 527.73 C 433.97 492.13 417.86 456.91 402.32 421.44 C 400.84 420.92 400.39 422.62 399.77 423.57 M 520.53 421.22 C 520.99 502.85 520.53 584.49 520.88 666.12 C 534.30 666.02 547.74 666.32 561.16 665.89 C 561.01 644.93 561.45 623.96 560.83 603.00 C 560.60 591.32 561.40 579.67 561.19 568.00 C 561.50 559.90 560.13 551.79 561.57 543.74 C 578.11 566.41 594.48 589.21 610.91 611.97 C 618.23 622.62 626.41 632.69 633.27 643.65 C 633.86 643.65 635.03 643.64 635.61 643.64 C 658.72 611.12 682.51 579.06 705.66 546.55 C 706.50 545.46 707.51 544.52 708.54 543.59 C 708.62 584.45 708.36 625.31 708.64 666.16 C 722.04 666.01 735.44 665.96 748.84 665.97 C 748.48 638.65 748.77 611.32 748.68 584.00 C 748.65 529.51 748.71 475.02 748.61 420.53 C 745.80 423.14 743.62 426.32 741.52 429.50 C 715.45 465.50 689.42 501.53 663.41 537.56 C 654.60 550.04 645.24 562.09 636.63 574.70 C 635.91 575.59 635.05 576.32 634.04 576.88 C 602.44 533.21 570.99 489.42 539.31 445.81 C 533.84 437.64 527.40 430.15 522.34 421.72 C 521.89 421.59 520.98 421.35 520.53 421.22 M 151.39 453.29 C 140.91 461.34 133.16 472.24 126.29 483.39 C 118.69 495.44 114.23 509.17 111.15 522.99 C 110.31 530.66 108.22 538.21 108.73 546.00 C 108.21 553.78 110.35 561.32 111.19 568.98 C 115.53 591.68 126.81 612.72 142.01 629.99 C 165.35 654.62 198.96 669.42 233.00 668.87 C 252.59 669.43 272.09 664.28 289.34 655.11 C 289.05 640.05 289.44 624.99 289.31 609.94 C 289.32 608.30 288.86 606.71 288.46 605.15 C 281.19 611.96 273.06 618.00 263.89 621.98 C 256.96 625.12 249.39 626.42 241.93 627.61 C 233.53 627.96 224.96 628.37 216.73 626.27 C 197.55 623.10 179.98 612.31 167.74 597.31 C 160.76 587.97 155.51 577.33 152.66 566.01 C 149.97 557.62 150.52 548.69 150.57 540.01 C 150.48 533.12 152.51 526.48 154.57 519.99 C 158.13 509.17 164.12 499.27 171.71 490.81 C 192.87 467.47 228.11 458.39 258.00 468.17 C 265.96 470.76 273.26 475.04 280.04 479.91 C 283.20 482.21 286.01 484.96 289.30 487.08 C 289.43 470.48 289.12 453.88 289.47 437.28 C 276.33 430.21 261.86 425.54 247.03 423.82 C 238.02 423.25 228.98 423.26 219.97 423.83 C 194.86 426.51 170.52 436.74 151.39 453.29 Z" />
<path fill="#063578" opacity="1.00" d=" M 1148.43 464.75 C 1157.62 463.76 1167.02 463.31 1176.16 465.04 C 1196.75 468.86 1216.05 480.53 1228.25 497.64 C 1235.47 507.11 1240.07 518.38 1242.46 529.99 C 1242.74 537.26 1245.62 544.46 1243.86 551.75 C 1242.74 571.99 1233.38 591.71 1218.53 605.52 C 1204.53 619.08 1185.50 627.48 1165.98 628.15 C 1144.93 629.60 1123.40 622.41 1107.60 608.38 C 1094.41 597.18 1085.17 581.60 1081.15 564.81 C 1080.34 558.53 1078.21 552.41 1078.68 545.99 C 1078.34 539.61 1080.41 533.50 1080.93 527.20 C 1083.39 519.28 1086.20 511.38 1090.41 504.20 C 1102.68 483.34 1124.54 468.57 1148.43 464.75 Z" />
<path fill="#063578" opacity="1.00" d=" M 802.63 466.78 C 816.77 466.69 830.91 466.64 845.05 466.79 C 860.33 467.55 874.36 481.37 873.36 497.00 C 874.27 508.52 866.61 519.63 856.30 524.32 C 849.62 527.20 842.17 527.43 835.00 527.32 C 824.21 527.30 813.42 527.36 802.64 527.26 C 802.61 507.10 802.53 486.94 802.63 466.78 Z" />
<path fill="#063578" opacity="1.00" d=" M 393.41 531.18 C 396.22 524.73 398.20 517.87 402.03 511.92 C 411.29 536.26 421.72 560.15 431.59 584.24 C 411.79 584.47 391.98 584.27 372.18 584.33 C 373.98 578.11 377.14 572.40 379.24 566.28 C 384.34 554.73 388.47 542.79 393.41 531.18 Z" />
<path fill="#063578" opacity="1.00" d=" M 802.68 565.24 C 821.81 565.29 840.94 565.16 860.07 565.26 C 867.44 565.25 874.97 567.45 880.51 572.47 C 887.33 578.16 890.99 587.22 890.64 596.03 C 890.49 607.64 882.76 618.58 872.14 623.07 C 863.86 626.61 854.73 625.25 846.00 625.50 C 831.59 625.67 817.16 625.26 802.76 625.76 C 802.53 605.59 802.59 585.41 802.68 565.24 Z" />
</g>
<g id="#ffffffff">
<path fill="#ffffff" opacity="1.00" d=" M 971.58 366.70 C 975.27 364.74 979.93 364.87 983.75 366.39 C 989.90 369.43 995.07 374.32 998.73 380.10 C 1002.91 386.67 1006.14 394.09 1006.52 401.97 C 1006.57 404.49 1007.18 406.95 1007.74 409.41 C 1008.65 409.41 1009.57 409.42 1010.51 409.44 C 1014.19 405.80 1017.71 402.01 1021.29 398.27 C 1025.24 394.06 1031.66 391.37 1037.31 393.51 C 1042.42 394.59 1046.20 399.03 1047.46 403.96 C 1049.96 411.43 1059.69 412.49 1062.48 419.75 C 1064.25 423.05 1062.57 427.21 1064.78 430.34 C 1067.55 434.93 1072.82 437.36 1075.53 441.97 C 1076.30 447.02 1073.71 452.04 1075.53 457.01 C 1081.61 453.07 1086.77 447.86 1092.91 443.99 C 1113.73 430.04 1138.90 422.54 1163.98 423.37 C 1186.89 423.33 1209.62 430.61 1228.74 443.14 C 1236.19 447.86 1242.74 453.84 1249.37 459.62 C 1255.10 466.54 1261.20 473.23 1265.86 480.96 C 1271.31 489.71 1275.80 499.10 1278.78 508.98 C 1280.19 513.64 1281.11 518.44 1282.43 523.13 C 1282.80 527.91 1283.07 532.73 1284.31 537.40 C 1284.86 543.20 1284.73 549.09 1284.44 554.91 C 1283.65 558.93 1282.60 562.94 1282.68 567.08 C 1279.76 584.44 1273.22 601.43 1262.89 615.80 C 1257.08 623.89 1251.03 631.94 1243.15 638.14 C 1221.25 657.51 1192.32 669.03 1163.00 668.86 C 1130.91 669.69 1098.37 657.17 1075.88 634.13 C 1054.79 614.00 1041.51 586.01 1038.67 557.05 C 1038.56 550.02 1038.59 542.99 1038.65 535.96 C 1038.61 531.53 1040.20 527.32 1040.56 522.94 C 1040.78 519.16 1042.81 515.77 1042.84 511.96 C 1037.01 514.74 1032.37 519.39 1026.88 522.74 C 1026.76 527.59 1024.69 532.14 1024.68 537.01 C 1024.79 541.12 1022.92 544.92 1022.72 548.99 C 1022.66 553.43 1020.59 557.56 1020.70 562.01 C 1020.78 564.33 1020.17 566.57 1019.45 568.76 C 1018.22 572.20 1019.20 575.98 1017.88 579.40 C 1017.00 581.85 1016.59 584.42 1016.71 587.03 C 1016.92 591.15 1014.54 594.86 1014.73 599.00 C 1015.04 603.16 1012.64 606.86 1012.70 611.00 C 1012.86 615.15 1010.88 618.97 1010.72 623.09 C 1010.57 628.12 1008.44 632.83 1008.43 637.88 C 1006.27 647.14 1005.61 656.69 1003.24 665.91 C 1000.46 665.84 997.68 665.84 994.92 665.79 C 998.57 652.76 999.48 639.16 1002.30 625.95 C 1006.35 602.22 1010.00 578.42 1014.13 554.70 C 1015.78 545.59 1017.51 536.46 1017.92 527.20 C 1012.23 528.59 1006.61 530.27 1000.95 531.79 C 1006.10 528.87 1011.52 526.50 1016.77 523.78 C 1022.60 520.80 1027.34 516.17 1032.94 512.82 C 1040.06 508.42 1046.46 502.99 1053.29 498.18 C 1057.33 495.32 1061.02 492.02 1064.51 488.51 C 1067.68 485.37 1071.19 482.09 1072.24 477.57 C 1072.79 474.52 1072.75 471.35 1072.30 468.29 C 1071.30 464.48 1068.44 461.56 1066.63 458.15 C 1063.95 454.00 1068.44 449.31 1066.97 444.87 C 1065.52 439.16 1058.21 437.94 1056.26 432.50 C 1055.01 428.50 1055.66 424.02 1053.61 420.25 C 1050.81 415.17 1044.45 413.34 1041.85 408.10 C 1040.17 405.15 1039.37 401.61 1036.92 399.18 C 1032.96 396.63 1027.36 396.84 1023.60 399.69 C 1018.66 403.39 1015.21 408.68 1010.41 412.53 C 1008.63 414.13 1005.00 414.57 1003.94 411.95 C 1000.95 404.88 1001.82 396.85 999.00 389.72 C 996.73 382.35 991.32 376.28 984.71 372.47 C 982.19 371.00 979.11 371.14 976.34 371.61 C 973.42 372.26 971.81 375.59 972.83 378.36 C 975.16 386.51 979.91 393.92 980.93 402.47 C 982.23 408.60 980.26 414.81 977.35 420.17 C 973.26 427.62 970.90 435.90 969.78 444.30 C 968.84 454.25 970.31 464.33 968.72 474.24 C 967.77 483.02 964.57 491.30 961.89 499.64 C 956.05 516.41 950.47 533.28 944.06 549.84 C 935.54 570.56 929.02 592.00 921.13 612.95 C 917.15 624.18 912.48 635.16 908.72 646.47 C 906.56 653.05 903.21 659.31 902.40 666.28 C 899.19 666.35 895.97 666.42 892.76 666.30 C 893.64 662.99 895.04 659.85 896.68 656.86 C 891.13 658.86 885.97 661.89 880.21 663.32 C 875.20 664.54 870.11 665.60 864.96 665.83 C 835.97 666.24 806.98 666.08 778.00 666.11 C 772.46 666.07 766.91 666.42 761.41 665.65 C 761.77 625.11 761.51 584.55 761.60 544.00 C 761.55 504.80 761.70 465.59 761.50 426.38 C 763.98 426.05 766.48 425.71 769.00 425.76 C 792.00 425.85 815.00 425.80 838.00 425.81 C 851.27 425.87 864.90 427.92 876.67 434.35 C 891.35 442.34 903.67 455.24 909.44 471.07 C 914.19 483.06 914.27 496.38 912.73 509.03 C 910.49 519.87 904.87 529.86 897.36 537.95 C 909.19 544.61 919.51 554.70 924.69 567.41 C 925.58 569.56 926.73 571.59 928.02 573.54 C 932.86 561.39 937.87 549.31 942.62 537.12 C 949.19 518.91 956.33 500.89 962.11 482.41 C 965.46 469.85 963.75 456.77 964.64 443.95 C 965.95 435.54 968.53 427.26 972.66 419.80 C 974.13 416.94 975.79 414.08 976.45 410.91 C 977.69 400.35 972.95 390.41 968.56 381.13 C 966.09 376.37 967.72 370.19 971.58 366.70 M 1148.43 464.75 C 1124.54 468.57 1102.68 483.34 1090.41 504.20 C 1086.20 511.38 1083.39 519.28 1080.93 527.20 C 1080.41 533.50 1078.34 539.61 1078.68 545.99 C 1078.21 552.41 1080.34 558.53 1081.15 564.81 C 1085.17 581.60 1094.41 597.18 1107.60 608.38 C 1123.40 622.41 1144.93 629.60 1165.98 628.15 C 1185.50 627.48 1204.53 619.08 1218.53 605.52 C 1233.38 591.71 1242.74 571.99 1243.86 551.75 C 1245.62 544.46 1242.74 537.26 1242.46 529.99 C 1240.07 518.38 1235.47 507.11 1228.25 497.64 C 1216.05 480.53 1196.75 468.86 1176.16 465.04 C 1167.02 463.31 1157.62 463.76 1148.43 464.75 M 802.63 466.78 C 802.53 486.94 802.61 507.10 802.64 527.26 C 813.42 527.36 824.21 527.30 835.00 527.32 C 842.17 527.43 849.62 527.20 856.30 524.32 C 866.61 519.63 874.27 508.52 873.36 497.00 C 874.36 481.37 860.33 467.55 845.05 466.79 C 830.91 466.64 816.77 466.69 802.63 466.78 M 802.68 565.24 C 802.59 585.41 802.53 605.59 802.76 625.76 C 817.16 625.26 831.59 625.67 846.00 625.50 C 854.73 625.25 863.86 626.61 872.14 623.07 C 882.76 618.58 890.49 607.64 890.64 596.03 C 890.99 587.22 887.33 578.16 880.51 572.47 C 874.97 567.45 867.44 565.25 860.07 565.26 C 840.94 565.16 821.81 565.29 802.68 565.24 Z" />
<path fill="#ffffff" opacity="1.00" d=" M 399.77 423.57 C 400.39 422.62 400.84 420.92 402.32 421.44 C 417.86 456.91 433.97 492.13 449.23 527.73 C 458.28 547.48 467.20 567.29 475.68 587.29 C 485.27 609.19 495.38 630.86 504.88 652.80 C 506.73 657.23 508.27 661.85 511.06 665.81 C 497.71 666.58 484.33 665.72 470.97 666.16 C 468.69 666.05 466.04 666.47 464.13 664.99 C 458.63 650.61 453.00 636.25 446.65 622.22 C 416.34 622.59 386.00 621.94 355.69 622.55 C 350.92 637.32 344.06 651.34 338.56 665.85 C 330.37 665.95 322.19 665.92 314.00 665.91 C 306.89 665.86 299.78 666.47 292.68 665.93 C 300.71 648.41 308.21 630.67 316.04 613.07 C 331.31 579.26 345.92 545.16 361.19 511.35 C 374.28 482.19 386.74 452.76 399.77 423.57 M 393.41 531.18 C 388.47 542.79 384.34 554.73 379.24 566.28 C 377.14 572.40 373.98 578.11 372.18 584.33 C 391.98 584.27 411.79 584.47 431.59 584.24 C 421.72 560.15 411.29 536.26 402.03 511.92 C 398.20 517.87 396.22 524.73 393.41 531.18 Z" />
<path fill="#ffffff" opacity="1.00" d=" M 520.53 421.22 C 520.98 421.35 521.89 421.59 522.34 421.72 C 527.40 430.15 533.84 437.64 539.31 445.81 C 570.99 489.42 602.44 533.21 634.04 576.88 C 635.05 576.32 635.91 575.59 636.63 574.70 C 645.24 562.09 654.60 550.04 663.41 537.56 C 689.42 501.53 715.45 465.50 741.52 429.50 C 743.62 426.32 745.80 423.14 748.61 420.53 C 748.71 475.02 748.65 529.51 748.68 584.00 C 748.77 611.32 748.48 638.65 748.84 665.97 C 735.44 665.96 722.04 666.01 708.64 666.16 C 708.36 625.31 708.62 584.45 708.54 543.59 C 707.51 544.52 706.50 545.46 705.66 546.55 C 682.51 579.06 658.72 611.12 635.61 643.64 C 635.03 643.64 633.86 643.65 633.27 643.65 C 626.41 632.69 618.23 622.62 610.91 611.97 C 594.48 589.21 578.11 566.41 561.57 543.74 C 560.13 551.79 561.50 559.90 561.19 568.00 C 561.40 579.67 560.60 591.32 560.83 603.00 C 561.45 623.96 561.01 644.93 561.16 665.89 C 547.74 666.32 534.30 666.02 520.88 666.12 C 520.53 584.49 520.99 502.85 520.53 421.22 Z" />
<path fill="#ffffff" opacity="1.00" d=" M 151.39 453.29 C 170.52 436.74 194.86 426.51 219.97 423.83 C 228.98 423.26 238.02 423.25 247.03 423.82 C 261.86 425.54 276.33 430.21 289.47 437.28 C 289.12 453.88 289.43 470.48 289.30 487.08 C 286.01 484.96 283.20 482.21 280.04 479.91 C 273.26 475.04 265.96 470.76 258.00 468.17 C 228.11 458.39 192.87 467.47 171.71 490.81 C 164.12 499.27 158.13 509.17 154.57 519.99 C 152.51 526.48 150.48 533.12 150.57 540.01 C 150.52 548.69 149.97 557.62 152.66 566.01 C 155.51 577.33 160.76 587.97 167.74 597.31 C 179.98 612.31 197.55 623.10 216.73 626.27 C 224.96 628.37 233.53 627.96 241.93 627.61 C 249.39 626.42 256.96 625.12 263.89 621.98 C 273.06 618.00 281.19 611.96 288.46 605.15 C 288.86 606.71 289.32 608.30 289.31 609.94 C 289.44 624.99 289.05 640.05 289.34 655.11 C 272.09 664.28 252.59 669.43 233.00 668.87 C 198.96 669.42 165.35 654.62 142.01 629.99 C 126.81 612.72 115.53 591.68 111.19 568.98 C 110.35 561.32 108.21 553.78 108.73 546.00 C 108.22 538.21 110.31 530.66 111.15 522.99 C 114.23 509.17 118.69 495.44 126.29 483.39 C 133.16 472.24 140.91 461.34 151.39 453.29 Z" />
</g>
<g id="#fcd604ff">
<path fill="#fcd604" opacity="1.00" d=" M 972.83 378.36 C 971.81 375.59 973.42 372.26 976.34 371.61 C 979.11 371.14 982.19 371.00 984.71 372.47 C 991.32 376.28 996.73 382.35 999.00 389.72 C 1001.82 396.85 1000.95 404.88 1003.94 411.95 C 1005.00 414.57 1008.63 414.13 1010.41 412.53 C 1015.21 408.68 1018.66 403.39 1023.60 399.69 C 1027.36 396.84 1032.96 396.63 1036.92 399.18 C 1039.37 401.61 1040.17 405.15 1041.85 408.10 C 1044.45 413.34 1050.81 415.17 1053.61 420.25 C 1055.66 424.02 1055.01 428.50 1056.26 432.50 C 1058.21 437.94 1065.52 439.16 1066.97 444.87 C 1068.44 449.31 1063.95 454.00 1066.63 458.15 C 1068.44 461.56 1071.30 464.48 1072.30 468.29 C 1072.75 471.35 1072.79 474.52 1072.24 477.57 C 1071.19 482.09 1067.68 485.37 1064.51 488.51 C 1061.02 492.02 1057.33 495.32 1053.29 498.18 C 1046.46 502.99 1040.06 508.42 1032.94 512.82 C 1027.34 516.17 1022.60 520.80 1016.77 523.78 C 1011.52 526.50 1006.10 528.87 1000.95 531.79 C 1006.61 530.27 1012.23 528.59 1017.92 527.20 C 1017.51 536.46 1015.78 545.59 1014.13 554.70 C 1010.00 578.42 1006.35 602.22 1002.30 625.95 C 999.48 639.16 998.57 652.76 994.92 665.79 C 982.93 665.34 970.98 666.43 959.00 666.23 C 940.13 666.21 921.27 666.36 902.40 666.28 C 903.21 659.31 906.56 653.05 908.72 646.47 C 912.48 635.16 917.15 624.18 921.13 612.95 C 929.02 592.00 935.54 570.56 944.06 549.84 C 950.47 533.28 956.05 516.41 961.89 499.64 C 964.57 491.30 967.77 483.02 968.72 474.24 C 970.31 464.33 968.84 454.25 969.78 444.30 C 970.90 435.90 973.26 427.62 977.35 420.17 C 980.26 414.81 982.23 408.60 980.93 402.47 C 979.91 393.92 975.16 386.51 972.83 378.36 Z" />
</g>
</svg>
