<?xml version="1.0" encoding="UTF-8" ?>
<!DOCTYPE svg PUBLIC "-//W3C//DTD SVG 1.1//EN" "http://www.w3.org/Graphics/SVG/1.1/DTD/svg11.dtd">
<svg width="435pt" height="586pt" viewBox="0 0 435 586" version="1.1" xmlns="http://www.w3.org/2000/svg">
<g id="#022b86ff">
<path fill="#022b86" opacity="1.00" d=" M 0.00 0.00 L 435.00 0.00 L 435.00 586.00 L 0.00 586.00 L 0.00 0.00 M 138.54 4.61 C 136.21 6.68 133.20 7.44 130.18 7.82 C 131.02 12.22 132.33 16.53 132.88 20.99 C 133.56 25.67 132.20 30.29 131.99 34.95 C 131.43 41.28 132.87 47.60 132.15 53.93 C 131.84 58.44 130.54 62.78 129.66 67.19 C 129.63 88.46 123.23 109.28 114.32 128.43 C 107.53 141.37 102.44 155.11 96.30 168.36 C 89.24 178.71 81.24 189.33 79.46 202.08 C 78.66 206.22 81.37 209.67 82.79 213.30 C 85.52 220.35 87.40 227.70 88.96 235.09 C 95.42 267.31 97.03 300.26 98.15 333.02 C 97.71 336.45 96.17 339.61 94.71 342.71 C 90.51 351.08 85.40 358.96 80.05 366.63 C 119.46 366.61 158.88 366.63 198.30 366.62 C 204.07 356.38 211.92 347.52 219.87 338.93 C 224.17 334.17 229.19 330.00 232.68 324.54 C 241.15 312.26 250.48 300.35 256.43 286.57 C 269.44 263.85 282.39 241.09 295.41 218.37 C 297.54 214.64 298.92 210.35 298.54 206.01 C 298.04 199.40 296.86 192.86 295.97 186.29 C 288.83 190.35 281.26 185.55 275.50 181.35 C 271.80 177.92 269.63 173.10 268.58 168.23 C 265.60 170.38 262.20 172.04 259.76 174.85 C 256.88 178.09 254.83 181.94 252.66 185.67 C 249.21 192.00 245.80 198.59 244.84 205.84 C 244.61 207.59 243.29 208.86 242.17 210.11 C 237.05 215.51 233.45 222.19 231.16 229.24 C 230.47 231.90 228.11 233.60 225.90 234.98 C 222.34 236.15 219.02 233.69 216.23 231.80 C 210.20 227.26 202.68 225.64 195.57 223.60 C 186.44 221.23 177.40 218.00 167.87 217.75 C 165.22 217.73 162.76 214.69 164.27 212.20 C 166.62 207.21 169.54 202.44 170.83 197.00 C 171.94 192.06 174.42 186.98 172.77 181.87 C 172.14 179.93 172.21 177.31 174.31 176.29 C 176.82 175.44 179.57 175.27 181.93 173.98 C 186.77 171.61 189.07 166.43 193.04 163.03 C 196.67 159.78 195.91 153.69 200.09 150.94 C 202.90 149.91 205.34 152.42 207.99 153.03 C 213.77 155.39 220.11 151.46 225.83 154.25 C 232.43 158.18 238.14 163.55 245.02 167.02 C 253.36 169.50 263.52 167.06 268.97 160.02 C 270.57 158.12 270.56 155.46 269.54 153.30 C 266.59 146.51 261.79 140.66 256.42 135.63 C 247.83 128.06 238.12 121.30 226.91 118.33 C 220.44 116.35 213.65 116.02 206.93 115.77 C 198.62 113.85 190.61 110.27 182.04 109.60 C 175.85 109.66 172.11 115.26 168.34 119.34 C 151.90 138.34 136.37 158.10 120.68 177.71 C 118.40 180.36 118.22 184.03 117.27 187.25 C 114.98 197.33 112.12 207.43 112.04 217.83 C 111.19 218.02 109.50 218.40 108.65 218.58 C 108.35 208.00 111.34 197.70 113.63 187.46 C 114.83 183.52 114.94 179.02 117.75 175.78 C 131.07 159.11 144.32 142.37 158.04 126.02 C 159.85 123.76 162.27 121.73 162.83 118.74 C 165.58 107.48 167.14 95.75 165.82 84.17 C 165.13 78.01 163.42 72.04 162.49 65.92 C 160.38 53.39 160.87 40.65 160.68 28.00 C 161.27 19.46 157.05 10.87 150.31 5.71 C 147.00 3.41 141.94 1.45 138.54 4.61 M 95.99 37.00 C 93.90 38.05 91.37 39.36 90.82 41.86 C 93.81 46.08 97.35 50.48 97.08 55.99 C 96.76 61.27 97.90 66.58 100.90 70.99 C 106.69 79.52 105.17 90.52 103.27 100.04 C 105.16 102.35 107.19 104.81 107.54 107.89 C 108.49 115.03 110.12 122.07 110.59 129.27 C 117.44 115.31 122.47 100.43 125.17 85.11 C 126.87 75.47 127.21 65.47 125.09 55.87 C 123.46 48.97 120.37 41.91 114.47 37.64 C 109.10 33.75 101.77 34.44 95.99 37.00 M 82.37 103.05 C 81.79 108.49 83.65 113.91 86.84 118.26 C 92.32 132.18 91.65 147.51 95.20 161.91 C 99.76 152.15 103.55 142.04 107.13 131.90 C 107.39 125.14 104.84 118.60 103.83 111.95 C 103.25 108.12 101.34 104.05 97.59 102.45 C 93.98 100.84 90.12 99.21 86.08 99.44 C 84.08 99.42 82.54 101.14 82.37 103.05 M 282.45 151.59 C 279.12 152.50 277.25 155.73 275.33 158.34 C 273.96 160.73 271.58 163.07 272.28 166.08 C 272.98 172.15 276.28 178.27 282.01 180.90 C 285.65 183.35 291.40 185.77 294.84 181.73 C 296.07 178.39 295.40 174.55 295.61 171.01 C 295.16 165.39 295.33 159.41 292.78 154.24 C 290.87 150.44 285.97 150.61 282.45 151.59 M 73.38 377.12 C 71.90 388.03 70.68 398.98 69.26 409.90 C 73.49 409.77 77.78 410.28 81.96 409.46 C 84.85 408.79 86.31 405.80 87.09 403.21 C 88.06 399.59 88.42 395.04 85.17 392.45 C 88.29 389.37 89.47 384.67 88.34 380.46 C 87.88 378.99 86.86 377.38 85.17 377.27 C 81.25 376.95 77.31 377.22 73.38 377.12 M 93.59 377.15 C 92.27 388.08 90.93 399.00 89.53 409.92 C 91.47 409.89 93.41 409.88 95.35 409.86 C 96.71 398.95 97.95 388.03 99.43 377.13 C 97.48 377.13 95.54 377.14 93.59 377.15 M 103.40 377.13 C 102.01 388.05 100.68 398.98 99.33 409.90 C 104.57 409.89 109.82 409.93 115.06 409.87 C 115.32 407.39 115.61 404.93 115.92 402.47 C 112.61 402.45 109.31 402.46 106.02 402.44 C 106.28 400.32 106.55 398.20 106.82 396.09 C 109.77 396.12 112.73 396.11 115.69 396.06 C 116.01 393.82 116.32 391.59 116.60 389.35 C 113.58 389.34 110.57 389.35 107.55 389.35 C 107.81 387.59 108.08 385.84 108.35 384.10 C 111.49 384.11 114.64 384.31 117.77 383.97 C 118.35 381.72 118.50 379.40 118.74 377.10 C 113.62 377.16 108.51 377.14 103.40 377.13 M 121.97 377.20 C 120.89 388.12 119.25 398.98 118.06 409.90 C 119.86 409.89 121.66 409.88 123.47 409.87 C 124.20 403.86 124.87 397.84 125.69 391.83 C 127.21 397.87 128.77 403.90 130.38 409.92 C 132.21 409.89 134.05 409.85 135.89 409.81 C 137.07 398.91 138.57 388.04 139.83 377.15 C 138.04 377.13 136.25 377.13 134.46 377.13 C 133.60 383.14 133.06 389.21 132.14 395.22 C 130.60 389.18 129.07 383.15 127.47 377.13 C 125.64 377.14 123.80 377.16 121.97 377.20 M 143.55 377.15 C 142.14 388.06 140.88 398.99 139.44 409.89 C 144.68 409.92 149.93 409.89 155.17 409.89 C 155.45 407.41 155.74 404.94 155.98 402.46 C 152.72 402.45 149.46 402.45 146.20 402.46 C 146.42 400.38 146.63 398.29 146.81 396.21 C 149.76 396.06 152.72 396.05 155.68 396.14 C 156.13 393.89 156.48 391.62 156.78 389.36 C 153.76 389.34 150.75 389.35 147.74 389.35 C 147.98 387.61 148.21 385.87 148.44 384.13 C 151.66 384.13 154.88 384.13 158.10 384.13 C 158.35 381.79 158.61 379.45 158.85 377.11 C 153.75 377.16 148.65 377.12 143.55 377.15 M 162.23 381.31 C 159.96 385.73 159.51 392.71 164.57 395.39 C 166.35 396.75 169.74 397.17 169.60 400.01 C 169.84 402.31 167.68 404.90 165.28 403.65 C 163.89 402.34 164.27 400.21 163.91 398.53 C 162.08 398.66 160.26 398.80 158.44 398.95 C 158.48 402.02 158.24 405.37 160.00 408.07 C 161.77 410.62 165.30 410.79 168.07 410.21 C 171.80 409.12 173.86 405.36 174.82 401.84 C 175.63 398.57 175.99 394.78 174.12 391.80 C 172.59 389.48 169.80 388.67 167.49 387.41 C 164.90 386.50 166.53 381.93 169.08 382.65 C 170.93 383.20 170.53 385.41 170.97 386.85 C 172.80 386.68 174.63 386.51 176.47 386.35 C 176.29 383.27 176.45 379.37 173.53 377.47 C 169.57 375.15 164.02 377.12 162.23 381.31 M 179.47 377.14 C 179.17 379.84 178.81 382.52 178.48 385.22 C 180.44 385.22 182.42 385.22 184.39 385.23 C 183.27 393.45 182.31 401.68 181.28 409.91 C 183.22 409.89 185.15 409.88 187.09 409.86 C 187.99 401.65 189.11 393.46 190.06 385.26 C 192.05 385.23 194.04 385.21 196.03 385.20 C 196.29 382.50 196.57 379.82 196.92 377.14 C 191.10 377.14 185.29 377.13 179.47 377.14 M 191.70 409.91 C 193.70 409.88 195.71 409.87 197.72 409.84 C 198.19 408.06 198.66 406.29 199.12 404.52 C 201.31 404.50 203.50 404.49 205.68 404.49 C 205.74 406.27 205.81 408.07 205.88 409.87 C 207.89 409.88 209.91 409.89 211.93 409.88 C 211.07 398.97 209.94 388.09 209.11 377.18 C 207.01 377.14 204.92 377.12 202.83 377.10 C 199.00 387.99 195.48 399.00 191.70 409.91 M 213.75 409.89 C 215.68 409.89 217.61 409.89 219.55 409.89 C 220.28 405.24 220.23 400.43 221.75 395.93 C 224.91 399.82 224.20 405.28 225.53 409.89 C 227.68 409.89 229.84 409.89 231.99 409.88 C 230.95 405.04 231.20 399.65 228.28 395.44 C 232.74 392.73 234.02 387.00 233.53 382.14 C 233.34 380.06 232.17 377.60 229.85 377.35 C 225.85 376.89 221.81 377.22 217.79 377.14 C 216.50 388.07 215.12 398.98 213.75 409.89 M 246.45 377.14 C 245.08 388.06 243.77 398.98 242.36 409.90 C 244.17 409.89 245.97 409.90 247.78 409.90 C 248.63 404.13 248.99 398.29 250.12 392.58 C 251.80 398.31 253.16 404.13 254.73 409.90 C 256.54 409.89 258.35 409.89 260.16 409.90 C 261.51 398.98 262.83 388.06 264.24 377.15 C 262.42 377.14 260.60 377.14 258.79 377.14 C 258.00 383.15 257.42 389.20 256.43 395.19 C 255.03 389.15 253.37 383.18 251.86 377.18 C 250.05 377.15 248.25 377.14 246.45 377.14 M 261.70 409.89 C 263.68 409.88 265.66 409.88 267.64 409.87 C 268.16 408.07 268.67 406.28 269.19 404.49 C 271.36 404.49 273.54 404.49 275.72 404.50 C 275.76 406.27 275.80 408.04 275.85 409.82 C 277.85 409.88 279.84 409.94 281.84 410.03 C 281.20 399.06 279.86 388.14 279.13 377.17 C 277.02 377.14 274.91 377.13 272.81 377.10 C 269.01 388.00 265.48 398.99 261.70 409.89 M 289.64 379.55 C 286.26 383.54 285.12 388.87 284.51 393.94 C 284.09 398.50 283.87 403.49 286.30 407.58 C 288.24 410.95 293.24 411.29 296.27 409.29 C 299.58 406.91 300.85 402.83 301.99 399.11 C 300.42 398.24 298.86 397.36 297.30 396.48 C 296.40 398.55 296.14 401.49 293.87 402.59 C 292.15 403.52 290.25 401.93 290.22 400.16 C 289.88 395.90 290.21 391.50 291.68 387.47 C 292.35 385.74 293.85 383.64 296.00 384.26 C 297.77 384.95 297.54 387.25 298.15 388.71 C 299.93 388.01 301.72 387.32 303.51 386.61 C 302.80 383.58 302.68 379.94 300.09 377.80 C 296.89 375.37 292.08 376.59 289.64 379.55 M 307.57 377.16 C 306.20 388.15 304.82 399.15 303.50 410.15 C 305.38 410.07 307.27 410.03 309.15 409.82 C 310.88 398.98 311.77 388.02 313.40 377.16 C 311.46 377.15 309.51 377.15 307.57 377.16 M 322.43 377.51 C 317.25 380.57 315.62 386.96 314.72 392.51 C 314.14 397.50 313.66 403.07 316.39 407.56 C 318.76 411.27 324.46 411.33 327.58 408.56 C 331.63 405.03 332.96 399.49 333.73 394.40 C 334.39 389.55 334.82 384.18 332.28 379.78 C 330.39 376.40 325.65 375.65 322.43 377.51 M 334.70 409.77 C 336.56 409.90 338.42 409.93 340.29 409.88 C 340.96 403.87 341.65 397.86 342.56 391.88 C 343.93 397.89 345.64 403.83 347.09 409.83 C 348.91 409.86 350.74 409.89 352.57 409.93 C 353.99 399.00 355.29 388.06 356.63 377.12 C 354.85 377.12 353.07 377.12 351.29 377.11 C 350.43 383.07 349.76 389.07 349.05 395.05 C 347.26 389.11 345.92 383.06 344.22 377.10 C 342.42 377.12 340.64 377.14 338.86 377.17 C 337.45 388.03 336.36 398.94 334.70 409.77 M 365.13 377.19 C 361.57 388.19 357.70 399.08 354.18 410.09 C 356.14 409.98 358.12 409.90 360.09 409.83 C 360.59 408.04 361.11 406.26 361.63 404.48 C 363.82 404.49 366.01 404.50 368.21 404.52 C 368.24 406.31 368.29 408.10 368.35 409.90 C 370.38 409.89 372.40 409.89 374.44 409.89 C 373.36 398.98 372.47 388.05 371.50 377.13 C 369.38 377.14 367.25 377.15 365.13 377.19 M 380.19 377.13 C 378.80 388.05 377.47 398.97 376.11 409.89 C 381.01 409.90 385.91 409.91 390.81 409.89 C 391.18 407.18 391.50 404.48 391.81 401.77 C 388.86 401.77 385.91 401.78 382.96 401.76 C 383.79 393.54 384.96 385.36 385.92 377.16 C 384.01 377.14 382.10 377.13 380.19 377.13 M 66.65 413.44 C 59.82 450.95 53.07 488.47 46.21 525.97 C 72.52 526.08 98.83 525.93 125.14 526.04 C 136.44 516.56 142.16 501.04 140.30 486.49 C 139.30 478.40 132.83 471.77 124.99 469.95 C 139.17 465.03 146.87 449.40 146.34 435.05 C 145.99 428.53 143.34 421.81 138.01 417.79 C 133.45 414.35 127.56 413.42 121.98 413.44 C 103.53 413.44 85.09 413.45 66.65 413.44 M 164.32 413.42 C 157.41 450.92 150.75 488.47 143.83 525.97 C 153.77 526.04 163.71 526.00 173.65 526.00 C 180.48 488.49 187.35 450.98 194.04 413.45 C 184.13 413.42 174.22 413.47 164.32 413.42 M 207.31 413.42 C 200.41 450.91 193.73 488.45 186.83 525.95 C 213.90 526.05 240.97 526.03 268.04 525.96 C 269.12 519.54 270.32 513.14 271.52 506.74 C 254.39 506.75 237.27 506.75 220.14 506.74 C 221.61 498.85 223.03 490.96 224.44 483.06 C 239.89 483.11 255.35 483.08 270.79 482.91 C 272.22 474.72 273.73 466.54 275.22 458.37 C 259.79 458.37 244.36 458.39 228.93 458.36 C 230.13 451.98 231.20 445.57 232.45 439.20 C 249.06 439.26 265.67 439.20 282.28 439.23 C 283.86 430.63 285.42 422.04 286.97 413.45 C 260.42 413.42 233.86 413.48 207.31 413.42 M 296.56 413.43 C 289.72 450.95 282.91 488.47 276.14 526.01 C 285.46 526.01 294.78 526.00 304.11 526.01 C 307.63 506.65 311.04 487.26 314.70 467.93 C 321.65 487.31 328.70 506.66 335.74 526.01 C 346.54 526.00 357.35 526.01 368.16 526.01 C 374.96 488.47 381.75 450.94 388.60 413.41 C 379.24 413.46 369.89 413.44 360.54 413.43 C 356.45 435.63 352.59 457.87 348.36 480.04 C 340.39 457.82 332.32 435.64 324.32 413.43 C 315.07 413.44 305.81 413.46 296.56 413.43 M 6.58 534.67 C 6.51 549.94 6.56 565.21 6.56 580.47 C 146.64 580.53 286.72 580.47 426.80 580.50 C 426.82 565.22 426.88 549.94 426.77 534.66 C 286.71 534.70 146.65 534.67 6.58 534.67 Z" />
<path fill="#022b86" opacity="1.00" d=" M 78.38 383.69 C 79.37 383.70 81.35 383.72 82.35 383.73 C 82.78 385.48 83.13 387.46 82.09 389.09 C 80.86 390.26 79.02 389.71 77.49 389.90 C 77.77 387.82 78.07 385.76 78.38 383.69 Z" />
<path fill="#022b86" opacity="1.00" d=" M 222.79 383.59 C 224.57 383.79 228.02 383.21 227.65 386.06 C 228.22 389.53 224.77 390.88 221.92 390.56 C 222.24 388.24 222.52 385.91 222.79 383.59 Z" />
<path fill="#022b86" opacity="1.00" d=" M 324.37 384.43 C 326.65 383.52 328.23 385.96 328.32 387.96 C 328.61 391.70 328.01 395.49 326.93 399.07 C 326.36 401.08 324.53 403.56 322.13 402.71 C 319.46 401.23 320.20 397.56 320.20 395.03 C 320.68 391.36 320.82 386.54 324.37 384.43 Z" />
<path fill="#022b86" opacity="1.00" d=" M 201.27 397.40 C 202.46 393.48 203.59 389.53 204.96 385.67 C 204.94 389.58 205.18 393.49 205.43 397.39 C 204.04 397.39 202.65 397.39 201.27 397.40 Z" />
<path fill="#022b86" opacity="1.00" d=" M 274.89 385.84 C 275.16 389.69 275.15 393.55 275.40 397.40 C 274.37 397.40 272.31 397.39 271.28 397.39 C 272.46 393.53 273.55 389.64 274.89 385.84 Z" />
<path fill="#022b86" opacity="1.00" d=" M 363.67 397.39 C 364.96 393.58 365.90 389.67 367.22 385.88 C 367.52 389.71 367.58 393.56 367.78 397.41 C 366.41 397.39 365.04 397.39 363.67 397.39 Z" />
<path fill="#022b86" opacity="1.00" d=" M 76.74 396.21 C 78.27 396.27 79.84 396.18 81.35 396.56 C 82.38 398.29 82.17 400.95 80.64 402.36 C 79.26 403.14 77.55 402.72 76.03 402.93 C 76.24 400.68 76.49 398.44 76.74 396.21 Z" />
<path fill="#022b86" opacity="1.00" d=" M 92.31 437.98 C 97.82 437.77 103.41 437.56 108.90 438.17 C 112.14 438.38 115.25 440.71 115.63 444.06 C 116.47 450.51 113.47 458.68 106.44 460.19 C 100.38 461.27 94.18 460.53 88.07 460.72 C 89.55 453.15 90.65 445.51 92.31 437.98 Z" />
<path fill="#022b86" opacity="1.00" d=" M 79.45 508.22 C 80.94 500.05 82.44 491.89 83.88 483.72 C 89.94 483.80 96.02 483.50 102.07 483.87 C 105.63 484.10 109.66 485.72 110.66 489.51 C 112.64 496.90 108.10 506.26 100.13 507.61 C 93.31 508.83 86.33 507.94 79.45 508.22 Z" />
<path fill="#022b86" opacity="1.00" d=" M 84.60 542.67 C 86.50 542.68 88.40 542.69 90.31 542.70 C 89.97 544.24 89.65 545.80 89.35 547.37 C 87.47 547.36 85.59 547.37 83.72 547.38 C 84.02 545.80 84.31 544.24 84.60 542.67 Z" />
<path fill="#022b86" opacity="1.00" d=" M 195.93 542.75 C 197.87 542.71 199.81 542.68 201.76 542.65 C 201.56 544.20 201.37 545.76 201.19 547.32 C 199.32 547.33 197.44 547.34 195.56 547.36 C 195.69 545.82 195.81 544.28 195.93 542.75 Z" />
<path fill="#022b86" opacity="1.00" d=" M 259.34 542.65 C 261.31 542.68 263.29 542.70 265.27 542.71 C 263.45 550.83 262.77 559.15 261.36 567.35 C 259.65 567.34 257.95 567.35 256.25 567.37 C 256.31 566.75 256.42 565.51 256.48 564.90 C 254.49 567.07 251.57 568.49 248.64 567.27 C 246.09 565.36 246.11 561.75 246.31 558.89 C 246.54 554.88 248.52 550.03 252.92 549.22 C 254.91 548.65 256.67 549.95 258.29 550.90 C 258.50 548.13 258.86 545.38 259.34 542.65 M 251.45 560.30 C 252.26 561.03 252.36 563.27 253.87 562.72 C 256.70 562.57 256.77 558.97 257.44 556.93 C 257.15 556.30 256.56 555.03 256.27 554.39 C 255.64 554.35 254.38 554.25 253.75 554.21 C 252.50 556.03 251.94 558.17 251.45 560.30 Z" />
<path fill="#022b86" opacity="1.00" d=" M 34.63 542.67 C 37.46 542.69 40.29 542.70 43.12 542.71 C 43.38 547.60 43.11 552.55 44.02 557.39 C 46.07 552.56 47.56 547.52 49.52 542.66 C 52.27 542.70 55.02 542.70 57.77 542.68 C 56.59 550.90 55.14 559.08 54.20 567.34 C 52.48 567.33 50.77 567.34 49.06 567.35 C 49.67 561.43 51.05 555.61 51.48 549.68 C 48.87 555.37 47.02 561.38 44.97 567.28 C 43.40 567.32 41.83 567.35 40.25 567.39 C 39.36 561.53 39.90 555.57 38.96 549.73 C 37.64 555.53 36.80 561.43 36.16 567.34 C 34.44 567.33 32.72 567.34 30.99 567.35 C 32.21 559.12 33.31 550.88 34.63 542.67 Z" />
<path fill="#022b86" opacity="1.00" d=" M 184.81 542.70 C 186.71 542.69 188.60 542.68 190.50 542.68 C 189.30 550.88 187.79 559.04 187.05 567.30 C 185.09 567.33 183.13 567.34 181.18 567.37 C 182.42 559.15 183.58 550.92 184.81 542.70 Z" />
<path fill="#022b86" opacity="1.00" d=" M 217.39 542.67 C 219.23 542.68 221.07 542.69 222.91 542.70 C 221.85 550.94 220.55 559.13 219.37 567.35 C 217.62 567.34 215.88 567.35 214.14 567.36 C 214.23 566.74 214.40 565.51 214.48 564.89 C 212.42 567.23 209.05 568.69 206.13 566.95 C 203.78 564.24 204.08 560.38 204.51 557.08 C 205.10 553.63 207.21 549.84 210.95 549.23 C 212.90 548.65 214.66 549.90 216.22 550.88 C 216.48 548.12 216.88 545.39 217.39 542.67 M 210.65 562.59 C 214.97 563.59 216.11 557.14 214.40 554.22 C 209.98 553.39 208.62 559.68 210.65 562.59 Z" />
<path fill="#022b86" opacity="1.00" d=" M 290.43 550.94 C 290.83 548.18 291.32 545.44 291.71 542.68 C 293.61 542.68 295.53 542.68 297.44 542.68 C 296.03 550.86 294.89 559.10 293.84 567.34 C 292.07 567.34 290.31 567.35 288.55 567.37 C 288.55 566.80 288.56 565.65 288.57 565.08 C 286.51 567.78 281.64 569.04 279.67 565.61 C 277.31 560.59 278.58 553.58 283.04 550.08 C 285.39 548.36 288.38 549.19 290.43 550.94 M 286.31 554.38 C 284.02 556.17 283.78 559.65 284.72 562.21 C 289.49 565.32 292.11 552.94 286.31 554.38 Z" />
<path fill="#022b86" opacity="1.00" d=" M 353.78 547.36 C 354.13 545.78 354.46 544.21 354.77 542.64 C 356.89 542.99 359.73 541.79 361.04 544.21 C 359.42 544.27 357.80 544.30 356.19 544.36 L 356.24 545.02 C 356.44 545.22 356.84 545.64 357.04 545.84 C 357.76 545.74 359.20 545.53 359.92 545.43 L 359.73 547.31 C 357.74 547.32 355.76 547.34 353.78 547.36 Z" />
<path fill="#022b86" opacity="1.00" d=" M 374.47 550.89 C 374.86 548.15 375.35 545.42 375.74 542.68 C 377.65 542.68 379.55 542.67 381.47 542.67 C 380.32 550.88 378.71 559.02 378.02 567.29 C 376.21 567.32 374.40 567.35 372.60 567.40 C 372.61 566.80 372.61 565.60 372.62 565.00 C 370.95 567.16 368.23 568.31 365.55 567.39 C 362.40 565.43 362.29 561.18 362.81 557.90 C 363.49 554.37 365.17 550.13 369.08 549.26 C 371.08 548.55 372.87 549.90 374.47 550.89 M 370.31 554.38 C 367.79 556.33 368.28 559.71 368.47 562.50 C 373.69 564.98 376.12 553.14 370.31 554.38 Z" />
<path fill="#022b86" opacity="1.00" d=" M 407.77 542.69 C 409.80 542.69 411.83 542.69 413.87 542.69 C 413.25 548.43 411.55 553.94 410.18 559.52 C 409.27 559.53 407.44 559.54 406.53 559.55 C 406.58 553.90 406.88 548.26 407.77 542.69 Z" />
<path fill="#022b86" opacity="1.00" d=" M 21.87 549.66 C 23.84 549.61 25.81 549.58 27.77 549.54 C 27.48 551.50 27.21 553.46 26.93 555.43 C 25.06 555.41 23.19 555.42 21.33 555.43 C 21.52 553.50 21.71 551.58 21.87 549.66 Z" />
<path fill="#022b86" opacity="1.00" d=" M 61.73 553.85 C 64.08 549.22 70.40 547.96 74.81 550.15 C 78.15 552.32 77.59 556.80 77.33 560.23 C 73.28 560.21 69.22 560.12 65.17 560.39 C 65.70 561.51 66.22 562.62 66.75 563.75 C 68.40 563.81 69.92 563.29 71.24 562.32 C 73.10 562.46 74.96 562.62 76.82 562.83 C 73.98 567.42 68.08 568.80 63.19 567.03 C 58.94 564.18 59.63 557.84 61.73 553.85 M 65.90 556.64 C 67.92 556.73 69.94 556.77 71.97 556.80 C 71.81 555.66 71.66 554.52 71.50 553.38 C 68.74 552.41 67.01 554.39 65.90 556.64 Z" />
<path fill="#022b86" opacity="1.00" d=" M 99.38 549.58 C 102.78 548.59 107.51 549.03 109.12 552.68 C 110.99 557.97 108.95 565.02 103.41 567.18 C 99.95 568.20 95.40 568.00 93.45 564.45 C 90.88 559.12 93.63 551.53 99.38 549.58 M 100.01 563.68 C 104.36 562.45 106.07 555.72 102.00 553.15 C 98.16 554.98 96.56 560.74 100.01 563.68 Z" />
<path fill="#022b86" opacity="1.00" d=" M 120.63 552.14 C 121.92 549.46 124.80 548.47 127.48 549.77 C 126.69 551.34 125.88 552.92 125.06 554.49 C 123.44 554.20 121.59 554.44 120.91 556.20 C 119.43 559.75 119.47 563.67 118.69 567.40 C 116.85 567.36 115.00 567.34 113.16 567.33 C 113.79 561.38 114.98 555.51 115.70 549.57 C 117.39 549.58 119.09 549.58 120.79 549.59 C 120.75 550.23 120.67 551.50 120.63 552.14 Z" />
<path fill="#022b86" opacity="1.00" d=" M 140.93 566.06 C 137.35 560.08 140.26 550.07 147.85 549.25 C 152.01 548.23 156.92 550.53 157.01 555.24 C 155.27 555.44 153.54 555.66 151.82 555.91 C 151.23 555.09 150.64 554.27 150.06 553.46 C 145.40 553.65 144.71 558.82 145.32 562.45 C 147.63 564.11 149.98 562.86 151.21 560.59 C 153.01 560.68 154.81 560.80 156.61 560.94 C 155.42 563.54 153.70 566.15 150.92 567.22 C 147.59 568.10 143.93 567.83 140.93 566.06 Z" />
<path fill="#022b86" opacity="1.00" d=" M 161.21 554.31 C 162.75 551.91 164.72 549.30 167.87 549.30 C 170.97 549.20 175.71 548.35 177.21 551.94 C 178.01 557.11 175.75 562.18 176.27 567.38 C 174.46 567.35 172.66 567.33 170.86 567.32 C 170.82 566.82 170.76 565.84 170.72 565.35 C 168.32 567.61 164.85 568.22 161.73 567.26 C 159.07 565.50 159.85 562.26 160.75 559.75 C 163.85 556.98 168.20 557.05 171.89 555.53 C 171.85 554.94 171.76 553.75 171.72 553.15 C 169.54 552.87 167.77 553.93 166.11 555.18 C 164.46 554.96 162.84 554.63 161.21 554.31 M 165.79 560.95 C 165.70 561.82 165.61 562.71 165.52 563.60 C 167.02 563.60 168.78 564.13 170.03 563.02 C 170.76 561.80 171.24 560.46 171.78 559.16 C 169.69 559.39 167.70 560.07 165.79 560.95 Z" />
<path fill="#022b86" opacity="1.00" d=" M 226.13 554.38 C 228.33 548.18 236.43 548.07 241.48 550.58 C 243.64 556.08 239.94 561.75 241.22 567.34 C 239.37 567.34 237.52 567.35 235.68 567.38 C 235.63 566.86 235.52 565.83 235.47 565.31 C 232.56 568.00 227.39 568.88 224.60 565.59 C 224.51 562.98 224.65 559.73 227.32 558.38 C 230.36 557.01 233.78 556.73 236.86 555.42 C 236.78 554.87 236.63 553.77 236.55 553.21 C 235.34 553.26 234.12 553.32 232.92 553.40 C 231.79 556.48 228.42 554.52 226.13 554.38 M 230.20 563.67 C 231.55 563.65 232.95 563.87 234.26 563.43 C 235.59 562.34 235.70 560.56 236.06 559.02 C 233.52 559.66 229.90 560.25 230.20 563.67 Z" />
<path fill="#022b86" opacity="1.00" d=" M 300.84 565.33 C 297.36 559.55 300.82 550.05 307.95 549.23 C 310.59 548.95 313.82 549.11 315.56 551.44 C 317.47 553.97 317.22 557.33 316.60 560.27 C 312.71 560.19 308.82 560.16 304.94 560.29 C 305.32 561.41 305.31 562.87 306.43 563.60 C 307.64 564.07 308.79 563.27 309.89 562.87 C 311.81 561.90 314.02 562.73 316.06 562.74 C 314.27 564.93 312.25 567.58 309.12 567.56 C 306.28 567.73 302.61 568.09 300.84 565.33 M 305.43 556.76 C 307.52 556.76 309.61 556.74 311.71 556.69 C 311.39 555.52 311.06 554.37 310.73 553.22 C 308.03 552.60 306.19 554.32 305.43 556.76 Z" />
<path fill="#022b86" opacity="1.00" d=" M 344.04 549.69 C 346.01 549.62 347.98 549.58 349.95 549.54 C 346.99 555.48 343.90 561.36 341.03 567.35 C 339.30 567.33 337.57 567.33 335.85 567.33 C 334.92 561.37 333.48 555.50 332.36 549.57 C 334.33 549.57 336.30 549.58 338.28 549.58 C 338.53 553.36 339.07 557.11 339.76 560.85 C 341.09 557.09 342.71 553.45 344.04 549.69 Z" />
<path fill="#022b86" opacity="1.00" d=" M 353.65 549.56 C 355.56 549.57 357.47 549.58 359.39 549.59 C 358.29 555.48 357.58 561.44 356.67 567.37 C 354.79 567.34 352.92 567.33 351.05 567.32 C 351.89 561.40 352.79 555.48 353.65 549.56 Z" />
<path fill="#022b86" opacity="1.00" d=" M 388.51 549.84 C 391.69 548.93 395.16 548.87 398.36 549.75 C 400.90 550.73 400.58 553.77 400.49 556.00 C 400.11 559.80 399.06 563.54 399.31 567.39 C 397.50 567.35 395.70 567.32 393.91 567.29 C 393.85 566.81 393.75 565.86 393.70 565.38 C 391.23 567.92 386.32 568.83 383.71 566.13 C 382.68 563.85 382.87 560.72 384.91 559.05 C 387.66 556.49 392.17 557.52 394.98 555.12 C 395.59 552.51 393.00 553.33 391.38 553.28 C 391.01 553.78 390.26 554.78 389.89 555.29 C 388.03 554.94 386.16 554.60 384.31 554.28 C 385.58 552.71 386.60 550.72 388.51 549.84 M 389.31 560.63 C 389.23 561.72 389.17 562.81 389.11 563.91 C 390.41 563.64 392.00 563.96 393.09 563.04 C 393.88 561.83 394.35 560.46 394.90 559.15 C 392.98 559.40 391.11 559.91 389.31 560.63 Z" />
<path fill="#022b86" opacity="1.00" d=" M 83.48 549.55 C 85.42 549.56 87.37 549.58 89.31 549.59 C 87.50 557.02 87.60 564.87 85.20 572.15 C 83.52 575.50 79.45 574.35 76.47 574.30 C 76.94 572.68 77.43 571.07 77.89 569.45 C 78.46 569.41 79.59 569.33 80.16 569.29 C 81.98 562.85 82.35 556.12 83.48 549.55 Z" />
<path fill="#022b86" opacity="1.00" d=" M 194.98 549.65 C 196.90 549.60 198.83 549.57 200.76 549.54 C 199.95 555.48 199.06 561.41 198.21 567.35 C 196.31 567.34 194.40 567.34 192.50 567.36 C 193.46 561.47 194.45 555.58 194.98 549.65 Z" />
<path fill="#022b86" opacity="1.00" d=" M 18.31 574.27 C 18.79 568.50 20.62 563.00 21.87 557.38 C 22.80 557.36 24.66 557.31 25.58 557.29 C 25.35 562.96 25.43 568.69 24.25 574.28 C 22.27 574.26 20.29 574.26 18.31 574.27 Z" />
<path fill="#022b86" opacity="1.00" d=" M 405.36 561.35 C 407.16 561.39 408.97 561.42 410.79 561.45 C 410.54 563.40 410.32 565.35 410.12 567.31 C 408.21 567.33 406.31 567.35 404.41 567.38 C 404.66 565.35 404.96 563.34 405.36 561.35 Z" />
</g>
<g id="#feb619ff">
<path fill="#feb619" opacity="1.00" d=" M 138.54 4.61 C 141.94 1.45 147.00 3.41 150.31 5.71 C 157.05 10.87 161.27 19.46 160.68 28.00 C 160.87 40.65 160.38 53.39 162.49 65.92 C 163.42 72.04 165.13 78.01 165.82 84.17 C 167.14 95.75 165.58 107.48 162.83 118.74 C 162.27 121.73 159.85 123.76 158.04 126.02 C 144.32 142.37 131.07 159.11 117.75 175.78 C 114.94 179.02 114.83 183.52 113.63 187.46 C 111.34 197.70 108.35 208.00 108.65 218.58 C 109.50 218.40 111.19 218.02 112.04 217.83 C 112.12 207.43 114.98 197.33 117.27 187.25 C 118.22 184.03 118.40 180.36 120.68 177.71 C 136.37 158.10 151.90 138.34 168.34 119.34 C 172.11 115.26 175.85 109.66 182.04 109.60 C 190.61 110.27 198.62 113.85 206.93 115.77 C 213.65 116.02 220.44 116.35 226.91 118.33 C 238.12 121.30 247.83 128.06 256.42 135.63 C 261.79 140.66 266.59 146.51 269.54 153.30 C 270.56 155.46 270.57 158.12 268.97 160.02 C 263.52 167.06 253.36 169.50 245.02 167.02 C 238.14 163.55 232.43 158.18 225.83 154.25 C 220.11 151.46 213.77 155.39 207.99 153.03 C 205.34 152.42 202.90 149.91 200.09 150.94 C 195.91 153.69 196.67 159.78 193.04 163.03 C 189.07 166.43 186.77 171.61 181.93 173.98 C 179.57 175.27 176.82 175.44 174.31 176.29 C 172.21 177.31 172.14 179.93 172.77 181.87 C 174.42 186.98 171.94 192.06 170.83 197.00 C 169.54 202.44 166.62 207.21 164.27 212.20 C 162.76 214.69 165.22 217.73 167.87 217.75 C 177.40 218.00 186.44 221.23 195.57 223.60 C 202.68 225.64 210.20 227.26 216.23 231.80 C 219.02 233.69 222.34 236.15 225.90 234.98 C 228.11 233.60 230.47 231.90 231.16 229.24 C 233.45 222.19 237.05 215.51 242.17 210.11 C 243.29 208.86 244.61 207.59 244.84 205.84 C 245.80 198.59 249.21 192.00 252.66 185.67 C 254.83 181.94 256.88 178.09 259.76 174.85 C 262.20 172.04 265.60 170.38 268.58 168.23 C 269.63 173.10 271.80 177.92 275.50 181.35 C 281.26 185.55 288.83 190.35 295.97 186.29 C 296.86 192.86 298.04 199.40 298.54 206.01 C 298.92 210.35 297.54 214.64 295.41 218.37 C 282.39 241.09 269.44 263.85 256.43 286.57 C 250.48 300.35 241.15 312.26 232.68 324.54 C 229.19 330.00 224.17 334.17 219.87 338.93 C 211.92 347.52 204.07 356.38 198.30 366.62 C 158.88 366.63 119.46 366.61 80.05 366.63 C 85.40 358.96 90.51 351.08 94.71 342.71 C 96.17 339.61 97.71 336.45 98.15 333.02 C 97.03 300.26 95.42 267.31 88.96 235.09 C 87.40 227.70 85.52 220.35 82.79 213.30 C 81.37 209.67 78.66 206.22 79.46 202.08 C 81.24 189.33 89.24 178.71 96.30 168.36 C 102.44 155.11 107.53 141.37 114.32 128.43 C 123.23 109.28 129.63 88.46 129.66 67.19 C 130.54 62.78 131.84 58.44 132.15 53.93 C 132.87 47.60 131.43 41.28 131.99 34.95 C 132.20 30.29 133.56 25.67 132.88 20.99 C 132.33 16.53 131.02 12.22 130.18 7.82 C 133.20 7.44 136.21 6.68 138.54 4.61 Z" />
<path fill="#feb619" opacity="1.00" d=" M 95.99 37.00 C 101.77 34.44 109.10 33.75 114.47 37.64 C 120.37 41.91 123.46 48.97 125.09 55.87 C 127.21 65.47 126.87 75.47 125.17 85.11 C 122.47 100.43 117.44 115.31 110.59 129.27 C 110.12 122.07 108.49 115.03 107.54 107.89 C 107.19 104.81 105.16 102.35 103.27 100.04 C 105.17 90.52 106.69 79.52 100.90 70.99 C 97.90 66.58 96.76 61.27 97.08 55.99 C 97.35 50.48 93.81 46.08 90.82 41.86 C 91.37 39.36 93.90 38.05 95.99 37.00 Z" />
<path fill="#feb619" opacity="1.00" d=" M 82.37 103.05 C 82.54 101.14 84.08 99.42 86.08 99.44 C 90.12 99.21 93.98 100.84 97.59 102.45 C 101.34 104.05 103.25 108.12 103.83 111.95 C 104.84 118.60 107.39 125.14 107.13 131.90 C 103.55 142.04 99.76 152.15 95.20 161.91 C 91.65 147.51 92.32 132.18 86.84 118.26 C 83.65 113.91 81.79 108.49 82.37 103.05 Z" />
<path fill="#feb619" opacity="1.00" d=" M 282.45 151.59 C 285.97 150.61 290.87 150.44 292.78 154.24 C 295.33 159.41 295.16 165.39 295.61 171.01 C 295.40 174.55 296.07 178.39 294.84 181.73 C 291.40 185.77 285.65 183.35 282.01 180.90 C 276.28 178.27 272.98 172.15 272.28 166.08 C 271.58 163.07 273.96 160.73 275.33 158.34 C 277.25 155.73 279.12 152.50 282.45 151.59 Z" />
</g>
<g id="#fffffeff">
<path fill="#fffffe" opacity="1.00" d=" M 73.38 377.12 C 77.31 377.22 81.25 376.95 85.17 377.27 C 86.86 377.38 87.88 378.99 88.34 380.46 C 89.47 384.67 88.29 389.37 85.17 392.45 C 88.42 395.04 88.06 399.59 87.09 403.21 C 86.31 405.80 84.85 408.79 81.96 409.46 C 77.78 410.28 73.49 409.77 69.26 409.90 C 70.68 398.98 71.90 388.03 73.38 377.12 M 78.38 383.69 C 78.07 385.76 77.77 387.82 77.49 389.90 C 79.02 389.71 80.86 390.26 82.09 389.09 C 83.13 387.46 82.78 385.48 82.35 383.73 C 81.35 383.72 79.37 383.70 78.38 383.69 M 76.74 396.21 C 76.49 398.44 76.24 400.68 76.03 402.93 C 77.55 402.72 79.26 403.14 80.64 402.36 C 82.17 400.95 82.38 398.29 81.35 396.56 C 79.84 396.18 78.27 396.27 76.74 396.21 Z" />
<path fill="#fffffe" opacity="1.00" d=" M 93.59 377.15 C 95.54 377.14 97.48 377.13 99.43 377.13 C 97.95 388.03 96.71 398.95 95.35 409.86 C 93.41 409.88 91.47 409.89 89.53 409.92 C 90.93 399.00 92.27 388.08 93.59 377.15 Z" />
<path fill="#fffffe" opacity="1.00" d=" M 103.40 377.13 C 108.51 377.14 113.62 377.16 118.74 377.10 C 118.50 379.40 118.35 381.72 117.77 383.97 C 114.64 384.31 111.49 384.11 108.35 384.10 C 108.08 385.84 107.81 387.59 107.55 389.35 C 110.57 389.35 113.58 389.34 116.60 389.35 C 116.32 391.59 116.01 393.82 115.69 396.06 C 112.73 396.11 109.77 396.12 106.82 396.09 C 106.55 398.20 106.28 400.32 106.02 402.44 C 109.31 402.46 112.61 402.45 115.92 402.47 C 115.61 404.93 115.32 407.39 115.06 409.87 C 109.82 409.93 104.57 409.89 99.33 409.90 C 100.68 398.98 102.01 388.05 103.40 377.13 Z" />
<path fill="#fffffe" opacity="1.00" d=" M 121.97 377.20 C 123.80 377.16 125.64 377.14 127.47 377.13 C 129.07 383.15 130.60 389.18 132.14 395.22 C 133.06 389.21 133.60 383.14 134.46 377.13 C 136.25 377.13 138.04 377.13 139.83 377.15 C 138.57 388.04 137.07 398.91 135.89 409.81 C 134.05 409.85 132.21 409.89 130.38 409.92 C 128.77 403.90 127.21 397.87 125.69 391.83 C 124.87 397.84 124.20 403.86 123.47 409.87 C 121.66 409.88 119.86 409.89 118.06 409.90 C 119.25 398.98 120.89 388.12 121.97 377.20 Z" />
<path fill="#fffffe" opacity="1.00" d=" M 143.55 377.15 C 148.65 377.12 153.75 377.16 158.85 377.11 C 158.61 379.45 158.35 381.79 158.10 384.13 C 154.88 384.13 151.66 384.13 148.44 384.13 C 148.21 385.87 147.98 387.61 147.74 389.35 C 150.75 389.35 153.76 389.34 156.78 389.36 C 156.48 391.62 156.13 393.89 155.68 396.14 C 152.72 396.05 149.76 396.06 146.81 396.21 C 146.63 398.29 146.42 400.38 146.20 402.46 C 149.46 402.45 152.72 402.45 155.98 402.46 C 155.74 404.94 155.45 407.41 155.17 409.89 C 149.93 409.89 144.68 409.92 139.44 409.89 C 140.88 398.99 142.14 388.06 143.55 377.15 Z" />
<path fill="#fffffe" opacity="1.00" d=" M 162.23 381.31 C 164.02 377.12 169.57 375.15 173.53 377.47 C 176.45 379.37 176.29 383.27 176.47 386.35 C 174.63 386.51 172.80 386.68 170.97 386.85 C 170.53 385.41 170.93 383.20 169.08 382.65 C 166.53 381.93 164.90 386.50 167.49 387.41 C 169.80 388.67 172.59 389.48 174.12 391.80 C 175.99 394.78 175.63 398.57 174.82 401.84 C 173.86 405.36 171.80 409.12 168.07 410.21 C 165.30 410.79 161.77 410.62 160.00 408.07 C 158.24 405.37 158.48 402.02 158.44 398.95 C 160.26 398.80 162.08 398.66 163.91 398.53 C 164.27 400.21 163.89 402.34 165.28 403.65 C 167.68 404.90 169.84 402.31 169.60 400.01 C 169.74 397.17 166.35 396.75 164.57 395.39 C 159.51 392.71 159.96 385.73 162.23 381.31 Z" />
<path fill="#fffffe" opacity="1.00" d=" M 179.47 377.14 C 185.29 377.13 191.10 377.14 196.92 377.14 C 196.57 379.82 196.29 382.50 196.03 385.20 C 194.04 385.21 192.05 385.23 190.06 385.26 C 189.11 393.46 187.99 401.65 187.09 409.86 C 185.15 409.88 183.22 409.89 181.28 409.91 C 182.31 401.68 183.27 393.45 184.39 385.23 C 182.42 385.22 180.44 385.22 178.48 385.22 C 178.81 382.52 179.17 379.84 179.47 377.14 Z" />
<path fill="#fffffe" opacity="1.00" d=" M 191.70 409.91 C 195.48 399.00 199.00 387.99 202.83 377.10 C 204.92 377.12 207.01 377.14 209.11 377.18 C 209.94 388.09 211.07 398.97 211.93 409.88 C 209.91 409.89 207.89 409.88 205.88 409.87 C 205.81 408.07 205.74 406.27 205.68 404.49 C 203.50 404.49 201.31 404.50 199.12 404.52 C 198.66 406.29 198.19 408.06 197.72 409.84 C 195.71 409.87 193.70 409.88 191.70 409.91 M 201.27 397.40 C 202.65 397.39 204.04 397.39 205.43 397.39 C 205.18 393.49 204.94 389.58 204.96 385.67 C 203.59 389.53 202.46 393.48 201.27 397.40 Z" />
<path fill="#fffffe" opacity="1.00" d=" M 213.75 409.89 C 215.12 398.98 216.50 388.07 217.79 377.14 C 221.81 377.22 225.85 376.89 229.85 377.35 C 232.17 377.60 233.34 380.06 233.53 382.14 C 234.02 387.00 232.74 392.73 228.28 395.44 C 231.20 399.65 230.95 405.04 231.99 409.88 C 229.84 409.89 227.68 409.89 225.53 409.89 C 224.20 405.28 224.91 399.82 221.75 395.93 C 220.23 400.43 220.28 405.24 219.55 409.89 C 217.61 409.89 215.68 409.89 213.75 409.89 M 222.79 383.59 C 222.52 385.91 222.24 388.24 221.92 390.56 C 224.77 390.88 228.22 389.53 227.65 386.06 C 228.02 383.21 224.57 383.79 222.79 383.59 Z" />
<path fill="#fffffe" opacity="1.00" d=" M 246.45 377.14 C 248.25 377.14 250.05 377.15 251.86 377.18 C 253.37 383.18 255.03 389.15 256.43 395.19 C 257.42 389.20 258.00 383.15 258.79 377.14 C 260.60 377.14 262.42 377.14 264.24 377.15 C 262.83 388.06 261.51 398.98 260.16 409.90 C 258.35 409.89 256.54 409.89 254.73 409.90 C 253.16 404.13 251.80 398.31 250.12 392.58 C 248.99 398.29 248.63 404.13 247.78 409.90 C 245.97 409.90 244.17 409.89 242.36 409.90 C 243.77 398.98 245.08 388.06 246.45 377.14 Z" />
<path fill="#fffffe" opacity="1.00" d=" M 261.70 409.89 C 265.48 398.99 269.01 388.00 272.81 377.10 C 274.91 377.13 277.02 377.14 279.13 377.17 C 279.86 388.14 281.20 399.06 281.84 410.03 C 279.84 409.94 277.85 409.88 275.85 409.82 C 275.80 408.04 275.76 406.27 275.72 404.50 C 273.54 404.49 271.36 404.49 269.19 404.49 C 268.67 406.28 268.16 408.07 267.64 409.87 C 265.66 409.88 263.68 409.88 261.70 409.89 M 274.89 385.84 C 273.55 389.64 272.46 393.53 271.28 397.39 C 272.31 397.39 274.37 397.40 275.40 397.40 C 275.15 393.55 275.16 389.69 274.89 385.84 Z" />
<path fill="#fffffe" opacity="1.00" d=" M 289.64 379.55 C 292.08 376.59 296.89 375.37 300.09 377.80 C 302.68 379.94 302.80 383.58 303.51 386.61 C 301.72 387.32 299.93 388.01 298.15 388.71 C 297.54 387.25 297.77 384.95 296.00 384.26 C 293.85 383.64 292.35 385.74 291.68 387.47 C 290.21 391.50 289.88 395.90 290.22 400.16 C 290.25 401.93 292.15 403.52 293.87 402.59 C 296.14 401.49 296.40 398.55 297.30 396.48 C 298.86 397.36 300.42 398.24 301.99 399.11 C 300.85 402.83 299.58 406.91 296.27 409.29 C 293.24 411.29 288.24 410.95 286.30 407.58 C 283.87 403.49 284.09 398.50 284.51 393.94 C 285.12 388.87 286.26 383.54 289.64 379.55 Z" />
<path fill="#fffffe" opacity="1.00" d=" M 307.57 377.16 C 309.51 377.15 311.46 377.15 313.40 377.16 C 311.77 388.02 310.88 398.98 309.15 409.82 C 307.27 410.03 305.38 410.07 303.50 410.15 C 304.82 399.15 306.20 388.15 307.57 377.16 Z" />
<path fill="#fffffe" opacity="1.00" d=" M 322.43 377.51 C 325.65 375.65 330.39 376.40 332.28 379.78 C 334.82 384.18 334.39 389.55 333.73 394.40 C 332.96 399.49 331.63 405.03 327.58 408.56 C 324.46 411.33 318.76 411.27 316.39 407.56 C 313.66 403.07 314.14 397.50 314.72 392.51 C 315.62 386.96 317.25 380.57 322.43 377.51 M 324.37 384.43 C 320.82 386.54 320.68 391.36 320.20 395.03 C 320.20 397.56 319.46 401.23 322.13 402.71 C 324.53 403.56 326.36 401.08 326.93 399.07 C 328.01 395.49 328.61 391.70 328.32 387.96 C 328.23 385.96 326.65 383.52 324.37 384.43 Z" />
<path fill="#fffffe" opacity="1.00" d=" M 334.70 409.77 C 336.36 398.94 337.45 388.03 338.86 377.17 C 340.64 377.14 342.42 377.12 344.22 377.10 C 345.92 383.06 347.26 389.11 349.05 395.05 C 349.76 389.07 350.43 383.07 351.29 377.11 C 353.07 377.12 354.85 377.12 356.63 377.12 C 355.29 388.06 353.99 399.00 352.57 409.93 C 350.74 409.89 348.91 409.86 347.09 409.83 C 345.64 403.83 343.93 397.89 342.56 391.88 C 341.65 397.86 340.96 403.87 340.29 409.88 C 338.42 409.93 336.56 409.90 334.70 409.77 Z" />
<path fill="#fffffe" opacity="1.00" d=" M 365.13 377.19 C 367.25 377.15 369.38 377.14 371.50 377.13 C 372.47 388.05 373.36 398.98 374.44 409.89 C 372.40 409.89 370.38 409.89 368.35 409.90 C 368.29 408.10 368.24 406.31 368.21 404.52 C 366.01 404.50 363.82 404.49 361.63 404.48 C 361.11 406.26 360.59 408.04 360.09 409.83 C 358.12 409.90 356.14 409.98 354.18 410.09 C 357.70 399.08 361.57 388.19 365.13 377.19 M 363.67 397.39 C 365.04 397.39 366.41 397.39 367.78 397.41 C 367.58 393.56 367.52 389.71 367.22 385.88 C 365.90 389.67 364.96 393.58 363.67 397.39 Z" />
<path fill="#fffffe" opacity="1.00" d=" M 380.19 377.13 C 382.10 377.13 384.01 377.14 385.92 377.16 C 384.96 385.36 383.79 393.54 382.96 401.76 C 385.91 401.78 388.86 401.77 391.81 401.77 C 391.50 404.48 391.18 407.18 390.81 409.89 C 385.91 409.91 381.01 409.90 376.11 409.89 C 377.47 398.97 378.80 388.05 380.19 377.13 Z" />
<path fill="#fffffe" opacity="1.00" d=" M 66.65 413.44 C 85.09 413.45 103.53 413.44 121.98 413.44 C 127.56 413.42 133.45 414.35 138.01 417.79 C 143.34 421.81 145.99 428.53 146.34 435.05 C 146.87 449.40 139.17 465.03 124.99 469.95 C 132.83 471.77 139.30 478.40 140.30 486.49 C 142.16 501.04 136.44 516.56 125.14 526.04 C 98.83 525.93 72.52 526.08 46.21 525.97 C 53.07 488.47 59.82 450.95 66.65 413.44 M 92.31 437.98 C 90.65 445.51 89.55 453.15 88.07 460.72 C 94.18 460.53 100.38 461.27 106.44 460.19 C 113.47 458.68 116.47 450.51 115.63 444.06 C 115.25 440.71 112.14 438.38 108.90 438.17 C 103.41 437.56 97.82 437.77 92.31 437.98 M 79.45 508.22 C 86.33 507.94 93.31 508.83 100.13 507.61 C 108.10 506.26 112.64 496.90 110.66 489.51 C 109.66 485.72 105.63 484.10 102.07 483.87 C 96.02 483.50 89.94 483.80 83.88 483.72 C 82.44 491.89 80.94 500.05 79.45 508.22 Z" />
<path fill="#fffffe" opacity="1.00" d=" M 164.32 413.42 C 174.22 413.47 184.13 413.42 194.04 413.45 C 187.35 450.98 180.48 488.49 173.65 526.00 C 163.71 526.00 153.77 526.04 143.83 525.97 C 150.75 488.47 157.41 450.92 164.32 413.42 Z" />
<path fill="#fffffe" opacity="1.00" d=" M 207.31 413.42 C 233.86 413.48 260.42 413.42 286.97 413.45 C 285.42 422.04 283.86 430.63 282.28 439.23 C 265.67 439.20 249.06 439.26 232.45 439.20 C 231.20 445.57 230.13 451.98 228.93 458.36 C 244.36 458.39 259.79 458.37 275.22 458.37 C 273.73 466.54 272.22 474.72 270.79 482.91 C 255.35 483.08 239.89 483.11 224.44 483.06 C 223.03 490.96 221.61 498.85 220.14 506.74 C 237.27 506.75 254.39 506.75 271.52 506.74 C 270.32 513.14 269.12 519.54 268.04 525.96 C 240.97 526.03 213.90 526.05 186.83 525.95 C 193.73 488.45 200.41 450.91 207.31 413.42 Z" />
<path fill="#fffffe" opacity="1.00" d=" M 296.56 413.43 C 305.81 413.46 315.07 413.44 324.32 413.43 C 332.32 435.64 340.39 457.82 348.36 480.04 C 352.59 457.87 356.45 435.63 360.54 413.43 C 369.89 413.44 379.24 413.46 388.60 413.41 C 381.75 450.94 374.96 488.47 368.16 526.01 C 357.35 526.01 346.54 526.00 335.74 526.01 C 328.70 506.66 321.65 487.31 314.70 467.93 C 311.04 487.26 307.63 506.65 304.11 526.01 C 294.78 526.00 285.46 526.01 276.14 526.01 C 282.91 488.47 289.72 450.95 296.56 413.43 Z" />
<path fill="#fffffe" opacity="1.00" d=" M 6.58 534.67 C 146.65 534.67 286.71 534.70 426.77 534.66 C 426.88 549.94 426.82 565.22 426.80 580.50 C 286.72 580.47 146.64 580.53 6.56 580.47 C 6.56 565.21 6.51 549.94 6.58 534.67 M 84.60 542.67 C 84.31 544.24 84.02 545.80 83.72 547.38 C 85.59 547.37 87.47 547.36 89.35 547.37 C 89.65 545.80 89.97 544.24 90.31 542.70 C 88.40 542.69 86.50 542.68 84.60 542.67 M 195.93 542.75 C 195.81 544.28 195.69 545.82 195.56 547.36 C 197.44 547.34 199.32 547.33 201.19 547.32 C 201.37 545.76 201.56 544.20 201.76 542.65 C 199.81 542.68 197.87 542.71 195.93 542.75 M 259.34 542.65 C 258.86 545.38 258.50 548.13 258.29 550.90 C 256.67 549.95 254.91 548.65 252.92 549.22 C 248.52 550.03 246.54 554.88 246.31 558.89 C 246.11 561.75 246.09 565.36 248.64 567.27 C 251.57 568.49 254.49 567.07 256.48 564.90 C 256.42 565.51 256.31 566.75 256.25 567.37 C 257.95 567.35 259.65 567.34 261.36 567.35 C 262.77 559.15 263.45 550.83 265.27 542.71 C 263.29 542.70 261.31 542.68 259.34 542.65 M 34.63 542.67 C 33.31 550.88 32.21 559.12 30.99 567.35 C 32.72 567.34 34.44 567.33 36.16 567.34 C 36.80 561.43 37.64 555.53 38.96 549.73 C 39.90 555.57 39.36 561.53 40.25 567.39 C 41.83 567.35 43.40 567.32 44.97 567.28 C 47.02 561.38 48.87 555.37 51.48 549.68 C 51.05 555.61 49.67 561.43 49.06 567.35 C 50.77 567.34 52.48 567.33 54.20 567.34 C 55.14 559.08 56.59 550.90 57.77 542.68 C 55.02 542.70 52.27 542.70 49.52 542.66 C 47.56 547.52 46.07 552.56 44.02 557.39 C 43.11 552.55 43.38 547.60 43.12 542.71 C 40.29 542.70 37.46 542.69 34.63 542.67 M 184.81 542.70 C 183.58 550.92 182.42 559.15 181.18 567.37 C 183.13 567.34 185.09 567.33 187.05 567.30 C 187.79 559.04 189.30 550.88 190.50 542.68 C 188.60 542.68 186.71 542.69 184.81 542.70 M 217.39 542.67 C 216.88 545.39 216.48 548.12 216.22 550.88 C 214.66 549.90 212.90 548.65 210.95 549.23 C 207.21 549.84 205.10 553.63 204.51 557.08 C 204.08 560.38 203.78 564.24 206.13 566.95 C 209.05 568.69 212.42 567.23 214.48 564.89 C 214.40 565.51 214.23 566.74 214.14 567.36 C 215.88 567.35 217.62 567.34 219.37 567.35 C 220.55 559.13 221.85 550.94 222.91 542.70 C 221.07 542.69 219.23 542.68 217.39 542.67 M 290.43 550.94 C 288.38 549.19 285.39 548.36 283.04 550.08 C 278.58 553.58 277.31 560.59 279.67 565.61 C 281.64 569.04 286.51 567.78 288.57 565.08 C 288.56 565.65 288.55 566.80 288.55 567.37 C 290.31 567.35 292.07 567.34 293.84 567.34 C 294.89 559.10 296.03 550.86 297.44 542.68 C 295.53 542.68 293.61 542.68 291.71 542.68 C 291.32 545.44 290.83 548.18 290.43 550.94 M 353.78 547.36 C 355.76 547.34 357.74 547.32 359.73 547.31 L 359.92 545.43 C 359.20 545.53 357.76 545.74 357.04 545.84 C 356.84 545.64 356.44 545.22 356.24 545.02 L 356.19 544.36 C 357.80 544.30 359.42 544.27 361.04 544.21 C 359.73 541.79 356.89 542.99 354.77 542.64 C 354.46 544.21 354.13 545.78 353.78 547.36 M 374.47 550.89 C 372.87 549.90 371.08 548.55 369.08 549.26 C 365.17 550.13 363.49 554.37 362.81 557.90 C 362.29 561.18 362.40 565.43 365.55 567.39 C 368.23 568.31 370.95 567.16 372.62 565.00 C 372.61 565.60 372.61 566.80 372.60 567.40 C 374.40 567.35 376.21 567.32 378.02 567.29 C 378.71 559.02 380.32 550.88 381.47 542.67 C 379.55 542.67 377.65 542.68 375.74 542.68 C 375.35 545.42 374.86 548.15 374.47 550.89 M 407.77 542.69 C 406.88 548.26 406.58 553.90 406.53 559.55 C 407.44 559.54 409.27 559.53 410.18 559.52 C 411.55 553.94 413.25 548.43 413.87 542.69 C 411.83 542.69 409.80 542.69 407.77 542.69 M 21.87 549.66 C 21.71 551.58 21.52 553.50 21.33 555.43 C 23.19 555.42 25.06 555.41 26.93 555.43 C 27.21 553.46 27.48 551.50 27.77 549.54 C 25.81 549.58 23.84 549.61 21.87 549.66 M 61.73 553.85 C 59.63 557.84 58.94 564.18 63.19 567.03 C 68.08 568.80 73.98 567.42 76.82 562.83 C 74.96 562.62 73.10 562.46 71.24 562.32 C 69.92 563.29 68.40 563.81 66.75 563.75 C 66.22 562.62 65.70 561.51 65.17 560.39 C 69.22 560.12 73.28 560.21 77.33 560.23 C 77.59 556.80 78.15 552.32 74.81 550.15 C 70.40 547.96 64.08 549.22 61.73 553.85 M 99.38 549.58 C 93.63 551.53 90.88 559.12 93.45 564.45 C 95.40 568.00 99.95 568.20 103.41 567.18 C 108.95 565.02 110.99 557.97 109.12 552.68 C 107.51 549.03 102.78 548.59 99.38 549.58 M 120.63 552.14 C 120.67 551.50 120.75 550.23 120.79 549.59 C 119.09 549.58 117.39 549.58 115.70 549.57 C 114.98 555.51 113.79 561.38 113.16 567.33 C 115.00 567.34 116.85 567.36 118.69 567.40 C 119.47 563.67 119.43 559.75 120.91 556.20 C 121.59 554.44 123.44 554.20 125.06 554.49 C 125.88 552.92 126.69 551.34 127.48 549.77 C 124.80 548.47 121.92 549.46 120.63 552.14 M 140.93 566.06 C 143.93 567.83 147.59 568.10 150.92 567.22 C 153.70 566.15 155.42 563.54 156.61 560.94 C 154.81 560.80 153.01 560.68 151.21 560.59 C 149.98 562.86 147.63 564.11 145.32 562.45 C 144.71 558.82 145.40 553.65 150.06 553.46 C 150.64 554.27 151.23 555.09 151.82 555.91 C 153.54 555.66 155.27 555.44 157.01 555.24 C 156.92 550.53 152.01 548.23 147.85 549.25 C 140.26 550.07 137.35 560.08 140.93 566.06 M 161.21 554.31 C 162.84 554.63 164.46 554.96 166.11 555.18 C 167.77 553.93 169.54 552.87 171.72 553.15 C 171.76 553.75 171.85 554.94 171.89 555.53 C 168.20 557.05 163.85 556.98 160.75 559.75 C 159.85 562.26 159.07 565.50 161.73 567.26 C 164.85 568.22 168.32 567.61 170.72 565.35 C 170.76 565.84 170.82 566.82 170.86 567.32 C 172.66 567.33 174.46 567.35 176.27 567.38 C 175.75 562.18 178.01 557.11 177.21 551.94 C 175.71 548.35 170.97 549.20 167.87 549.30 C 164.72 549.30 162.75 551.91 161.21 554.31 M 226.13 554.38 C 228.42 554.52 231.79 556.48 232.92 553.40 C 234.12 553.32 235.34 553.26 236.55 553.21 C 236.63 553.77 236.78 554.87 236.86 555.42 C 233.78 556.73 230.36 557.01 227.32 558.38 C 224.65 559.73 224.51 562.98 224.60 565.59 C 227.39 568.88 232.56 568.00 235.47 565.31 C 235.52 565.83 235.63 566.86 235.68 567.38 C 237.52 567.35 239.37 567.34 241.22 567.34 C 239.94 561.75 243.64 556.08 241.48 550.58 C 236.43 548.07 228.33 548.18 226.13 554.38 M 300.84 565.33 C 302.61 568.09 306.28 567.73 309.12 567.56 C 312.25 567.58 314.27 564.93 316.06 562.74 C 314.02 562.73 311.81 561.90 309.89 562.87 C 308.79 563.27 307.64 564.07 306.43 563.60 C 305.31 562.87 305.32 561.41 304.94 560.29 C 308.82 560.16 312.71 560.19 316.60 560.27 C 317.22 557.33 317.47 553.97 315.56 551.44 C 313.82 549.11 310.59 548.95 307.95 549.23 C 300.82 550.05 297.36 559.55 300.84 565.33 M 344.04 549.69 C 342.71 553.45 341.09 557.09 339.76 560.85 C 339.07 557.11 338.53 553.36 338.28 549.58 C 336.30 549.58 334.33 549.57 332.36 549.57 C 333.48 555.50 334.92 561.37 335.85 567.33 C 337.57 567.33 339.30 567.33 341.03 567.35 C 343.90 561.36 346.99 555.48 349.95 549.54 C 347.98 549.58 346.01 549.62 344.04 549.69 M 353.65 549.56 C 352.79 555.48 351.89 561.40 351.05 567.32 C 352.92 567.33 354.79 567.34 356.67 567.37 C 357.58 561.44 358.29 555.48 359.39 549.59 C 357.47 549.58 355.56 549.57 353.65 549.56 M 388.51 549.84 C 386.60 550.72 385.58 552.71 384.31 554.28 C 386.16 554.60 388.03 554.94 389.89 555.29 C 390.26 554.78 391.01 553.78 391.38 553.28 C 393.00 553.33 395.59 552.51 394.98 555.12 C 392.17 557.52 387.66 556.49 384.91 559.05 C 382.87 560.72 382.68 563.85 383.71 566.13 C 386.32 568.83 391.23 567.92 393.70 565.38 C 393.75 565.86 393.85 566.81 393.91 567.29 C 395.70 567.32 397.50 567.35 399.31 567.39 C 399.06 563.54 400.11 559.80 400.49 556.00 C 400.58 553.77 400.90 550.73 398.36 549.75 C 395.16 548.87 391.69 548.93 388.51 549.84 M 83.48 549.55 C 82.35 556.12 81.98 562.85 80.16 569.29 C 79.59 569.33 78.46 569.41 77.89 569.45 C 77.43 571.07 76.94 572.68 76.47 574.30 C 79.45 574.35 83.52 575.50 85.20 572.15 C 87.60 564.87 87.50 557.02 89.31 549.59 C 87.37 549.58 85.42 549.56 83.48 549.55 M 194.98 549.65 C 194.45 555.58 193.46 561.47 192.50 567.36 C 194.40 567.34 196.31 567.34 198.21 567.35 C 199.06 561.41 199.95 555.48 200.76 549.54 C 198.83 549.57 196.90 549.60 194.98 549.65 M 18.31 574.27 C 20.29 574.26 22.27 574.26 24.25 574.28 C 25.43 568.69 25.35 562.96 25.58 557.29 C 24.66 557.31 22.80 557.36 21.87 557.38 C 20.62 563.00 18.79 568.50 18.31 574.27 M 405.36 561.35 C 404.96 563.34 404.66 565.35 404.41 567.38 C 406.31 567.35 408.21 567.33 410.12 567.31 C 410.32 565.35 410.54 563.40 410.79 561.45 C 408.97 561.42 407.16 561.39 405.36 561.35 Z" />
<path fill="#fffffe" opacity="1.00" d=" M 65.90 556.64 C 67.01 554.39 68.74 552.41 71.50 553.38 C 71.66 554.52 71.81 555.66 71.97 556.80 C 69.94 556.77 67.92 556.73 65.90 556.64 Z" />
<path fill="#fffffe" opacity="1.00" d=" M 305.43 556.76 C 306.19 554.32 308.03 552.60 310.73 553.22 C 311.06 554.37 311.39 555.52 311.71 556.69 C 309.61 556.74 307.52 556.76 305.43 556.76 Z" />
<path fill="#fffffe" opacity="1.00" d=" M 100.01 563.68 C 96.56 560.74 98.16 554.98 102.00 553.15 C 106.07 555.72 104.36 562.45 100.01 563.68 Z" />
<path fill="#fffffe" opacity="1.00" d=" M 210.65 562.59 C 208.62 559.68 209.98 553.39 214.40 554.22 C 216.11 557.14 214.97 563.59 210.65 562.59 Z" />
<path fill="#fffffe" opacity="1.00" d=" M 251.45 560.30 C 251.94 558.17 252.50 556.03 253.75 554.21 C 254.38 554.25 255.64 554.35 256.27 554.39 C 256.56 555.03 257.15 556.30 257.44 556.93 C 256.77 558.97 256.70 562.57 253.87 562.72 C 252.36 563.27 252.26 561.03 251.45 560.30 Z" />
<path fill="#fffffe" opacity="1.00" d=" M 286.31 554.38 C 292.11 552.94 289.49 565.32 284.72 562.21 C 283.78 559.65 284.02 556.17 286.31 554.38 Z" />
<path fill="#fffffe" opacity="1.00" d=" M 370.31 554.38 C 376.12 553.14 373.69 564.98 368.47 562.50 C 368.28 559.71 367.79 556.33 370.31 554.38 Z" />
<path fill="#fffffe" opacity="1.00" d=" M 165.79 560.95 C 167.70 560.07 169.69 559.39 171.78 559.16 C 171.24 560.46 170.76 561.80 170.03 563.02 C 168.78 564.13 167.02 563.60 165.52 563.60 C 165.61 562.71 165.70 561.82 165.79 560.95 Z" />
<path fill="#fffffe" opacity="1.00" d=" M 230.20 563.67 C 229.90 560.25 233.52 559.66 236.06 559.02 C 235.70 560.56 235.59 562.34 234.26 563.43 C 232.95 563.87 231.55 563.65 230.20 563.67 Z" />
<path fill="#fffffe" opacity="1.00" d=" M 389.31 560.63 C 391.11 559.91 392.98 559.40 394.90 559.15 C 394.35 560.46 393.88 561.83 393.09 563.04 C 392.00 563.96 390.41 563.64 389.11 563.91 C 389.17 562.81 389.23 561.72 389.31 560.63 Z" />
</g>
</svg>
