<?xml version="1.0" encoding="UTF-8" ?>
<!DOCTYPE svg PUBLIC "-//W3C//DTD SVG 1.1//EN" "http://www.w3.org/Graphics/SVG/1.1/DTD/svg11.dtd">
<svg width="600pt" height="600pt" viewBox="0 0 600 600" version="1.1" xmlns="http://www.w3.org/2000/svg">
<g id="#ffffffff">
</g>
<g id="#165ea8ff">
<path fill="#165ea8" opacity="1.00" d=" M 282.88 72.69 C 287.13 68.92 293.29 67.89 298.66 69.47 C 303.97 71.38 307.80 76.12 309.57 81.35 C 313.04 91.55 315.67 102.01 318.70 112.34 C 327.17 143.41 335.61 174.48 344.46 205.45 C 348.24 218.44 352.52 231.34 358.38 243.57 C 362.27 251.94 366.63 260.23 368.57 269.33 C 371.70 283.34 370.24 298.17 365.52 311.67 C 360.78 326.53 354.30 340.76 349.34 355.54 C 348.62 357.98 347.82 360.52 348.17 363.10 C 352.43 381.26 357.83 399.13 362.77 417.12 C 361.46 417.82 360.16 418.53 358.87 419.25 C 353.91 400.49 348.44 381.86 343.52 363.09 C 336.68 365.80 329.82 368.49 322.90 370.99 C 323.18 368.97 325.32 368.56 326.82 367.74 C 331.91 365.52 336.39 362.20 340.65 358.69 C 342.15 357.44 343.52 355.98 344.34 354.18 C 353.93 333.13 363.01 311.36 365.55 288.16 C 366.84 279.45 364.51 270.71 361.23 262.71 C 354.10 245.35 345.44 228.66 337.20 211.83 C 329.11 205.55 319.67 201.04 311.11 195.35 C 311.25 200.82 311.02 206.92 307.33 211.31 C 303.82 215.38 297.74 215.98 292.96 214.05 C 284.77 211.65 278.99 203.09 279.91 194.59 C 281.65 197.30 282.01 200.63 283.71 203.36 C 286.39 208.18 291.62 211.17 296.98 211.95 C 302.44 212.44 308.40 208.62 309.27 203.00 C 309.93 200.27 310.77 196.74 308.06 194.81 C 300.65 188.41 291.12 183.02 280.99 184.14 C 275.99 185.01 274.37 190.72 275.27 195.11 C 277.15 206.15 282.66 216.51 290.39 224.57 C 295.33 229.80 301.83 233.20 308.50 235.66 C 310.34 238.12 310.74 241.35 311.86 244.18 C 313.96 250.36 317.54 256.24 317.54 262.96 C 318.04 269.61 315.06 275.92 311.16 281.12 C 306.69 287.07 302.53 293.25 298.68 299.62 C 292.32 309.34 286.09 320.06 285.96 332.01 C 285.67 339.04 288.14 345.83 291.55 351.88 C 284.84 346.85 281.77 338.18 281.13 330.06 C 280.72 318.86 284.39 307.75 290.52 298.45 C 296.50 290.01 302.71 281.74 308.96 273.50 C 301.74 274.36 294.56 275.64 287.31 276.26 C 287.16 281.87 283.88 287.32 278.63 289.53 C 273.12 291.72 266.81 292.78 261.05 290.99 C 257.42 289.87 254.85 286.89 252.63 283.98 C 248.43 291.35 238.34 293.80 231.00 289.90 C 226.59 287.28 225.46 281.97 223.00 277.85 C 222.40 282.19 223.06 286.57 223.14 290.93 C 224.51 312.92 229.00 335.37 240.61 354.39 C 244.93 362.20 250.20 369.42 255.06 376.89 C 258.39 382.27 265.65 381.33 270.92 383.28 C 267.38 384.22 263.78 384.88 260.19 385.57 C 261.85 394.27 263.00 403.06 264.52 411.79 C 264.78 413.50 265.26 415.24 264.99 416.99 C 264.22 418.53 262.18 417.97 260.82 418.35 C 259.48 411.77 258.21 405.15 257.77 398.44 C 256.69 387.91 251.18 378.56 245.22 370.06 C 231.51 351.69 222.76 329.69 219.93 306.95 C 218.47 296.71 218.74 286.31 219.15 276.01 C 221.22 264.48 215.00 253.49 215.92 241.97 C 216.70 235.71 221.55 230.36 227.52 228.52 C 231.02 227.18 234.78 228.19 238.38 227.71 C 241.15 225.35 242.73 221.77 245.90 219.79 C 250.68 216.26 256.91 215.69 262.61 216.79 C 262.08 213.04 261.73 209.00 263.55 205.53 C 264.92 202.63 268.23 201.65 270.99 200.58 C 270.57 194.92 269.84 188.42 273.64 183.67 C 276.24 180.14 280.87 178.85 285.08 179.21 C 291.07 179.72 296.77 181.90 302.16 184.46 C 297.48 169.24 293.59 153.79 289.24 138.47 C 285.36 122.66 280.60 107.08 276.86 91.24 C 275.22 84.58 277.28 76.91 282.88 72.69 M 288.52 74.52 C 283.09 76.82 280.37 83.21 281.26 88.85 C 282.83 97.68 285.66 106.22 287.77 114.93 C 288.29 116.54 288.74 119.12 290.93 119.02 C 294.03 119.16 297.10 118.52 300.13 117.93 C 299.82 118.45 299.20 119.47 298.89 119.98 C 296.32 121.08 293.06 121.10 291.14 123.34 C 290.45 125.57 291.13 127.88 291.66 130.07 C 293.87 138.25 295.76 146.51 298.38 154.57 C 298.97 156.30 299.96 158.52 302.06 158.67 C 306.40 158.44 310.68 157.52 315.03 157.29 C 311.38 161.00 304.22 159.87 301.90 165.06 C 301.53 169.50 303.81 173.68 304.16 178.10 C 304.86 185.10 309.39 191.50 315.96 194.15 C 324.01 197.49 331.43 202.06 339.00 206.32 C 329.72 170.35 320.52 134.35 310.61 98.55 C 308.67 90.37 304.65 82.85 299.90 75.98 C 297.27 72.41 292.13 72.85 288.52 74.52 M 266.32 209.07 C 266.59 213.73 268.49 218.09 269.60 222.58 C 272.57 233.73 275.55 244.88 278.90 255.92 C 280.20 260.07 280.89 264.83 284.43 267.78 C 290.35 272.81 299.26 272.26 305.80 268.79 C 310.27 266.38 311.43 260.70 311.32 256.04 C 310.46 250.71 309.73 245.36 308.82 240.04 C 308.41 237.39 305.72 236.37 303.62 235.33 C 296.49 231.80 289.13 228.36 283.33 222.78 C 278.76 218.58 276.20 212.80 273.68 207.26 C 272.91 205.52 271.31 204.40 270.01 203.11 C 268.63 204.98 266.89 206.75 266.32 209.07 M 254.39 219.55 C 247.58 222.05 241.75 229.45 244.03 236.95 C 247.65 250.58 251.43 264.17 255.25 277.74 C 256.15 281.67 258.77 285.46 262.87 286.44 C 269.59 287.99 277.41 286.42 282.21 281.23 C 283.80 279.57 285.44 277.56 285.34 275.12 C 284.94 273.23 283.09 272.36 281.76 271.23 C 277.50 268.14 275.35 263.03 274.08 258.09 C 271.65 248.25 269.15 238.42 266.64 228.60 C 265.79 225.85 265.39 222.76 263.42 220.53 C 261.24 217.87 257.25 218.66 254.39 219.55 M 231.47 231.79 C 225.02 233.08 221.16 239.67 221.05 245.90 C 220.67 256.09 224.11 265.93 227.53 275.39 C 229.22 279.59 230.82 284.79 235.54 286.45 C 239.92 287.92 245.01 286.43 248.31 283.30 C 250.06 281.76 250.65 279.19 249.98 277.00 C 247.20 265.42 243.87 253.98 240.64 242.51 C 239.66 239.13 239.22 235.55 237.68 232.35 C 235.99 230.69 233.51 231.26 231.47 231.79 Z" />
<path fill="#165ea8" opacity="1.00" d=" M 452.25 426.27 C 460.72 421.56 470.76 421.27 480.20 421.76 C 487.42 422.11 495.28 424.30 499.81 430.33 C 502.59 434.74 503.10 440.16 502.97 445.27 C 495.34 445.66 487.69 445.90 480.09 446.63 C 480.01 443.40 479.47 439.47 476.33 437.77 C 471.69 435.12 464.57 435.65 461.50 440.40 C 459.71 443.07 461.21 446.84 464.36 447.50 C 473.51 450.09 483.18 451.62 491.50 456.51 C 496.57 459.48 500.34 465.02 500.19 471.03 C 500.80 480.51 495.55 489.48 488.42 495.37 C 480.37 502.27 469.29 503.88 459.04 503.69 C 452.37 503.46 445.39 502.93 439.37 499.82 C 431.27 495.07 428.51 484.72 429.66 475.89 C 437.34 476.08 444.95 474.84 452.62 474.63 C 452.60 478.55 452.85 483.12 456.22 485.76 C 462.49 490.46 474.05 488.20 476.03 479.96 C 477.09 475.68 473.02 472.66 469.39 471.67 C 460.13 468.83 449.79 467.33 442.45 460.44 C 437.16 455.61 436.83 447.48 439.06 441.09 C 441.47 434.79 446.16 429.27 452.25 426.27 Z" />
<path fill="#165ea8" opacity="1.00" d=" M 382.47 422.63 C 394.09 420.65 407.17 420.79 417.21 427.75 C 425.13 433.44 428.22 443.63 428.00 453.02 C 427.37 462.57 425.16 472.11 420.90 480.72 C 414.65 492.20 403.15 501.03 390.07 502.87 C 380.54 504.35 370.43 504.07 361.37 500.54 C 352.01 496.58 346.30 486.72 345.81 476.80 C 345.14 463.11 348.47 448.75 357.17 437.91 C 363.35 429.92 372.66 424.68 382.47 422.63 M 388.22 440.27 C 381.18 441.09 375.51 446.58 373.15 453.06 C 370.58 460.06 369.27 467.66 370.07 475.11 C 370.48 479.56 373.79 483.63 378.14 484.77 C 383.87 486.22 390.48 485.03 394.79 480.81 C 399.12 477.05 400.64 471.27 402.17 465.98 C 403.44 459.90 405.12 453.34 402.64 447.33 C 400.51 441.70 393.80 439.33 388.22 440.27 Z" />
<path fill="#165ea8" opacity="1.00" d=" M 96.80 422.86 C 105.54 422.90 114.28 422.93 123.01 422.85 C 124.96 436.30 127.18 449.71 129.32 463.12 C 129.90 465.16 128.75 467.02 127.88 468.78 C 123.13 477.56 118.94 486.64 114.16 495.40 C 108.29 471.24 102.72 447.01 96.80 422.86 Z" />
<path fill="#165ea8" opacity="1.00" d=" M 153.50 502.40 C 167.95 475.89 182.35 449.35 196.83 422.86 C 205.53 422.91 214.24 422.92 222.94 422.85 C 228.00 449.35 232.72 475.91 237.98 502.37 C 229.61 502.33 221.23 502.27 212.85 502.39 C 212.21 498.01 211.92 493.59 211.13 489.24 C 202.13 489.37 193.13 489.27 184.13 489.28 C 181.98 493.61 180.22 498.11 177.96 502.39 C 169.81 502.31 161.65 502.27 153.50 502.40 M 192.25 471.96 C 197.92 471.92 203.58 472.06 209.25 471.86 C 208.24 462.45 207.06 453.07 206.01 443.67 C 201.16 452.96 197.10 462.66 192.25 471.96 Z" />
<path fill="#165ea8" opacity="1.00" d=" M 242.59 502.37 C 247.49 475.90 252.04 449.36 256.81 422.86 C 267.28 422.92 277.75 422.91 288.21 422.87 C 289.56 438.70 290.83 454.54 291.59 470.42 L 292.38 470.48 C 298.66 454.47 305.82 438.82 312.42 422.93 C 322.94 422.85 333.45 422.89 343.97 422.91 C 339.37 449.41 334.28 475.82 329.93 502.36 C 323.30 502.31 316.67 502.33 310.04 502.35 C 313.97 482.50 317.20 462.52 320.84 442.62 C 316.47 451.56 312.92 460.90 308.97 470.05 C 304.10 480.73 299.88 491.70 295.05 502.40 C 289.11 502.27 283.17 502.36 277.24 502.32 C 276.45 485.85 274.92 469.43 273.91 452.98 C 273.76 449.32 273.62 445.64 272.91 442.04 C 269.70 462.21 265.69 482.25 262.25 502.39 C 255.70 502.28 249.14 502.33 242.59 502.37 Z" />
<path fill="#165ea8" opacity="1.00" d=" M 101.24 513.04 C 104.46 513.02 107.74 512.59 110.91 513.31 C 116.01 514.62 115.01 523.41 109.93 524.00 C 107.89 524.27 105.81 524.13 103.76 524.11 C 103.29 526.36 102.94 528.63 102.62 530.92 C 101.21 531.00 99.80 531.07 98.39 531.15 C 99.26 525.10 100.47 519.10 101.24 513.04 M 105.16 515.97 C 104.78 517.65 104.38 519.34 103.99 521.04 C 106.55 521.06 109.50 521.47 110.77 518.65 C 109.70 516.31 107.55 515.73 105.16 515.97 Z" />
<path fill="#165ea8" opacity="1.00" d=" M 120.37 513.36 C 123.70 511.83 128.10 512.97 129.84 516.32 C 132.20 521.18 130.39 527.95 125.60 530.65 C 122.58 531.82 118.46 531.48 116.62 528.46 C 113.66 523.61 115.49 516.27 120.37 513.36 M 122.17 516.04 C 119.66 519.20 117.72 524.68 121.05 527.93 C 122.96 528.39 124.89 527.37 125.57 525.53 C 126.71 522.49 127.45 518.68 125.10 516.02 C 124.37 516.02 122.90 516.03 122.17 516.04 Z" />
<path fill="#165ea8" opacity="1.00" d=" M 135.00 512.97 C 139.14 513.34 144.57 511.51 147.55 515.34 C 149.63 518.47 147.64 522.33 144.30 523.45 C 145.14 525.97 145.84 528.53 146.53 531.10 C 145.13 531.05 143.72 531.00 142.32 530.95 C 141.70 528.49 141.02 526.05 140.30 523.62 C 139.54 523.69 138.01 523.81 137.25 523.87 C 136.79 526.27 136.29 528.65 135.88 531.06 C 134.53 531.06 133.18 531.08 131.84 531.10 C 132.98 525.07 133.95 519.01 135.00 512.97 M 138.33 516.05 C 138.09 517.64 137.85 519.24 137.59 520.84 C 139.97 520.57 144.06 521.46 144.39 518.06 C 143.44 515.41 140.50 516.16 138.33 516.05 Z" />
<path fill="#165ea8" opacity="1.00" d=" M 159.20 512.97 C 160.70 512.97 162.21 512.99 163.72 513.01 C 162.96 517.35 161.94 521.68 161.78 526.10 C 162.64 528.31 166.04 528.34 167.37 526.59 C 168.61 522.12 168.86 517.44 169.84 512.91 C 170.72 512.92 172.48 512.94 173.36 512.95 C 172.58 517.28 172.07 521.67 171.16 525.98 C 170.37 532.51 158.74 533.37 157.30 526.91 C 157.27 522.21 158.70 517.63 159.20 512.97 Z" />
<path fill="#165ea8" opacity="1.00" d=" M 173.72 531.06 C 174.70 525.00 175.76 518.94 176.73 512.88 C 178.23 512.89 179.74 512.91 181.24 512.92 C 182.66 516.64 184.03 520.39 185.52 524.08 C 186.10 520.40 186.70 516.73 187.21 513.05 C 188.42 513.01 189.64 513.00 190.86 513.01 C 189.71 518.94 188.68 524.91 187.76 530.89 C 186.64 530.97 185.51 531.04 184.39 531.11 C 182.64 526.87 180.82 522.65 179.22 518.34 C 178.42 522.56 177.78 526.82 177.04 531.06 C 176.21 531.06 174.55 531.06 173.72 531.06 Z" />
<path fill="#165ea8" opacity="1.00" d=" M 198.09 512.95 C 199.73 512.95 201.37 512.96 203.02 512.97 C 203.93 518.98 204.95 524.97 206.10 530.94 C 204.69 531.00 203.30 531.05 201.90 531.11 C 201.60 529.78 201.29 528.44 201.00 527.11 C 199.09 527.07 197.18 527.04 195.27 527.00 C 194.59 528.38 193.94 529.78 193.27 531.18 C 192.32 531.12 190.41 531.01 189.46 530.95 C 192.36 524.96 195.36 519.02 198.09 512.95 M 196.62 523.83 C 197.65 523.88 199.70 523.97 200.73 524.02 C 200.32 521.59 199.96 519.16 199.73 516.73 C 198.69 519.09 197.64 521.45 196.62 523.83 Z" />
<path fill="#165ea8" opacity="1.00" d=" M 218.54 530.52 C 211.17 525.77 215.99 511.24 225.01 512.74 C 228.35 512.67 229.97 515.88 231.35 518.38 C 230.01 518.69 228.67 518.99 227.33 519.28 C 226.59 517.08 224.94 515.20 222.41 516.16 C 219.48 518.90 217.58 524.91 221.28 527.79 C 224.85 528.62 226.31 524.59 228.66 522.76 C 226.60 523.44 224.62 524.30 222.58 525.03 C 222.67 524.07 222.84 522.15 222.93 521.19 C 225.49 521.16 228.06 521.16 230.62 521.21 C 230.06 524.53 229.43 527.85 228.90 531.18 C 228.41 531.15 227.43 531.07 226.94 531.04 C 226.97 530.50 227.02 529.42 227.05 528.89 C 224.78 530.96 221.39 532.12 218.54 530.52 Z" />
<path fill="#165ea8" opacity="1.00" d=" M 235.13 513.03 C 236.62 512.99 238.12 512.95 239.62 512.92 C 239.10 517.35 237.68 521.67 237.53 526.14 C 238.79 528.66 242.98 528.28 243.57 525.45 C 244.51 521.32 244.94 517.09 245.75 512.93 C 246.65 512.94 248.44 512.96 249.34 512.96 C 248.44 517.55 247.87 522.20 246.81 526.76 C 245.22 533.05 233.52 532.85 232.94 526.06 C 233.47 521.69 234.47 517.39 235.13 513.03 Z" />
<path fill="#165ea8" opacity="1.00" d=" M 256.08 512.93 C 257.70 512.93 259.32 512.94 260.95 512.96 C 261.87 518.98 262.93 524.99 263.92 531.01 C 262.50 531.05 261.09 531.11 259.68 531.17 C 259.44 529.81 259.21 528.44 259.00 527.08 C 257.03 527.07 255.07 527.07 253.10 527.08 C 252.41 528.36 252.11 529.96 251.04 530.99 C 250.14 531.02 248.33 531.08 247.42 531.11 C 250.05 524.93 253.24 519.02 256.08 512.93 M 254.40 523.95 C 255.82 523.92 257.25 523.90 258.68 523.89 C 258.27 521.55 257.93 519.20 257.60 516.86 C 256.42 519.17 255.40 521.55 254.40 523.95 Z" />
<path fill="#165ea8" opacity="1.00" d=" M 264.72 516.36 C 265.05 515.21 265.39 514.07 265.74 512.94 C 270.16 512.99 274.58 512.90 279.00 513.00 C 278.61 514.14 278.22 515.29 277.82 516.44 C 276.39 516.38 274.96 516.34 273.53 516.32 C 272.77 521.26 272.04 526.20 271.19 531.13 C 269.80 531.07 268.42 531.01 267.04 530.96 C 267.86 526.07 268.74 521.18 269.40 516.26 C 267.84 516.29 266.28 516.32 264.72 516.36 Z" />
<path fill="#165ea8" opacity="1.00" d=" M 280.30 513.09 C 284.60 512.90 288.92 512.93 293.23 512.98 C 292.99 514.13 292.75 515.29 292.51 516.46 C 289.77 516.34 287.03 516.29 284.30 516.23 C 283.98 517.44 283.66 518.67 283.34 519.90 C 285.88 519.95 288.42 519.98 290.97 520.00 C 290.59 521.14 290.23 522.28 289.86 523.44 C 287.56 523.35 285.25 523.30 282.95 523.30 C 282.69 524.74 282.44 526.20 282.20 527.65 C 285.20 527.64 288.20 527.62 291.20 527.66 C 290.91 528.79 290.62 529.92 290.33 531.07 C 286.04 531.05 281.76 531.05 277.47 531.06 C 278.44 525.08 279.52 519.11 280.30 513.09 Z" />
<path fill="#165ea8" opacity="1.00" d=" M 295.94 512.95 C 298.03 512.95 300.12 512.95 302.21 512.97 C 302.70 516.67 303.13 520.38 303.76 524.07 C 305.72 520.45 307.31 516.65 309.06 512.93 C 311.24 512.95 313.43 512.96 315.62 513.03 C 314.51 518.99 313.49 524.98 312.65 530.99 C 311.19 531.00 309.74 531.00 308.30 531.00 C 309.16 526.16 309.89 521.29 310.89 516.47 C 307.89 521.04 306.39 526.45 303.28 530.95 C 302.75 531.01 301.70 531.13 301.17 531.20 C 300.41 526.14 299.61 521.09 298.99 516.02 C 297.61 520.96 297.31 526.12 296.26 531.13 C 295.41 531.11 293.69 531.05 292.84 531.03 C 294.00 525.02 294.90 518.97 295.94 512.95 Z" />
<path fill="#165ea8" opacity="1.00" d=" M 323.15 512.94 C 324.74 512.95 326.33 512.96 327.93 512.98 C 329.29 518.95 329.94 525.05 331.21 531.05 C 329.72 531.04 328.24 531.05 326.76 531.06 C 326.59 529.72 326.42 528.37 326.27 527.04 C 324.26 527.03 322.27 527.02 320.27 527.01 C 319.71 528.30 319.16 529.62 318.62 530.93 C 317.24 531.00 315.86 531.08 314.48 531.15 C 317.41 525.10 320.04 518.90 323.15 512.94 M 321.44 523.80 C 322.90 523.87 324.35 523.91 325.83 523.99 C 325.42 521.56 325.00 519.14 324.62 516.72 C 323.60 519.10 322.56 521.47 321.44 523.80 Z" />
<path fill="#165ea8" opacity="1.00" d=" M 335.87 512.92 C 337.24 512.94 338.61 512.97 339.98 513.01 C 339.11 517.92 338.28 522.85 337.31 527.74 C 339.37 527.65 341.43 527.57 343.49 527.45 C 343.89 528.53 344.31 529.62 344.78 530.69 C 347.12 524.60 350.02 518.74 352.93 512.92 C 354.55 512.94 356.18 512.98 357.80 513.02 C 358.88 519.01 359.62 525.07 361.08 530.98 C 359.66 531.04 358.25 531.06 356.85 531.05 C 356.02 529.93 356.30 528.35 355.96 527.07 C 354.00 527.05 352.04 527.05 350.09 527.06 C 349.42 528.38 348.75 529.72 348.07 531.05 C 342.95 530.96 337.82 531.12 332.70 531.05 C 333.81 525.01 334.65 518.93 335.87 512.92 M 351.36 523.89 C 352.75 523.90 354.14 523.90 355.54 523.92 C 355.17 521.63 354.94 519.32 354.41 517.07 C 352.85 519.04 352.39 521.64 351.36 523.89 Z" />
<path fill="#165ea8" opacity="1.00" d=" M 372.21 512.99 C 375.86 513.09 380.21 512.07 383.10 514.94 C 387.57 519.62 385.49 529.28 378.95 530.90 C 375.64 531.30 372.30 531.01 368.98 530.96 C 370.30 525.02 371.09 518.97 372.21 512.99 M 375.64 516.07 C 375.00 520.06 374.22 524.03 373.63 528.03 C 375.38 527.70 377.41 528.02 378.99 527.04 C 381.51 524.77 381.11 521.15 380.94 518.11 C 380.20 517.43 379.47 516.76 378.75 516.09 C 377.97 516.09 376.41 516.08 375.64 516.07 Z" />
<path fill="#165ea8" opacity="1.00" d=" M 386.79 531.10 C 387.80 525.03 388.80 518.96 389.78 512.89 C 391.17 512.94 392.57 513.00 393.96 513.08 C 392.83 519.05 392.02 525.07 390.94 531.06 C 389.55 531.06 388.17 531.08 386.79 531.10 Z" />
<path fill="#165ea8" opacity="1.00" d=" M 397.49 513.07 C 401.60 512.89 405.73 512.86 409.84 513.07 C 409.63 514.18 409.41 515.28 409.19 516.39 C 406.55 516.34 403.92 516.31 401.30 516.22 C 401.03 517.65 400.78 519.09 400.53 520.53 C 402.76 520.43 404.98 520.36 407.22 520.30 C 407.10 521.48 406.99 522.67 406.87 523.86 C 404.66 523.84 402.45 523.77 400.25 523.71 C 399.76 526.15 399.29 528.60 398.84 531.06 C 397.38 531.05 395.92 531.05 394.47 531.05 C 395.66 525.09 396.55 519.07 397.49 513.07 Z" />
<path fill="#165ea8" opacity="1.00" d=" M 411.96 512.94 C 416.13 512.94 420.30 512.91 424.47 513.06 C 424.30 514.13 424.15 515.20 424.01 516.28 C 421.05 516.28 418.08 516.26 415.14 516.59 C 415.11 517.43 415.06 519.10 415.03 519.94 C 417.41 519.94 419.79 519.95 422.17 519.97 C 421.90 521.11 421.63 522.25 421.36 523.40 C 418.99 523.34 416.63 523.30 414.27 523.25 C 414.09 524.37 413.75 526.59 413.57 527.70 C 416.49 527.64 419.40 527.61 422.33 527.58 C 422.18 528.42 421.88 530.12 421.73 530.97 C 417.40 531.11 413.07 531.06 408.74 531.08 C 409.85 525.04 410.64 518.94 411.96 512.94 Z" />
<path fill="#165ea8" opacity="1.00" d=" M 427.20 513.00 C 431.36 513.30 436.77 511.62 439.88 515.22 C 442.24 518.25 440.01 522.15 436.87 523.49 C 437.47 526.04 438.21 528.57 439.06 531.05 C 437.62 531.04 436.18 531.04 434.74 531.03 C 434.11 528.59 433.45 526.15 432.74 523.74 C 431.62 523.80 430.50 523.87 429.39 523.95 C 429.11 526.36 428.76 528.77 428.30 531.16 C 426.94 531.08 425.59 530.99 424.24 530.90 C 425.34 524.95 426.38 518.99 427.20 513.00 M 430.85 516.08 C 430.51 517.65 430.19 519.22 429.89 520.81 C 432.13 520.78 434.41 520.69 436.45 519.67 C 436.50 519.11 436.58 518.00 436.63 517.45 C 436.21 517.10 435.38 516.41 434.97 516.07 C 433.59 516.06 432.22 516.07 430.85 516.08 Z" />
<path fill="#165ea8" opacity="1.00" d=" M 445.05 512.98 C 449.29 512.93 453.54 512.88 457.79 513.05 C 457.53 514.09 457.24 515.14 456.92 516.17 C 454.18 516.54 451.40 516.30 448.65 516.24 C 448.39 517.46 448.14 518.69 447.90 519.92 C 450.32 519.94 452.75 519.95 455.19 519.97 C 454.93 521.10 454.68 522.23 454.43 523.37 C 452.03 523.32 449.63 523.31 447.23 523.43 C 447.09 524.86 446.95 526.29 446.81 527.73 C 449.65 527.63 452.49 527.60 455.34 527.56 C 455.21 528.41 454.94 530.13 454.81 530.98 C 450.48 531.09 446.16 531.04 441.83 531.06 C 443.07 525.07 443.92 519.00 445.05 512.98 Z" />
<path fill="#165ea8" opacity="1.00" d=" M 460.17 513.00 C 461.72 512.98 463.27 512.97 464.83 512.98 C 466.32 516.58 467.71 520.22 469.22 523.82 C 469.85 520.20 470.23 516.55 470.94 512.96 C 471.78 512.95 473.45 512.95 474.29 512.95 C 473.30 519.00 472.33 525.05 471.32 531.10 C 470.48 531.09 468.80 531.06 467.96 531.04 C 466.14 526.78 464.86 522.29 462.58 518.25 C 462.10 522.52 461.51 526.79 460.81 531.03 C 459.95 531.04 458.23 531.05 457.37 531.06 C 458.27 525.03 459.39 519.04 460.17 513.00 Z" />
<path fill="#165ea8" opacity="1.00" d=" M 476.20 512.95 C 480.56 512.92 484.92 512.95 489.28 512.95 C 489.20 513.78 489.04 515.45 488.96 516.28 C 487.41 516.28 485.87 516.29 484.33 516.30 C 483.30 521.18 482.51 526.11 481.81 531.05 C 480.40 531.05 478.99 531.05 477.58 531.07 C 478.50 526.14 479.14 521.16 480.08 516.24 C 478.60 516.29 477.12 516.35 475.65 516.42 C 475.79 515.55 476.06 513.81 476.20 512.95 Z" />
<path fill="#165ea8" opacity="1.00" d=" M 491.11 512.96 C 495.35 512.96 499.60 512.89 503.84 513.06 C 503.60 514.16 503.37 515.26 503.14 516.37 C 500.35 516.33 497.57 516.31 494.80 516.26 C 494.48 517.47 494.18 518.68 493.89 519.90 C 496.35 519.93 498.81 519.96 501.28 519.98 C 501.09 521.13 500.89 522.29 500.70 523.44 C 498.32 523.35 495.94 523.29 493.56 523.23 C 493.32 524.70 493.10 526.18 492.89 527.67 C 495.74 527.63 498.60 527.60 501.45 527.56 C 501.34 528.43 501.10 530.16 500.99 531.03 C 496.65 531.10 492.31 531.10 487.97 530.98 C 489.20 525.01 489.92 518.94 491.11 512.96 Z" />
</g>
<g id="#ee1b22ff">
<path fill="#ee1b22" opacity="1.00" d=" M 158.27 421.88 C 166.83 421.91 175.38 421.92 183.93 421.87 C 170.08 448.73 156.29 475.62 142.26 502.39 C 134.11 502.30 125.95 502.36 117.79 502.36 C 119.20 499.45 120.74 496.62 122.03 493.66 C 121.77 493.01 121.55 492.36 121.38 491.70 L 122.55 493.19 C 134.26 469.32 146.38 445.66 158.27 421.88 Z" />
</g>
</svg>
