<?xml version="1.0" encoding="UTF-8" ?>
<!DOCTYPE svg PUBLIC "-//W3C//DTD SVG 1.1//EN" "http://www.w3.org/Graphics/SVG/1.1/DTD/svg11.dtd">
<svg width="600pt" height="774pt" viewBox="0 0 600 774" version="1.1" xmlns="http://www.w3.org/2000/svg">
<g id="#000000ff">
</g>
<g id="#00a3e6ff">
<path fill="#00a3e6" opacity="1.00" d=" M 35.25 0.00 L 564.48 0.00 C 573.73 1.02 582.74 5.00 589.16 11.83 C 595.36 18.13 598.96 26.62 600.00 35.33 L 600.00 738.02 C 599.18 747.71 594.86 757.11 587.67 763.70 C 581.65 769.39 573.76 772.81 565.61 774.00 L 34.94 774.00 C 24.45 772.84 14.44 767.43 8.03 759.00 C 3.37 753.05 0.75 745.71 0.00 738.23 L 0.00 35.96 C 0.85 26.04 5.40 16.44 12.91 9.83 C 19.03 4.20 27.06 1.05 35.25 0.00 M 31.47 11.71 C 19.40 14.74 10.41 26.62 10.75 39.07 C 10.75 271.05 10.74 503.04 10.76 735.02 C 10.46 746.61 18.20 757.80 29.14 761.63 C 34.51 763.77 40.38 763.31 46.04 763.33 C 217.70 763.34 389.35 763.33 561.01 763.34 C 571.90 763.56 582.47 756.73 586.81 746.75 C 589.91 740.27 589.19 732.94 589.25 725.99 C 589.25 499.31 589.25 272.63 589.25 45.95 C 589.27 39.96 589.62 33.72 587.14 28.10 C 583.01 17.68 572.16 10.49 560.94 10.74 C 387.28 10.72 213.63 10.75 39.97 10.73 C 37.12 10.75 34.24 10.96 31.47 11.71 Z" />
<path fill="#00a3e6" opacity="1.00" d=" M 168.13 88.13 C 188.94 78.59 212.61 75.52 235.18 79.32 C 258.88 83.17 281.23 94.84 297.93 112.10 C 301.98 116.34 305.95 120.65 309.95 124.93 C 316.47 118.12 322.57 110.85 329.81 104.77 C 350.00 87.48 376.45 77.82 403.01 77.75 C 428.30 77.46 453.62 85.85 473.60 101.39 C 490.26 114.22 503.30 131.72 510.62 151.46 C 465.14 164.64 421.08 184.36 383.38 213.30 C 359.32 231.71 338.06 253.79 320.81 278.70 C 307.10 298.40 295.92 319.77 286.70 341.89 C 277.61 298.89 265.17 256.50 247.93 216.02 C 228.14 169.67 202.39 125.33 168.13 88.13 M 302.48 153.64 C 291.86 155.66 282.26 162.40 276.76 171.72 C 270.82 181.47 269.61 193.91 273.52 204.63 C 277.39 215.66 286.57 224.61 297.65 228.28 C 307.51 231.64 318.73 230.74 327.95 225.86 C 336.74 221.26 343.63 213.16 346.71 203.72 C 349.85 194.41 349.13 183.92 344.93 175.05 C 337.82 159.34 319.35 150.01 302.48 153.64 Z" />
<path fill="#00a3e6" opacity="1.00" d=" M 105.26 164.97 C 108.64 150.31 115.08 136.37 123.99 124.24 C 128.04 127.78 132.10 131.34 135.74 135.32 C 163.82 166.20 185.08 202.85 200.35 241.58 C 221.38 294.80 231.90 351.55 237.65 408.29 C 213.03 387.36 189.46 365.12 168.22 340.74 C 149.31 318.95 132.09 295.41 119.56 269.33 C 110.45 250.41 103.98 229.96 102.73 208.90 C 102.05 194.24 101.78 179.34 105.26 164.97 Z" />
<path fill="#00a3e6" opacity="1.00" d=" M 473.37 193.47 C 487.62 187.20 502.05 181.35 516.64 175.92 C 518.83 198.50 517.66 221.71 510.67 243.42 C 501.81 271.30 486.47 296.67 468.79 319.81 C 446.39 349.07 420.13 375.15 392.51 399.46 C 366.22 422.49 338.50 443.85 310.04 464.12 C 314.18 415.19 324.61 366.28 345.51 321.63 C 359.19 292.41 377.61 265.26 400.75 242.69 C 421.74 222.09 446.57 205.52 473.37 193.47 Z" />
<path fill="#00a3e6" opacity="1.00" d=" M 271.98 502.47 C 287.49 502.47 303.01 502.46 318.52 502.47 C 329.90 534.93 341.25 567.40 352.64 599.86 C 364.01 567.39 375.37 534.94 386.74 502.48 C 401.98 502.46 417.21 502.46 432.44 502.48 C 412.12 554.14 391.84 605.82 371.49 657.48 C 358.63 657.45 345.77 657.48 332.90 657.46 C 312.59 605.80 292.26 554.14 271.98 502.47 Z" />
<path fill="#00a3e6" opacity="1.00" d=" M 40.69 502.54 C 56.18 502.52 71.68 502.54 87.17 502.53 C 98.56 534.94 109.84 567.39 121.27 599.78 C 132.61 567.38 144.00 534.99 155.29 502.57 C 170.52 502.49 185.75 502.56 200.97 502.53 C 180.70 554.16 160.40 605.78 140.11 657.40 C 127.26 657.41 114.41 657.38 101.57 657.41 C 81.24 605.80 60.97 554.17 40.69 502.54 Z" />
<path fill="#00a3e6" opacity="1.00" d=" M 214.41 657.56 C 214.41 605.90 214.39 554.23 214.42 502.56 C 228.45 502.57 242.49 502.56 256.53 502.56 C 256.56 554.23 256.54 605.90 256.54 657.56 C 242.50 657.57 228.45 657.57 214.41 657.56 Z" />
<path fill="#00a3e6" opacity="1.00" d=" M 455.25 502.55 C 468.62 502.51 481.99 502.55 495.37 502.53 C 516.70 554.20 538.01 605.88 559.31 657.56 C 544.43 657.56 529.56 657.57 514.68 657.56 C 511.05 648.39 507.39 639.24 503.77 630.08 C 484.46 630.05 465.14 630.07 445.83 630.07 C 442.28 639.21 438.64 648.32 435.17 657.50 C 420.56 657.64 405.95 657.53 391.34 657.56 C 412.63 605.88 433.96 554.23 455.25 502.55 M 474.68 554.12 C 469.01 568.31 463.63 582.62 458.05 596.85 C 469.26 596.93 480.46 596.76 491.67 596.94 C 486.39 582.61 480.86 568.35 475.34 554.11 C 475.17 554.11 474.84 554.12 474.68 554.12 Z" />
<path fill="#00a3e6" opacity="1.00" d=" M 196.31 679.80 C 197.88 680.49 199.45 681.19 201.02 681.90 C 199.27 683.55 197.52 685.20 195.76 686.84 C 194.42 686.83 193.09 686.82 191.76 686.83 C 193.26 684.47 194.78 682.13 196.31 679.80 Z" />
<path fill="#00a3e6" opacity="1.00" d=" M 397.13 681.05 C 398.86 681.04 400.59 681.04 402.33 681.05 C 402.33 691.51 402.33 701.97 402.32 712.43 C 400.59 712.42 398.86 712.43 397.13 712.43 C 397.12 701.97 397.13 691.51 397.13 681.05 Z" />
<path fill="#00a3e6" opacity="1.00" d=" M 103.50 682.33 C 105.45 682.33 107.41 682.34 109.36 682.34 C 112.38 690.04 115.38 697.75 118.44 705.44 C 121.43 697.74 124.45 690.05 127.45 682.34 C 129.35 682.33 131.25 682.33 133.16 682.33 C 129.01 692.44 124.82 702.53 120.66 712.62 C 119.12 712.62 117.59 712.63 116.06 712.65 C 111.82 702.56 107.69 692.43 103.50 682.33 Z" />
<path fill="#00a3e6" opacity="1.00" d=" M 136.95 681.31 C 138.81 681.30 140.67 681.30 142.53 681.31 C 142.53 682.95 142.53 684.59 142.53 686.25 C 140.67 686.24 138.81 686.24 136.95 686.25 C 136.95 684.59 136.94 682.95 136.95 681.31 Z" />
<path fill="#00a3e6" opacity="1.00" d=" M 170.73 681.31 C 172.59 681.30 174.45 681.30 176.32 681.31 C 176.32 682.95 176.31 684.59 176.31 686.25 C 174.45 686.24 172.59 686.24 170.73 686.25 C 170.73 684.59 170.72 682.95 170.73 681.31 Z" />
<path fill="#00a3e6" opacity="1.00" d=" M 340.40 682.34 C 342.35 682.33 344.30 682.34 346.26 682.35 C 349.27 690.05 352.28 697.75 355.32 705.45 C 358.33 697.74 361.34 690.04 364.34 682.34 C 366.24 682.33 368.14 682.32 370.05 682.33 C 365.91 692.43 361.72 702.50 357.57 712.60 C 356.05 712.63 354.54 712.66 353.03 712.71 C 348.67 702.65 344.63 692.45 340.40 682.34 Z" />
<path fill="#00a3e6" opacity="1.00" d=" M 151.63 690.62 C 155.80 688.17 160.91 689.67 164.88 691.80 C 164.20 693.03 163.53 694.27 162.85 695.52 C 160.37 694.47 157.76 693.01 154.97 693.63 C 153.42 693.90 152.43 696.06 153.82 697.10 C 156.79 699.04 160.68 699.18 163.46 701.51 C 166.77 704.22 165.55 710.13 161.75 711.80 C 156.99 714.05 151.37 712.42 147.26 709.54 C 148.01 708.37 148.76 707.21 149.52 706.06 C 152.43 707.70 155.89 709.62 159.31 708.30 C 160.84 707.75 161.09 705.30 159.63 704.62 C 156.67 702.95 152.99 702.82 150.31 700.62 C 147.16 698.01 148.10 692.44 151.63 690.62 Z" />
<path fill="#00a3e6" opacity="1.00" d=" M 190.46 689.71 C 197.29 687.54 205.36 692.56 205.83 699.85 C 206.76 706.63 200.77 713.12 193.97 712.94 C 187.46 713.33 181.35 707.59 181.68 701.00 C 181.64 695.81 185.42 690.96 190.46 689.71 M 191.21 694.27 C 185.47 696.36 185.53 705.67 191.14 707.90 C 195.31 709.86 200.51 706.56 200.63 701.99 C 201.49 696.95 196.07 692.13 191.21 694.27 Z" />
<path fill="#00a3e6" opacity="1.00" d=" M 216.27 693.02 C 218.11 691.20 220.18 689.21 222.97 689.28 C 226.83 688.83 230.74 691.57 231.28 695.49 C 231.87 701.10 231.41 706.76 231.54 712.40 C 229.81 712.39 228.09 712.40 226.36 712.41 C 226.14 707.32 226.77 702.17 225.99 697.13 C 224.83 692.61 217.42 693.17 216.63 697.66 C 216.01 702.55 216.54 707.51 216.36 712.43 C 214.63 712.42 212.90 712.42 211.17 712.43 C 211.17 704.86 211.17 697.30 211.17 689.73 C 212.91 689.73 214.65 689.73 216.40 689.74 C 216.36 690.56 216.30 692.20 216.27 693.02 Z" />
<path fill="#00a3e6" opacity="1.00" d=" M 252.78 692.81 C 257.38 687.87 265.85 688.24 270.41 693.06 C 269.34 694.20 268.28 695.35 267.22 696.51 C 264.84 694.45 261.42 692.79 258.38 694.50 C 253.18 697.11 253.53 705.97 259.06 707.98 C 262.08 709.34 265.15 707.60 267.47 705.73 C 268.50 706.75 269.54 707.78 270.57 708.82 C 266.55 713.29 259.30 714.40 254.36 710.82 C 248.53 706.90 247.83 697.70 252.78 692.81 Z" />
<path fill="#00a3e6" opacity="1.00" d=" M 282.40 689.64 C 289.96 687.35 298.48 693.96 297.53 701.96 C 297.25 709.49 288.88 714.77 281.87 712.46 C 275.68 710.89 271.85 703.79 273.84 697.74 C 274.97 693.75 278.38 690.59 282.40 689.64 M 282.36 694.48 C 276.99 697.02 277.45 706.04 283.07 708.01 C 287.63 709.93 292.86 705.79 292.34 700.95 C 292.55 695.99 286.83 692.09 282.36 694.48 Z" />
<path fill="#00a3e6" opacity="1.00" d=" M 307.97 693.02 C 311.39 687.85 320.61 687.91 322.64 694.26 C 323.87 700.20 322.95 706.36 323.22 712.40 C 321.48 712.39 319.75 712.39 318.02 712.40 C 317.81 707.29 318.46 702.12 317.64 697.06 C 316.47 692.80 309.58 693.11 308.42 697.23 C 307.56 702.23 308.25 707.37 308.03 712.43 C 306.29 712.42 304.56 712.42 302.84 712.43 C 302.83 704.86 302.83 697.30 302.84 689.74 C 304.57 689.73 306.30 689.73 308.04 689.74 C 308.02 690.56 307.99 692.20 307.97 693.02 Z" />
<path fill="#00a3e6" opacity="1.00" d=" M 416.56 689.74 C 423.45 687.49 431.62 692.58 432.02 699.95 C 432.98 707.18 426.08 713.82 418.91 712.90 C 412.43 712.66 407.03 706.37 407.94 699.92 C 408.34 695.15 411.95 690.94 416.56 689.74 M 417.32 694.30 C 411.71 696.44 411.74 705.52 417.20 707.84 C 421.38 709.92 426.73 706.60 426.83 701.96 C 427.68 696.88 422.17 692.10 417.32 694.30 Z" />
<path fill="#00a3e6" opacity="1.00" d=" M 442.46 694.61 C 444.07 691.51 446.95 689.25 450.55 689.11 C 450.58 690.94 450.60 692.77 450.63 694.62 C 447.89 694.96 444.82 695.84 443.63 698.63 C 441.77 702.97 442.82 707.85 442.56 712.43 C 440.82 712.42 439.09 712.42 437.37 712.44 C 437.37 704.86 437.33 697.29 437.39 689.72 C 439.11 689.72 440.84 689.73 442.58 689.74 C 442.55 691.36 442.51 692.98 442.46 694.61 Z" />
<path fill="#00a3e6" opacity="1.00" d=" M 454.30 706.65 C 450.29 699.22 456.07 688.28 464.98 689.28 C 471.91 689.35 475.73 696.70 475.11 702.93 C 469.44 702.95 463.77 702.89 458.11 702.97 C 458.93 705.23 460.13 707.77 462.72 708.38 C 465.74 709.38 468.75 707.96 471.08 706.09 C 472.09 706.98 473.11 707.89 474.12 708.80 C 468.95 714.93 457.73 714.19 454.30 706.65 M 458.04 699.41 C 462.05 699.49 466.07 699.49 470.10 699.41 C 469.41 696.50 467.47 693.21 464.02 693.52 C 460.66 693.41 458.84 696.61 458.04 699.41 Z" />
<path fill="#00a3e6" opacity="1.00" d=" M 482.64 690.70 C 486.83 688.14 492.02 689.66 496.03 691.81 C 495.34 693.03 494.65 694.27 493.97 695.51 C 491.46 694.45 488.80 692.96 486.00 693.66 C 484.51 693.96 483.71 695.99 484.89 697.05 C 488.04 699.15 492.31 699.18 495.07 701.96 C 497.82 704.88 496.44 710.29 492.81 711.84 C 488.06 714.06 482.60 712.32 478.41 709.67 C 479.15 708.45 479.91 707.24 480.67 706.05 C 483.54 707.68 486.97 709.60 490.35 708.32 C 491.98 707.84 492.29 705.31 490.70 704.55 C 487.70 702.98 484.06 702.77 481.40 700.58 C 478.36 697.98 479.22 692.56 482.64 690.70 Z" />
<path fill="#00a3e6" opacity="1.00" d=" M 137.15 689.74 C 138.89 689.73 140.62 689.72 142.35 689.74 C 142.37 697.30 142.36 704.87 142.36 712.43 C 140.62 712.42 138.89 712.42 137.15 712.43 C 137.15 704.86 137.15 697.30 137.15 689.74 Z" />
<path fill="#00a3e6" opacity="1.00" d=" M 170.94 689.74 C 172.67 689.73 174.40 689.73 176.13 689.74 C 176.14 697.30 176.14 704.86 176.13 712.43 C 174.40 712.42 172.67 712.42 170.94 712.43 C 170.93 704.87 170.93 697.30 170.94 689.74 Z" />
<path fill="#00a3e6" opacity="1.00" d=" M 372.03 691.15 C 376.58 689.51 381.87 688.38 386.43 690.62 C 389.46 692.14 390.69 695.69 390.63 698.90 C 390.71 703.40 390.61 707.90 390.63 712.40 C 388.92 712.39 387.20 712.39 385.49 712.40 C 385.51 711.79 385.54 710.56 385.56 709.94 C 382.14 713.07 376.68 714.02 372.75 711.31 C 369.01 708.80 369.16 702.48 372.96 700.10 C 376.82 697.70 381.59 698.57 385.81 699.28 C 385.25 697.64 385.07 695.51 383.26 694.74 C 380.09 693.24 376.53 694.40 373.38 695.33 C 372.92 693.92 372.47 692.54 372.03 691.15 M 376.72 702.77 C 374.72 703.88 374.67 707.21 376.74 708.29 C 380.69 710.57 386.61 707.49 385.67 702.60 C 382.74 702.19 379.47 701.19 376.72 702.77 Z" />
</g>
<g id="#ffffffff">
<path fill="#ffffff" opacity="1.00" d=" M 31.47 11.71 C 34.24 10.96 37.12 10.75 39.97 10.73 C 213.63 10.75 387.28 10.72 560.94 10.74 C 572.16 10.49 583.01 17.68 587.14 28.10 C 589.62 33.72 589.27 39.96 589.25 45.95 C 589.25 272.63 589.25 499.31 589.25 725.99 C 589.19 732.94 589.91 740.27 586.81 746.75 C 582.47 756.73 571.90 763.56 561.01 763.34 C 389.35 763.33 217.70 763.34 46.04 763.33 C 40.38 763.31 34.51 763.77 29.14 761.63 C 18.20 757.80 10.46 746.61 10.76 735.02 C 10.74 503.04 10.75 271.05 10.75 39.07 C 10.41 26.62 19.40 14.74 31.47 11.71 M 168.13 88.13 C 202.39 125.33 228.14 169.67 247.93 216.02 C 265.17 256.50 277.61 298.89 286.70 341.89 C 295.92 319.77 307.10 298.40 320.81 278.70 C 338.06 253.79 359.32 231.71 383.38 213.30 C 421.08 184.36 465.14 164.64 510.62 151.46 C 503.30 131.72 490.26 114.22 473.60 101.39 C 453.62 85.85 428.30 77.46 403.01 77.75 C 376.45 77.82 350.00 87.48 329.81 104.77 C 322.57 110.85 316.47 118.12 309.95 124.93 C 305.95 120.65 301.98 116.34 297.93 112.10 C 281.23 94.84 258.88 83.17 235.18 79.32 C 212.61 75.52 188.94 78.59 168.13 88.13 M 105.26 164.97 C 101.78 179.34 102.05 194.24 102.73 208.90 C 103.98 229.96 110.45 250.41 119.56 269.33 C 132.09 295.41 149.31 318.95 168.22 340.74 C 189.46 365.12 213.03 387.36 237.65 408.29 C 231.90 351.55 221.38 294.80 200.35 241.58 C 185.08 202.85 163.82 166.20 135.74 135.32 C 132.10 131.34 128.04 127.78 123.99 124.24 C 115.08 136.37 108.64 150.31 105.26 164.97 M 473.37 193.47 C 446.57 205.52 421.74 222.09 400.75 242.69 C 377.61 265.26 359.19 292.41 345.51 321.63 C 324.61 366.28 314.18 415.19 310.04 464.12 C 338.50 443.85 366.22 422.49 392.51 399.46 C 420.13 375.15 446.39 349.07 468.79 319.81 C 486.47 296.67 501.81 271.30 510.67 243.42 C 517.66 221.71 518.83 198.50 516.64 175.92 C 502.05 181.35 487.62 187.20 473.37 193.47 M 271.98 502.47 C 292.26 554.14 312.59 605.80 332.90 657.46 C 345.77 657.48 358.63 657.45 371.49 657.48 C 391.84 605.82 412.12 554.14 432.44 502.48 C 417.21 502.46 401.98 502.46 386.74 502.48 C 375.37 534.94 364.01 567.39 352.64 599.86 C 341.25 567.40 329.90 534.93 318.52 502.47 C 303.01 502.46 287.49 502.47 271.98 502.47 M 40.69 502.54 C 60.97 554.17 81.24 605.80 101.57 657.41 C 114.41 657.38 127.26 657.41 140.11 657.40 C 160.40 605.78 180.70 554.16 200.97 502.53 C 185.75 502.56 170.52 502.49 155.29 502.57 C 144.00 534.99 132.61 567.38 121.27 599.78 C 109.84 567.39 98.56 534.94 87.17 502.53 C 71.68 502.54 56.18 502.52 40.69 502.54 M 214.41 657.56 C 228.45 657.57 242.50 657.57 256.54 657.56 C 256.54 605.90 256.56 554.23 256.53 502.56 C 242.49 502.56 228.45 502.57 214.42 502.56 C 214.39 554.23 214.41 605.90 214.41 657.56 M 455.25 502.55 C 433.96 554.23 412.63 605.88 391.34 657.56 C 405.95 657.53 420.56 657.64 435.17 657.50 C 438.64 648.32 442.28 639.21 445.83 630.07 C 465.14 630.07 484.46 630.05 503.77 630.08 C 507.39 639.24 511.05 648.39 514.68 657.56 C 529.56 657.57 544.43 657.56 559.31 657.56 C 538.01 605.88 516.70 554.20 495.37 502.53 C 481.99 502.55 468.62 502.51 455.25 502.55 M 196.31 679.80 C 194.78 682.13 193.26 684.47 191.76 686.83 C 193.09 686.82 194.42 686.83 195.76 686.84 C 197.52 685.20 199.27 683.55 201.02 681.90 C 199.45 681.19 197.88 680.49 196.31 679.80 M 397.13 681.05 C 397.13 691.51 397.12 701.97 397.13 712.43 C 398.86 712.43 400.59 712.42 402.32 712.43 C 402.33 701.97 402.33 691.51 402.33 681.05 C 400.59 681.04 398.86 681.04 397.13 681.05 M 103.50 682.33 C 107.69 692.43 111.82 702.56 116.06 712.65 C 117.59 712.63 119.12 712.62 120.66 712.62 C 124.82 702.53 129.01 692.44 133.16 682.33 C 131.25 682.33 129.35 682.33 127.45 682.34 C 124.45 690.05 121.43 697.74 118.44 705.44 C 115.38 697.75 112.38 690.04 109.36 682.34 C 107.41 682.34 105.45 682.33 103.50 682.33 M 136.95 681.31 C 136.94 682.95 136.95 684.59 136.95 686.25 C 138.81 686.24 140.67 686.24 142.53 686.25 C 142.53 684.59 142.53 682.95 142.53 681.31 C 140.67 681.30 138.81 681.30 136.95 681.31 M 170.73 681.31 C 170.72 682.95 170.73 684.59 170.73 686.25 C 172.59 686.24 174.45 686.24 176.31 686.25 C 176.31 684.59 176.32 682.95 176.32 681.31 C 174.45 681.30 172.59 681.30 170.73 681.31 M 340.40 682.34 C 344.63 692.45 348.67 702.65 353.03 712.71 C 354.54 712.66 356.05 712.63 357.57 712.60 C 361.72 702.50 365.91 692.43 370.05 682.33 C 368.14 682.32 366.24 682.33 364.34 682.34 C 361.34 690.04 358.33 697.74 355.32 705.45 C 352.28 697.75 349.27 690.05 346.26 682.35 C 344.30 682.34 342.35 682.33 340.40 682.34 M 151.63 690.62 C 148.10 692.44 147.16 698.01 150.31 700.62 C 152.99 702.82 156.67 702.95 159.63 704.62 C 161.09 705.30 160.84 707.75 159.31 708.30 C 155.89 709.62 152.43 707.70 149.52 706.06 C 148.76 707.21 148.01 708.37 147.26 709.54 C 151.37 712.42 156.99 714.05 161.75 711.80 C 165.55 710.13 166.77 704.22 163.46 701.51 C 160.68 699.18 156.79 699.04 153.82 697.10 C 152.43 696.06 153.42 693.90 154.97 693.63 C 157.76 693.01 160.37 694.47 162.85 695.52 C 163.53 694.27 164.20 693.03 164.88 691.80 C 160.91 689.67 155.80 688.17 151.63 690.62 M 190.46 689.71 C 185.42 690.96 181.64 695.81 181.68 701.00 C 181.35 707.59 187.46 713.33 193.97 712.94 C 200.77 713.12 206.76 706.63 205.83 699.85 C 205.36 692.56 197.29 687.54 190.46 689.71 M 216.27 693.02 C 216.30 692.20 216.36 690.56 216.40 689.74 C 214.65 689.73 212.91 689.73 211.17 689.73 C 211.17 697.30 211.17 704.86 211.17 712.43 C 212.90 712.42 214.63 712.42 216.36 712.43 C 216.54 707.51 216.01 702.55 216.63 697.66 C 217.42 693.17 224.83 692.61 225.99 697.13 C 226.77 702.17 226.14 707.32 226.36 712.41 C 228.09 712.40 229.81 712.39 231.54 712.40 C 231.41 706.76 231.87 701.10 231.28 695.49 C 230.74 691.57 226.83 688.83 222.97 689.28 C 220.18 689.21 218.11 691.20 216.27 693.02 M 252.78 692.81 C 247.83 697.70 248.53 706.90 254.36 710.82 C 259.30 714.40 266.55 713.29 270.57 708.82 C 269.54 707.78 268.50 706.75 267.47 705.73 C 265.15 707.60 262.08 709.34 259.06 707.98 C 253.53 705.97 253.18 697.11 258.38 694.50 C 261.42 692.79 264.84 694.45 267.22 696.51 C 268.28 695.35 269.34 694.20 270.41 693.06 C 265.85 688.24 257.38 687.87 252.78 692.81 M 282.40 689.64 C 278.38 690.59 274.97 693.75 273.84 697.74 C 271.85 703.79 275.68 710.89 281.87 712.46 C 288.88 714.77 297.25 709.49 297.53 701.96 C 298.48 693.96 289.96 687.35 282.40 689.64 M 307.97 693.02 C 307.99 692.20 308.02 690.56 308.04 689.74 C 306.30 689.73 304.57 689.73 302.84 689.74 C 302.83 697.30 302.83 704.86 302.84 712.43 C 304.56 712.42 306.29 712.42 308.03 712.43 C 308.25 707.37 307.56 702.23 308.42 697.23 C 309.58 693.11 316.47 692.80 317.64 697.06 C 318.46 702.12 317.81 707.29 318.02 712.40 C 319.75 712.39 321.48 712.39 323.22 712.40 C 322.95 706.36 323.87 700.20 322.64 694.26 C 320.61 687.91 311.39 687.85 307.97 693.02 M 416.56 689.74 C 411.95 690.94 408.34 695.15 407.94 699.92 C 407.03 706.37 412.43 712.66 418.91 712.90 C 426.08 713.82 432.98 707.18 432.02 699.95 C 431.62 692.58 423.45 687.49 416.56 689.74 M 442.46 694.61 C 442.51 692.98 442.55 691.36 442.58 689.74 C 440.84 689.73 439.11 689.72 437.39 689.72 C 437.33 697.29 437.37 704.86 437.37 712.44 C 439.09 712.42 440.82 712.42 442.56 712.43 C 442.82 707.85 441.77 702.97 443.63 698.63 C 444.82 695.84 447.89 694.96 450.63 694.62 C 450.60 692.77 450.58 690.94 450.55 689.11 C 446.95 689.25 444.07 691.51 442.46 694.61 M 454.30 706.65 C 457.73 714.19 468.95 714.93 474.12 708.80 C 473.11 707.89 472.09 706.98 471.08 706.09 C 468.75 707.96 465.74 709.38 462.72 708.38 C 460.13 707.77 458.93 705.23 458.11 702.97 C 463.77 702.89 469.44 702.95 475.11 702.93 C 475.73 696.70 471.91 689.35 464.98 689.28 C 456.07 688.28 450.29 699.22 454.30 706.65 M 482.64 690.70 C 479.22 692.56 478.36 697.98 481.40 700.58 C 484.06 702.77 487.70 702.98 490.70 704.55 C 492.29 705.31 491.98 707.84 490.35 708.32 C 486.97 709.60 483.54 707.68 480.67 706.05 C 479.91 707.24 479.15 708.45 478.41 709.67 C 482.60 712.32 488.06 714.06 492.81 711.84 C 496.44 710.29 497.82 704.88 495.07 701.96 C 492.31 699.18 488.04 699.15 484.89 697.05 C 483.71 695.99 484.51 693.96 486.00 693.66 C 488.80 692.96 491.46 694.45 493.97 695.51 C 494.65 694.27 495.34 693.03 496.03 691.81 C 492.02 689.66 486.83 688.14 482.64 690.70 M 137.15 689.74 C 137.15 697.30 137.15 704.86 137.15 712.43 C 138.89 712.42 140.62 712.42 142.36 712.43 C 142.36 704.87 142.37 697.30 142.35 689.74 C 140.62 689.72 138.89 689.73 137.15 689.74 M 170.94 689.74 C 170.93 697.30 170.93 704.87 170.94 712.43 C 172.67 712.42 174.40 712.42 176.13 712.43 C 176.14 704.86 176.14 697.30 176.13 689.74 C 174.40 689.73 172.67 689.73 170.94 689.74 M 372.03 691.15 C 372.47 692.54 372.92 693.92 373.38 695.33 C 376.53 694.40 380.09 693.24 383.26 694.74 C 385.07 695.51 385.25 697.64 385.81 699.28 C 381.59 698.57 376.82 697.70 372.96 700.10 C 369.16 702.48 369.01 708.80 372.75 711.31 C 376.68 714.02 382.14 713.07 385.56 709.94 C 385.54 710.56 385.51 711.79 385.49 712.40 C 387.20 712.39 388.92 712.39 390.63 712.40 C 390.61 707.90 390.71 703.40 390.63 698.90 C 390.69 695.69 389.46 692.14 386.43 690.62 C 381.87 688.38 376.58 689.51 372.03 691.15 Z" />
<path fill="#ffffff" opacity="1.00" d=" M 302.48 153.64 C 319.35 150.01 337.82 159.34 344.93 175.05 C 349.13 183.92 349.85 194.41 346.71 203.72 C 343.63 213.16 336.74 221.26 327.95 225.86 C 318.73 230.74 307.51 231.64 297.65 228.28 C 286.57 224.61 277.39 215.66 273.52 204.63 C 269.61 193.91 270.82 181.47 276.76 171.72 C 282.26 162.40 291.86 155.66 302.48 153.64 Z" />
<path fill="#ffffff" opacity="1.00" d=" M 474.68 554.12 C 474.84 554.12 475.17 554.11 475.34 554.11 C 480.86 568.35 486.39 582.61 491.67 596.94 C 480.46 596.76 469.26 596.93 458.05 596.85 C 463.63 582.62 469.01 568.31 474.68 554.12 Z" />
<path fill="#ffffff" opacity="1.00" d=" M 191.21 694.27 C 196.07 692.13 201.49 696.95 200.63 701.99 C 200.51 706.56 195.31 709.86 191.14 707.90 C 185.53 705.67 185.47 696.36 191.21 694.27 Z" />
<path fill="#ffffff" opacity="1.00" d=" M 282.36 694.48 C 286.83 692.09 292.55 695.99 292.34 700.95 C 292.86 705.79 287.63 709.93 283.07 708.01 C 277.45 706.04 276.99 697.02 282.36 694.48 Z" />
<path fill="#ffffff" opacity="1.00" d=" M 417.32 694.30 C 422.17 692.10 427.68 696.88 426.83 701.96 C 426.73 706.60 421.38 709.92 417.20 707.84 C 411.74 705.52 411.71 696.44 417.32 694.30 Z" />
<path fill="#ffffff" opacity="1.00" d=" M 458.04 699.41 C 458.84 696.61 460.66 693.41 464.02 693.52 C 467.47 693.21 469.41 696.50 470.10 699.41 C 466.07 699.49 462.05 699.49 458.04 699.41 Z" />
<path fill="#ffffff" opacity="1.00" d=" M 376.72 702.77 C 379.47 701.19 382.74 702.19 385.67 702.60 C 386.61 707.49 380.69 710.57 376.74 708.29 C 374.67 707.21 374.72 703.88 376.72 702.77 Z" />
</g>
</svg>
