<?xml version="1.0" encoding="UTF-8" ?>
<!DOCTYPE svg PUBLIC "-//W3C//DTD SVG 1.1//EN" "http://www.w3.org/Graphics/SVG/1.1/DTD/svg11.dtd">
<svg width="512pt" height="512pt" viewBox="0 0 512 512" version="1.1" xmlns="http://www.w3.org/2000/svg">
<g id="#58585aff">
<path fill="#58585a" opacity="1.00" d=" M 234.02 29.61 C 256.13 26.64 278.92 28.98 300.00 36.30 C 323.01 44.17 343.75 58.19 360.10 76.15 C 354.94 75.88 349.76 77.36 345.89 80.86 C 337.93 87.59 329.64 93.93 321.89 100.88 C 314.68 94.04 306.66 87.95 297.76 83.46 C 287.13 78.37 275.70 74.82 263.96 73.54 C 253.80 73.00 243.48 72.73 233.46 74.82 C 214.22 78.59 195.84 87.99 182.42 102.42 C 155.14 128.17 146.53 170.56 159.14 205.53 C 165.06 222.55 176.01 237.58 189.66 249.25 C 203.00 259.74 218.73 267.40 235.55 270.19 C 260.72 274.56 287.66 269.21 308.73 254.61 C 321.85 246.02 332.45 233.90 340.10 220.28 C 345.55 210.66 348.51 199.91 351.00 189.22 C 353.57 185.46 357.48 182.88 360.90 179.94 C 372.38 170.34 384.17 161.10 395.46 151.29 C 396.78 161.46 396.71 171.74 396.49 181.98 C 394.39 212.71 382.35 242.83 362.03 266.06 C 354.19 273.84 346.85 282.27 337.72 288.61 C 313.09 306.72 282.55 316.45 252.01 316.42 C 225.95 316.02 199.89 308.89 177.68 295.15 C 156.56 282.28 138.92 263.82 126.93 242.19 C 115.90 222.63 110.05 200.37 108.88 177.99 C 107.48 141.15 120.64 103.81 145.47 76.46 C 149.59 72.25 153.72 68.04 158.00 64.00 C 179.20 45.36 206.02 33.23 234.02 29.61 Z" />
</g>
<g id="#1e9da6ff">
<path fill="#1e9da6" opacity="1.00" d=" M 350.75 90.76 C 353.29 88.61 356.36 86.11 359.93 86.90 C 363.05 87.23 365.05 89.82 366.92 92.04 C 376.02 103.28 385.26 114.41 394.47 125.56 C 396.34 127.86 398.13 130.86 397.18 133.93 C 396.23 137.95 392.38 139.99 389.51 142.52 C 346.89 177.57 304.26 212.61 261.65 247.67 C 259.39 249.48 257.09 251.84 253.97 251.82 C 251.11 252.09 248.36 250.64 246.63 248.41 C 222.12 218.58 197.59 188.76 173.05 158.95 C 171.45 157.02 169.90 154.73 170.27 152.08 C 170.16 148.37 173.36 146.01 175.91 143.88 C 187.47 134.48 198.89 124.89 210.48 115.54 C 214.16 112.42 219.90 113.63 222.57 117.46 C 235.42 133.12 248.27 148.79 261.18 164.41 C 291.08 139.91 320.91 115.33 350.75 90.76 Z" />
<path fill="#1e9da6" opacity="1.00" d=" M 334.30 340.93 C 347.16 339.52 360.86 341.88 371.59 349.41 C 383.17 357.28 390.15 370.58 392.42 384.17 C 394.68 398.90 393.09 414.62 385.99 427.89 C 379.75 439.64 368.36 448.37 355.48 451.61 C 339.66 455.71 321.50 453.88 308.26 443.73 C 297.60 435.78 291.21 423.17 288.99 410.24 C 286.13 392.96 289.04 374.03 299.95 359.93 C 308.13 349.17 320.93 342.39 334.30 340.93 M 335.36 360.60 C 328.39 362.05 322.64 367.21 319.35 373.38 C 314.36 382.51 313.49 393.27 314.29 403.48 C 315.02 412.03 317.76 420.86 323.92 427.08 C 329.51 433.03 338.43 435.50 346.32 433.52 C 352.38 432.18 357.56 428.05 360.79 422.82 C 366.55 413.71 367.89 402.53 367.23 391.97 C 366.26 382.27 363.21 372.03 355.54 365.49 C 350.15 360.58 342.36 359.17 335.36 360.60 Z" />
<path fill="#1e9da6" opacity="1.00" d=" M 29.22 342.25 C 38.27 342.39 47.33 342.28 56.39 342.32 C 64.03 370.71 73.47 398.65 79.38 427.49 C 79.97 426.48 80.57 425.46 80.87 424.33 C 86.75 397.44 95.63 371.35 103.20 344.92 C 103.63 343.97 103.70 342.03 105.21 342.32 C 113.52 342.26 121.84 342.37 130.15 342.29 C 117.97 378.79 105.46 415.19 93.45 451.75 C 83.74 451.82 74.03 451.76 64.32 451.78 C 52.73 415.24 41.08 378.71 29.22 342.25 Z" />
<path fill="#1e9da6" opacity="1.00" d=" M 151.30 342.34 C 162.01 342.24 172.74 342.36 183.46 342.31 C 194.56 378.85 206.12 415.25 217.25 451.79 C 208.42 451.47 199.44 452.36 190.72 451.38 C 187.82 442.16 185.22 432.85 182.30 423.65 C 171.78 423.80 161.26 423.73 150.75 423.68 C 148.27 433.09 145.50 442.43 143.04 451.84 C 134.48 451.73 125.91 451.72 117.35 451.87 C 127.86 418.34 137.90 384.67 148.23 351.09 C 149.27 348.19 149.68 344.99 151.30 342.34 M 164.08 368.37 C 161.51 380.91 157.56 393.09 154.29 405.45 C 162.48 405.45 170.68 405.43 178.87 405.46 C 174.67 390.85 170.07 376.34 166.69 361.51 C 164.81 363.31 164.64 365.98 164.08 368.37 Z" />
<path fill="#1e9da6" opacity="1.00" d=" M 224.17 342.25 C 232.38 342.35 240.58 342.36 248.79 342.24 C 248.64 371.94 248.84 401.64 248.69 431.34 C 263.33 431.25 277.96 431.37 292.60 431.28 C 292.51 438.12 292.49 444.97 292.60 451.81 C 269.80 451.76 246.99 451.75 224.18 451.82 C 224.24 415.29 224.25 378.77 224.17 342.25 Z" />
<path fill="#1e9da6" opacity="1.00" d=" M 401.61 343.62 C 416.99 341.67 432.62 340.48 448.07 342.15 C 457.63 343.15 467.76 346.25 474.07 353.94 C 479.90 361.26 481.28 371.42 479.18 380.37 C 476.78 389.58 469.33 396.77 460.63 400.21 C 464.38 402.34 467.92 405.06 470.25 408.76 C 474.32 415.17 475.79 422.73 477.77 429.96 C 479.77 437.26 481.48 444.67 484.16 451.77 C 475.76 451.81 467.36 451.71 458.96 451.82 C 455.11 442.40 453.07 432.39 450.52 422.58 C 449.18 418.15 447.36 413.24 443.03 410.93 C 437.88 407.95 431.73 408.84 426.05 408.72 C 425.96 423.08 426.07 437.44 425.99 451.81 C 417.85 451.78 409.71 451.72 401.58 451.84 C 401.61 415.77 401.54 379.69 401.61 343.62 M 426.11 360.36 C 425.94 370.55 425.99 380.74 426.09 390.92 C 434.12 391.02 443.17 392.15 450.01 386.99 C 457.99 381.19 457.59 367.01 448.74 362.23 C 441.80 358.58 433.61 359.60 426.11 360.36 Z" />
</g>
</svg>
