<?xml version="1.0" encoding="UTF-8" ?>
<!DOCTYPE svg PUBLIC "-//W3C//DTD SVG 1.1//EN" "http://www.w3.org/Graphics/SVG/1.1/DTD/svg11.dtd">
<svg width="1256pt" height="1256pt" viewBox="0 0 1256 1256" version="1.1" xmlns="http://www.w3.org/2000/svg">
<g id="#ffffffff">
<path fill="#ffffff" opacity="1.00" d=" M 0.00 0.00 L 607.83 0.00 C 598.24 1.28 588.56 1.59 578.92 2.18 C 447.07 11.01 318.76 63.63 218.18 149.24 C 170.86 189.43 129.38 236.55 95.89 288.84 C 48.40 362.74 16.62 446.69 3.48 533.56 C 2.13 541.30 1.62 549.18 0.00 556.88 L 0.00 0.00 Z" />
<path fill="#ffffff" opacity="1.00" d=" M 636.20 0.00 L 1256.00 0.00 L 1256.00 1256.00 L 654.64 1256.00 C 659.29 1254.74 664.14 1254.49 668.93 1254.20 C 780.81 1246.47 890.34 1207.74 982.29 1143.54 C 956.63 1122.55 930.41 1102.22 904.53 1081.49 C 875.11 1058.25 845.82 1034.84 816.46 1011.53 C 812.01 1007.97 806.33 1006.73 801.14 1004.66 C 769.35 992.81 737.61 980.82 705.82 968.99 C 698.90 966.24 691.72 964.11 684.97 960.98 C 681.93 959.85 682.29 955.32 685.23 954.33 C 694.40 949.90 703.91 946.22 713.19 942.02 C 762.39 919.95 811.72 898.17 860.97 876.21 C 869.65 872.24 878.70 868.90 886.77 863.71 C 899.18 856.18 909.53 845.89 918.91 834.91 C 924.54 828.25 930.85 822.22 936.59 815.67 C 941.63 810.37 946.02 804.41 951.75 799.79 C 967.02 786.99 989.07 782.96 1007.90 789.46 C 1018.44 792.70 1026.83 800.12 1036.08 805.78 C 1079.53 834.03 1122.83 862.52 1166.24 890.84 C 1173.41 895.34 1180.16 900.55 1187.71 904.43 C 1229.68 819.43 1251.44 724.73 1252.03 630.00 C 1252.23 604.53 1250.08 579.12 1247.29 553.83 C 1235.28 451.65 1197.43 352.74 1138.51 268.44 C 1081.00 186.13 1003.38 118.01 914.17 71.90 C 839.16 32.88 756.25 9.17 671.96 2.60 C 660.04 1.58 648.08 1.40 636.20 0.00 Z" />
<path fill="#ffffff" opacity="1.00" d=" M 803.38 89.67 C 814.60 87.42 827.09 87.95 837.12 93.96 C 844.69 98.52 848.99 106.94 850.74 115.37 C 852.93 126.49 852.72 138.26 849.04 149.05 C 846.40 156.86 841.01 163.88 833.61 167.71 C 823.10 173.32 810.48 173.41 799.09 170.74 C 791.37 168.70 784.23 163.60 780.64 156.35 C 776.54 148.61 775.46 139.65 775.58 131.00 C 775.40 121.24 777.31 111.06 782.98 102.94 C 787.56 95.92 795.37 91.58 803.38 89.67 M 808.40 102.67 C 801.44 104.34 796.12 110.43 794.43 117.25 C 792.16 126.23 792.36 135.75 794.44 144.74 C 796.00 151.42 801.47 157.17 808.32 158.37 C 814.55 159.14 821.61 158.98 826.54 154.53 C 834.13 148.09 834.83 137.18 834.64 127.93 C 834.43 119.78 833.05 110.09 825.64 105.26 C 820.69 101.57 814.19 102.10 808.40 102.67 Z" />
<path fill="#ffffff" opacity="1.00" d=" M 471.62 93.44 C 472.12 91.73 473.08 90.10 475.01 89.82 C 479.33 89.28 483.71 89.58 488.06 89.55 C 490.78 89.49 494.02 90.44 494.65 93.48 C 502.33 115.14 509.85 136.87 517.46 158.56 C 518.70 162.48 520.83 166.38 520.14 170.62 C 514.78 171.42 508.95 172.25 503.78 170.21 C 501.19 164.50 499.85 158.33 497.73 152.44 C 487.56 152.51 477.39 152.53 467.22 152.44 C 465.25 158.40 463.45 164.42 461.25 170.30 C 456.33 171.69 451.12 171.75 446.15 170.56 C 446.09 168.30 446.24 166.01 447.06 163.89 C 455.37 140.45 463.34 116.89 471.62 93.44 M 471.26 139.55 C 478.63 139.61 486.02 139.69 493.39 139.50 C 489.90 128.33 486.52 117.07 482.18 106.20 C 478.48 117.29 474.57 128.33 471.26 139.55 Z" />
<path fill="#ffffff" opacity="1.00" d=" M 530.62 95.94 C 530.55 93.69 531.21 90.17 534.16 90.42 C 543.45 90.16 552.74 90.36 562.03 90.33 C 568.59 90.21 575.33 92.31 580.27 96.72 C 586.52 102.33 587.73 111.85 585.45 119.60 C 583.67 126.06 578.10 130.83 571.93 132.99 C 574.24 135.72 577.24 137.89 579.03 141.05 C 581.98 146.01 583.87 151.49 586.23 156.72 C 588.06 161.08 590.39 165.36 590.86 170.15 C 585.33 171.14 579.60 171.12 574.05 170.40 C 571.24 165.99 569.89 160.85 567.80 156.09 C 565.45 150.72 563.87 144.67 559.51 140.49 C 556.27 137.26 551.33 138.49 547.23 138.21 C 547.07 147.16 547.21 156.11 547.18 165.06 C 547.14 166.80 547.11 168.64 546.31 170.24 C 541.58 171.79 536.34 171.82 531.60 170.30 C 530.45 169.17 530.63 167.53 530.60 166.06 C 530.66 142.69 530.60 119.31 530.62 95.94 M 547.20 102.75 C 547.17 110.35 547.06 117.96 547.26 125.56 C 551.35 125.40 555.48 125.76 559.56 125.25 C 563.23 124.35 567.12 122.24 568.40 118.44 C 570.17 113.70 569.21 107.25 564.49 104.59 C 559.22 101.64 552.96 102.74 547.20 102.75 Z" />
<path fill="#ffffff" opacity="1.00" d=" M 664.66 90.69 C 669.86 89.05 675.46 89.18 680.73 90.42 C 681.01 92.26 681.24 94.10 681.26 95.97 C 681.26 118.65 681.23 141.34 681.28 164.02 C 681.29 166.18 681.05 168.33 680.60 170.43 C 675.34 171.72 669.91 171.62 664.69 170.20 C 664.39 143.70 664.48 117.19 664.66 90.69 Z" />
<path fill="#ffffff" opacity="1.00" d=" M 393.85 96.94 C 393.69 94.21 394.67 90.55 397.95 90.40 C 405.96 90.18 413.98 90.38 422.00 90.31 C 430.46 90.27 439.70 93.13 444.93 100.17 C 449.63 106.56 449.78 115.10 448.31 122.60 C 446.66 131.06 440.04 138.14 431.86 140.71 C 425.01 143.28 417.58 142.65 410.41 142.56 C 409.77 151.84 411.04 161.22 409.67 170.43 C 404.62 171.59 399.41 171.66 394.38 170.40 C 393.59 165.30 393.88 160.13 393.84 155.00 C 393.86 135.64 393.82 116.29 393.85 96.94 M 410.31 102.77 C 410.23 111.85 410.22 120.93 410.32 130.01 C 414.74 130.54 419.22 130.15 423.57 129.23 C 432.93 125.87 434.74 110.96 426.99 105.06 C 422.02 102.03 415.88 102.63 410.31 102.77 Z" />
<path fill="#ffffff" opacity="1.00" d=" M 594.55 90.30 C 614.46 90.35 634.38 90.30 654.31 90.33 C 655.64 94.60 655.51 99.15 654.35 103.44 C 647.11 103.67 639.86 103.44 632.62 103.61 C 632.37 125.82 632.87 148.05 632.37 170.25 C 627.14 171.63 621.71 171.66 616.46 170.37 C 616.07 167.94 615.80 165.47 615.81 163.01 C 615.88 143.21 615.78 123.42 615.86 103.62 C 608.73 103.44 601.59 103.63 594.46 103.49 C 592.91 99.25 592.81 94.50 594.55 90.30 Z" />
<path fill="#ffffff" opacity="1.00" d=" M 698.66 95.95 C 698.58 93.74 699.25 90.53 701.99 90.44 C 710.32 90.13 718.66 90.42 726.99 90.32 C 737.26 90.16 748.17 92.97 755.61 100.40 C 762.82 107.56 765.81 118.01 765.69 127.97 C 765.96 138.29 764.34 149.36 757.73 157.67 C 753.05 164.00 745.63 167.75 738.07 169.39 C 729.85 171.33 721.35 170.53 713.00 170.71 C 708.47 170.56 703.78 171.29 699.41 169.79 C 698.91 167.56 698.57 165.29 698.62 163.01 C 698.69 140.66 698.59 118.30 698.66 95.95 M 715.30 103.06 C 715.09 121.26 715.12 139.46 715.28 157.65 C 719.52 157.58 723.77 157.73 728.02 157.51 C 735.22 157.22 742.17 152.85 745.34 146.34 C 748.57 139.84 749.00 132.35 748.40 125.23 C 747.73 118.74 745.47 111.95 740.06 107.88 C 733.21 102.04 723.63 103.25 715.30 103.06 Z" />
<path fill="#ffffff" opacity="1.00" d=" M 511.22 210.15 C 512.10 208.39 514.30 208.56 515.97 208.45 C 520.57 208.43 525.19 208.24 529.78 208.62 C 532.20 208.61 532.85 211.43 533.66 213.21 C 541.60 236.24 549.65 259.24 557.77 282.21 C 558.37 284.46 559.77 287.45 558.01 289.46 C 553.03 289.86 547.99 289.95 543.03 289.43 C 539.44 284.13 538.73 277.39 536.42 271.47 C 526.16 271.33 515.90 271.34 505.64 271.48 C 504.33 275.87 502.87 280.22 501.51 284.61 C 500.90 286.29 500.50 288.25 498.91 289.32 C 494.52 290.11 490.02 289.58 485.58 289.68 C 484.39 287.76 484.54 285.55 485.36 283.54 C 492.49 262.62 499.97 241.82 507.14 220.92 C 508.50 217.33 509.40 213.55 511.22 210.15 M 520.74 224.81 C 517.07 235.99 513.05 247.07 509.84 258.38 C 517.19 258.58 524.54 258.47 531.90 258.45 C 528.71 247.09 524.84 235.88 520.74 224.81 Z" />
<path fill="#ffffff" opacity="1.00" d=" M 565.73 208.71 C 581.47 208.76 597.20 208.72 612.94 208.72 C 615.35 208.45 616.79 210.90 617.00 213.00 C 617.53 217.31 617.08 221.96 614.64 225.67 C 607.06 238.04 599.16 250.22 591.53 262.56 C 588.75 267.13 585.54 271.46 583.30 276.33 C 594.85 276.58 606.41 276.33 617.97 276.47 C 618.78 280.63 620.23 286.03 617.00 289.48 C 600.66 289.72 584.29 289.65 567.95 289.51 C 564.01 289.63 563.36 284.99 563.60 282.01 C 563.13 276.46 566.79 271.99 569.56 267.60 C 578.83 252.46 588.72 237.70 597.77 222.44 C 587.27 222.11 576.76 222.25 566.26 222.37 C 563.79 218.20 564.35 213.15 565.73 208.71 Z" />
<path fill="#ffffff" opacity="1.00" d=" M 680.35 209.09 C 684.93 208.24 689.68 208.12 694.30 208.76 C 696.35 209.02 696.54 211.30 696.49 212.95 C 696.46 228.29 696.48 243.64 696.47 258.99 C 696.44 267.07 694.61 275.77 688.71 281.69 C 681.42 289.41 670.21 291.91 659.94 291.32 C 652.13 290.72 643.88 288.56 638.31 282.71 C 632.67 277.47 630.48 269.54 630.27 262.06 C 630.23 246.35 630.31 230.65 630.24 214.95 C 630.27 213.20 630.20 211.42 630.70 209.73 C 634.15 207.80 638.28 208.45 642.06 208.48 C 643.79 208.72 646.76 208.89 646.67 211.25 C 646.91 227.51 646.61 243.78 646.80 260.04 C 646.86 265.70 648.97 271.82 653.95 274.99 C 660.06 278.67 668.46 278.41 674.22 274.13 C 678.67 270.53 680.02 264.50 680.15 259.04 C 680.31 242.39 679.93 225.74 680.35 209.09 Z" />
<path fill="#ffffff" opacity="1.00" d=" M 713.85 209.82 C 716.55 207.98 719.95 208.48 723.04 208.39 C 725.25 208.50 727.63 208.31 729.67 209.38 C 730.33 210.81 730.30 212.41 730.35 213.95 C 730.30 234.54 730.35 255.14 730.32 275.73 C 739.36 276.03 748.50 275.00 757.47 276.46 C 758.18 280.81 759.17 285.79 756.39 289.66 C 743.91 289.51 731.43 289.69 718.95 289.57 C 716.73 289.80 714.34 288.57 713.84 286.29 C 713.33 283.56 713.61 280.76 713.56 278.00 C 713.59 258.00 713.59 238.00 713.56 218.00 C 713.60 215.28 713.36 212.52 713.85 209.82 Z" />
<path fill="#ffffff" opacity="1.00" d=" M 572.43 325.80 C 579.63 324.63 587.52 325.07 593.62 329.51 C 617.96 345.89 642.66 361.74 666.91 378.26 C 662.52 381.26 657.28 382.58 652.44 384.64 C 644.46 387.91 636.16 390.51 628.51 394.53 C 595.17 413.48 561.99 432.73 528.63 451.65 C 519.71 456.92 510.62 462.24 500.47 464.75 C 478.02 471.12 453.05 466.24 434.07 452.87 C 426.95 447.55 423.83 437.41 427.14 429.09 C 428.66 424.69 432.08 421.29 435.80 418.66 C 475.67 390.91 515.64 363.30 555.43 335.43 C 560.79 331.75 565.95 327.34 572.43 325.80 Z" />
<path fill="#ffffff" opacity="1.00" d=" M 810.85 350.11 C 817.71 347.06 825.38 346.83 832.75 347.56 C 848.88 350.09 862.41 363.92 864.69 380.08 C 867.53 396.66 857.97 413.97 842.84 421.04 C 830.63 427.74 818.60 434.78 806.44 441.58 C 797.23 447.11 787.55 451.83 778.48 457.60 C 771.74 461.83 771.41 472.57 777.37 477.62 C 781.93 481.86 789.14 481.28 794.08 478.01 C 817.65 464.50 841.36 451.24 865.00 437.85 C 874.37 432.66 885.56 429.96 896.17 432.40 C 907.92 434.67 918.84 441.55 925.46 451.60 C 933.75 463.82 935.59 480.17 929.88 493.84 C 925.56 504.91 916.40 513.57 905.86 518.73 C 877.17 534.96 849.11 552.29 820.51 568.65 C 816.80 570.71 813.20 573.85 812.52 578.26 C 811.15 584.31 814.64 591.03 820.52 593.13 C 824.55 594.16 829.05 593.80 832.59 591.49 C 856.85 577.03 881.22 562.76 905.54 548.40 C 913.94 543.49 922.97 538.56 932.96 538.42 C 946.21 537.83 959.63 543.71 968.02 554.03 C 974.49 561.79 978.16 571.89 977.83 582.02 C 977.90 596.08 970.26 609.87 958.40 617.39 C 932.22 632.89 905.83 648.02 879.64 663.50 C 876.27 665.50 872.59 667.04 869.59 669.60 C 864.50 674.21 864.22 683.06 869.07 687.96 C 873.23 692.55 880.66 692.74 885.73 689.59 C 905.66 677.95 925.55 666.23 945.50 654.61 C 953.45 650.14 963.12 649.42 971.90 651.44 C 988.78 655.80 1000.70 672.83 1000.85 689.99 C 1001.28 700.66 997.27 711.24 990.25 719.23 C 956.43 755.75 923.08 792.68 889.31 829.25 C 876.66 842.81 858.86 849.27 842.26 856.48 C 830.74 861.63 819.27 866.90 807.69 871.91 C 788.41 880.18 769.50 889.27 750.20 897.48 C 731.85 905.57 713.55 913.78 695.27 922.04 C 676.99 930.08 658.66 938.02 640.51 946.35 C 595.16 966.42 549.91 986.71 504.53 1006.70 C 501.81 1007.84 499.10 1009.05 496.70 1010.78 C 431.41 1062.54 366.28 1114.53 300.89 1166.17 C 305.35 1169.10 310.01 1171.73 314.66 1174.36 C 391.60 1218.05 477.92 1245.13 566.04 1253.15 C 577.58 1254.36 589.22 1254.66 600.75 1256.00 L 0.00 1256.00 L 0.00 699.26 C 5.14 740.39 13.55 781.18 26.40 820.62 C 38.98 859.63 55.32 897.46 75.37 933.22 C 88.19 925.64 100.43 917.11 112.91 908.98 C 127.36 899.87 141.60 890.42 155.91 881.09 C 172.53 870.71 188.72 859.68 205.23 849.14 C 222.56 837.77 240.03 826.63 257.32 815.19 C 260.75 812.38 265.09 815.23 268.96 815.21 C 284.95 815.98 301.01 815.00 316.99 816.30 C 329.33 816.40 341.67 816.48 354.01 816.63 C 367.79 817.60 381.69 812.17 391.30 802.29 C 400.29 792.97 405.38 779.97 404.84 767.01 C 405.05 760.41 402.55 754.23 401.09 747.92 C 411.77 746.32 421.67 740.87 429.13 733.13 C 440.34 722.33 446.23 706.49 445.41 691.01 C 445.22 684.78 443.17 678.84 441.71 672.85 C 462.25 670.11 481.04 656.99 490.53 638.55 C 497.54 625.67 499.29 610.37 496.85 596.02 C 495.45 588.15 492.04 580.84 488.46 573.76 C 493.76 571.53 499.15 569.37 503.91 566.09 C 519.39 556.03 529.84 538.50 531.03 520.04 C 532.12 507.52 528.82 494.82 522.43 484.05 C 526.12 482.24 529.79 480.37 533.37 478.34 C 567.38 459.07 601.23 439.51 635.21 420.16 C 643.08 415.18 651.99 412.30 660.57 408.81 C 679.28 401.52 698.01 394.26 716.70 386.91 C 737.95 378.38 759.54 370.70 780.71 361.97 C 790.78 358.09 800.91 354.34 810.85 350.11 Z" />
<path fill="#ffffff" opacity="1.00" d=" M 334.30 427.29 C 343.74 417.18 358.42 412.26 372.04 414.24 C 383.01 415.19 392.29 421.65 400.89 427.99 C 399.28 439.22 401.17 451.04 407.29 460.70 C 413.16 470.80 423.51 476.94 433.54 482.26 C 448.89 489.57 465.98 493.45 483.01 492.71 C 487.78 492.96 492.39 491.37 497.15 491.52 C 495.02 491.88 492.86 491.87 490.73 492.21 C 492.83 492.35 494.94 492.28 497.05 492.37 C 502.23 498.73 505.72 506.66 505.71 514.96 C 506.08 524.66 501.67 534.12 494.87 540.91 C 486.82 548.45 475.18 552.16 464.29 550.02 C 458.86 548.86 453.87 546.38 448.81 544.20 C 428.46 535.15 407.82 526.77 387.51 517.62 C 376.48 512.93 365.56 507.98 354.45 503.47 C 348.81 501.00 343.03 498.60 338.12 494.81 C 329.84 488.06 323.67 478.51 321.75 467.93 C 318.73 453.47 323.46 437.43 334.30 427.29 Z" />
<path fill="#ffffff" opacity="1.00" d=" M 299.50 514.98 C 305.46 514.19 311.65 514.22 317.49 515.85 C 323.44 517.38 328.91 520.26 334.54 522.66 C 368.65 537.35 402.79 551.97 436.76 566.97 C 444.39 570.54 452.98 572.74 459.14 578.82 C 466.80 585.38 471.45 595.02 472.48 604.99 C 473.48 616.81 468.70 628.95 460.05 637.05 C 449.85 646.87 434.07 650.36 420.68 645.77 C 381.82 632.75 342.99 619.59 304.01 606.93 C 297.00 604.49 289.57 602.89 283.25 598.85 C 273.90 593.13 266.37 584.21 263.17 573.64 C 258.83 560.06 261.26 544.36 269.95 532.99 C 276.81 523.30 287.81 516.80 299.50 514.98 Z" />
<path fill="#ffffff" opacity="1.00" d=" M 275.51 629.01 C 281.69 628.08 288.15 628.30 294.08 630.41 C 329.22 641.86 364.01 654.31 399.19 665.65 C 408.40 668.40 415.83 676.12 418.70 685.24 C 421.14 693.76 419.97 703.42 414.78 710.72 C 408.58 719.99 396.98 725.03 385.96 723.55 C 348.46 718.09 310.95 712.58 273.43 707.24 C 265.67 705.77 258.87 701.20 253.22 695.86 C 244.18 686.26 240.11 672.08 243.32 659.21 C 246.77 643.94 260.10 631.57 275.51 629.01 Z" />
<path fill="#ffffff" opacity="1.00" d=" M 267.27 733.90 C 271.89 732.93 276.69 733.40 281.31 734.24 C 303.44 737.34 325.55 740.66 347.67 743.85 C 354.53 745.21 361.96 744.91 368.16 748.59 C 374.59 751.94 378.39 758.97 379.33 765.97 C 380.81 777.80 371.39 790.64 359.06 790.76 C 339.71 790.83 320.35 790.52 301.00 790.44 C 294.33 790.28 287.63 790.64 280.99 789.87 C 274.81 789.38 268.30 790.41 262.50 787.68 C 250.31 782.94 242.68 768.99 245.42 756.17 C 247.38 745.21 256.48 736.27 267.27 733.90 Z" />
</g>
<g id="#1f21aaff">
<path fill="#1f21aa" opacity="1.00" d=" M 607.83 0.00 L 636.20 0.00 C 648.08 1.40 660.04 1.58 671.96 2.60 C 756.25 9.17 839.16 32.88 914.17 71.90 C 1003.38 118.01 1081.00 186.13 1138.51 268.44 C 1197.43 352.74 1235.28 451.65 1247.29 553.83 C 1250.08 579.12 1252.23 604.53 1252.03 630.00 C 1251.44 724.73 1229.68 819.43 1187.71 904.43 C 1180.16 900.55 1173.41 895.34 1166.24 890.84 C 1122.83 862.52 1079.53 834.03 1036.08 805.78 C 1026.83 800.12 1018.44 792.70 1007.90 789.46 C 989.07 782.96 967.02 786.99 951.75 799.79 C 946.02 804.41 941.63 810.37 936.59 815.67 C 930.85 822.22 924.54 828.25 918.91 834.91 C 909.53 845.89 899.18 856.18 886.77 863.71 C 878.70 868.90 869.65 872.24 860.97 876.21 C 811.72 898.17 762.39 919.95 713.19 942.02 C 703.91 946.22 694.40 949.90 685.23 954.33 C 682.29 955.32 681.93 959.85 684.97 960.98 C 691.72 964.11 698.90 966.24 705.82 968.99 C 737.61 980.82 769.35 992.81 801.14 1004.66 C 806.33 1006.73 812.01 1007.97 816.46 1011.53 C 845.82 1034.84 875.11 1058.25 904.53 1081.49 C 930.41 1102.22 956.63 1122.55 982.29 1143.54 C 890.34 1207.74 780.81 1246.47 668.93 1254.20 C 664.14 1254.49 659.29 1254.74 654.64 1256.00 L 600.75 1256.00 C 589.22 1254.66 577.58 1254.36 566.04 1253.15 C 477.92 1245.13 391.60 1218.05 314.66 1174.36 C 310.01 1171.73 305.35 1169.10 300.89 1166.17 C 366.28 1114.53 431.41 1062.54 496.70 1010.78 C 499.10 1009.05 501.81 1007.84 504.53 1006.70 C 549.91 986.71 595.16 966.42 640.51 946.35 C 658.66 938.02 676.99 930.08 695.27 922.04 C 713.55 913.78 731.85 905.57 750.20 897.48 C 769.50 889.27 788.41 880.18 807.69 871.91 C 819.27 866.90 830.74 861.63 842.26 856.48 C 858.86 849.27 876.66 842.81 889.31 829.25 C 923.08 792.68 956.43 755.75 990.25 719.23 C 997.27 711.24 1001.28 700.66 1000.85 689.99 C 1000.70 672.83 988.78 655.80 971.90 651.44 C 963.12 649.42 953.45 650.14 945.50 654.61 C 925.55 666.23 905.66 677.95 885.73 689.59 C 880.66 692.74 873.23 692.55 869.07 687.96 C 864.22 683.06 864.50 674.21 869.59 669.60 C 872.59 667.04 876.27 665.50 879.64 663.50 C 905.83 648.02 932.22 632.89 958.40 617.39 C 970.26 609.87 977.90 596.08 977.83 582.02 C 978.16 571.89 974.49 561.79 968.02 554.03 C 959.63 543.71 946.21 537.83 932.96 538.42 C 922.97 538.56 913.94 543.49 905.54 548.40 C 881.22 562.76 856.85 577.03 832.59 591.49 C 829.05 593.80 824.55 594.16 820.52 593.13 C 814.64 591.03 811.15 584.31 812.52 578.26 C 813.20 573.85 816.80 570.71 820.51 568.65 C 849.11 552.29 877.17 534.96 905.86 518.73 C 916.40 513.57 925.56 504.91 929.88 493.84 C 935.59 480.17 933.75 463.82 925.46 451.60 C 918.84 441.55 907.92 434.67 896.17 432.40 C 885.56 429.96 874.37 432.66 865.00 437.85 C 841.36 451.24 817.65 464.50 794.08 478.01 C 789.14 481.28 781.93 481.86 777.37 477.62 C 771.41 472.57 771.74 461.83 778.48 457.60 C 787.55 451.83 797.23 447.11 806.44 441.58 C 818.60 434.78 830.63 427.74 842.84 421.04 C 857.97 413.97 867.53 396.66 864.69 380.08 C 862.41 363.92 848.88 350.09 832.75 347.56 C 825.38 346.83 817.71 347.06 810.85 350.11 C 800.91 354.34 790.78 358.09 780.71 361.97 C 759.54 370.70 737.95 378.38 716.70 386.91 C 698.01 394.26 679.28 401.52 660.57 408.81 C 651.99 412.30 643.08 415.18 635.21 420.16 C 601.23 439.51 567.38 459.07 533.37 478.34 C 529.79 480.37 526.12 482.24 522.43 484.05 C 528.82 494.82 532.12 507.52 531.03 520.04 C 529.84 538.50 519.39 556.03 503.91 566.09 C 499.15 569.37 493.76 571.53 488.46 573.76 C 492.04 580.84 495.45 588.15 496.85 596.02 C 499.29 610.37 497.54 625.67 490.53 638.55 C 481.04 656.99 462.25 670.11 441.71 672.85 C 443.17 678.84 445.22 684.78 445.41 691.01 C 446.23 706.49 440.34 722.33 429.13 733.13 C 421.67 740.87 411.77 746.32 401.09 747.92 C 402.55 754.23 405.05 760.41 404.84 767.01 C 405.38 779.97 400.29 792.97 391.30 802.29 C 381.69 812.17 367.79 817.60 354.01 816.63 C 341.67 816.48 329.33 816.40 316.99 816.30 C 301.01 815.00 284.95 815.98 268.96 815.21 C 265.09 815.23 260.75 812.38 257.32 815.19 C 240.03 826.63 222.56 837.77 205.23 849.14 C 188.72 859.68 172.53 870.71 155.91 881.09 C 141.60 890.42 127.36 899.87 112.91 908.98 C 100.43 917.11 88.19 925.64 75.37 933.22 C 55.32 897.46 38.98 859.63 26.40 820.62 C 13.55 781.18 5.14 740.39 0.00 699.26 L 0.00 556.88 C 1.62 549.18 2.13 541.30 3.48 533.56 C 16.62 446.69 48.40 362.74 95.89 288.84 C 129.38 236.55 170.86 189.43 218.18 149.24 C 318.76 63.63 447.07 11.01 578.92 2.18 C 588.56 1.59 598.24 1.28 607.83 0.00 M 803.38 89.67 C 795.37 91.58 787.56 95.92 782.98 102.94 C 777.31 111.06 775.40 121.24 775.58 131.00 C 775.46 139.65 776.54 148.61 780.64 156.35 C 784.23 163.60 791.37 168.70 799.09 170.74 C 810.48 173.41 823.10 173.32 833.61 167.71 C 841.01 163.88 846.40 156.86 849.04 149.05 C 852.72 138.26 852.93 126.49 850.74 115.37 C 848.99 106.94 844.69 98.52 837.12 93.96 C 827.09 87.95 814.60 87.42 803.38 89.67 M 471.62 93.44 C 463.34 116.89 455.37 140.45 447.06 163.89 C 446.24 166.01 446.09 168.30 446.15 170.56 C 451.12 171.75 456.33 171.69 461.25 170.30 C 463.45 164.42 465.25 158.40 467.22 152.44 C 477.39 152.53 487.56 152.51 497.73 152.44 C 499.85 158.33 501.19 164.50 503.78 170.21 C 508.95 172.25 514.78 171.42 520.14 170.62 C 520.83 166.38 518.70 162.48 517.46 158.56 C 509.85 136.87 502.33 115.14 494.65 93.48 C 494.02 90.44 490.78 89.49 488.06 89.55 C 483.71 89.58 479.33 89.28 475.01 89.82 C 473.08 90.10 472.12 91.73 471.62 93.44 M 530.62 95.94 C 530.60 119.31 530.66 142.69 530.60 166.06 C 530.63 167.53 530.45 169.17 531.60 170.30 C 536.34 171.82 541.58 171.79 546.31 170.24 C 547.11 168.64 547.14 166.80 547.18 165.06 C 547.21 156.11 547.07 147.16 547.23 138.21 C 551.33 138.49 556.27 137.26 559.51 140.49 C 563.87 144.67 565.45 150.72 567.80 156.09 C 569.89 160.85 571.24 165.99 574.05 170.40 C 579.60 171.12 585.33 171.14 590.86 170.15 C 590.39 165.36 588.06 161.08 586.23 156.72 C 583.87 151.49 581.98 146.01 579.03 141.05 C 577.24 137.89 574.24 135.72 571.93 132.99 C 578.10 130.83 583.67 126.06 585.45 119.60 C 587.73 111.85 586.52 102.33 580.27 96.72 C 575.33 92.31 568.59 90.21 562.03 90.33 C 552.74 90.36 543.45 90.16 534.16 90.42 C 531.21 90.17 530.55 93.69 530.62 95.94 M 664.66 90.69 C 664.48 117.19 664.39 143.70 664.69 170.20 C 669.91 171.62 675.34 171.72 680.60 170.43 C 681.05 168.33 681.29 166.18 681.28 164.02 C 681.23 141.34 681.26 118.65 681.26 95.97 C 681.24 94.10 681.01 92.26 680.73 90.42 C 675.46 89.18 669.86 89.05 664.66 90.69 M 393.85 96.94 C 393.82 116.29 393.86 135.64 393.84 155.00 C 393.88 160.13 393.59 165.30 394.38 170.40 C 399.41 171.66 404.62 171.59 409.67 170.43 C 411.04 161.22 409.77 151.84 410.41 142.56 C 417.58 142.65 425.01 143.28 431.86 140.71 C 440.04 138.14 446.66 131.06 448.31 122.60 C 449.78 115.10 449.63 106.56 444.93 100.17 C 439.70 93.13 430.46 90.27 422.00 90.31 C 413.98 90.38 405.96 90.18 397.95 90.40 C 394.67 90.55 393.69 94.21 393.85 96.94 M 594.55 90.30 C 592.81 94.50 592.91 99.25 594.46 103.49 C 601.59 103.63 608.73 103.44 615.86 103.62 C 615.78 123.42 615.88 143.21 615.81 163.01 C 615.80 165.47 616.07 167.94 616.46 170.37 C 621.71 171.66 627.14 171.63 632.37 170.25 C 632.87 148.05 632.37 125.82 632.62 103.61 C 639.86 103.44 647.11 103.67 654.35 103.44 C 655.51 99.15 655.64 94.60 654.31 90.33 C 634.38 90.30 614.46 90.35 594.55 90.30 M 698.66 95.95 C 698.59 118.30 698.69 140.66 698.62 163.01 C 698.57 165.29 698.91 167.56 699.41 169.79 C 703.78 171.29 708.47 170.56 713.00 170.71 C 721.35 170.53 729.85 171.33 738.07 169.39 C 745.63 167.75 753.05 164.00 757.73 157.67 C 764.34 149.36 765.96 138.29 765.69 127.97 C 765.81 118.01 762.82 107.56 755.61 100.40 C 748.17 92.97 737.26 90.16 726.99 90.32 C 718.66 90.42 710.32 90.13 701.99 90.44 C 699.25 90.53 698.58 93.74 698.66 95.95 M 511.22 210.15 C 509.40 213.55 508.50 217.33 507.14 220.92 C 499.97 241.82 492.49 262.62 485.36 283.54 C 484.54 285.55 484.39 287.76 485.58 289.68 C 490.02 289.58 494.52 290.11 498.91 289.32 C 500.50 288.25 500.90 286.29 501.51 284.61 C 502.87 280.22 504.33 275.87 505.64 271.48 C 515.90 271.34 526.16 271.33 536.42 271.47 C 538.73 277.39 539.44 284.13 543.03 289.43 C 547.99 289.95 553.03 289.86 558.01 289.46 C 559.77 287.45 558.37 284.46 557.77 282.21 C 549.65 259.24 541.60 236.24 533.66 213.21 C 532.85 211.43 532.20 208.61 529.78 208.62 C 525.19 208.24 520.57 208.43 515.97 208.45 C 514.30 208.56 512.10 208.39 511.22 210.15 M 565.73 208.71 C 564.35 213.15 563.79 218.20 566.26 222.37 C 576.76 222.25 587.27 222.11 597.77 222.44 C 588.72 237.70 578.83 252.46 569.56 267.60 C 566.79 271.99 563.13 276.46 563.60 282.01 C 563.36 284.99 564.01 289.63 567.95 289.51 C 584.29 289.65 600.66 289.72 617.00 289.48 C 620.23 286.03 618.78 280.63 617.97 276.47 C 606.41 276.33 594.85 276.58 583.30 276.33 C 585.54 271.46 588.75 267.13 591.53 262.56 C 599.16 250.22 607.06 238.04 614.64 225.67 C 617.08 221.96 617.53 217.31 617.00 213.00 C 616.79 210.90 615.35 208.45 612.94 208.72 C 597.20 208.72 581.47 208.76 565.73 208.71 M 680.35 209.09 C 679.93 225.74 680.31 242.39 680.15 259.04 C 680.02 264.50 678.67 270.53 674.22 274.13 C 668.46 278.41 660.06 278.67 653.95 274.99 C 648.97 271.82 646.86 265.70 646.80 260.04 C 646.61 243.78 646.91 227.51 646.67 211.25 C 646.76 208.89 643.79 208.72 642.06 208.48 C 638.28 208.45 634.15 207.80 630.70 209.73 C 630.20 211.42 630.27 213.20 630.24 214.95 C 630.31 230.65 630.23 246.35 630.27 262.06 C 630.48 269.54 632.67 277.47 638.31 282.71 C 643.88 288.56 652.13 290.72 659.94 291.32 C 670.21 291.91 681.42 289.41 688.71 281.69 C 694.61 275.77 696.44 267.07 696.47 258.99 C 696.48 243.64 696.46 228.29 696.49 212.95 C 696.54 211.30 696.35 209.02 694.30 208.76 C 689.68 208.12 684.93 208.24 680.35 209.09 M 713.85 209.82 C 713.36 212.52 713.60 215.28 713.56 218.00 C 713.59 238.00 713.59 258.00 713.56 278.00 C 713.61 280.76 713.33 283.56 713.84 286.29 C 714.34 288.57 716.73 289.80 718.95 289.57 C 731.43 289.69 743.91 289.51 756.39 289.66 C 759.17 285.79 758.18 280.81 757.47 276.46 C 748.50 275.00 739.36 276.03 730.32 275.73 C 730.35 255.14 730.30 234.54 730.35 213.95 C 730.30 212.41 730.33 210.81 729.67 209.38 C 727.63 208.31 725.25 208.50 723.04 208.39 C 719.95 208.48 716.55 207.98 713.85 209.82 M 572.43 325.80 C 565.95 327.34 560.79 331.75 555.43 335.43 C 515.64 363.30 475.67 390.91 435.80 418.66 C 432.08 421.29 428.66 424.69 427.14 429.09 C 423.83 437.41 426.95 447.55 434.07 452.87 C 453.05 466.24 478.02 471.12 500.47 464.75 C 510.62 462.24 519.71 456.92 528.63 451.65 C 561.99 432.73 595.17 413.48 628.51 394.53 C 636.16 390.51 644.46 387.91 652.44 384.64 C 657.28 382.58 662.52 381.26 666.91 378.26 C 642.66 361.74 617.96 345.89 593.62 329.51 C 587.52 325.07 579.63 324.63 572.43 325.80 M 334.30 427.29 C 323.46 437.43 318.73 453.47 321.75 467.93 C 323.67 478.51 329.84 488.06 338.12 494.81 C 343.03 498.60 348.81 501.00 354.45 503.47 C 365.56 507.98 376.48 512.93 387.51 517.62 C 407.82 526.77 428.46 535.15 448.81 544.20 C 453.87 546.38 458.86 548.86 464.29 550.02 C 475.18 552.16 486.82 548.45 494.87 540.91 C 501.67 534.12 506.08 524.66 505.71 514.96 C 505.72 506.66 502.23 498.73 497.05 492.37 C 494.94 492.28 492.83 492.35 490.73 492.21 C 492.86 491.87 495.02 491.88 497.15 491.52 C 492.39 491.37 487.78 492.96 483.01 492.71 C 465.98 493.45 448.89 489.57 433.54 482.26 C 423.51 476.94 413.16 470.80 407.29 460.70 C 401.17 451.04 399.28 439.22 400.89 427.99 C 392.29 421.65 383.01 415.19 372.04 414.24 C 358.42 412.26 343.74 417.18 334.30 427.29 M 299.50 514.98 C 287.81 516.80 276.81 523.30 269.95 532.99 C 261.26 544.36 258.83 560.06 263.17 573.64 C 266.37 584.21 273.90 593.13 283.25 598.85 C 289.57 602.89 297.00 604.49 304.01 606.93 C 342.99 619.59 381.82 632.75 420.68 645.77 C 434.07 650.36 449.85 646.87 460.05 637.05 C 468.70 628.95 473.48 616.81 472.48 604.99 C 471.45 595.02 466.80 585.38 459.14 578.82 C 452.98 572.74 444.39 570.54 436.76 566.97 C 402.79 551.97 368.65 537.35 334.54 522.66 C 328.91 520.26 323.44 517.38 317.49 515.85 C 311.65 514.22 305.46 514.19 299.50 514.98 M 275.51 629.01 C 260.10 631.57 246.77 643.94 243.32 659.21 C 240.11 672.08 244.18 686.26 253.22 695.86 C 258.87 701.20 265.67 705.77 273.43 707.24 C 310.95 712.58 348.46 718.09 385.96 723.55 C 396.98 725.03 408.58 719.99 414.78 710.72 C 419.97 703.42 421.14 693.76 418.70 685.24 C 415.83 676.12 408.40 668.40 399.19 665.65 C 364.01 654.31 329.22 641.86 294.08 630.41 C 288.15 628.30 281.69 628.08 275.51 629.01 M 267.27 733.90 C 256.48 736.27 247.38 745.21 245.42 756.17 C 242.68 768.99 250.31 782.94 262.50 787.68 C 268.30 790.41 274.81 789.38 280.99 789.87 C 287.63 790.64 294.33 790.28 301.00 790.44 C 320.35 790.52 339.71 790.83 359.06 790.76 C 371.39 790.64 380.81 777.80 379.33 765.97 C 378.39 758.97 374.59 751.94 368.16 748.59 C 361.96 744.91 354.53 745.21 347.67 743.85 C 325.55 740.66 303.44 737.34 281.31 734.24 C 276.69 733.40 271.89 732.93 267.27 733.90 Z" />
<path fill="#1f21aa" opacity="1.00" d=" M 808.40 102.67 C 814.19 102.10 820.69 101.57 825.64 105.26 C 833.05 110.09 834.43 119.78 834.64 127.93 C 834.83 137.18 834.13 148.09 826.54 154.53 C 821.61 158.98 814.55 159.14 808.32 158.37 C 801.47 157.17 796.00 151.42 794.44 144.74 C 792.36 135.75 792.16 126.23 794.43 117.25 C 796.12 110.43 801.44 104.34 808.40 102.67 Z" />
<path fill="#1f21aa" opacity="1.00" d=" M 410.31 102.77 C 415.88 102.63 422.02 102.03 426.99 105.06 C 434.74 110.96 432.93 125.87 423.57 129.23 C 419.22 130.15 414.74 130.54 410.32 130.01 C 410.22 120.93 410.23 111.85 410.31 102.77 Z" />
<path fill="#1f21aa" opacity="1.00" d=" M 547.20 102.75 C 552.96 102.74 559.22 101.64 564.49 104.59 C 569.21 107.25 570.17 113.70 568.40 118.44 C 567.12 122.24 563.23 124.35 559.56 125.25 C 555.48 125.76 551.35 125.40 547.26 125.56 C 547.06 117.96 547.17 110.35 547.20 102.75 Z" />
<path fill="#1f21aa" opacity="1.00" d=" M 715.30 103.06 C 723.63 103.25 733.21 102.04 740.06 107.88 C 745.47 111.95 747.73 118.74 748.40 125.23 C 749.00 132.35 748.57 139.84 745.34 146.34 C 742.17 152.85 735.22 157.22 728.02 157.51 C 723.77 157.73 719.52 157.58 715.28 157.65 C 715.12 139.46 715.09 121.26 715.30 103.06 Z" />
<path fill="#1f21aa" opacity="1.00" d=" M 471.26 139.55 C 474.57 128.33 478.48 117.29 482.18 106.20 C 486.52 117.07 489.90 128.33 493.39 139.50 C 486.02 139.69 478.63 139.61 471.26 139.55 Z" />
<path fill="#1f21aa" opacity="1.00" d=" M 520.74 224.81 C 524.84 235.88 528.71 247.09 531.90 258.45 C 524.54 258.47 517.19 258.58 509.84 258.38 C 513.05 247.07 517.07 235.99 520.74 224.81 Z" />
</g>
</svg>
