<?xml version="1.0" encoding="UTF-8" ?>
<!DOCTYPE svg PUBLIC "-//W3C//DTD SVG 1.1//EN" "http://www.w3.org/Graphics/SVG/1.1/DTD/svg11.dtd">
<svg width="1178pt" height="910pt" viewBox="0 0 1178 910" version="1.1" xmlns="http://www.w3.org/2000/svg">
<g id="#662d91ff">
<path fill="#662d91" opacity="1.00" d=" M 0.00 0.00 L 1178.00 0.00 L 1178.00 910.00 L 0.00 910.00 L 0.00 0.00 M 24.81 14.57 C 24.81 308.77 24.80 602.98 24.81 897.19 C 157.87 897.19 290.93 897.19 423.99 897.19 C 669.25 897.13 914.50 897.31 1159.75 897.10 C 1159.60 602.92 1159.75 308.73 1159.68 14.55 C 781.39 14.58 403.10 14.55 24.81 14.57 Z" />
<path fill="#662d91" opacity="1.00" d=" M 38.19 27.93 C 407.56 27.94 776.94 27.93 1146.31 27.94 C 1146.32 313.23 1146.31 598.52 1146.32 883.82 C 776.94 883.82 407.56 883.81 38.18 883.82 C 38.19 598.52 38.18 313.23 38.19 27.93 M 590.35 41.52 C 523.73 43.10 457.89 67.13 405.97 108.91 C 353.15 150.81 314.64 210.43 298.48 275.92 C 289.94 309.83 287.50 345.18 290.62 379.98 C 294.55 423.06 307.75 465.25 329.01 502.92 C 361.24 560.29 412.20 606.87 472.27 633.75 C 514.99 653.02 562.18 662.21 609.00 660.59 C 676.43 658.80 742.86 633.73 794.93 590.89 C 842.80 551.87 878.63 498.25 896.05 438.96 C 918.13 364.64 911.12 282.05 876.17 212.77 C 842.78 145.58 784.12 91.38 714.40 63.60 C 675.16 47.77 632.63 40.31 590.35 41.52 M 421.49 685.71 C 404.73 687.90 388.37 695.29 376.83 707.83 C 362.77 722.93 356.56 743.78 355.65 764.05 C 354.87 783.52 358.25 803.71 368.36 820.62 C 376.29 834.01 389.06 844.27 403.61 849.65 C 418.60 855.46 435.06 856.17 450.89 854.50 C 467.92 852.38 484.65 845.11 496.42 832.38 C 509.21 818.82 515.71 800.40 517.33 782.06 C 519.08 762.88 517.13 742.82 508.66 725.31 C 502.77 712.98 493.17 702.45 481.28 695.68 C 463.39 685.19 441.73 683.36 421.49 685.71 M 741.49 685.69 C 725.90 687.74 710.61 694.15 699.28 705.23 C 686.93 717.00 679.88 733.37 677.03 749.99 C 674.32 766.46 674.93 783.57 679.36 799.69 C 683.26 813.87 690.68 827.39 701.99 836.99 C 715.50 848.66 733.36 854.52 751.05 855.13 C 766.12 855.88 781.63 854.02 795.38 847.48 C 810.08 840.76 821.98 828.48 828.82 813.88 C 835.23 800.55 837.56 785.64 837.83 770.95 C 837.87 751.83 834.14 732.00 823.14 716.00 C 814.54 703.20 801.26 693.94 786.69 689.20 C 772.14 684.60 756.57 683.92 741.49 685.69 M 894.47 685.65 C 882.49 687.22 870.38 691.09 861.04 699.00 C 845.49 711.60 841.98 735.92 852.23 752.84 C 857.85 761.59 866.72 767.88 876.34 771.58 C 889.30 777.13 903.23 779.64 916.78 783.30 C 923.73 785.28 931.01 787.55 936.29 792.77 C 943.11 799.19 943.55 810.67 938.20 818.14 C 929.57 829.76 913.46 832.13 900.01 830.11 C 890.80 828.95 882.36 823.09 878.12 814.82 C 873.83 807.87 872.53 798.59 865.23 793.88 C 857.13 788.95 845.45 794.21 843.62 803.48 C 842.21 813.07 846.30 822.55 851.67 830.29 C 858.87 840.82 870.05 848.31 882.26 851.78 C 895.74 855.70 910.05 856.00 923.92 854.36 C 940.36 852.15 957.09 844.68 966.72 830.66 C 974.94 818.78 976.85 803.27 973.41 789.41 C 970.79 779.24 963.68 770.55 954.60 765.41 C 936.40 754.60 914.97 752.14 895.09 745.84 C 890.06 744.02 885.02 741.59 881.33 737.62 C 876.41 732.38 876.51 723.52 881.21 718.18 C 887.28 711.09 897.02 708.60 906.03 708.55 C 913.43 708.66 921.70 709.23 927.50 714.39 C 934.39 719.98 937.07 728.72 942.31 735.58 C 947.15 742.57 958.63 742.06 963.69 735.58 C 967.39 731.54 968.63 725.73 967.37 720.45 C 964.85 707.52 954.64 697.34 943.09 691.79 C 928.11 684.35 910.78 683.88 894.47 685.65 M 224.32 695.21 C 221.92 700.33 222.64 707.14 226.92 711.07 C 230.60 714.72 236.11 715.19 241.02 715.27 C 252.80 715.25 264.59 715.31 276.37 715.23 C 276.65 755.49 276.38 795.75 276.51 836.02 C 276.71 840.92 277.71 846.12 281.02 849.94 C 286.97 856.98 299.15 857.17 305.33 850.33 C 309.11 846.22 310.01 840.37 310.10 835.00 C 310.14 795.09 310.03 755.19 310.15 715.29 C 322.10 715.23 334.06 715.29 346.01 715.26 C 350.68 715.15 355.78 714.64 359.44 711.42 C 365.49 706.40 365.29 695.78 359.05 691.00 C 355.12 687.83 349.86 687.55 345.03 687.63 C 311.02 687.63 277.00 687.64 242.99 687.62 C 236.17 687.21 227.62 688.28 224.32 695.21 M 543.15 688.15 C 539.01 688.88 534.90 690.91 532.57 694.54 C 529.83 698.80 529.39 704.01 529.44 708.95 C 529.47 749.65 529.41 790.34 529.48 831.04 C 529.71 836.57 529.82 842.87 533.81 847.18 C 537.68 851.51 543.86 852.32 549.35 852.46 C 562.92 852.58 576.48 852.47 590.05 852.52 C 600.70 852.49 611.51 852.35 621.86 849.55 C 632.76 846.75 642.84 840.78 650.41 832.44 C 662.39 819.98 668.43 802.92 670.15 785.97 C 672.07 767.88 671.28 749.14 665.17 731.87 C 658.98 714.60 645.92 699.22 628.61 692.48 C 610.79 686.12 591.57 687.93 573.02 687.63 C 563.07 687.87 553.05 687.07 543.15 688.15 Z" />
<path fill="#662d91" opacity="1.00" d=" M 579.42 56.68 C 627.41 53.52 676.18 62.07 720.02 81.90 C 778.38 108.02 827.64 153.76 858.16 209.92 C 877.98 246.22 890.02 286.76 893.13 328.01 C 896.44 369.97 890.70 412.64 876.25 452.19 C 857.03 505.16 822.13 552.25 777.20 586.24 C 747.50 608.85 713.42 625.65 677.45 635.59 C 639.38 646.02 599.22 648.79 560.08 643.57 C 517.81 638.07 476.80 623.11 440.86 600.20 C 381.24 562.53 335.96 502.80 316.09 435.11 C 298.01 374.28 300.15 307.61 322.41 248.16 C 343.38 191.39 382.47 141.57 432.45 107.48 C 475.68 77.71 527.05 60.02 579.42 56.68 M 584.48 107.63 C 578.85 109.12 573.61 112.39 570.19 117.14 C 566.63 121.97 565.37 128.08 565.46 133.99 C 565.49 202.67 565.43 271.36 565.49 340.04 C 565.38 348.66 569.60 357.40 577.17 361.82 C 589.08 369.25 606.76 366.65 614.84 354.77 C 618.44 349.60 619.28 343.13 619.15 336.98 C 619.12 271.66 619.14 206.34 619.14 141.02 C 619.11 136.31 619.36 131.55 618.54 126.88 C 617.38 120.20 613.19 114.16 607.36 110.70 C 600.56 106.65 592.10 105.50 584.48 107.63 M 649.53 130.71 C 643.50 131.96 637.69 134.92 633.69 139.69 C 629.29 144.67 627.33 151.45 627.45 158.02 C 627.47 218.37 627.44 278.71 627.46 339.06 C 627.49 346.45 630.51 353.95 636.19 358.80 C 647.06 368.32 664.88 368.29 675.71 358.71 C 681.63 353.63 684.52 345.70 684.35 338.00 C 684.35 278.02 684.34 218.03 684.35 158.05 C 684.49 151.03 682.21 143.83 677.26 138.74 C 670.30 131.35 659.31 128.85 649.53 130.71 M 523.13 142.20 C 514.86 143.63 507.14 149.04 503.93 156.94 C 501.33 162.61 502.00 168.96 501.92 175.01 C 501.93 230.66 501.91 286.32 501.93 341.97 C 501.83 348.13 503.90 354.40 508.07 358.99 C 517.66 369.62 535.56 370.56 546.57 361.59 C 552.46 356.96 555.59 349.41 555.52 341.99 C 555.53 284.00 555.51 226.00 555.53 168.00 C 555.59 162.68 554.28 157.26 551.25 152.84 C 545.25 143.84 533.46 140.35 523.13 142.20 M 742.50 216.66 C 731.05 218.84 721.69 229.21 721.43 240.98 C 718.25 301.98 709.00 362.41 701.73 423.00 C 699.25 443.04 697.10 463.72 688.00 482.06 C 680.54 496.22 672.15 510.26 660.47 521.38 C 646.15 535.23 625.67 541.38 606.03 540.82 C 593.73 541.16 581.49 538.78 569.77 535.18 C 554.06 530.11 538.93 522.52 526.61 511.42 C 520.50 506.11 515.73 499.52 510.84 493.13 C 500.24 478.97 491.71 463.11 487.02 446.00 C 481.56 426.49 480.89 406.10 480.40 385.98 C 480.28 374.47 476.33 363.30 470.59 353.43 C 464.49 343.00 456.47 333.32 446.06 326.96 C 441.40 324.23 435.52 321.87 430.22 324.20 C 425.83 326.37 424.09 331.47 423.41 336.00 C 422.13 346.41 424.01 356.87 426.28 367.01 C 426.76 369.31 426.81 371.68 426.85 374.03 C 427.38 400.76 429.32 427.61 435.40 453.71 C 443.27 488.39 459.61 521.20 483.07 547.96 C 504.77 571.14 535.22 584.25 565.98 590.22 C 591.33 594.93 617.73 595.18 642.92 589.31 C 660.05 585.60 676.29 577.88 689.97 566.92 C 715.80 546.28 733.32 516.81 743.66 485.73 C 749.36 469.17 752.01 451.80 754.35 434.51 C 763.56 370.62 771.83 306.49 774.98 241.98 C 775.40 235.26 773.51 228.14 768.62 223.33 C 761.96 216.56 751.54 214.62 742.50 216.66 Z" />
<path fill="#662d91" opacity="1.00" d=" M 427.18 712.23 C 441.17 709.71 456.64 712.93 467.22 722.78 C 478.37 733.31 482.92 749.02 483.60 763.95 C 484.44 780.75 482.06 798.81 471.35 812.39 C 457.24 831.00 427.50 834.02 409.40 819.63 C 398.02 810.86 392.50 796.67 390.58 782.83 C 388.53 766.04 389.86 748.17 398.09 733.08 C 404.01 722.21 415.00 714.41 427.18 712.23 Z" />
<path fill="#662d91" opacity="1.00" d=" M 747.11 712.22 C 760.41 709.85 774.97 712.62 785.51 721.38 C 796.98 731.03 802.04 746.22 803.30 760.76 C 804.33 776.23 803.20 792.65 795.27 806.36 C 790.71 814.52 783.63 821.36 774.94 824.94 C 761.12 830.82 744.17 829.84 731.61 821.38 C 719.31 813.14 712.87 798.72 710.71 784.47 C 708.27 767.38 709.48 749.11 717.67 733.62 C 723.55 722.47 734.70 714.40 747.11 712.22 Z" />
<path fill="#662d91" opacity="1.00" d=" M 563.14 714.17 C 578.78 714.26 594.76 712.97 610.05 717.00 C 620.81 719.77 628.69 729.04 632.58 739.09 C 636.63 750.25 637.15 762.35 636.90 774.11 C 636.26 788.59 633.48 804.19 623.23 815.16 C 617.01 822.32 607.32 825.48 598.05 825.64 C 586.43 826.00 574.81 825.82 563.19 825.81 C 562.97 788.60 563.06 751.38 563.14 714.17 Z" />
</g>
<g id="#ffffffff">
<path fill="#ffffff" opacity="1.00" d=" M 24.81 14.57 C 403.10 14.55 781.39 14.58 1159.68 14.55 C 1159.75 308.73 1159.60 602.92 1159.75 897.10 C 914.50 897.31 669.25 897.13 423.99 897.19 C 290.93 897.19 157.87 897.19 24.81 897.19 C 24.80 602.98 24.81 308.77 24.81 14.57 M 38.19 27.93 C 38.18 313.23 38.19 598.52 38.18 883.82 C 407.56 883.81 776.94 883.82 1146.32 883.82 C 1146.31 598.52 1146.32 313.23 1146.31 27.94 C 776.94 27.93 407.56 27.94 38.19 27.93 Z" />
<path fill="#ffffff" opacity="1.00" d=" M 590.35 41.52 C 632.63 40.31 675.16 47.77 714.40 63.60 C 784.12 91.38 842.78 145.58 876.17 212.77 C 911.12 282.05 918.13 364.64 896.05 438.96 C 878.63 498.25 842.80 551.87 794.93 590.89 C 742.86 633.73 676.43 658.80 609.00 660.59 C 562.18 662.21 514.99 653.02 472.27 633.75 C 412.20 606.87 361.24 560.29 329.01 502.92 C 307.75 465.25 294.55 423.06 290.62 379.98 C 287.50 345.18 289.94 309.83 298.48 275.92 C 314.64 210.43 353.15 150.81 405.97 108.91 C 457.89 67.13 523.73 43.10 590.35 41.52 M 579.42 56.68 C 527.05 60.02 475.68 77.71 432.45 107.48 C 382.47 141.57 343.38 191.39 322.41 248.16 C 300.15 307.61 298.01 374.28 316.09 435.11 C 335.96 502.80 381.24 562.53 440.86 600.20 C 476.80 623.11 517.81 638.07 560.08 643.57 C 599.22 648.79 639.38 646.02 677.45 635.59 C 713.42 625.65 747.50 608.85 777.20 586.24 C 822.13 552.25 857.03 505.16 876.25 452.19 C 890.70 412.64 896.44 369.97 893.13 328.01 C 890.02 286.76 877.98 246.22 858.16 209.92 C 827.64 153.76 778.38 108.02 720.02 81.90 C 676.18 62.07 627.41 53.52 579.42 56.68 Z" />
<path fill="#ffffff" opacity="1.00" d=" M 584.48 107.63 C 592.10 105.50 600.56 106.65 607.36 110.70 C 613.19 114.16 617.38 120.20 618.54 126.88 C 619.36 131.55 619.11 136.31 619.14 141.02 C 619.14 206.34 619.12 271.66 619.15 336.98 C 619.28 343.13 618.44 349.60 614.84 354.77 C 606.76 366.65 589.08 369.25 577.17 361.82 C 569.60 357.40 565.38 348.66 565.49 340.04 C 565.43 271.36 565.49 202.67 565.46 133.99 C 565.37 128.08 566.63 121.97 570.19 117.14 C 573.61 112.39 578.85 109.12 584.48 107.63 Z" />
<path fill="#ffffff" opacity="1.00" d=" M 649.53 130.71 C 659.31 128.85 670.30 131.35 677.26 138.74 C 682.21 143.83 684.49 151.03 684.35 158.05 C 684.34 218.03 684.35 278.02 684.35 338.00 C 684.52 345.70 681.63 353.63 675.71 358.71 C 664.88 368.29 647.06 368.32 636.19 358.80 C 630.51 353.95 627.49 346.45 627.46 339.06 C 627.44 278.71 627.47 218.37 627.45 158.02 C 627.33 151.45 629.29 144.67 633.69 139.69 C 637.69 134.92 643.50 131.96 649.53 130.71 Z" />
<path fill="#ffffff" opacity="1.00" d=" M 523.13 142.20 C 533.46 140.35 545.25 143.84 551.25 152.84 C 554.28 157.26 555.59 162.68 555.53 168.00 C 555.51 226.00 555.53 284.00 555.52 341.99 C 555.59 349.41 552.46 356.96 546.57 361.59 C 535.56 370.56 517.66 369.62 508.07 358.99 C 503.90 354.40 501.83 348.13 501.93 341.97 C 501.91 286.32 501.93 230.66 501.92 175.01 C 502.00 168.96 501.33 162.61 503.93 156.94 C 507.14 149.04 514.86 143.63 523.13 142.20 Z" />
<path fill="#ffffff" opacity="1.00" d=" M 421.49 685.71 C 441.73 683.36 463.39 685.19 481.28 695.68 C 493.17 702.45 502.77 712.98 508.66 725.31 C 517.13 742.82 519.08 762.88 517.33 782.06 C 515.71 800.40 509.21 818.82 496.42 832.38 C 484.65 845.11 467.92 852.38 450.89 854.50 C 435.06 856.17 418.60 855.46 403.61 849.65 C 389.06 844.27 376.29 834.01 368.36 820.62 C 358.25 803.71 354.87 783.52 355.65 764.05 C 356.56 743.78 362.77 722.93 376.83 707.83 C 388.37 695.29 404.73 687.90 421.49 685.71 M 427.18 712.23 C 415.00 714.41 404.01 722.21 398.09 733.08 C 389.86 748.17 388.53 766.04 390.58 782.83 C 392.50 796.67 398.02 810.86 409.40 819.63 C 427.50 834.02 457.24 831.00 471.35 812.39 C 482.06 798.81 484.44 780.75 483.60 763.95 C 482.92 749.02 478.37 733.31 467.22 722.78 C 456.64 712.93 441.17 709.71 427.18 712.23 Z" />
<path fill="#ffffff" opacity="1.00" d=" M 741.49 685.69 C 756.57 683.92 772.14 684.60 786.69 689.20 C 801.26 693.94 814.54 703.20 823.14 716.00 C 834.14 732.00 837.87 751.83 837.83 770.95 C 837.56 785.64 835.23 800.55 828.82 813.88 C 821.98 828.48 810.08 840.76 795.38 847.48 C 781.63 854.02 766.12 855.88 751.05 855.13 C 733.36 854.52 715.50 848.66 701.99 836.99 C 690.68 827.39 683.26 813.87 679.36 799.69 C 674.93 783.57 674.32 766.46 677.03 749.99 C 679.88 733.37 686.93 717.00 699.28 705.23 C 710.61 694.15 725.90 687.74 741.49 685.69 M 747.11 712.22 C 734.70 714.40 723.55 722.47 717.67 733.62 C 709.48 749.11 708.27 767.38 710.71 784.47 C 712.87 798.72 719.31 813.14 731.61 821.38 C 744.17 829.84 761.12 830.82 774.94 824.94 C 783.63 821.36 790.71 814.52 795.27 806.36 C 803.20 792.65 804.33 776.23 803.30 760.76 C 802.04 746.22 796.98 731.03 785.51 721.38 C 774.97 712.62 760.41 709.85 747.11 712.22 Z" />
<path fill="#ffffff" opacity="1.00" d=" M 894.47 685.65 C 910.78 683.88 928.11 684.35 943.09 691.79 C 954.64 697.34 964.85 707.52 967.37 720.45 C 968.63 725.73 967.39 731.54 963.69 735.58 C 958.63 742.06 947.15 742.57 942.31 735.58 C 937.07 728.72 934.39 719.98 927.50 714.39 C 921.70 709.23 913.43 708.66 906.03 708.55 C 897.02 708.60 887.28 711.09 881.21 718.18 C 876.51 723.52 876.41 732.38 881.33 737.62 C 885.02 741.59 890.06 744.02 895.09 745.84 C 914.97 752.14 936.40 754.60 954.60 765.41 C 963.68 770.55 970.79 779.24 973.41 789.41 C 976.85 803.27 974.94 818.78 966.72 830.66 C 957.09 844.68 940.36 852.15 923.92 854.36 C 910.05 856.00 895.74 855.70 882.26 851.78 C 870.05 848.31 858.87 840.82 851.67 830.29 C 846.30 822.55 842.21 813.07 843.62 803.48 C 845.45 794.21 857.13 788.95 865.23 793.88 C 872.53 798.59 873.83 807.87 878.12 814.82 C 882.36 823.09 890.80 828.95 900.01 830.11 C 913.46 832.13 929.57 829.76 938.20 818.14 C 943.55 810.67 943.11 799.19 936.29 792.77 C 931.01 787.55 923.73 785.28 916.78 783.30 C 903.23 779.64 889.30 777.13 876.34 771.58 C 866.72 767.88 857.85 761.59 852.23 752.84 C 841.98 735.92 845.49 711.60 861.04 699.00 C 870.38 691.09 882.49 687.22 894.47 685.65 Z" />
<path fill="#ffffff" opacity="1.00" d=" M 224.32 695.21 C 227.62 688.28 236.17 687.21 242.99 687.62 C 277.00 687.64 311.02 687.63 345.03 687.63 C 349.86 687.55 355.12 687.83 359.05 691.00 C 365.29 695.78 365.49 706.40 359.44 711.42 C 355.78 714.64 350.68 715.15 346.01 715.26 C 334.06 715.29 322.10 715.23 310.15 715.29 C 310.03 755.19 310.14 795.09 310.10 835.00 C 310.01 840.37 309.11 846.22 305.33 850.33 C 299.15 857.17 286.97 856.98 281.02 849.94 C 277.71 846.12 276.71 840.92 276.51 836.02 C 276.38 795.75 276.65 755.49 276.37 715.23 C 264.59 715.31 252.80 715.25 241.02 715.27 C 236.11 715.19 230.60 714.72 226.92 711.07 C 222.64 707.14 221.92 700.33 224.32 695.21 Z" />
<path fill="#ffffff" opacity="1.00" d=" M 543.15 688.15 C 553.05 687.07 563.07 687.87 573.02 687.63 C 591.57 687.93 610.79 686.12 628.61 692.48 C 645.92 699.22 658.98 714.60 665.17 731.87 C 671.28 749.14 672.07 767.88 670.15 785.97 C 668.43 802.92 662.39 819.98 650.41 832.44 C 642.84 840.78 632.76 846.75 621.86 849.55 C 611.51 852.35 600.70 852.49 590.05 852.52 C 576.48 852.47 562.92 852.58 549.35 852.46 C 543.86 852.32 537.68 851.51 533.81 847.18 C 529.82 842.87 529.71 836.57 529.48 831.04 C 529.41 790.34 529.47 749.65 529.44 708.95 C 529.39 704.01 529.83 698.80 532.57 694.54 C 534.90 690.91 539.01 688.88 543.15 688.15 M 563.14 714.17 C 563.06 751.38 562.97 788.60 563.19 825.81 C 574.81 825.82 586.43 826.00 598.05 825.64 C 607.32 825.48 617.01 822.32 623.23 815.16 C 633.48 804.19 636.26 788.59 636.90 774.11 C 637.15 762.35 636.63 750.25 632.58 739.09 C 628.69 729.04 620.81 719.77 610.05 717.00 C 594.76 712.97 578.78 714.26 563.14 714.17 Z" />
</g>
<g id="#009edfff">
<path fill="#009edf" opacity="1.00" d=" M 742.50 216.66 C 751.54 214.62 761.96 216.56 768.62 223.33 C 773.51 228.14 775.40 235.26 774.98 241.98 C 771.83 306.49 763.56 370.62 754.35 434.51 C 752.01 451.80 749.36 469.17 743.66 485.73 C 733.32 516.81 715.80 546.28 689.97 566.92 C 676.29 577.88 660.05 585.60 642.92 589.31 C 617.73 595.18 591.33 594.93 565.98 590.22 C 535.22 584.25 504.77 571.14 483.07 547.96 C 459.61 521.20 443.27 488.39 435.40 453.71 C 429.32 427.61 427.38 400.76 426.85 374.03 C 426.81 371.68 426.76 369.31 426.28 367.01 C 424.01 356.87 422.13 346.41 423.41 336.00 C 424.09 331.47 425.83 326.37 430.22 324.20 C 435.52 321.87 441.40 324.23 446.06 326.96 C 456.47 333.32 464.49 343.00 470.59 353.43 C 476.33 363.30 480.28 374.47 480.40 385.98 C 480.89 406.10 481.56 426.49 487.02 446.00 C 491.71 463.11 500.24 478.97 510.84 493.13 C 515.73 499.52 520.50 506.11 526.61 511.42 C 538.93 522.52 554.06 530.11 569.77 535.18 C 581.49 538.78 593.73 541.16 606.03 540.82 C 625.67 541.38 646.15 535.23 660.47 521.38 C 672.15 510.26 680.54 496.22 688.00 482.06 C 697.10 463.72 699.25 443.04 701.73 423.00 C 709.00 362.41 718.25 301.98 721.43 240.98 C 721.69 229.21 731.05 218.84 742.50 216.66 Z" />
</g>
</svg>
