<?xml version="1.0" encoding="UTF-8" ?>
<!DOCTYPE svg PUBLIC "-//W3C//DTD SVG 1.1//EN" "http://www.w3.org/Graphics/SVG/1.1/DTD/svg11.dtd">
<svg width="1206pt" height="1206pt" viewBox="0 0 1206 1206" version="1.1" xmlns="http://www.w3.org/2000/svg">
<g id="#0151a0ff">
<path fill="#0151a0" opacity="1.00" d=" M 583.45 129.82 C 625.27 127.69 667.34 131.60 708.16 140.88 C 723.51 144.81 738.88 148.76 753.91 153.85 C 823.13 177.02 886.49 217.32 937.07 269.93 C 1008.32 343.67 1053.90 441.82 1063.66 543.94 C 1068.62 589.60 1065.64 635.95 1056.46 680.90 C 1049.59 713.28 1039.81 745.11 1026.37 775.38 C 997.82 839.96 954.12 897.79 899.64 942.72 C 827.97 1002.26 737.86 1039.33 644.97 1047.01 C 626.02 1048.40 606.98 1049.41 587.99 1048.40 C 565.23 1047.22 542.51 1044.80 520.12 1040.47 C 473.29 1031.12 427.59 1015.41 385.70 992.35 C 332.74 963.50 285.63 924.02 247.91 876.97 C 191.89 807.32 156.72 721.07 148.43 632.05 C 147.07 618.08 146.69 604.05 146.18 590.03 C 146.75 575.39 146.95 560.71 148.47 546.12 C 150.91 521.41 155.01 496.83 161.64 472.88 C 176.15 415.76 202.26 361.70 237.40 314.44 C 267.48 273.92 304.46 238.62 346.04 210.07 C 415.77 162.12 498.92 133.96 583.45 129.82 M 572.20 181.71 C 560.72 182.98 549.18 183.93 537.86 186.36 C 447.39 202.28 363.24 250.72 303.46 320.41 C 271.52 357.61 246.36 400.65 230.01 446.88 C 224.53 463.11 219.10 479.48 216.16 496.40 C 225.45 495.53 234.58 493.54 243.82 492.32 C 254.32 490.88 264.81 489.38 275.28 487.68 C 273.40 480.92 273.89 473.65 276.29 467.09 C 279.42 459.59 285.84 453.80 293.15 450.49 C 300.34 448.88 307.71 448.20 314.90 446.54 C 327.17 443.65 339.63 441.30 351.40 436.65 C 355.69 434.76 360.47 435.09 365.02 435.46 C 374.75 436.78 384.31 439.11 394.06 440.29 C 406.13 442.16 417.89 445.59 429.43 449.53 C 437.08 452.33 444.44 456.28 450.26 462.05 C 452.92 461.86 455.58 461.63 458.20 461.12 C 469.99 458.81 481.96 457.69 493.83 455.87 C 505.08 453.88 516.47 452.82 527.72 450.79 C 532.67 449.59 537.08 446.95 541.46 444.45 C 584.04 421.65 626.57 398.73 669.42 376.42 C 678.26 371.97 688.64 374.28 697.37 377.83 C 706.04 381.31 715.33 376.62 724.16 378.93 C 729.42 379.83 733.82 383.26 737.47 386.97 C 737.86 388.30 738.41 389.58 739.10 390.80 C 739.18 391.38 739.33 392.54 739.40 393.12 C 744.24 391.90 748.55 389.33 752.83 386.86 C 787.96 367.77 822.97 348.46 858.01 329.22 C 872.30 321.21 886.93 313.80 900.98 305.38 C 854.75 256.01 795.39 219.25 730.93 198.93 C 710.12 192.04 688.57 187.75 667.00 184.04 C 658.33 183.08 649.65 182.32 641.00 181.19 C 628.38 179.64 615.64 180.13 602.95 180.03 C 592.68 180.00 582.38 180.26 572.20 181.71 M 839.03 356.91 C 804.10 376.03 769.23 395.26 734.26 414.30 C 730.51 416.38 725.16 418.05 724.47 422.96 C 725.13 426.63 728.63 428.65 731.37 430.73 C 772.69 459.13 814.21 487.25 855.81 515.25 C 876.70 529.28 897.40 543.60 918.03 558.02 C 920.84 559.90 923.60 562.11 926.95 562.92 C 947.86 566.18 968.91 568.39 989.83 571.56 C 992.90 571.75 996.27 572.66 999.15 571.08 C 1003.76 568.85 1008.20 566.30 1012.80 564.04 C 1012.29 556.33 1011.48 548.64 1010.28 541.02 C 1002.58 490.42 988.51 440.45 965.29 394.71 C 950.91 366.54 932.48 340.15 909.08 318.72 C 885.55 331.10 862.43 344.26 839.03 356.91 M 674.04 391.06 C 630.39 413.90 587.01 437.27 543.56 460.50 C 539.67 462.51 535.92 465.14 531.45 465.66 C 470.63 474.41 409.85 483.42 349.06 492.33 C 344.18 492.98 339.54 494.65 334.75 495.70 C 324.36 498.22 313.68 499.17 303.01 499.30 C 271.22 503.35 239.56 508.39 207.86 513.08 C 205.69 520.31 204.68 527.81 203.16 535.19 C 200.91 546.01 200.56 557.09 199.45 568.05 C 195.17 629.43 206.86 692.28 235.45 746.95 C 248.44 743.83 261.11 739.54 274.03 736.16 C 276.56 735.49 279.04 734.65 281.45 733.65 C 284.98 722.56 285.61 710.73 289.76 699.83 C 293.45 690.03 301.62 681.76 311.81 678.90 C 322.58 675.74 334.02 677.08 344.78 679.58 C 348.16 663.61 351.51 647.63 356.04 631.95 C 357.98 625.80 360.15 619.43 364.69 614.67 C 372.19 606.66 383.24 602.87 393.99 602.20 C 402.24 601.90 410.65 601.71 418.69 603.88 C 419.75 596.40 421.05 588.87 423.87 581.82 C 426.88 573.96 432.44 566.95 439.99 563.03 C 453.27 555.82 469.08 556.55 483.55 558.80 C 485.03 551.41 487.37 543.93 492.17 537.98 C 495.03 534.34 499.23 532.12 503.43 530.39 C 509.34 527.97 515.27 525.61 521.14 523.10 C 524.62 521.68 528.13 520.03 531.96 519.91 C 543.09 519.33 553.89 526.41 558.57 536.38 C 561.57 542.79 562.26 550.02 561.82 557.02 C 559.84 581.24 557.04 605.38 554.93 629.58 C 556.01 629.08 557.09 628.59 558.18 628.11 C 559.53 629.29 560.89 630.48 562.25 631.67 C 571.09 629.57 579.64 626.29 588.47 624.27 C 627.18 639.11 665.76 654.35 704.43 669.33 C 707.14 670.39 710.16 670.05 712.77 668.83 C 719.27 665.97 725.74 663.03 732.28 660.23 C 736.72 658.33 741.05 655.64 746.04 655.63 C 755.47 655.51 764.88 656.77 774.32 656.38 C 778.57 649.70 782.61 642.90 786.57 636.05 C 798.40 637.96 810.06 641.18 822.08 641.72 C 825.75 642.04 828.78 639.60 831.65 637.69 C 837.79 633.29 844.22 628.90 848.52 622.55 C 850.50 619.93 851.44 616.27 849.88 613.23 C 846.73 607.36 840.67 603.97 834.95 601.05 C 830.38 598.74 828.32 593.59 827.91 588.75 C 835.60 590.88 842.42 595.16 849.62 598.47 C 863.64 605.38 877.66 612.29 891.69 619.17 C 897.62 622.19 904.46 622.55 910.99 622.60 C 924.01 621.81 934.78 613.73 945.98 607.95 C 957.07 601.99 968.35 596.40 979.61 590.78 C 978.32 588.73 977.62 585.65 974.95 585.04 C 969.65 583.90 964.21 583.70 958.90 582.71 C 946.81 580.46 934.42 580.26 922.44 577.40 C 918.04 576.44 914.30 573.80 910.61 571.38 C 902.12 565.59 893.73 559.66 885.31 553.78 C 830.26 516.16 774.76 479.20 719.94 441.24 C 713.42 436.83 709.10 429.32 709.06 421.39 C 713.73 416.94 718.49 412.46 721.99 406.98 C 724.20 403.50 726.36 399.31 724.75 395.12 C 718.22 392.05 710.85 394.79 703.99 394.78 C 697.64 395.11 692.19 391.31 686.14 390.08 C 682.15 389.06 677.74 389.06 674.04 391.06 M 355.94 451.10 C 342.46 456.36 328.16 458.92 314.12 462.14 C 309.05 463.34 303.74 463.22 298.77 464.82 C 293.60 466.50 289.54 471.51 289.59 477.05 C 289.68 479.91 288.96 483.38 291.20 485.62 C 295.57 490.66 302.71 491.60 309.01 491.50 C 323.87 491.09 338.42 487.28 352.33 482.24 C 357.77 479.96 363.33 483.78 368.89 482.84 C 392.63 479.58 416.40 476.54 440.18 473.62 C 435.28 467.88 428.06 465.20 421.18 462.67 C 411.40 459.22 401.24 457.00 391.06 455.10 C 384.20 454.12 377.33 453.17 370.58 451.58 C 365.80 450.69 360.65 449.10 355.94 451.10 M 526.15 537.42 C 519.92 540.16 513.53 542.54 507.34 545.36 C 501.69 547.88 500.40 554.55 498.90 559.91 C 496.88 569.13 494.80 578.66 496.34 588.13 C 497.58 598.52 494.45 608.70 493.21 618.94 C 490.04 642.02 485.93 664.97 482.69 688.05 C 481.82 692.44 485.03 696.41 488.58 698.56 C 494.59 702.07 502.04 702.27 508.62 700.36 C 521.15 696.93 531.56 688.63 541.22 680.28 C 547.48 674.47 554.65 668.60 556.99 660.01 C 558.55 655.37 556.81 650.58 554.99 646.31 C 552.03 646.57 548.75 647.61 546.01 645.98 C 541.61 643.35 538.35 638.26 539.12 633.01 C 541.81 610.06 543.46 587.00 546.08 564.04 C 546.62 558.04 547.83 551.82 546.04 545.91 C 544.54 540.38 539.74 535.62 533.93 534.99 C 531.20 535.29 528.68 536.46 526.15 537.42 M 453.71 573.91 C 447.65 575.53 441.81 579.24 439.10 585.08 C 433.22 597.22 434.26 611.12 431.05 623.97 C 429.87 628.35 433.02 632.53 432.15 636.92 C 426.43 668.98 420.48 701.00 414.87 733.07 C 415.42 738.36 418.43 744.49 423.99 745.93 C 429.74 746.68 435.45 744.82 440.77 742.82 C 450.36 739.02 459.85 734.49 467.73 727.72 C 470.90 712.96 473.02 697.99 475.51 683.10 C 479.98 655.38 484.13 627.60 488.42 599.85 C 489.36 593.68 489.36 587.08 486.70 581.31 C 484.91 577.34 481.41 574.01 477.03 573.23 C 469.35 571.84 461.29 571.87 453.71 573.91 M 994.28 588.15 C 994.33 592.32 994.29 596.50 994.07 600.67 C 980.20 606.91 966.90 614.32 953.33 621.17 C 942.66 626.56 932.72 634.02 920.79 636.41 C 908.42 638.88 895.12 637.92 883.76 632.19 C 877.19 629.43 871.32 624.63 864.01 624.00 C 863.63 625.82 863.53 627.81 862.30 629.32 C 854.43 640.45 843.52 649.31 831.38 655.40 C 826.26 658.05 820.44 656.49 815.00 656.33 C 807.79 656.06 800.85 653.68 793.63 653.49 C 790.02 659.89 786.60 667.50 779.35 670.46 C 769.14 674.04 758.44 669.58 748.02 670.82 C 743.50 671.28 739.48 673.55 735.40 675.34 C 727.54 678.96 719.46 682.05 711.69 685.85 C 708.62 687.56 705.26 685.95 702.38 684.69 C 668.43 671.71 634.67 658.28 600.74 645.29 C 595.97 643.56 591.41 640.80 586.28 640.36 C 581.43 641.77 576.65 643.43 571.71 644.52 C 571.87 652.83 573.56 661.72 569.74 669.51 C 565.18 679.08 557.23 686.49 549.37 693.39 C 540.69 700.66 531.49 707.56 521.01 712.03 C 510.08 717.45 497.29 716.95 485.62 714.57 C 484.52 720.47 483.64 726.45 482.13 732.25 C 477.22 741.24 467.86 746.55 459.10 751.18 C 451.47 755.27 443.25 758.19 434.89 760.37 C 428.33 762.00 421.46 761.26 415.02 759.50 C 410.06 767.88 402.42 774.52 393.56 778.50 C 388.98 780.69 383.92 781.62 379.37 783.88 C 384.24 784.21 389.13 784.01 394.01 784.07 C 581.79 784.42 769.57 783.89 957.35 784.32 C 959.39 781.31 961.26 778.19 963.02 775.01 C 988.70 727.48 1004.80 674.82 1009.98 621.04 C 1011.87 608.19 1011.49 595.17 1011.45 582.23 C 1005.63 584.05 1000.69 588.43 994.28 588.15 M 391.54 617.87 C 384.26 618.68 376.40 622.07 373.21 629.09 C 370.59 635.52 368.84 642.26 367.15 648.98 C 359.72 680.15 353.98 711.69 348.22 743.21 C 347.53 747.46 346.56 751.68 346.07 755.97 C 345.45 762.05 349.78 768.77 356.14 769.40 C 366.76 770.31 377.64 768.77 387.51 764.72 C 396.00 761.06 402.62 753.20 404.52 744.12 C 410.99 711.82 416.71 679.37 422.43 646.92 C 423.38 641.51 425.49 635.86 423.50 630.43 C 421.86 625.78 419.34 620.72 414.52 618.75 C 407.04 616.81 399.16 616.91 391.54 617.87 M 319.46 692.79 C 311.07 693.70 304.74 700.83 302.79 708.73 C 299.62 721.70 297.29 734.87 294.25 747.88 C 292.14 755.92 294.63 765.43 301.44 770.51 C 308.92 775.40 319.24 774.36 326.48 769.48 C 333.76 764.10 337.10 755.21 339.59 746.85 C 343.00 733.43 346.04 719.81 346.73 705.96 C 346.95 701.28 344.88 695.61 339.92 694.31 C 333.28 692.60 326.28 691.64 319.46 692.79 M 247.83 759.28 C 250.02 766.19 254.08 772.26 257.34 778.69 C 258.59 780.97 259.87 784.04 262.95 784.04 C 273.43 784.29 283.92 784.32 294.39 783.86 C 293.46 783.52 292.54 783.19 291.63 782.87 C 290.55 781.47 289.36 780.17 288.15 778.90 C 280.98 771.52 278.32 760.95 277.71 750.97 C 267.61 753.20 257.90 756.87 247.83 759.28 M 332.13 782.85 C 336.70 783.72 341.32 784.43 346.00 784.22 C 344.51 782.17 343.29 778.00 340.00 779.15 C 337.20 779.95 334.94 782.01 332.13 782.85 M 354.84 822.41 C 347.90 823.40 340.64 824.69 334.74 828.71 C 328.80 832.77 326.57 840.14 325.57 846.91 C 324.31 857.23 324.43 867.65 324.33 878.04 C 324.29 888.74 324.49 899.50 326.20 910.08 C 327.35 917.08 331.96 923.54 338.54 926.37 C 349.95 931.55 362.76 930.68 374.96 931.56 C 394.66 931.54 414.44 932.34 434.08 930.35 C 442.58 929.25 452.31 927.03 457.24 919.28 C 462.45 909.85 462.08 898.62 461.26 888.21 C 450.47 888.23 439.67 888.31 428.88 888.20 C 428.22 892.70 428.57 897.82 425.53 901.55 C 422.79 904.23 418.71 904.55 415.09 904.83 C 401.05 905.38 386.99 905.48 372.96 904.83 C 368.41 904.51 363.16 903.58 360.34 899.60 C 357.32 894.68 357.58 888.64 357.30 883.09 C 357.28 874.03 356.68 864.75 359.19 855.94 C 360.44 851.24 365.34 848.60 369.92 848.28 C 384.27 847.13 398.71 847.31 413.08 848.08 C 417.06 848.51 421.65 848.37 424.82 851.22 C 426.69 853.85 426.37 857.30 426.77 860.37 C 437.69 861.02 448.63 860.60 459.55 860.69 C 459.68 854.14 459.75 847.53 458.48 841.07 C 457.29 833.82 452.03 827.23 445.00 824.89 C 435.73 821.56 425.76 821.12 416.00 821.03 C 395.61 821.17 375.15 820.30 354.84 822.41 M 775.62 821.84 C 767.58 822.16 759.06 823.48 752.58 828.65 C 746.43 833.18 744.49 841.05 743.49 848.22 C 741.63 864.88 741.38 881.71 742.86 898.42 C 743.73 907.14 744.65 917.15 751.67 923.34 C 759.68 930.37 770.95 930.73 781.06 931.01 C 796.02 932.08 811.03 931.51 826.01 931.65 C 836.71 931.91 847.38 931.02 858.06 930.68 C 866.53 930.29 875.68 928.14 881.57 921.60 C 887.13 915.50 887.81 906.83 888.76 899.02 C 889.70 885.03 889.52 870.98 889.02 856.98 C 888.23 848.62 887.72 839.51 882.64 832.47 C 877.69 825.65 869.07 823.22 861.11 822.28 C 848.12 820.94 835.03 821.17 821.99 821.01 C 806.53 820.90 791.06 820.82 775.62 821.84 M 473.42 822.90 C 473.39 858.53 473.43 894.15 473.39 929.77 C 484.30 930.10 495.21 929.86 506.12 929.88 C 506.18 920.75 506.21 911.62 506.10 902.50 C 525.08 902.53 544.06 902.23 563.04 902.67 C 566.97 902.72 571.52 904.81 572.37 909.03 C 573.85 915.86 573.20 922.92 573.34 929.86 C 584.20 929.96 595.06 929.91 605.92 929.90 C 605.56 919.41 607.13 908.69 604.44 898.41 C 602.39 891.71 595.24 888.47 588.79 887.67 C 595.96 886.58 603.46 882.28 605.44 874.87 C 607.56 865.03 607.29 854.85 606.52 844.87 C 606.11 838.16 602.92 831.48 597.35 827.57 C 591.42 823.46 583.92 822.99 576.93 822.94 C 542.43 822.79 507.92 822.84 473.42 822.90 M 617.53 822.89 C 617.48 858.55 617.51 894.21 617.53 929.88 C 657.31 929.94 697.09 929.93 736.87 929.87 C 736.86 921.49 736.84 913.12 736.86 904.75 C 707.80 904.00 678.72 904.56 649.66 904.44 C 649.61 898.82 649.59 893.21 649.57 887.60 C 677.02 886.87 704.48 887.53 731.93 887.24 C 731.83 879.35 731.85 871.47 731.90 863.59 C 704.48 863.58 677.06 863.59 649.64 863.58 C 649.60 858.24 649.58 852.90 649.61 847.56 C 678.39 847.45 707.18 847.44 735.96 847.57 C 736.79 839.38 736.25 831.15 736.37 822.95 C 696.75 822.74 657.14 822.87 617.53 822.89 Z" />
<path fill="#0151a0" opacity="1.00" d=" M 797.53 849.82 C 812.71 849.22 827.95 849.01 843.11 850.18 C 847.45 850.45 852.40 852.11 854.30 856.40 C 857.19 863.20 856.37 870.76 856.51 877.97 C 856.41 884.35 857.19 891.24 854.02 897.06 C 851.03 901.67 845.06 902.49 840.02 902.74 C 828.02 903.21 816.01 903.68 804.01 903.15 C 797.70 902.83 791.29 903.23 785.07 901.94 C 780.41 901.01 776.27 897.24 775.70 892.40 C 774.17 881.65 774.27 870.67 776.03 859.96 C 776.75 855.04 781.04 850.94 785.98 850.40 C 789.81 849.91 793.68 850.07 797.53 849.82 Z" />
<path fill="#0151a0" opacity="1.00" d=" M 506.08 850.28 C 525.39 850.47 544.71 850.12 564.02 850.45 C 567.40 850.51 571.79 851.23 573.09 854.88 C 574.58 859.71 574.56 865.03 573.19 869.90 C 572.55 872.50 569.83 873.77 567.42 874.23 C 563.97 874.80 560.46 874.86 556.98 874.96 C 540.00 875.09 523.01 874.97 506.02 875.00 C 506.06 866.76 506.00 858.52 506.08 850.28 Z" />
</g>
<g id="#feb930ff">
<path fill="#feb930" opacity="1.00" d=" M 572.20 181.71 C 582.38 180.26 592.68 180.00 602.95 180.03 C 615.64 180.13 628.38 179.64 641.00 181.19 C 649.65 182.32 658.33 183.08 667.00 184.04 C 688.57 187.75 710.12 192.04 730.93 198.93 C 795.39 219.25 854.75 256.01 900.98 305.38 C 886.93 313.80 872.30 321.21 858.01 329.22 C 822.97 348.46 787.96 367.77 752.83 386.86 C 748.55 389.33 744.24 391.90 739.40 393.12 C 739.33 392.54 739.18 391.38 739.10 390.80 C 738.41 389.58 737.86 388.30 737.47 386.97 C 733.82 383.26 729.42 379.83 724.16 378.93 C 715.33 376.62 706.04 381.31 697.37 377.83 C 688.64 374.28 678.26 371.97 669.42 376.42 C 626.57 398.73 584.04 421.65 541.46 444.45 C 537.08 446.95 532.67 449.59 527.72 450.79 C 516.47 452.82 505.08 453.88 493.83 455.87 C 481.96 457.69 469.99 458.81 458.20 461.12 C 455.58 461.63 452.92 461.86 450.26 462.05 C 444.44 456.28 437.08 452.33 429.43 449.53 C 417.89 445.59 406.13 442.16 394.06 440.29 C 384.31 439.11 374.75 436.78 365.02 435.46 C 360.47 435.09 355.69 434.76 351.40 436.65 C 339.63 441.30 327.17 443.65 314.90 446.54 C 307.71 448.20 300.34 448.88 293.15 450.49 C 285.84 453.80 279.42 459.59 276.29 467.09 C 273.89 473.65 273.40 480.92 275.28 487.68 C 264.81 489.38 254.32 490.88 243.82 492.32 C 234.58 493.54 225.45 495.53 216.16 496.40 C 219.10 479.48 224.53 463.11 230.01 446.88 C 246.36 400.65 271.52 357.61 303.46 320.41 C 363.24 250.72 447.39 202.28 537.86 186.36 C 549.18 183.93 560.72 182.98 572.20 181.71 Z" />
<path fill="#feb930" opacity="1.00" d=" M 994.28 588.15 C 1000.69 588.43 1005.63 584.05 1011.45 582.23 C 1011.49 595.17 1011.87 608.19 1009.98 621.04 C 1004.80 674.82 988.70 727.48 963.02 775.01 C 961.26 778.19 959.39 781.31 957.35 784.32 C 769.57 783.89 581.79 784.42 394.01 784.07 C 389.13 784.01 384.24 784.21 379.37 783.88 C 383.92 781.62 388.98 780.69 393.56 778.50 C 402.42 774.52 410.06 767.88 415.02 759.50 C 421.46 761.26 428.33 762.00 434.89 760.37 C 443.25 758.19 451.47 755.27 459.10 751.18 C 467.86 746.55 477.22 741.24 482.13 732.25 C 483.64 726.45 484.52 720.47 485.62 714.57 C 497.29 716.95 510.08 717.45 521.01 712.03 C 531.49 707.56 540.69 700.66 549.37 693.39 C 557.23 686.49 565.18 679.08 569.74 669.51 C 573.56 661.72 571.87 652.83 571.71 644.52 C 576.65 643.43 581.43 641.77 586.28 640.36 C 591.41 640.80 595.97 643.56 600.74 645.29 C 634.67 658.28 668.43 671.71 702.38 684.69 C 705.26 685.95 708.62 687.56 711.69 685.85 C 719.46 682.05 727.54 678.96 735.40 675.34 C 739.48 673.55 743.50 671.28 748.02 670.82 C 758.44 669.58 769.14 674.04 779.35 670.46 C 786.60 667.50 790.02 659.89 793.63 653.49 C 800.85 653.68 807.79 656.06 815.00 656.33 C 820.44 656.49 826.26 658.05 831.38 655.40 C 843.52 649.31 854.43 640.45 862.30 629.32 C 863.53 627.81 863.63 625.82 864.01 624.00 C 871.32 624.63 877.19 629.43 883.76 632.19 C 895.12 637.92 908.42 638.88 920.79 636.41 C 932.72 634.02 942.66 626.56 953.33 621.17 C 966.90 614.32 980.20 606.91 994.07 600.67 C 994.29 596.50 994.33 592.32 994.28 588.15 Z" />
<path fill="#feb930" opacity="1.00" d=" M 247.83 759.28 C 257.90 756.87 267.61 753.20 277.71 750.97 C 278.32 760.95 280.98 771.52 288.15 778.90 C 289.36 780.17 290.55 781.47 291.63 782.87 C 292.54 783.19 293.46 783.52 294.39 783.86 C 283.92 784.32 273.43 784.29 262.95 784.04 C 259.87 784.04 258.59 780.97 257.34 778.69 C 254.08 772.26 250.02 766.19 247.83 759.28 Z" />
<path fill="#feb930" opacity="1.00" d=" M 332.13 782.85 C 334.94 782.01 337.20 779.95 340.00 779.15 C 343.29 778.00 344.51 782.17 346.00 784.22 C 341.32 784.43 336.70 783.72 332.13 782.85 Z" />
</g>
<g id="#ffffffff">
<path fill="#ffffff" opacity="1.00" d=" M 839.03 356.91 C 862.43 344.26 885.55 331.10 909.08 318.72 C 932.48 340.15 950.91 366.54 965.29 394.71 C 988.51 440.45 1002.58 490.42 1010.28 541.02 C 1011.48 548.64 1012.29 556.33 1012.80 564.04 C 1008.20 566.30 1003.76 568.85 999.15 571.08 C 996.27 572.66 992.90 571.75 989.83 571.56 C 968.91 568.39 947.86 566.18 926.95 562.92 C 923.60 562.11 920.84 559.90 918.03 558.02 C 897.40 543.60 876.70 529.28 855.81 515.25 C 814.21 487.25 772.69 459.13 731.37 430.73 C 728.63 428.65 725.13 426.63 724.47 422.96 C 725.16 418.05 730.51 416.38 734.26 414.30 C 769.23 395.26 804.10 376.03 839.03 356.91 Z" />
<path fill="#ffffff" opacity="1.00" d=" M 674.04 391.06 C 677.74 389.06 682.15 389.06 686.14 390.08 C 692.19 391.31 697.64 395.11 703.99 394.78 C 710.85 394.79 718.22 392.05 724.75 395.12 C 726.36 399.31 724.20 403.50 721.99 406.98 C 718.49 412.46 713.73 416.94 709.06 421.39 C 709.10 429.32 713.42 436.83 719.94 441.24 C 774.76 479.20 830.26 516.16 885.31 553.78 C 893.73 559.66 902.12 565.59 910.61 571.38 C 914.30 573.80 918.04 576.44 922.44 577.40 C 934.42 580.26 946.81 580.46 958.90 582.71 C 964.21 583.70 969.65 583.90 974.95 585.04 C 977.62 585.65 978.32 588.73 979.61 590.78 C 968.35 596.40 957.07 601.99 945.98 607.95 C 934.78 613.73 924.01 621.81 910.99 622.60 C 904.46 622.55 897.62 622.19 891.69 619.17 C 877.66 612.29 863.64 605.38 849.62 598.47 C 842.42 595.16 835.60 590.88 827.91 588.75 C 828.32 593.59 830.38 598.74 834.95 601.05 C 840.67 603.97 846.73 607.36 849.88 613.23 C 851.44 616.27 850.50 619.93 848.52 622.55 C 844.22 628.90 837.79 633.29 831.65 637.69 C 828.78 639.60 825.75 642.04 822.08 641.72 C 810.06 641.18 798.40 637.96 786.57 636.05 C 782.61 642.90 778.57 649.70 774.32 656.38 C 764.88 656.77 755.47 655.51 746.04 655.63 C 741.05 655.64 736.72 658.33 732.28 660.23 C 725.74 663.03 719.27 665.97 712.77 668.83 C 710.16 670.05 707.14 670.39 704.43 669.33 C 665.76 654.35 627.18 639.11 588.47 624.27 C 579.64 626.29 571.09 629.57 562.25 631.67 C 560.89 630.48 559.53 629.29 558.18 628.11 C 557.09 628.59 556.01 629.08 554.93 629.58 C 557.04 605.38 559.84 581.24 561.82 557.02 C 562.26 550.02 561.57 542.79 558.57 536.38 C 553.89 526.41 543.09 519.33 531.96 519.91 C 528.13 520.03 524.62 521.68 521.14 523.10 C 515.27 525.61 509.34 527.97 503.43 530.39 C 499.23 532.12 495.03 534.34 492.17 537.98 C 487.37 543.93 485.03 551.41 483.55 558.80 C 469.08 556.55 453.27 555.82 439.99 563.03 C 432.44 566.95 426.88 573.96 423.87 581.82 C 421.05 588.87 419.75 596.40 418.69 603.88 C 410.65 601.71 402.24 601.90 393.99 602.20 C 383.24 602.87 372.19 606.66 364.69 614.67 C 360.15 619.43 357.98 625.80 356.04 631.95 C 351.51 647.63 348.16 663.61 344.78 679.58 C 334.02 677.08 322.58 675.74 311.81 678.90 C 301.62 681.76 293.45 690.03 289.76 699.83 C 285.61 710.73 284.98 722.56 281.45 733.65 C 279.04 734.65 276.56 735.49 274.03 736.16 C 261.11 739.54 248.44 743.83 235.45 746.95 C 206.86 692.28 195.17 629.43 199.45 568.05 C 200.56 557.09 200.91 546.01 203.16 535.19 C 204.68 527.81 205.69 520.31 207.86 513.08 C 239.56 508.39 271.22 503.35 303.01 499.30 C 313.68 499.17 324.36 498.22 334.75 495.70 C 339.54 494.65 344.18 492.98 349.06 492.33 C 409.85 483.42 470.63 474.41 531.45 465.66 C 535.92 465.14 539.67 462.51 543.56 460.50 C 587.01 437.27 630.39 413.90 674.04 391.06 Z" />
<path fill="#ffffff" opacity="1.00" d=" M 355.94 451.10 C 360.65 449.10 365.80 450.69 370.58 451.58 C 377.33 453.17 384.20 454.12 391.06 455.10 C 401.24 457.00 411.40 459.22 421.18 462.67 C 428.06 465.20 435.28 467.88 440.18 473.62 C 416.40 476.54 392.63 479.58 368.89 482.84 C 363.33 483.78 357.77 479.96 352.33 482.24 C 338.42 487.28 323.87 491.09 309.01 491.50 C 302.71 491.60 295.57 490.66 291.20 485.62 C 288.96 483.38 289.68 479.91 289.59 477.05 C 289.54 471.51 293.60 466.50 298.77 464.82 C 303.74 463.22 309.05 463.34 314.12 462.14 C 328.16 458.92 342.46 456.36 355.94 451.10 Z" />
<path fill="#ffffff" opacity="1.00" d=" M 526.15 537.42 C 528.68 536.46 531.20 535.29 533.93 534.99 C 539.74 535.62 544.54 540.38 546.04 545.91 C 547.83 551.82 546.62 558.04 546.08 564.04 C 543.46 587.00 541.81 610.06 539.12 633.01 C 538.35 638.26 541.61 643.35 546.01 645.98 C 548.75 647.61 552.03 646.57 554.99 646.31 C 556.81 650.58 558.55 655.37 556.99 660.01 C 554.65 668.60 547.48 674.47 541.22 680.28 C 531.56 688.63 521.15 696.93 508.62 700.36 C 502.04 702.27 494.59 702.07 488.58 698.56 C 485.03 696.41 481.82 692.44 482.69 688.05 C 485.93 664.97 490.04 642.02 493.21 618.94 C 494.45 608.70 497.58 598.52 496.34 588.13 C 494.80 578.66 496.88 569.13 498.90 559.91 C 500.40 554.55 501.69 547.88 507.34 545.36 C 513.53 542.54 519.92 540.16 526.15 537.42 Z" />
<path fill="#ffffff" opacity="1.00" d=" M 453.71 573.91 C 461.29 571.87 469.35 571.84 477.03 573.23 C 481.41 574.01 484.91 577.34 486.70 581.31 C 489.36 587.08 489.36 593.68 488.42 599.85 C 484.13 627.60 479.98 655.38 475.51 683.10 C 473.02 697.99 470.90 712.96 467.73 727.72 C 459.85 734.49 450.36 739.02 440.77 742.82 C 435.45 744.82 429.74 746.68 423.99 745.93 C 418.43 744.49 415.42 738.36 414.87 733.07 C 420.48 701.00 426.43 668.98 432.15 636.92 C 433.02 632.53 429.87 628.35 431.05 623.97 C 434.26 611.12 433.22 597.22 439.10 585.08 C 441.81 579.24 447.65 575.53 453.71 573.91 Z" />
<path fill="#ffffff" opacity="1.00" d=" M 391.54 617.87 C 399.16 616.91 407.04 616.81 414.52 618.75 C 419.34 620.72 421.86 625.78 423.50 630.43 C 425.49 635.86 423.38 641.51 422.43 646.92 C 416.71 679.37 410.99 711.82 404.52 744.12 C 402.62 753.20 396.00 761.06 387.51 764.72 C 377.64 768.77 366.76 770.31 356.14 769.40 C 349.78 768.77 345.45 762.05 346.07 755.97 C 346.56 751.68 347.53 747.46 348.22 743.21 C 353.98 711.69 359.72 680.15 367.15 648.98 C 368.84 642.26 370.59 635.52 373.21 629.09 C 376.40 622.07 384.26 618.68 391.54 617.87 Z" />
<path fill="#ffffff" opacity="1.00" d=" M 319.46 692.79 C 326.28 691.64 333.28 692.60 339.92 694.31 C 344.88 695.61 346.95 701.28 346.73 705.96 C 346.04 719.81 343.00 733.43 339.59 746.85 C 337.10 755.21 333.76 764.10 326.48 769.48 C 319.24 774.36 308.92 775.40 301.44 770.51 C 294.63 765.43 292.14 755.92 294.25 747.88 C 297.29 734.87 299.62 721.70 302.79 708.73 C 304.74 700.83 311.07 693.70 319.46 692.79 Z" />
<path fill="#ffffff" opacity="1.00" d=" M 354.84 822.41 C 375.15 820.30 395.61 821.17 416.00 821.03 C 425.76 821.12 435.73 821.56 445.00 824.89 C 452.03 827.23 457.29 833.82 458.48 841.07 C 459.75 847.53 459.68 854.14 459.55 860.69 C 448.63 860.60 437.69 861.02 426.77 860.37 C 426.37 857.30 426.69 853.85 424.82 851.22 C 421.65 848.37 417.06 848.51 413.08 848.08 C 398.71 847.31 384.27 847.13 369.92 848.28 C 365.34 848.60 360.44 851.24 359.19 855.94 C 356.68 864.75 357.28 874.03 357.30 883.09 C 357.58 888.64 357.32 894.68 360.34 899.60 C 363.16 903.58 368.41 904.51 372.96 904.83 C 386.99 905.48 401.05 905.38 415.09 904.83 C 418.71 904.55 422.79 904.23 425.53 901.55 C 428.57 897.82 428.22 892.70 428.88 888.20 C 439.67 888.31 450.47 888.23 461.26 888.21 C 462.08 898.62 462.45 909.85 457.24 919.28 C 452.31 927.03 442.58 929.25 434.08 930.35 C 414.44 932.34 394.66 931.54 374.96 931.56 C 362.76 930.68 349.95 931.55 338.54 926.37 C 331.96 923.54 327.35 917.08 326.20 910.08 C 324.49 899.50 324.29 888.74 324.33 878.04 C 324.43 867.65 324.31 857.23 325.57 846.91 C 326.57 840.14 328.80 832.77 334.74 828.71 C 340.64 824.69 347.90 823.40 354.84 822.41 Z" />
<path fill="#ffffff" opacity="1.00" d=" M 775.62 821.84 C 791.06 820.82 806.53 820.90 821.99 821.01 C 835.03 821.17 848.12 820.94 861.11 822.28 C 869.07 823.22 877.69 825.65 882.64 832.47 C 887.72 839.51 888.23 848.62 889.02 856.98 C 889.52 870.98 889.70 885.03 888.76 899.02 C 887.81 906.83 887.13 915.50 881.57 921.60 C 875.68 928.14 866.53 930.29 858.06 930.68 C 847.38 931.02 836.71 931.91 826.01 931.65 C 811.03 931.51 796.02 932.08 781.06 931.01 C 770.95 930.73 759.68 930.37 751.67 923.34 C 744.65 917.15 743.73 907.14 742.86 898.42 C 741.38 881.71 741.63 864.88 743.49 848.22 C 744.49 841.05 746.43 833.18 752.58 828.65 C 759.06 823.48 767.58 822.16 775.62 821.84 M 797.53 849.82 C 793.68 850.07 789.81 849.91 785.98 850.40 C 781.04 850.94 776.75 855.04 776.03 859.96 C 774.27 870.67 774.17 881.65 775.70 892.40 C 776.27 897.24 780.41 901.01 785.07 901.94 C 791.29 903.23 797.70 902.83 804.01 903.15 C 816.01 903.68 828.02 903.21 840.02 902.74 C 845.06 902.49 851.03 901.67 854.02 897.06 C 857.19 891.24 856.41 884.35 856.51 877.97 C 856.37 870.76 857.19 863.20 854.30 856.40 C 852.40 852.11 847.45 850.45 843.11 850.18 C 827.95 849.01 812.71 849.22 797.53 849.82 Z" />
<path fill="#ffffff" opacity="1.00" d=" M 473.42 822.90 C 507.92 822.84 542.43 822.79 576.93 822.94 C 583.92 822.99 591.42 823.46 597.35 827.57 C 602.92 831.48 606.11 838.16 606.52 844.87 C 607.29 854.85 607.56 865.03 605.44 874.87 C 603.46 882.28 595.96 886.58 588.79 887.67 C 595.24 888.47 602.39 891.71 604.44 898.41 C 607.13 908.69 605.56 919.41 605.92 929.90 C 595.06 929.91 584.20 929.96 573.34 929.86 C 573.20 922.92 573.85 915.86 572.37 909.03 C 571.52 904.81 566.97 902.72 563.04 902.67 C 544.06 902.23 525.08 902.53 506.10 902.50 C 506.21 911.62 506.18 920.75 506.12 929.88 C 495.21 929.86 484.30 930.10 473.39 929.77 C 473.43 894.15 473.39 858.53 473.42 822.90 M 506.08 850.28 C 506.00 858.52 506.06 866.76 506.02 875.00 C 523.01 874.97 540.00 875.09 556.98 874.96 C 560.46 874.86 563.97 874.80 567.42 874.23 C 569.83 873.77 572.55 872.50 573.19 869.90 C 574.56 865.03 574.58 859.71 573.09 854.88 C 571.79 851.23 567.40 850.51 564.02 850.45 C 544.71 850.12 525.39 850.47 506.08 850.28 Z" />
<path fill="#ffffff" opacity="1.00" d=" M 617.53 822.89 C 657.14 822.87 696.75 822.74 736.37 822.95 C 736.25 831.15 736.79 839.38 735.96 847.57 C 707.18 847.44 678.39 847.45 649.61 847.56 C 649.58 852.90 649.60 858.24 649.64 863.58 C 677.06 863.59 704.48 863.58 731.90 863.59 C 731.85 871.47 731.83 879.35 731.93 887.24 C 704.48 887.53 677.02 886.87 649.57 887.60 C 649.59 893.21 649.61 898.82 649.66 904.44 C 678.72 904.56 707.80 904.00 736.86 904.75 C 736.84 913.12 736.86 921.49 736.87 929.87 C 697.09 929.93 657.31 929.94 617.53 929.88 C 617.51 894.21 617.48 858.55 617.53 822.89 Z" />
</g>
</svg>
