<?xml version="1.0" encoding="UTF-8" standalone="no"?>
<!DOCTYPE svg PUBLIC "-//W3C//DTD SVG 1.1//EN" "http://www.w3.org/Graphics/SVG/1.1/DTD/svg11.dtd">
<svg width="100%" height="100%" viewBox="0 0 1182 1182" version="1.1" xmlns="http://www.w3.org/2000/svg" xmlns:xlink="http://www.w3.org/1999/xlink" xml:space="preserve" xmlns:serif="http://www.serif.com/" style="fill-rule:evenodd;clip-rule:evenodd;">
    <g transform="matrix(8.303857,0,0,8.303857,-1844.641888,-3138.701643)">
        <path d="M292.133,329.068L292.731,327.787L295.292,328.214L296.231,326.165L299.305,326.592C299.305,326.677 301.098,325.055 301.098,325.055L302.379,326.25L305.026,324.884L306.221,327.189L308.697,328.726L312.966,327.702L315.357,328.385L316.637,330.348L318.686,330.092L320.052,326.165L325.004,325.738L326.647,325.951L331.842,323.07L332.585,324.205L336.296,324.161L343.587,320.974L346.031,320.538L347.952,318.966L349,318.966L351.707,316.215L352.013,313.509L353.715,312.286L355.68,311.544L357.295,311.544L358.038,312.199L360.919,312.286C360.919,312.286 361.792,311.02 361.792,310.976C361.792,310.932 362.447,309.798 362.447,309.798L364.892,309.972L365.547,309.099L366.988,309.099L367.905,310.409L369.171,310.016L370.611,309.579L372.227,312.068L374.497,310.845L375.501,310.54L375.981,313.159L377.073,312.985L377.466,318.529L377.117,319.97L375.37,320.45L374.846,321.498L372.969,321.847L373.667,324.118L374.672,324.161L375.065,327.261L376.418,328.44L376.505,330.623L375.894,332.282L377.378,334.77L379.125,336.648L376.704,341.185L375.794,344.435L376.249,346.321L378.265,348.076L378.655,351.067L376.704,354.187L375.144,351.717L371.438,351.002L369.813,353.212C369.813,353.212 367.797,357.178 367.732,357.178C367.667,357.178 364.872,358.283 364.872,358.283L360.906,356.333L357.59,356.138L354.08,358.023L351.154,357.893L349.334,356.853L346.408,356.983L345.693,357.828L341.792,357.958L339.647,359.388L338.281,361.989L336.331,362.704L328.985,362.899L325.929,362.574L322.223,361.339L319.818,360.233L313.901,366.995L314.162,369.92L315.072,371.676L314.552,374.731L312.666,377.202L307.595,377.397L301.939,368.49L299.469,366.735C299.469,366.735 296.218,365.63 296.218,365.565C296.218,365.5 299.078,359.128 299.078,359.128L299.794,357.958C299.794,357.958 301.939,358.153 302.004,358.153C302.069,358.153 302.784,354.252 302.784,354.252L300.444,352.172L296.478,343.98L296.478,342.745L297.908,342.81L298.753,343.915L305.125,343.655L302.524,339.884L297.388,334.943L292.133,329.068Z" style="fill:rgb(227,249,255);fill-rule:nonzero;stroke:rgb(0,178,227);stroke-width:1px;"/>
    </g>
    <g transform="matrix(8.303857,0,0,8.303857,-1844.641888,-3138.701643)">
        <path d="M376.704,354.187L375.144,351.717L371.438,351.002L369.813,353.212C369.813,353.212 367.797,357.178 367.732,357.178C367.667,357.178 364.872,358.283 364.872,358.283L360.906,356.333L357.59,356.138L354.08,358.023L351.154,357.893L349.334,356.853L346.408,356.983L345.693,357.828L341.792,357.958L339.647,359.388L338.281,361.989L336.331,362.704L328.985,362.899L325.929,362.574L322.223,361.339L319.818,360.233L313.901,366.995L314.162,369.92L315.072,371.676L314.552,374.731L312.666,377.202L314.85,377.412L316.489,376.55C316.489,376.55 317.74,374.306 317.783,374.306C317.826,374.306 319.465,375.299 319.465,375.299C319.465,375.299 320.371,377.197 320.371,377.24C320.371,377.283 319.552,380.303 319.552,380.26C319.552,380.217 319.681,381.769 319.681,381.769L320.975,382.028L321.105,384.444L321.234,387.809L319.767,390.009L319.509,392.511L317.869,396.005L315.54,400.88L318.948,401.355L320.501,400.406L324.297,400.319L325.289,401.872L325.565,406.76L336.264,407.062L338.464,409.219L339.068,413.705L337.989,415.042L338.205,416.811L339.887,416.725L340.966,415.603L344.072,415.69L346.401,417.199L349.378,413.964L352.355,413.015L354.814,414.439L356.41,414.999L356.367,409.305L359.386,408.313L360.465,408.14L362.018,403.999L364.822,401.971L367.108,401.367L368.704,398.046L369.395,396.795L371.508,395.802L374.96,396.45L376.858,397.571L379.403,396.148L379.674,393.007L379.027,387.313L381.831,380.626L378.509,377.477L377.905,373.422C377.905,373.422 373.548,366.606 373.548,366.563C373.548,366.52 371.219,363.975 371.219,363.975L371.262,360.998L373.721,358.28L376.007,356.943L376.704,354.187Z" style="fill:rgb(227,249,255);fill-rule:nonzero;stroke:rgb(0,178,227);stroke-width:1px;"/>
    </g>
    <g transform="matrix(8.303857,0,0,8.303857,-1844.641888,-3138.701643)">
        <path d="M318.948,401.355L320.501,400.406L324.297,400.319L325.289,401.872L325.565,406.76L336.264,407.062L338.464,409.219L339.068,413.705L337.989,415.042L338.205,416.811L337.38,419.025L335.481,419.832L333.915,417.363L329.974,417.031L329.309,419.642L328.74,421.161L330.544,424.057L329.974,425.149L328.217,425.909L328.787,429.232L332.87,430.276L334.437,432.508L333.25,434.407L332.3,432.46L329.927,432.223L329.784,434.264L332.158,435.356L334.437,437.682L336.811,438.015L336.573,439.582L333.013,441.575L331.256,441.338L329.594,442.81L323.85,442.525L320.926,443.859L315.798,448.227L313.14,450.885L310.386,456.06L310.006,461.852L308.629,463.134L306.018,462.185L303.265,459.953L300.274,459.431L297.378,460.713L296.096,462.279L292.82,462.992L289.164,466.79L286.126,470.35L278.459,474.704L276.607,476.318L275.373,477.647L275.373,480.069L273.094,481.73L270.436,482.727L268.916,484.626L268.252,486.668L267.302,487.57L268.014,489.659L268.204,495.403L269.149,498.404L265.92,497.882L260.983,495.745L253.339,492.564L253.15,489.099L250.918,486.677C250.918,486.677 251.345,484.731 251.345,484.683L251.345,480.553L250.681,479.271L251.583,476.375L249.969,475.473L248.26,474.998L246.645,471.675L245.791,466.643L251.535,465.978L255.523,467.782L258.847,469.539L262.17,469.491L262.787,471.248L264.639,470.963L266.728,466.927L267.107,460.281L268.389,459.236L270.383,459.616L272.538,456.146L274.437,452.775L272.349,449.736L271.114,447.932L272.728,445.796L272.206,442.9L266.082,439.387L262.284,436.586L257.916,436.586L256.349,435.304L256.587,429.654C256.587,429.654 264.183,426.592 264.183,426.544C264.183,426.496 266.414,427.114 266.414,427.114L266.414,424.503L269.927,423.886L273.488,420.325L275.15,418.141L274.865,415.625L281.416,415.435L282.413,412.539L285.737,412.824L291.054,413.204L292.953,413.489L293.57,411.067L296.846,410.498L298.46,406.557L301.166,405.655L304.252,407.127L305.676,408.931L310.234,408.883L315.219,406.177L318.685,405.56L320.014,403.946L318.97,402.807L318.948,401.355Z" style="fill:rgb(0,178,227);fill-rule:nonzero;stroke:rgb(0,178,227);stroke-width:1px;"/>
    </g>
    <g transform="matrix(8.303857,0,0,8.303857,-1844.641888,-3138.701643)">
        <path d="M270.588,412.908L268.031,411.531L266.981,408.776L264.62,407.268L261.013,407.596L255.831,408.973L253.011,410.219L250.584,410.088L249.863,406.415L244.813,406.546L242.583,408.776L241.599,411.99L240.09,412.384L239.631,409.367L237.401,408.252L234.188,409.039L230.843,411.531L230.58,417.368L227.498,420.057L228.035,428.216L223.313,431.954L221.28,432.282L216.558,436.152L212.557,437.201L209.802,442.12L210.458,443.957L211.77,442.776L213.41,442.645L215.639,443.498C215.705,443.498 217.279,441.661 217.279,441.661L219.509,442.448L218.788,444.154L214,448.482L210.983,448.679L210.917,450.319L212.95,451.106L213.606,453.139L211.048,459.37L208.294,459.37L208.556,464.682L207.572,466.191L207.507,476.226L211.77,477.144C211.835,477.144 217.476,478.587 217.476,478.587L222.395,480.03L226.265,480.358L232.167,482.85L241.94,487.704L253.339,492.564L253.15,489.099L250.918,486.677C250.918,486.677 251.345,484.731 251.345,484.683L251.345,480.553L250.681,479.271L251.583,476.375L249.969,475.473L248.26,474.998L246.645,471.675L245.791,466.643L251.535,465.978L255.523,467.782L258.847,469.539L262.17,469.491L262.787,471.248L264.639,470.963L266.728,466.927L267.107,460.281L268.389,459.236L270.383,459.616L272.538,456.146L274.437,452.775L272.349,449.736L271.114,447.932L272.728,445.796L272.206,442.9L266.082,439.387L262.284,436.586L257.916,436.586L256.349,435.304L256.587,429.654C256.587,429.654 264.183,426.592 264.183,426.544C264.183,426.496 266.414,427.114 266.414,427.114L266.414,424.503L269.927,423.886L273.488,420.325L275.15,418.141L274.865,415.625L270.588,412.908Z" style="fill:rgb(227,249,255);fill-rule:nonzero;stroke:rgb(0,178,227);stroke-width:1px;"/>
    </g>
    <g transform="matrix(8.303857,0,0,8.303857,-1844.641888,-3138.701643)">
        <path d="M296.218,365.565C296.218,365.5 297.701,361.817 297.701,361.817L294.77,360.867L291.885,362.441L289.523,363.228L288.54,365.917L285.851,367.294L284.014,369.852L280.538,374.378L277.521,374.705L274.307,376.083L273.586,378.575L270.765,380.674L267.617,380.674L265.912,380.084L263.157,381.592L259.222,382.117L258.894,384.675L258.107,386.314L255.484,386.839L255.287,389.725L254.369,392.086L250.499,393.529L249.319,395.103L249.384,400.744L249.778,402.252L248.007,403.367L247.633,406.349L249.863,406.415L250.584,410.088L253.011,410.219L255.831,408.973L261.013,407.596L264.62,407.268L266.981,408.776L268.031,411.531L270.588,412.908L274.865,415.625L281.416,415.435L282.413,412.539L285.737,412.824L291.054,413.204L292.953,413.489L293.57,411.067L296.846,410.498L298.46,406.557L301.166,405.655L304.252,407.127L305.676,408.931L310.234,408.883L315.219,406.177L318.685,405.56L320.014,403.946L318.97,402.807L318.948,401.355L315.54,400.88L317.869,396.005L319.509,392.511L319.767,390.009L321.234,387.809L321.105,384.444L320.975,382.028L319.681,381.769C319.681,381.769 319.559,380.307 319.552,380.26C319.571,380.233 320.371,377.282 320.371,377.24C320.371,377.197 319.465,375.299 319.465,375.299C319.465,375.299 317.826,374.306 317.783,374.306C317.74,374.306 316.489,376.55 316.489,376.55L314.85,377.412L312.666,377.202L307.595,377.397L301.939,368.49L299.469,366.735C299.469,366.735 296.218,365.63 296.218,365.565" style="fill:rgb(227,249,255);fill-rule:nonzero;stroke:rgb(0,178,227);stroke-width:1px;"/>
    </g>
    <g transform="matrix(8.303857,0,0,8.303857,-1844.641888,-3138.701643)">
        <path d="M255.484,386.839L258.107,386.314L258.894,384.675L259.222,382.117L263.157,381.592L265.912,380.084L267.617,380.674L270.765,380.674L273.586,378.575L274.307,376.083L277.521,374.705L280.538,374.378L284.014,369.852L285.851,367.294L288.54,365.917L289.523,363.228L291.885,362.441L294.77,360.867L297.701,361.817L299.078,359.128L299.794,357.958C299.794,357.958 301.939,358.153 302.004,358.153C302.069,358.153 302.784,354.252 302.784,354.252L300.444,352.172L296.478,343.98L296.478,342.745L297.908,342.81L298.753,343.915L305.125,343.655L302.524,339.884L297.388,334.943L292.133,329.068L287.097,328.385L285.133,327.104L283.084,327.275L280.437,328.982L244.252,355.781L244.432,358.539L244.612,360.397L242.813,361.116L238.497,360.877L237.358,361.656L233.882,361.356L233.042,363.154L235.5,365.133L237.658,365.073L239.037,364.174L242.694,366.332L242.394,368.909L240.775,372.326L241.435,376.043L243.233,379.1L246.59,381.618L250.187,382.996L254.023,384.255L255.582,385.274L255.484,386.839Z" style="fill:rgb(227,249,255);fill-rule:nonzero;stroke:rgb(0,178,227);stroke-width:1px;"/>
    </g>
    <g transform="matrix(8.303857,0,0,8.303857,-1844.641888,-3138.701643)">
        <path d="M211.208,436.372L211.051,433.754L208.905,431.608L209.062,429.409L207.858,427.734L207.669,425.101L210.234,420.233L210.444,415.783L207.931,416.568L205.942,415.888L204.685,412.328L202.539,410.286L201.335,406.727L202.958,401.806L203.01,398.612L201.806,397.251L202.382,395.733L203.691,395.733L205.418,397.461L206.308,396.309L205.295,394.537L204.641,387.972L201.263,386.8L200.827,382.741L199.138,382.523L197.231,383.94L195.962,382.904L193.271,382.833L192.422,380.284L190.297,379.151L191.501,376.46L194.05,375.752L196.033,374.194L196.316,371.645L198.299,370.583L198.228,366.688L200.069,364.776L202.052,364.351L202.406,362.864L207.704,360.03L212.224,360.869L215.44,361.009L216.978,359.611L220.147,359.098L222.384,359.005L226.019,359.984L228.489,359.378L228.535,357.747L229.467,355.976L232.357,355.882L232.963,358.632L233.882,361.356L233.042,363.154L235.5,365.133L237.658,365.073L239.037,364.174L242.694,366.332L242.394,368.909L240.775,372.326L241.435,376.043L243.233,379.1L246.59,381.618L250.187,382.996L254.023,384.255L255.582,385.274L255.484,386.839L255.287,389.725L254.369,392.086L250.499,393.529L249.319,395.103L249.384,400.744L249.778,402.252L248.007,403.367L247.633,406.349L244.813,406.546L242.583,408.776L241.599,411.99L240.09,412.384L239.631,409.367L237.401,408.252L234.188,409.039L230.843,411.531L230.58,417.368L227.498,420.057L228.035,428.216L223.313,431.954L221.28,432.282L216.558,436.152L212.557,437.201L211.208,436.372ZM212.462,396.567L213.297,397.469L215.168,396.6L216.705,398.872L215.235,400.443L218.142,401.311L219.946,398.438L219.144,397.435L221.918,393.626L228.467,391.154L237.054,391.722L238.023,390.987L237.221,387.445L237.588,383.736L238.557,382.634L237.521,380.462L234.013,380.362L231.44,381.097L230.605,380.629L229.068,380.963L228.433,382.032L226.796,382.667L224.858,383.87L224.992,385.106L223.588,385.039L222.118,384.438L221.316,385.207L220.481,384.872L217.04,387.88L215.235,387.712L213.531,388.648L214.066,390.285L212.863,391.555C212.863,391.555 213.565,394.194 213.565,394.228C213.565,394.262 212.562,396.4 212.462,396.567Z" style="fill:rgb(227,249,255);fill-rule:nonzero;stroke:rgb(0,178,227);stroke-width:1px;"/>
    </g>
    <g transform="matrix(8.303857,0,0,8.303857,-1844.641888,-3138.701643)">
        <path d="M212.462,396.567L213.297,397.469L215.168,396.6L216.705,398.872L215.235,400.443L218.142,401.311L219.946,398.438L219.144,397.435L221.918,393.626L228.467,391.154L237.054,391.722L238.023,390.987L237.221,387.445L237.588,383.736L238.557,382.634L237.521,380.462L234.013,380.362L231.44,381.097L230.605,380.629L229.068,380.963L228.433,382.032L226.796,382.667L224.858,383.87L224.992,385.106L223.588,385.039L222.118,384.438L221.316,385.207L220.481,384.872L217.04,387.88L215.235,387.712L213.531,388.648L214.066,390.285L212.863,391.555C212.863,391.555 213.565,394.194 213.565,394.228C213.565,394.262 212.562,396.4 212.462,396.567Z" style="fill:rgb(227,249,255);fill-rule:nonzero;stroke:rgb(0,178,227);stroke-width:1px;"/>
    </g>
</svg>
