<?xml version="1.0" encoding="UTF-8" standalone="no"?>
<!DOCTYPE svg PUBLIC "-//W3C//DTD SVG 1.1//EN" "http://www.w3.org/Graphics/SVG/1.1/DTD/svg11.dtd">
<svg width="100%" height="100%" viewBox="0 0 1182 1182" version="1.1" xmlns="http://www.w3.org/2000/svg" xmlns:xlink="http://www.w3.org/1999/xlink" xml:space="preserve" xmlns:serif="http://www.serif.com/" style="fill-rule:evenodd;clip-rule:evenodd;">
    <g transform="matrix(2.180896,0,0,2.180896,44.06073,51.006209)">
        <path d="M165.517,3.382L378.459,3.516L378.563,98.601L370.689,236.428L371.337,237.482L374.044,237.788C374.044,237.788 375.267,237.264 375.267,237.22C375.267,237.176 376.533,236.216 376.533,236.216L378.061,235.474L379.24,236.958L380.375,236.565L381.466,235.779L382.383,236.434L383.78,236.871L384.697,235.779L386.531,235.692L387.666,236.871C387.666,236.871 389.63,236.478 389.674,236.478C389.718,236.478 390.329,235.867 390.329,235.867L391.857,236.129L392.905,235.867L394.957,236.041L396.616,237.657L398.624,236.914L400.37,237.788L402.204,238.399L404.78,238.399C404.78,238.399 406.439,237.569 406.439,237.613C406.439,237.657 408.447,238.093 408.447,238.093L409.102,240.058L410.98,241.411L413.686,242.284L414.516,240.975L416.262,240.8L417.528,239.927L418.402,241.018C418.402,241.018 420.527,241.146 420.527,241.189C420.527,241.232 425.766,244.55 425.766,244.55L424.478,246.584L422.062,247.608L418.991,248.141L417.149,249.738L414.896,249.819L413.177,251.416L412.972,254.201L411.621,255.184L409.655,255.184L408.058,257.067L405.806,256.985L405.396,258.705L403.349,258.664L402.858,261.653L401.588,263.005L398.599,263.087C398.599,263.087 397.166,264.397 397.125,264.397L396.715,266.403L394.34,268.901L392.457,269.311C392.457,269.311 390.287,270.579 390.286,270.539L390.324,273.217L388.276,274.487L387.089,274.241L385.492,275.51L382.953,274.978L380.988,276.288L377.548,276.534L376.524,274.814L374.313,275.428L372.839,276.493L368.703,276.78L368.089,279.769L366.328,282.021L363.953,283.29L361.291,282.881L360.022,281.775L358.302,282.349L352.856,283.577L351.791,286.239L349.253,287.631L349.662,289.064L351.546,288.614L351.873,290.211L354.74,289.637L357.483,290.661L358.138,292.545L357.033,293.855L357.319,295.329L358.507,295.821L358.466,297.499L356.992,298.032L358.22,301.062L361.169,302.249L362.725,300.243L364.895,300.079L366.082,297.991L367.475,297.172L366.697,296.066L365.673,295.493L367.393,294.756L368.539,295.534L371.897,295.329L372.02,296.23L375.378,296.271L376.688,296.926L381.684,296.803L383.936,295.247L386.679,294.797L392.699,288.573L397.244,285.502L398.882,283.823L398.513,277.885L396.302,274.978L396.384,272.562L398.472,270.883L398.554,268.877L397.899,266.379L399.742,265.355L403.55,264.905L404.451,262.448L407.358,261.915L408.628,262.652L410.634,262.079L411.363,259.557L413.123,259.393L415.785,254.52L417.341,252.801L417.751,250.016L419.429,248.788L422.255,248.173L424.794,247.068L425.897,246.384L426.727,246.995L428.779,247.301L435.197,251.885L440.217,253.981L440.174,256.251L438.733,258.565L439.606,260.355L442.313,260.53L444.714,259.482L445.5,256.775L446.024,253.806L446.417,252.016L449.735,248.567L449.648,245.991L448.512,244.681L448.993,242.149L449.866,243.459L451.132,243.415L452.704,243.328L454.756,244.594L456.458,244.157L455.716,241.8L454.581,240.228L452.616,240.228L452.267,239.355L450.259,238.482L449.91,236.517L447.334,234.203L445.544,233.592L441.876,231.54L441.833,228.964L443.492,228.571L448.338,230.842L451.569,233.592L457.201,238.875L458.772,239.442L463.208,242.882L466.308,243.625L468.971,245.502L472.115,246.681L481.239,253.797L482.986,254.015L485.256,256.286L487.177,256.635L487.744,257.77L484.819,257.945L485.535,258.647L485.885,261.18L481.912,261.442L480.864,262.751L478.899,262.708L477.589,264.716L476.76,267.161L475.188,268.776C475.188,268.776 473.922,268.645 473.922,268.689C473.922,268.733 471.914,270.697 471.914,270.697L466.02,276.155L457.943,282.965L449.822,289.602L448.6,292.396L445.544,292.876L444.496,293.867L437.467,301.071L434.673,303.603L425.024,309.628L411.97,318.447C411.97,318.447 402.496,326.523 402.496,326.567C402.496,326.611 398.611,330.147 398.611,330.147L394.769,330.671L391.101,332.243L384.814,335.037L379.126,336.648L379.125,336.648L376.704,341.185L375.794,344.435L376.249,346.321L378.265,348.076L378.655,351.067L376.704,354.187L376.007,356.943L373.721,358.28L371.262,360.998L371.219,363.975C371.219,363.975 373.548,366.52 373.548,366.563C373.548,366.606 377.905,373.422 377.905,373.422L378.509,377.477L381.831,380.626L379.027,387.313L379.674,393.007L379.403,396.148L376.858,397.571L374.96,396.45L371.508,395.802L369.395,396.795L368.704,398.046L367.108,401.367L364.822,401.971L362.018,403.999L360.465,408.14L359.386,408.313L356.367,409.305L356.41,414.999L354.814,414.439L352.355,413.015L349.378,413.964L346.401,417.199L344.072,415.69L340.966,415.603L339.887,416.725L338.205,416.811L337.38,419.025L335.481,419.832L333.915,417.363L329.974,417.031L329.309,419.642L328.74,421.161L330.544,424.057L329.974,425.149L328.217,425.909L328.787,429.232L332.87,430.276L334.437,432.508L333.25,434.407L332.3,432.46L329.927,432.223L329.784,434.264L332.158,435.356L334.437,437.682L336.811,438.015L336.573,439.582L333.013,441.575L331.256,441.338L329.594,442.81L323.85,442.525L320.926,443.859L315.798,448.227L313.14,450.885L310.386,456.06L310.006,461.852L308.629,463.134L306.018,462.185L303.265,459.953L300.274,459.431L297.378,460.713L296.096,462.279L292.82,462.992L289.164,466.79L286.126,470.35L278.459,474.704L276.607,476.318L275.373,477.647L275.373,480.069L273.094,481.73L270.436,482.727L268.916,484.626L268.252,486.668L267.302,487.57L268.014,489.659L268.204,495.403L269.149,498.404L265.92,497.882L260.983,495.745L253.339,492.564L241.94,487.704L232.167,482.85L226.265,480.358L222.395,480.03L217.476,478.587C217.476,478.587 211.835,477.144 211.77,477.144L207.507,476.226L199.701,476.174L193.786,476.616L189.706,475.868L187.224,476.684L182.635,475.902L172.708,477.364L150.78,477.976L139.696,476.378L123.779,471.71L119.121,469.84L116.538,469.806L112.196,466.713L99.447,461.341L91.586,457.244L85.462,452.921L80.191,448.878L76.793,446.926L73.322,445.552L69.273,442.009L67.249,441.72L61.182,436.254L47.806,425.914L41.805,419.841L36.888,416.37L34.285,413.839L30.38,411.743L25.608,407.766L16.259,401.351L16.765,400.266L19.151,400.772L20.019,398.531L21.248,396.723L23.201,395.928L23.924,391.228L27.322,385.444L27.467,380.671L25.804,377.996L24.733,373.781L26.035,372.046L23.866,368.503L23.938,363.875L29.216,357.729L28.421,355.705L27.842,345.221L30.518,343.051L34.784,342.184L36.736,340.232L36.953,336.833L37.893,335.821L21.263,313.479L33.228,293.043L78.066,215.616L149.572,215.809L228.838,215.631L229.986,213.055L226.365,211.503L226.468,209.434L229.572,208.71L227.4,206.64L229.365,204.571L229.572,202.709L226.261,201.467L226.365,197.639L228.848,195.88L226.468,194.638L226.675,192.569L230.09,192.258L228.952,190.086L230.71,189.051L228.641,187.913L233.607,183.153L231.228,180.463L235.884,180.36L233.711,177.049L233.918,173.738L231.435,174.152L228.124,172.703L223.882,172.703L223.468,168.254L217.156,167.53L214.984,165.047L211.88,166.289L208.983,164.53L206.81,165.047L208.569,162.357L207.638,161.219L205.154,161.115L204.637,156.563L206.499,153.769L204.534,151.907L202.775,154.287L201.43,152.424L203.396,150.044L203.292,147.147L200.602,143.94L200.705,140.733L196.567,135.663L191.497,131.317L187.462,129.662L186.944,126.765L183.944,126.765L182.185,127.282L178.15,124.799L173.701,123.971L170.907,119.936L168.01,118.177L170.08,115.59L164.803,115.073L165.527,118.591L162.32,116.211L156.526,114.556L156.319,110.624L153.525,108.141L150.494,104.478L149.355,100.96L143.665,99.512L138.181,92.787L137.457,89.579L133.732,87.613L131.973,85.958L131.352,81.302L127.524,79.233L123.282,80.371L120.385,77.37L118.109,75.301L113.349,74.68L112.625,71.576L165.703,72.3L165.517,3.382ZM282.945,110.018L286.519,110.813L290.54,111.954L291.483,110.267L291.582,109.026L293.319,109.572L294.163,107.04L296.844,106.097L300.765,106.643L304.836,106.841L306.772,105.303L310.296,107.338L313.82,106.494L315.061,104.211L314.118,102.721L311.338,102.672L309.005,100.785L305.928,100.637L304.885,101.183L303.495,100.686L302.006,101.282L298.283,101.332L294.957,101.282L293.071,101.629L292.327,103.665L290.49,105.849L288.008,107.189L286.767,108.529L283.342,108.976L282.945,110.018ZM129.345,382.913L131.581,383.015L134.173,385.047L133.919,387.944L132.496,390.536L133.208,392.569L135.19,391.4L135.596,388.249L137.629,386.115L140.17,385.606L142.254,384.59L143.168,385.86L145.099,386.623L145.252,388.859L146.929,389.621L147.437,387.131L149.216,386.521L148.504,382.1L147.539,381.134L146.776,378.542L145.201,378.034L142.66,376.51L139.154,376.51L135.901,377.78L132.903,379.203L130.616,379.711L128.837,380.88L129.345,382.913Z" style="fill:rgb(0,178,227);fill-rule:nonzero;stroke:rgb(0,178,227);stroke-width:1px;"/>
    </g>
</svg>
