<?xml version="1.0" encoding="UTF-8" standalone="no"?>
<!DOCTYPE svg PUBLIC "-//W3C//DTD SVG 1.1//EN" "http://www.w3.org/Graphics/SVG/1.1/DTD/svg11.dtd">
<svg width="100%" height="100%" viewBox="0 0 1182 1182" version="1.1" xmlns="http://www.w3.org/2000/svg" xmlns:xlink="http://www.w3.org/1999/xlink" xml:space="preserve" xmlns:serif="http://www.serif.com/" style="fill-rule:evenodd;clip-rule:evenodd;">
    <g transform="matrix(10.556282,0,0,10.556282,-100.435305,-3808.319345)">
        <path d="M200.371,412.688L198.603,413.368L197.039,414.796L194.659,414.66L194.115,413.062L192.518,412.28L191.43,412.756L189.458,414.932L187.52,415.34L187.01,417.311L186.33,419.725L185.378,421.119L184.188,420.575L183.848,417.141L182.964,416.937L182.42,415.34L180.313,412.042L178.239,410.172L175.961,410.546L174.873,412.518L169.638,415.306L169.468,417.141L166.136,421.187L165.286,420.813L165.15,416.087L163.552,415.544L163.28,413.504L162.056,413.436L160.251,416.723L158.415,416.995L158.415,414.751L156.069,415.023L154.982,416.349L152.704,417.471L150.8,415.771L149.168,417.301L148.556,419.511L146.618,420.225L146.618,422.061L147.468,422.911L147.638,426.48L145.462,429.472L145.394,431.58L139.683,431.648L139.309,430.9L135.263,431.138L135.535,430.424L132.408,430.084L132.102,428.758L131.898,426.752L130.198,426.65L129.96,428.996L128.906,429.472L128.056,428.554L125.098,428.35C125.098,428.35 124.112,427.364 124.078,427.398C124.044,427.432 122.684,428.248 122.684,428.248L121.936,427.398L122.854,425.902L122.582,421.517L123.398,420.599L123.398,418.525L119.693,420.667L117.585,424.509L114.817,427.344L116.279,429.18L115.905,431.186L114.308,432.308L112.234,431.934L111.69,429.86L112.574,428.942L111.35,427.31L108.596,429.52L109.616,434.688L110.19,442.881L105.703,448.116L105.499,450.122L101.487,455.868L100.501,456.344L100.433,459.675L99.447,461.341L112.196,466.713L116.538,469.806L119.121,469.84L123.779,471.71L139.696,476.378L150.78,477.976L172.708,477.364L182.635,475.902L187.224,476.684L189.706,475.868L193.786,476.616L199.701,476.174L207.507,476.226L207.572,466.191L208.556,464.682L208.294,459.37L211.048,459.37L213.606,453.139L212.95,451.106L210.917,450.319L210.983,448.679L214,448.482L218.788,444.154L219.509,442.448L217.279,441.661C217.279,441.661 215.705,443.498 215.639,443.498L213.41,442.645L211.77,442.776L210.458,443.957L209.802,442.12L212.557,437.201L211.208,436.372L211.051,433.754L208.905,431.608L209.062,429.409L207.858,427.734L207.669,425.101L210.234,420.233L210.444,415.783L207.931,416.568L205.942,415.888L204.685,412.328L202.539,410.286L200.371,412.688Z" style="fill:rgb(227,249,255);fill-rule:nonzero;stroke:rgb(0,178,227);stroke-width:1px;"/>
    </g>
    <g transform="matrix(10.556282,0,0,10.556282,-100.435305,-3808.319345)">
        <path d="M142.416,358.235L140.864,355.45L136.409,351.513L135.813,348.649L133.943,347.933L132.352,345.904L132.153,342.443L131.278,340.852L132.034,338.625L132.221,331.871L133.374,330.876L134.806,332.07L137.273,332.865L136.318,331.035L136.437,328.689L131.863,327.018L129.078,325.864L125.419,320.256L125.18,315.88L122.194,317.253L118.243,320.334L117.372,325.625L117.171,329.308L107.327,329.509L102.973,327.433L98.809,331.864L98.809,339.064L99.267,346.805L100.266,348.845L99.975,350.676L98.934,351.841L99.309,353.007L100.474,352.299L101.972,353.048L102.18,355.545L103.845,357.834L105.094,359.707L106.675,359.499L107.133,358.375L109.63,357.626L111.212,358.916L111.336,360.623L110.837,362.121L111.794,363.037L113.376,363.161L116.039,366.2L122.781,360.373L124.904,361.122L127.193,362.953L129.232,362.204L131.771,362.287L131.896,364.035L133.894,363.661L135.267,362.704L137.306,362.745L138.721,360.664L139.637,359.291L142.416,358.235Z" style="fill:rgb(227,249,255);fill-rule:nonzero;stroke:rgb(0,178,227);stroke-width:1px;"/>
    </g>
    <g transform="matrix(10.556282,0,0,10.556282,-100.435305,-3808.319345)">
        <path d="M116.039,366.2L122.781,360.373L124.904,361.122L127.193,362.953L129.232,362.204L131.771,362.287L131.896,364.035L133.894,363.661L135.267,362.704L137.306,362.745L138.721,360.664L139.637,359.291L142.416,358.235L144.285,359.07L145.24,361.139L147.706,361.616L148.581,363.645L150.809,365.156L150.729,366.548L148.144,367.861L147.945,370.486L149.934,372.038L151.087,371.202L152.44,368.696L153.792,368.1C153.792,368.139 155.049,369.129 155.053,369.132L153.42,374.09L153.84,376.251L152.97,378.562L153.69,380.062L153.51,382.403L152.46,384.654L151.427,388.913L150.107,389.903L150.317,394.645L149.416,395.546L149.326,402.238L148.546,403.649L147.636,402.076L147.312,400.863L145.533,399.772L142.218,400.135L140.722,398.64L137.205,399.044L134.658,401.753L131.343,402.359L129.766,400.499L129.483,393.788L126.41,392.373L125.359,390.149L120.952,388.694L119.092,389.624L115.818,389.341L111.734,391.767C111.734,391.767 110.481,393.748 110.481,393.788L107.408,394.354L105.751,392.818L104.74,389.907L106.115,388.33L105.427,380.972L109.187,376.08L110.562,376.282L111.188,372.777L115.878,369.179L116.039,366.2ZM129.345,382.913L131.581,383.015L134.173,385.047L133.919,387.944L132.496,390.536L133.208,392.569L135.19,391.4L135.596,388.249L137.629,386.115L140.17,385.606L142.254,384.59L143.168,385.86L145.099,386.623L145.252,388.859L146.929,389.621L147.437,387.131L149.216,386.521L148.504,382.1L147.539,381.134L146.776,378.542L145.201,378.034L142.66,376.51L139.154,376.51L135.901,377.78L132.903,379.203L130.616,379.711L128.837,380.88L129.345,382.913Z" style="fill:rgb(227,249,255);fill-rule:nonzero;stroke:rgb(0,178,227);stroke-width:1px;"/>
    </g>
    <g transform="matrix(10.556282,0,0,10.556282,-100.435305,-3808.319345)">
        <path d="M99.447,461.341L100.433,459.675L100.501,456.344L101.487,455.868L105.499,450.122L105.703,448.116L110.19,442.881L109.616,434.688L108.596,429.52L111.35,427.31L112.574,428.942L111.69,429.86L112.234,431.934L114.308,432.308L115.905,431.186L116.279,429.18L114.817,427.344L117.585,424.509L119.693,420.667L123.398,418.525L123.398,420.599L122.582,421.517L122.854,425.902L121.936,427.398L122.684,428.248C122.684,428.248 124.044,427.432 124.078,427.398C124.112,427.364 125.098,428.35 125.098,428.35L128.056,428.554L128.906,429.472L129.96,428.996L130.198,426.65L131.898,426.752L132.102,428.758L132.408,430.084L135.535,430.424L135.263,431.138L139.309,430.9L139.683,431.648L145.394,431.58L145.462,429.472L147.638,426.48L147.468,422.911L146.618,422.061L146.618,420.225L148.556,419.511L149.168,417.301L150.8,415.771L151.547,412.322L149.326,412.112L148.126,411.152L148.546,403.649L147.636,402.076L147.312,400.863L145.533,399.772L142.218,400.135L140.722,398.64L137.205,399.044L134.658,401.753L131.343,402.359L129.766,400.499L129.483,393.788L126.41,392.373L125.359,390.149L120.952,388.694L119.092,389.624L115.818,389.341L111.734,391.767C111.734,391.767 110.481,393.748 110.481,393.788L107.408,394.354L105.751,392.818L104.74,389.907L106.115,388.33L105.427,380.972L102.165,383.942L101.152,386.617L99.128,387.341L97.32,390.883L96.163,396.812L94.139,400.862L93.777,403.971L94.862,407.514L94.356,416.046L93.343,419.733L92.982,426.819L89.439,432.748L89.511,441.858L86.836,445.98L86.764,448.293L85.535,449.306L85.462,452.921L91.586,457.244L99.447,461.341Z" style="fill:rgb(227,249,255);fill-rule:nonzero;stroke:rgb(0,178,227);stroke-width:1px;"/>
    </g>
    <g transform="matrix(10.556282,0,0,10.556282,-100.435305,-3808.319345)">
        <path d="M80.191,448.878L76.793,446.926L73.322,445.552L69.273,442.009L67.249,441.72L61.182,436.254L47.806,425.914L41.805,419.841L36.888,416.37L34.285,413.839L30.38,411.743L25.608,407.766L28.139,406.609L29.296,404.946C29.368,404.946 32.188,404.368 32.188,404.368L32.983,402.126L39.129,397.354L48.529,401.909L54.024,401.692L57.278,404.006L60.604,404.295L64.074,406.97L67.039,406.103L68.847,405.958L68.919,403.5L70.51,401.548L70.654,394.823L72.1,394.462L74.269,395.04L74.197,393.811L73.98,391.136L75.354,387.954L76.077,384.628L77.957,385.568L79.331,385.568L80.777,382.242L83.163,379.928L85.115,381.302L84.031,384.05L82.078,387.304L83.452,388.46L85.549,387.593L85.983,391.786L86.706,393.305L87.863,390.123L88.586,387.304L90.9,387.376L90.9,389.617L92.418,390.123L93.792,388.605L96.25,387.159L98.564,386.147L99.648,383.833L102.165,383.942L101.152,386.617L99.128,387.341L97.32,390.883L96.163,396.812L94.139,400.862L93.777,403.971L94.862,407.514L94.356,416.046L93.343,419.733L92.982,426.819L89.439,432.748L89.511,441.858L86.836,445.98L86.764,448.293L85.535,449.306L85.462,452.921L80.191,448.878Z" style="fill:rgb(0,178,227);fill-rule:nonzero;stroke:rgb(0,178,227);stroke-width:1px;"/>
    </g>
    <g transform="matrix(10.556282,0,0,10.556282,-100.435305,-3808.319345)">
        <path d="M39.129,397.354L48.529,401.909L54.024,401.692L57.278,404.006L60.604,404.295L64.074,406.97L67.039,406.103L68.847,405.958L68.919,403.5L70.51,401.548L70.654,394.823L72.1,394.462L74.269,395.04L74.197,393.811L73.98,391.136L75.354,387.954L76.077,384.628L77.957,385.568L79.331,385.568L80.777,382.242L83.163,379.928L85.115,381.302L84.031,384.05L82.078,387.304L83.452,388.46L85.549,387.593L85.983,391.786L86.706,393.305L87.863,390.123L88.586,387.304L90.9,387.376L90.9,389.617L92.418,390.123L93.792,388.605L96.25,387.159L98.564,386.147L99.648,383.833L102.165,383.942L105.427,380.972L109.187,376.08L110.562,376.282L111.188,372.777L115.878,369.179L116.039,366.2L113.376,363.161L111.794,363.037L110.837,362.121L111.336,360.623L111.212,358.916L109.63,357.626L107.133,358.375L106.675,359.499L105.094,359.707L103.845,357.834L102.18,355.545L101.972,353.048L100.474,352.299L99.309,353.007L98.934,351.841L99.975,350.676L100.266,348.845L99.267,346.805L98.809,339.064L98.809,331.864L102.973,327.433L101.634,320.803L96.41,318.191L95.238,322.511L89.092,327.645L83.452,327.789L80.922,332.055L81.5,335.309L85.838,339.358L84.537,342.395L83.958,349.987L81.572,353.674L79.475,354.47L79.259,358.302L76.583,358.157L74.356,361.208L71.609,368.945L69.729,377.694L66.403,377.404L64.089,379.429L56.352,379.357L55.123,378.2L52.448,378.344L49.339,380.297L44.205,380.369L42.181,379.357L39.361,380.441L38.493,382.61L36.252,382.61L35.095,383.55L35.095,385.43L30.684,388.612L31.696,391.432L36.252,394.324L39.129,397.354Z" style="fill:rgb(227,249,255);fill-rule:nonzero;stroke:rgb(0,178,227);stroke-width:1px;"/>
    </g>
    <g transform="matrix(10.556282,0,0,10.556282,-100.435305,-3808.319345)">
        <path d="M25.608,407.766L28.139,406.609L29.296,404.946C29.368,404.946 32.188,404.368 32.188,404.368L32.983,402.126L39.129,397.354L36.252,394.324L31.696,391.432L30.684,388.612L35.095,385.43L35.095,383.55L36.252,382.61L38.493,382.61L39.361,380.441L42.181,379.357L44.205,380.369L49.339,380.297L52.448,378.344L55.123,378.2L56.352,379.357L64.089,379.429L66.403,377.404L69.729,377.694L71.609,368.945L74.356,361.208L76.583,358.157L79.259,358.302L79.475,354.47L81.572,353.674L83.958,349.987L84.537,342.395L85.838,339.358L81.5,335.309L80.922,332.055L83.452,327.789L89.092,327.645L95.238,322.511L96.41,318.191L93.865,316.785L90.182,316.852L88.105,311.427L83.417,307.877L79.533,303.524L73.238,303.323L67.987,303.558C67.987,303.558 59.883,301.147 59.816,301.147C59.749,301.147 53.075,305.177 53.052,305.231C52.982,305.222 51.244,305.098 51.244,305.098L44.948,312.398L37.046,310.59L37.046,296.526L33.965,295.856L33.228,293.043L21.263,313.479L37.893,335.821L36.953,336.833L36.736,340.232L34.784,342.184L30.518,343.051L27.842,345.221L28.421,355.705L29.216,357.729L23.938,363.875L23.866,368.503L26.035,372.046L24.733,373.781L25.804,377.996L27.467,380.671L27.322,385.444L23.924,391.228L23.201,395.928L21.248,396.723L20.019,398.531L19.151,400.772L16.765,400.266L16.259,401.351L25.608,407.766ZM53.052,305.231C53.055,305.231 53.055,305.232 53.052,305.232C53.052,305.232 53.051,305.232 53.052,305.231Z" style="fill:rgb(227,249,255);fill-rule:nonzero;stroke:rgb(0,178,227);stroke-width:1px;"/>
    </g>
</svg>
