<?xml version="1.0" encoding="UTF-8" standalone="no"?>
<!DOCTYPE svg PUBLIC "-//W3C//DTD SVG 1.1//EN" "http://www.w3.org/Graphics/SVG/1.1/DTD/svg11.dtd">
<svg width="100%" height="100%" viewBox="0 0 1182 1182" version="1.1" xmlns="http://www.w3.org/2000/svg" xmlns:xlink="http://www.w3.org/1999/xlink" xml:space="preserve" xmlns:serif="http://www.serif.com/" style="fill-rule:evenodd;clip-rule:evenodd;">
    <g transform="matrix(8.592733,0,0,8.592733,-1450.338724,-2262.678622)">
        <path d="M229.072,218.731L228.645,221.976L224.803,223.939L222.498,223.256L220.363,225.391L216.18,224.878L213.106,224.793L209.776,223.342L208.581,220.609L204.397,220.097L200.299,221.378L197.908,224.622L197.396,227.44L195.262,225.818L193.469,227.184L191.232,228.746L191.574,230.966L193.623,231.82L191.232,235.918L191.061,238.138L193.367,238.907L193.708,242.151L189.61,245.566L188.158,249.835L184.231,253.677L185.682,255.556L187.731,254.958L189.012,256.409L187.219,258.544L189.354,260.252L187.219,261.703L187.902,263.411L197.721,266.399L201.819,265.887L204.807,269.473L204.978,273.912L208.479,278.096L209.76,283.389L205.405,287.915L205.149,290.391L202.673,292.354C202.758,292.354 197.209,292.696 197.209,292.696L197.636,299.356L199.941,301.575L202.417,301.405L204.466,302.771C204.466,302.856 208.291,303.966 208.291,303.966L215.548,303.624L222.208,305.161L224.428,307.381L224.086,310.967L232.197,311.821L234.844,314.382L237.15,314.553L240.565,317.968L243.211,316.175L244.919,315.578L245.858,312.845L247.395,310.967L251.237,312.504L256.275,313.102C256.275,313.187 258.153,314.126 258.153,314.126L273.351,314.382L276.339,313.529L280.949,312.589L285.987,312.248L285.389,322.152L280.437,328.982L283.084,327.275L285.133,327.104L287.097,328.385L292.134,329.068L292.732,327.787L295.293,328.214L296.232,326.165L299.306,326.592C299.306,326.677 301.099,325.055 301.099,325.055L302.38,326.25L305.027,324.884L306.222,327.189L308.698,328.726L312.967,327.702L315.358,328.385L316.638,330.348L318.687,330.092L320.053,326.165L325.005,325.738L331.067,314.468L332.007,308.576L334.995,308.576L333.543,305.674L333.885,303.966L337.386,302.685L336.276,299.355L337.215,298.587L336.873,295.855L335.849,294.318C335.849,294.403 336.446,292.269 336.446,292.269L336.105,289.024L333.202,290.134L332.177,288.341L330.641,288.427L329.531,287.317L330.726,284.841L326.542,280.316L323.725,281.596L319.968,276.303L333.543,258.544L333.885,254.189L335.251,252.567L337.898,252.994L338.41,251.116L339.691,251.713C339.691,251.799 341.74,250.177 341.74,250.177L341.655,247.53L343.704,247.701L347.802,245.481L350.41,241.291L345.03,243.36L338.925,242.015L338.615,231.979L333.752,230.53L332.303,232.393L326.82,231.875L322.681,233.531L313.369,228.047L310.99,229.496L309.024,233.531L306.023,234.048C306.023,234.048 304.368,235.497 304.264,235.497L295.573,235.497L295.366,231.875L293.297,230.841L292.78,228.565L291.124,229.392L289.365,227.633L286.572,227.633L283.468,222.874L281.605,225.254L278.915,225.15L277.777,223.391L275.811,222.874L273.121,225.047L256.463,219.873L240.736,217.39L228.838,215.631L229.072,218.731Z" style="fill:rgb(227,249,255);fill-rule:nonzero;stroke:rgb(0,178,227);stroke-width:1px;"/>
    </g>
    <g transform="matrix(8.592733,0,0,8.592733,-1450.338724,-2262.678622)">
        <path d="M292.133,329.068L292.731,327.787L295.292,328.214L296.231,326.165L299.305,326.592C299.305,326.677 301.098,325.055 301.098,325.055L302.379,326.25L305.026,324.884L306.221,327.189L308.697,328.726L312.966,327.702L315.357,328.385L316.637,330.348L318.686,330.092L320.052,326.165L325.004,325.738L326.647,325.951L331.842,323.07L332.585,324.205L336.296,324.161L343.587,320.974L346.031,320.538L347.952,318.966L349,318.966L351.707,316.215L352.013,313.509L353.715,312.286L355.68,311.544L357.295,311.544L358.038,312.199L360.919,312.286C360.919,312.286 361.792,311.02 361.792,310.976C361.792,310.932 362.447,309.798 362.447,309.798L364.892,309.972L365.547,309.099L366.988,309.099L367.905,310.409L369.171,310.016L370.611,309.579L372.227,312.068L374.497,310.845L375.501,310.54L375.981,313.159L377.073,312.985L377.466,318.529L377.117,319.97L375.37,320.45L374.846,321.498L372.969,321.847L373.667,324.118L374.672,324.161L375.065,327.261L376.418,328.44L376.505,330.623L375.894,332.282L377.378,334.77L379.125,336.648L376.704,341.185L375.794,344.435L376.249,346.321L378.265,348.076L378.655,351.067L376.704,354.187L375.144,351.717L371.438,351.002L369.813,353.212C369.813,353.212 367.797,357.178 367.732,357.178C367.667,357.178 364.872,358.283 364.872,358.283L360.906,356.333L357.59,356.138L354.08,358.023L351.154,357.893L349.334,356.853L346.408,356.983L345.693,357.828L341.792,357.958L339.647,359.388L338.281,361.989L336.331,362.704L328.985,362.899L325.929,362.574L322.223,361.339L319.818,360.233L313.901,366.995L314.162,369.92L315.072,371.676L314.552,374.731L312.666,377.202L307.595,377.397L301.939,368.49L299.469,366.735C299.469,366.735 296.218,365.63 296.218,365.565C296.218,365.5 299.078,359.128 299.078,359.128L299.794,357.958C299.794,357.958 301.939,358.153 302.004,358.153C302.069,358.153 302.784,354.252 302.784,354.252L300.444,352.172L296.478,343.98L296.478,342.745L297.908,342.81L298.753,343.915L305.125,343.655L302.524,339.884L297.388,334.943L292.133,329.068Z" style="fill:rgb(227,249,255);fill-rule:nonzero;stroke:rgb(0,178,227);stroke-width:1px;"/>
    </g>
    <g transform="matrix(8.592733,0,0,8.592733,-1450.338724,-2262.678622)">
        <path d="M318.948,401.355L320.501,400.406L324.297,400.319L325.289,401.872L325.565,406.76L336.264,407.062L338.464,409.219L339.068,413.705L337.989,415.042L338.205,416.811L337.38,419.025L335.481,419.832L333.915,417.363L329.974,417.031L329.309,419.642L328.74,421.161L330.544,424.057L329.974,425.149L328.217,425.909L328.787,429.232L332.87,430.276L334.437,432.508L333.25,434.407L332.3,432.46L329.927,432.223L329.784,434.264L332.158,435.356L334.437,437.682L336.811,438.015L336.573,439.582L333.013,441.575L331.256,441.338L329.594,442.81L323.85,442.525L320.926,443.859L315.798,448.227L313.14,450.885L310.386,456.06L310.006,461.852L308.629,463.134L306.018,462.185L303.265,459.953L300.274,459.431L297.378,460.713L296.096,462.279L292.82,462.992L289.164,466.79L286.126,470.35L278.459,474.704L276.607,476.318L275.373,477.647L275.373,480.069L273.094,481.73L270.436,482.727L268.916,484.626L268.252,486.668L267.302,487.57L268.014,489.659L268.204,495.403L269.149,498.404L265.92,497.882L260.983,495.745L253.339,492.564L253.15,489.099L250.918,486.677C250.918,486.677 251.345,484.731 251.345,484.683L251.345,480.553L250.681,479.271L251.583,476.375L249.969,475.473L248.26,474.998L246.645,471.675L245.791,466.643L251.535,465.978L255.523,467.782L258.847,469.539L262.17,469.491L262.787,471.248L264.639,470.963L266.728,466.927L267.107,460.281L268.389,459.236L270.383,459.616L272.538,456.146L274.437,452.775L272.349,449.736L271.114,447.932L272.728,445.796L272.206,442.9L266.082,439.387L262.284,436.586L257.916,436.586L256.349,435.304L256.587,429.654C256.587,429.654 264.183,426.592 264.183,426.544C264.183,426.496 266.414,427.114 266.414,427.114L266.414,424.503L269.927,423.886L273.488,420.325L275.15,418.141L274.865,415.625L281.416,415.435L282.413,412.539L285.737,412.824L291.054,413.204L292.953,413.489L293.57,411.067L296.846,410.498L298.46,406.557L301.166,405.655L304.252,407.127L305.676,408.931L310.234,408.883L315.219,406.177L318.685,405.56L320.014,403.946L318.97,402.807L318.948,401.355Z" style="fill:rgb(227,249,255);fill-rule:nonzero;stroke:rgb(0,178,227);stroke-width:1px;"/>
    </g>
    <g transform="matrix(8.592733,0,0,8.592733,-1450.338724,-2262.678622)">
        <path d="M296.218,365.565C296.218,365.5 297.701,361.817 297.701,361.817L294.77,360.867L291.885,362.441L289.523,363.228L288.54,365.917L285.851,367.294L284.014,369.852L280.538,374.378L277.521,374.705L274.307,376.083L273.586,378.575L270.765,380.674L267.617,380.674L265.912,380.084L263.157,381.592L259.222,382.117L258.894,384.675L258.107,386.314L255.484,386.839L255.287,389.725L254.369,392.086L250.499,393.529L249.319,395.103L249.384,400.744L249.778,402.252L248.007,403.367L247.633,406.349L249.863,406.415L250.584,410.088L253.011,410.219L255.831,408.973L261.013,407.596L264.62,407.268L266.981,408.776L268.031,411.531L270.588,412.908L274.865,415.625L281.416,415.435L282.413,412.539L285.737,412.824L291.054,413.204L292.953,413.489L293.57,411.067L296.846,410.498L298.46,406.557L301.166,405.655L304.252,407.127L305.676,408.931L310.234,408.883L315.219,406.177L318.685,405.56L320.014,403.946L318.97,402.807L318.948,401.355L315.54,400.88L317.869,396.005L319.509,392.511L319.767,390.009L321.234,387.809L321.105,384.444L320.975,382.028L319.681,381.769C319.681,381.769 319.559,380.307 319.552,380.26C319.571,380.233 320.371,377.282 320.371,377.24C320.371,377.197 319.465,375.299 319.465,375.299C319.465,375.299 317.826,374.306 317.783,374.306C317.74,374.306 316.489,376.55 316.489,376.55L314.85,377.412L312.666,377.202L307.595,377.397L301.939,368.49L299.469,366.735C299.469,366.735 296.218,365.63 296.218,365.565" style="fill:rgb(227,249,255);fill-rule:nonzero;stroke:rgb(0,178,227);stroke-width:1px;"/>
    </g>
    <g transform="matrix(8.592733,0,0,8.592733,-1450.338724,-2262.678622)">
        <path d="M255.484,386.839L258.107,386.314L258.894,384.675L259.222,382.117L263.157,381.592L265.912,380.084L267.617,380.674L270.765,380.674L273.586,378.575L274.307,376.083L277.521,374.705L280.538,374.378L284.014,369.852L285.851,367.294L288.54,365.917L289.523,363.228L291.885,362.441L294.77,360.867L297.701,361.817L299.078,359.128L299.794,357.958C299.794,357.958 301.939,358.153 302.004,358.153C302.069,358.153 302.784,354.252 302.784,354.252L300.444,352.172L296.478,343.98L296.478,342.745L297.908,342.81L298.753,343.915L305.125,343.655L302.524,339.884L297.388,334.943L292.133,329.068L287.097,328.385L285.133,327.104L283.084,327.275L280.437,328.982L244.252,355.781L244.432,358.539L244.612,360.397L242.813,361.116L238.497,360.877L237.358,361.656L233.882,361.356L233.042,363.154L235.5,365.133L237.658,365.073L239.037,364.174L242.694,366.332L242.394,368.909L240.775,372.326L241.435,376.043L243.233,379.1L246.59,381.618L250.187,382.996L254.023,384.255L255.582,385.274L255.484,386.839Z" style="fill:rgb(227,249,255);fill-rule:nonzero;stroke:rgb(0,178,227);stroke-width:1px;"/>
    </g>
    <g transform="matrix(8.592733,0,0,8.592733,-1450.338724,-2262.678622)">
        <path d="M222.267,312.994L218.539,317.235L217.794,319.891L216.908,319.565L216.768,317.468L215.044,316.07L206.795,315.324C206.795,315.278 206.283,309.313 206.283,309.313L204.139,305.864L201.296,304.326L196.589,311.549L193.933,310.058L192.675,310.058L192.302,312.435L194.166,314.439L191.276,319.286L186.756,316.489L185.591,317.561L185.8,327.455L190.368,333.886L190.834,335.517L194.282,339.199L198.243,341.389L203.789,346.422L203.789,349.777L205.653,352.853L208.45,356.255L207.704,360.03L212.224,360.869L215.44,361.009L216.978,359.611L220.147,359.098L222.384,359.005L226.019,359.984L228.489,359.378L228.535,357.747L229.467,355.976L232.357,355.882L232.963,358.632L233.882,361.356L237.358,361.656L238.497,360.877L242.813,361.116L244.612,360.397L244.432,358.539L244.252,355.781L280.437,328.982L285.389,322.152L285.987,312.248L280.949,312.589L276.339,313.529L273.351,314.382L258.153,314.126C258.153,314.126 256.275,313.187 256.275,313.102L251.237,312.504L247.395,310.967L245.858,312.845L244.919,315.578L243.211,316.175L240.565,317.968L237.15,314.553L234.844,314.382L232.197,311.821L224.086,310.967L222.267,312.994ZM283.084,327.275L284.27,327.176L283.084,327.275Z" style="fill:rgb(0,178,227);fill-rule:nonzero;stroke:rgb(0,178,227);stroke-width:1px;"/>
    </g>
    <g transform="matrix(8.592733,0,0,8.592733,-1450.338724,-2262.678622)">
        <path d="M211.208,436.372L211.051,433.754L208.905,431.608L209.062,429.409L207.858,427.734L207.669,425.101L210.234,420.233L210.444,415.783L207.931,416.568L205.942,415.888L204.685,412.328L202.539,410.286L201.335,406.727L202.958,401.806L203.01,398.612L201.806,397.251L202.382,395.733L203.691,395.733L205.418,397.461L206.308,396.309L205.295,394.537L204.641,387.972L201.263,386.8L200.827,382.741L199.138,382.523L197.231,383.94L195.962,382.904L193.271,382.833L192.422,380.284L190.297,379.151L191.501,376.46L194.05,375.752L196.033,374.194L196.316,371.645L198.299,370.583L198.228,366.688L200.069,364.776L202.052,364.351L202.406,362.864L207.704,360.03L212.224,360.869L215.44,361.009L216.978,359.611L220.147,359.098L222.384,359.005L226.019,359.984L228.489,359.378L228.535,357.747L229.467,355.976L232.357,355.882L232.963,358.632L233.882,361.356L233.042,363.154L235.5,365.133L237.658,365.073L239.037,364.174L242.694,366.332L242.394,368.909L240.775,372.326L241.435,376.043L243.233,379.1L246.59,381.618L250.187,382.996L254.023,384.255L255.582,385.274L255.484,386.839L255.287,389.725L254.369,392.086L250.499,393.529L249.319,395.103L249.384,400.744L249.778,402.252L248.007,403.367L247.633,406.349L244.813,406.546L242.583,408.776L241.599,411.99L240.09,412.384L239.631,409.367L237.401,408.252L234.188,409.039L230.843,411.531L230.58,417.368L227.498,420.057L228.035,428.216L223.313,431.954L221.28,432.282L216.558,436.152L212.557,437.201L211.208,436.372ZM212.462,396.567L213.297,397.469L215.168,396.6L216.705,398.872L215.235,400.443L218.142,401.311L219.946,398.438L219.144,397.435L221.918,393.626L228.467,391.154L237.054,391.722L238.023,390.987L237.221,387.445L237.588,383.736L238.557,382.634L237.521,380.462L234.013,380.362L231.44,381.097L230.605,380.629L229.068,380.963L228.433,382.032L226.796,382.667L224.858,383.87L224.992,385.106L223.588,385.039L222.118,384.438L221.316,385.207L220.481,384.872L217.04,387.88L215.235,387.712L213.531,388.648L214.066,390.285L212.863,391.555C212.863,391.555 213.565,394.194 213.565,394.228C213.565,394.262 212.562,396.4 212.462,396.567Z" style="fill:rgb(227,249,255);fill-rule:nonzero;stroke:rgb(0,178,227);stroke-width:1px;"/>
    </g>
    <g transform="matrix(8.592733,0,0,8.592733,-1450.338724,-2262.678622)">
        <path d="M188.985,380.416L189.259,383.609L190.445,385.616L190.262,388.08L186.886,391.638L186.795,395.243L184.605,397.98L181.868,399.075L180.408,398.436L178.492,398.892L177.443,402.177L178.239,410.172L180.313,412.042L182.42,415.34L182.964,416.937L183.848,417.141L184.188,420.575L185.378,421.119L186.33,419.725L187.01,417.311L187.52,415.34L189.458,414.932L191.43,412.756L192.518,412.28L194.115,413.062L194.659,414.66L197.039,414.796L198.603,413.368L200.371,412.688L202.539,410.286L201.335,406.727L202.958,401.806L203.01,398.612L201.806,397.251L202.382,395.733L203.691,395.733L205.418,397.461L206.308,396.309L205.295,394.537L204.641,387.972L201.263,386.8L200.827,382.741L199.138,382.523L197.231,383.94L195.962,382.904L193.271,382.833L192.422,380.284L190.297,379.151L188.985,380.416Z" style="fill:rgb(227,249,255);fill-rule:nonzero;stroke:rgb(0,178,227);stroke-width:1px;"/>
    </g>
    <g transform="matrix(8.592733,0,0,8.592733,-1450.338724,-2262.678622)">
        <path d="M206.183,359.291L202.282,358.991L198.68,356.32L197.09,356.35L195.619,355.57L192.918,355.48L191.264,354.477L186.373,355.108L183.101,354.207L179.14,354.147L174.998,354.027L170.977,354.747L167.495,354.807L164.794,353.787L161.493,354.537L160.953,356.548L160.082,356.548L159.944,360.309L158.714,361.629L158.414,365.561L159.644,366.311L160.034,367.541L158.384,367.992L157.093,369.222L155.053,369.132L153.42,374.09L153.84,376.251L152.97,378.562L153.69,380.062L153.51,382.403L152.46,384.654L151.427,388.913L150.107,389.903L150.317,394.645L149.416,395.546L149.326,402.238L148.546,403.649L148.126,411.152L149.326,412.112L151.547,412.322L150.8,415.771L152.704,417.471L154.982,416.349L156.069,415.023L158.415,414.751L158.415,416.995L160.251,416.723L162.056,413.436L163.28,413.504L163.552,415.544L165.15,416.087L165.286,420.813L166.136,421.187L169.468,417.141L169.638,415.306L174.873,412.518L175.961,410.546L178.239,410.172L177.443,402.177L178.492,398.892L180.408,398.436L181.868,399.075L184.605,397.98L186.795,395.243L186.886,391.638L190.262,388.08L190.445,385.616L189.259,383.609L188.985,380.416L190.297,379.151L191.501,376.46L194.05,375.752L196.033,374.194L196.316,371.645L198.299,370.583L198.228,366.688L200.069,364.776L202.052,364.351L202.406,362.864L207.704,360.03L206.183,359.291Z" style="fill:rgb(227,249,255);fill-rule:nonzero;stroke:rgb(0,178,227);stroke-width:1px;"/>
    </g>
    <g transform="matrix(8.592733,0,0,8.592733,-1450.338724,-2262.678622)">
        <path d="M206.183,359.291L207.704,360.03L208.45,356.255L205.653,352.853L203.789,349.777L203.789,346.422L198.243,341.389L194.282,339.199L190.834,335.517L190.368,333.886L185.8,327.455L185.591,317.561L186.756,316.489L191.276,319.286L194.166,314.439L192.302,312.435L192.675,310.058L193.933,310.058L196.589,311.549L201.296,304.326L204.139,305.864L206.283,309.313C206.283,309.313 206.795,315.278 206.795,315.324L215.044,316.07L216.768,317.468L216.908,319.565L217.794,319.891L218.539,317.235L222.267,312.994L224.086,310.967L224.428,307.381L222.208,305.161L215.548,303.624L208.291,303.966C208.291,303.966 204.466,302.856 204.466,302.771L202.417,301.405L199.941,301.575L197.636,299.356L197.209,292.696C197.209,292.696 202.758,292.354 202.673,292.354L205.149,290.391L205.405,287.915L209.76,283.389L208.479,278.096L204.978,273.912L204.807,269.473L201.819,265.887L197.721,266.399L187.902,263.411L187.219,261.703L189.354,260.252L187.219,258.544L189.012,256.409L187.731,254.958L185.682,255.556L184.231,253.677L188.158,249.835L189.61,245.566L193.708,242.151L193.367,238.907L191.061,238.138L191.232,235.918L193.623,231.82L191.574,230.966L191.232,228.746L193.469,227.184L195.262,225.818L197.396,227.44L197.908,224.622L200.299,221.378L204.397,220.097L208.581,220.609L209.776,223.342L213.106,224.793L216.18,224.878L220.363,225.391L222.498,223.256L224.803,223.939L228.645,221.976L229.072,218.731L228.838,215.631L149.572,215.809L149.572,218.236L147.225,220.583L147.622,224.083L151.242,226.987L151.799,228.777L156.413,228.896L155.856,230.129L155.618,231.999L157.447,232.039L157.368,235.221L155.363,239.628L154.926,247.146L152.778,247.146L151.664,246.43L147.129,245.475L146.373,244.839L145.538,245.157C145.538,245.197 145.419,247.345 145.419,247.345L143.112,249.214L143.072,250.925L145.14,251.402L146.97,253.351L144.623,255.221L145.379,255.857L145.498,257.965L144.066,259.119L143.824,261.079L142.471,261.716L139.926,263.029L139.528,264.898L137.42,265.932L135.073,269.91L131.533,270.109L129.981,271.143L128.629,272.535C128.629,272.575 130.101,273.928 130.101,273.928L130.101,275.638L125.765,278.104L127.256,293.227L134.098,298.955L140.105,298.995L142.412,299.989L144.003,302.655L141.616,306.195L140.176,311.743L137.392,310.669L135.801,310.789L133.613,313.374L130.55,313.374L130.351,312.34L129.118,312.101L128.163,313.136L125.379,313.533C125.419,313.533 125.18,315.88 125.18,315.88L125.419,320.256L129.078,325.864L131.863,327.018L136.437,328.689L136.318,331.035L137.273,332.865L134.806,332.07L133.374,330.876L132.221,331.871L132.034,338.625L131.278,340.852L132.153,342.443L132.352,345.904L133.943,347.933L135.813,348.649L136.409,351.513L140.864,355.45L142.416,358.235L144.285,359.07L145.24,361.139L147.706,361.616L148.581,363.645L150.809,365.156L150.729,366.548L148.144,367.861L147.945,370.486L149.934,372.038L151.087,371.202L152.44,368.696L153.792,368.1C153.792,368.139 155.053,369.132 155.053,369.132L157.093,369.222L158.384,367.992L160.034,367.541L159.644,366.311L158.414,365.561L158.714,361.629L159.944,360.309L160.082,356.548L160.953,356.548L161.493,354.537L164.794,353.787L167.495,354.807L170.977,354.747L174.998,354.027L179.14,354.147L183.101,354.207L186.373,355.108L191.264,354.477L192.918,355.48L195.619,355.57L197.09,356.35L198.68,356.32L202.282,358.991L206.183,359.291" style="fill:rgb(227,249,255);fill-rule:nonzero;stroke:rgb(0,178,227);stroke-width:1px;"/>
    </g>
    <g transform="matrix(8.592733,0,0,8.592733,-1450.338724,-2262.678622)">
        <path d="M212.462,396.567L213.297,397.469L215.168,396.6L216.705,398.872L215.235,400.443L218.142,401.311L219.946,398.438L219.144,397.435L221.918,393.626L228.467,391.154L237.054,391.722L238.023,390.987L237.221,387.445L237.588,383.736L238.557,382.634L237.521,380.462L234.013,380.362L231.44,381.097L230.605,380.629L229.068,380.963L228.433,382.032L226.796,382.667L224.858,383.87L224.992,385.106L223.588,385.039L222.118,384.438L221.316,385.207L220.481,384.872L217.04,387.88L215.235,387.712L213.531,388.648L214.066,390.285L212.863,391.555C212.863,391.555 213.565,394.194 213.565,394.228C213.565,394.262 212.562,396.4 212.462,396.567Z" style="fill:rgb(227,249,255);fill-rule:nonzero;stroke:rgb(0,178,227);stroke-width:1px;"/>
    </g>
</svg>
