<?xml version="1.0" encoding="UTF-8" standalone="no"?>
<!DOCTYPE svg PUBLIC "-//W3C//DTD SVG 1.1//EN" "http://www.w3.org/Graphics/SVG/1.1/DTD/svg11.dtd">
<svg width="100%" height="100%" viewBox="0 0 1182 1182" version="1.1" xmlns="http://www.w3.org/2000/svg" xmlns:xlink="http://www.w3.org/1999/xlink" xml:space="preserve" xmlns:serif="http://www.serif.com/" style="fill-rule:evenodd;clip-rule:evenodd;">
    <g transform="matrix(9.103821,0,0,9.103821,-1617.64851,-3479.407123)">
        <path d="M318.948,401.355L320.501,400.406L324.297,400.319L325.289,401.872L325.565,406.76L336.264,407.062L338.464,409.219L339.068,413.705L337.989,415.042L338.205,416.811L337.38,419.025L335.481,419.832L333.915,417.363L329.974,417.031L329.309,419.642L328.74,421.161L330.544,424.057L329.974,425.149L328.217,425.909L328.787,429.232L332.87,430.276L334.437,432.508L333.25,434.407L332.3,432.46L329.927,432.223L329.784,434.264L332.158,435.356L334.437,437.682L336.811,438.015L336.573,439.582L333.013,441.575L331.256,441.338L329.594,442.81L323.85,442.525L320.926,443.859L315.798,448.227L313.14,450.885L310.386,456.06L310.006,461.852L308.629,463.134L306.018,462.185L303.265,459.953L300.274,459.431L297.378,460.713L296.096,462.279L292.82,462.992L289.164,466.79L286.126,470.35L278.459,474.704L276.607,476.318L275.373,477.647L275.373,480.069L273.094,481.73L270.436,482.727L268.916,484.626L268.252,486.668L267.302,487.57L268.014,489.659L268.204,495.403L269.149,498.404L265.92,497.882L260.983,495.745L253.339,492.564L253.15,489.099L250.918,486.677C250.918,486.677 251.345,484.731 251.345,484.683L251.345,480.553L250.681,479.271L251.583,476.375L249.969,475.473L248.26,474.998L246.645,471.675L245.791,466.643L251.535,465.978L255.523,467.782L258.847,469.539L262.17,469.491L262.787,471.248L264.639,470.963L266.728,466.927L267.107,460.281L268.389,459.236L270.383,459.616L272.538,456.146L274.437,452.775L272.349,449.736L271.114,447.932L272.728,445.796L272.206,442.9L266.082,439.387L262.284,436.586L257.916,436.586L256.349,435.304L256.587,429.654C256.587,429.654 264.183,426.592 264.183,426.544C264.183,426.496 266.414,427.114 266.414,427.114L266.414,424.503L269.927,423.886L273.488,420.325L275.15,418.141L274.865,415.625L281.416,415.435L282.413,412.539L285.737,412.824L291.054,413.204L292.953,413.489L293.57,411.067L296.846,410.498L298.46,406.557L301.166,405.655L304.252,407.127L305.676,408.931L310.234,408.883L315.219,406.177L318.685,405.56L320.014,403.946L318.97,402.807L318.948,401.355Z" style="fill:rgb(227,249,255);fill-rule:nonzero;stroke:rgb(0,178,227);stroke-width:1px;"/>
    </g>
    <g transform="matrix(9.103821,0,0,9.103821,-1617.64851,-3479.407123)">
        <path d="M270.588,412.908L268.031,411.531L266.981,408.776L264.62,407.268L261.013,407.596L255.831,408.973L253.011,410.219L250.584,410.088L249.863,406.415L244.813,406.546L242.583,408.776L241.599,411.99L240.09,412.384L239.631,409.367L237.401,408.252L234.188,409.039L230.843,411.531L230.58,417.368L227.498,420.057L228.035,428.216L223.313,431.954L221.28,432.282L216.558,436.152L212.557,437.201L209.802,442.12L210.458,443.957L211.77,442.776L213.41,442.645L215.639,443.498C215.705,443.498 217.279,441.661 217.279,441.661L219.509,442.448L218.788,444.154L214,448.482L210.983,448.679L210.917,450.319L212.95,451.106L213.606,453.139L211.048,459.37L208.294,459.37L208.556,464.682L207.572,466.191L207.507,476.226L211.77,477.144C211.835,477.144 217.476,478.587 217.476,478.587L222.395,480.03L226.265,480.358L232.167,482.85L241.94,487.704L253.339,492.564L253.15,489.099L250.918,486.677C250.918,486.677 251.345,484.731 251.345,484.683L251.345,480.553L250.681,479.271L251.583,476.375L249.969,475.473L248.26,474.998L246.645,471.675L245.791,466.643L251.535,465.978L255.523,467.782L258.847,469.539L262.17,469.491L262.787,471.248L264.639,470.963L266.728,466.927L267.107,460.281L268.389,459.236L270.383,459.616L272.538,456.146L274.437,452.775L272.349,449.736L271.114,447.932L272.728,445.796L272.206,442.9L266.082,439.387L262.284,436.586L257.916,436.586L256.349,435.304L256.587,429.654C256.587,429.654 264.183,426.592 264.183,426.544C264.183,426.496 266.414,427.114 266.414,427.114L266.414,424.503L269.927,423.886L273.488,420.325L275.15,418.141L274.865,415.625L270.588,412.908Z" style="fill:rgb(0,178,227);fill-rule:nonzero;stroke:rgb(0,178,227);stroke-width:1px;"/>
    </g>
    <g transform="matrix(9.103821,0,0,9.103821,-1617.64851,-3479.407123)">
        <path d="M296.218,365.565C296.218,365.5 297.701,361.817 297.701,361.817L294.77,360.867L291.885,362.441L289.523,363.228L288.54,365.917L285.851,367.294L284.014,369.852L280.538,374.378L277.521,374.705L274.307,376.083L273.586,378.575L270.765,380.674L267.617,380.674L265.912,380.084L263.157,381.592L259.222,382.117L258.894,384.675L258.107,386.314L255.484,386.839L255.287,389.725L254.369,392.086L250.499,393.529L249.319,395.103L249.384,400.744L249.778,402.252L248.007,403.367L247.633,406.349L249.863,406.415L250.584,410.088L253.011,410.219L255.831,408.973L261.013,407.596L264.62,407.268L266.981,408.776L268.031,411.531L270.588,412.908L274.865,415.625L281.416,415.435L282.413,412.539L285.737,412.824L291.054,413.204L292.953,413.489L293.57,411.067L296.846,410.498L298.46,406.557L301.166,405.655L304.252,407.127L305.676,408.931L310.234,408.883L315.219,406.177L318.685,405.56L320.014,403.946L318.97,402.807L318.948,401.355L315.54,400.88L317.869,396.005L319.509,392.511L319.767,390.009L321.234,387.809L321.105,384.444L320.975,382.028L319.681,381.769C319.681,381.769 319.559,380.307 319.552,380.26C319.571,380.233 320.371,377.282 320.371,377.24C320.371,377.197 319.465,375.299 319.465,375.299C319.465,375.299 317.826,374.306 317.783,374.306C317.74,374.306 316.489,376.55 316.489,376.55L314.85,377.412L312.666,377.202L307.595,377.397L301.939,368.49L299.469,366.735C299.469,366.735 296.218,365.63 296.218,365.565" style="fill:rgb(227,249,255);fill-rule:nonzero;stroke:rgb(0,178,227);stroke-width:1px;"/>
    </g>
    <g transform="matrix(9.103821,0,0,9.103821,-1617.64851,-3479.407123)">
        <path d="M255.484,386.839L258.107,386.314L258.894,384.675L259.222,382.117L263.157,381.592L265.912,380.084L267.617,380.674L270.765,380.674L273.586,378.575L274.307,376.083L277.521,374.705L280.538,374.378L284.014,369.852L285.851,367.294L288.54,365.917L289.523,363.228L291.885,362.441L294.77,360.867L297.701,361.817L299.078,359.128L299.794,357.958C299.794,357.958 301.939,358.153 302.004,358.153C302.069,358.153 302.784,354.252 302.784,354.252L300.444,352.172L296.478,343.98L296.478,342.745L297.908,342.81L298.753,343.915L305.125,343.655L302.524,339.884L297.388,334.943L292.133,329.068L287.097,328.385L285.133,327.104L283.084,327.275L280.437,328.982L244.252,355.781L244.432,358.539L244.612,360.397L242.813,361.116L238.497,360.877L237.358,361.656L233.882,361.356L233.042,363.154L235.5,365.133L237.658,365.073L239.037,364.174L242.694,366.332L242.394,368.909L240.775,372.326L241.435,376.043L243.233,379.1L246.59,381.618L250.187,382.996L254.023,384.255L255.582,385.274L255.484,386.839Z" style="fill:rgb(227,249,255);fill-rule:nonzero;stroke:rgb(0,178,227);stroke-width:1px;"/>
    </g>
    <g transform="matrix(9.103821,0,0,9.103821,-1617.64851,-3479.407123)">
        <path d="M211.208,436.372L211.051,433.754L208.905,431.608L209.062,429.409L207.858,427.734L207.669,425.101L210.234,420.233L210.444,415.783L207.931,416.568L205.942,415.888L204.685,412.328L202.539,410.286L201.335,406.727L202.958,401.806L203.01,398.612L201.806,397.251L202.382,395.733L203.691,395.733L205.418,397.461L206.308,396.309L205.295,394.537L204.641,387.972L201.263,386.8L200.827,382.741L199.138,382.523L197.231,383.94L195.962,382.904L193.271,382.833L192.422,380.284L190.297,379.151L191.501,376.46L194.05,375.752L196.033,374.194L196.316,371.645L198.299,370.583L198.228,366.688L200.069,364.776L202.052,364.351L202.406,362.864L207.704,360.03L212.224,360.869L215.44,361.009L216.978,359.611L220.147,359.098L222.384,359.005L226.019,359.984L228.489,359.378L228.535,357.747L229.467,355.976L232.357,355.882L232.963,358.632L233.882,361.356L233.042,363.154L235.5,365.133L237.658,365.073L239.037,364.174L242.694,366.332L242.394,368.909L240.775,372.326L241.435,376.043L243.233,379.1L246.59,381.618L250.187,382.996L254.023,384.255L255.582,385.274L255.484,386.839L255.287,389.725L254.369,392.086L250.499,393.529L249.319,395.103L249.384,400.744L249.778,402.252L248.007,403.367L247.633,406.349L244.813,406.546L242.583,408.776L241.599,411.99L240.09,412.384L239.631,409.367L237.401,408.252L234.188,409.039L230.843,411.531L230.58,417.368L227.498,420.057L228.035,428.216L223.313,431.954L221.28,432.282L216.558,436.152L212.557,437.201L211.208,436.372ZM212.462,396.567L213.297,397.469L215.168,396.6L216.705,398.872L215.235,400.443L218.142,401.311L219.946,398.438L219.144,397.435L221.918,393.626L228.467,391.154L237.054,391.722L238.023,390.987L237.221,387.445L237.588,383.736L238.557,382.634L237.521,380.462L234.013,380.362L231.44,381.097L230.605,380.629L229.068,380.963L228.433,382.032L226.796,382.667L224.858,383.87L224.992,385.106L223.588,385.039L222.118,384.438L221.316,385.207L220.481,384.872L217.04,387.88L215.235,387.712L213.531,388.648L214.066,390.285L212.863,391.555C212.863,391.555 213.565,394.194 213.565,394.228C213.565,394.262 212.562,396.4 212.462,396.567Z" style="fill:rgb(227,249,255);fill-rule:nonzero;stroke:rgb(0,178,227);stroke-width:1px;"/>
    </g>
    <g transform="matrix(9.103821,0,0,9.103821,-1617.64851,-3479.407123)">
        <path d="M200.371,412.688L198.603,413.368L197.039,414.796L194.659,414.66L194.115,413.062L192.518,412.28L191.43,412.756L189.458,414.932L187.52,415.34L187.01,417.311L186.33,419.725L185.378,421.119L184.188,420.575L183.848,417.141L182.964,416.937L182.42,415.34L180.313,412.042L178.239,410.172L175.961,410.546L174.873,412.518L169.638,415.306L169.468,417.141L166.136,421.187L165.286,420.813L165.15,416.087L163.552,415.544L163.28,413.504L162.056,413.436L160.251,416.723L158.415,416.995L158.415,414.751L156.069,415.023L154.982,416.349L152.704,417.471L150.8,415.771L149.168,417.301L148.556,419.511L146.618,420.225L146.618,422.061L147.468,422.911L147.638,426.48L145.462,429.472L145.394,431.58L139.683,431.648L139.309,430.9L135.263,431.138L135.535,430.424L132.408,430.084L132.102,428.758L131.898,426.752L130.198,426.65L129.96,428.996L128.906,429.472L128.056,428.554L125.098,428.35C125.098,428.35 124.112,427.364 124.078,427.398C124.044,427.432 122.684,428.248 122.684,428.248L121.936,427.398L122.854,425.902L122.582,421.517L123.398,420.599L123.398,418.525L119.693,420.667L117.585,424.509L114.817,427.344L116.279,429.18L115.905,431.186L114.308,432.308L112.234,431.934L111.69,429.86L112.574,428.942L111.35,427.31L108.596,429.52L109.616,434.688L110.19,442.881L105.703,448.116L105.499,450.122L101.487,455.868L100.501,456.344L100.433,459.675L99.447,461.341L112.196,466.713L116.538,469.806L119.121,469.84L123.779,471.71L139.696,476.378L150.78,477.976L172.708,477.364L182.635,475.902L187.224,476.684L189.706,475.868L193.786,476.616L199.701,476.174L207.507,476.226L207.572,466.191L208.556,464.682L208.294,459.37L211.048,459.37L213.606,453.139L212.95,451.106L210.917,450.319L210.983,448.679L214,448.482L218.788,444.154L219.509,442.448L217.279,441.661C217.279,441.661 215.705,443.498 215.639,443.498L213.41,442.645L211.77,442.776L210.458,443.957L209.802,442.12L212.557,437.201L211.208,436.372L211.051,433.754L208.905,431.608L209.062,429.409L207.858,427.734L207.669,425.101L210.234,420.233L210.444,415.783L207.931,416.568L205.942,415.888L204.685,412.328L202.539,410.286L200.371,412.688Z" style="fill:rgb(227,249,255);fill-rule:nonzero;stroke:rgb(0,178,227);stroke-width:1px;"/>
    </g>
    <g transform="matrix(9.103821,0,0,9.103821,-1617.64851,-3479.407123)">
        <path d="M188.985,380.416L189.259,383.609L190.445,385.616L190.262,388.08L186.886,391.638L186.795,395.243L184.605,397.98L181.868,399.075L180.408,398.436L178.492,398.892L177.443,402.177L178.239,410.172L180.313,412.042L182.42,415.34L182.964,416.937L183.848,417.141L184.188,420.575L185.378,421.119L186.33,419.725L187.01,417.311L187.52,415.34L189.458,414.932L191.43,412.756L192.518,412.28L194.115,413.062L194.659,414.66L197.039,414.796L198.603,413.368L200.371,412.688L202.539,410.286L201.335,406.727L202.958,401.806L203.01,398.612L201.806,397.251L202.382,395.733L203.691,395.733L205.418,397.461L206.308,396.309L205.295,394.537L204.641,387.972L201.263,386.8L200.827,382.741L199.138,382.523L197.231,383.94L195.962,382.904L193.271,382.833L192.422,380.284L190.297,379.151L188.985,380.416Z" style="fill:rgb(227,249,255);fill-rule:nonzero;stroke:rgb(0,178,227);stroke-width:1px;"/>
    </g>
    <g transform="matrix(9.103821,0,0,9.103821,-1617.64851,-3479.407123)">
        <path d="M206.183,359.291L202.282,358.991L198.68,356.32L197.09,356.35L195.619,355.57L192.918,355.48L191.264,354.477L186.373,355.108L183.101,354.207L179.14,354.147L174.998,354.027L170.977,354.747L167.495,354.807L164.794,353.787L161.493,354.537L160.953,356.548L160.082,356.548L159.944,360.309L158.714,361.629L158.414,365.561L159.644,366.311L160.034,367.541L158.384,367.992L157.093,369.222L155.053,369.132L153.42,374.09L153.84,376.251L152.97,378.562L153.69,380.062L153.51,382.403L152.46,384.654L151.427,388.913L150.107,389.903L150.317,394.645L149.416,395.546L149.326,402.238L148.546,403.649L148.126,411.152L149.326,412.112L151.547,412.322L150.8,415.771L152.704,417.471L154.982,416.349L156.069,415.023L158.415,414.751L158.415,416.995L160.251,416.723L162.056,413.436L163.28,413.504L163.552,415.544L165.15,416.087L165.286,420.813L166.136,421.187L169.468,417.141L169.638,415.306L174.873,412.518L175.961,410.546L178.239,410.172L177.443,402.177L178.492,398.892L180.408,398.436L181.868,399.075L184.605,397.98L186.795,395.243L186.886,391.638L190.262,388.08L190.445,385.616L189.259,383.609L188.985,380.416L190.297,379.151L191.501,376.46L194.05,375.752L196.033,374.194L196.316,371.645L198.299,370.583L198.228,366.688L200.069,364.776L202.052,364.351L202.406,362.864L207.704,360.03L206.183,359.291Z" style="fill:rgb(227,249,255);fill-rule:nonzero;stroke:rgb(0,178,227);stroke-width:1px;"/>
    </g>
    <g transform="matrix(9.103821,0,0,9.103821,-1617.64851,-3479.407123)">
        <path d="M212.462,396.567L213.297,397.469L215.168,396.6L216.705,398.872L215.235,400.443L218.142,401.311L219.946,398.438L219.144,397.435L221.918,393.626L228.467,391.154L237.054,391.722L238.023,390.987L237.221,387.445L237.588,383.736L238.557,382.634L237.521,380.462L234.013,380.362L231.44,381.097L230.605,380.629L229.068,380.963L228.433,382.032L226.796,382.667L224.858,383.87L224.992,385.106L223.588,385.039L222.118,384.438L221.316,385.207L220.481,384.872L217.04,387.88L215.235,387.712L213.531,388.648L214.066,390.285L212.863,391.555C212.863,391.555 213.565,394.194 213.565,394.228C213.565,394.262 212.562,396.4 212.462,396.567Z" style="fill:rgb(227,249,255);fill-rule:nonzero;stroke:rgb(0,178,227);stroke-width:1px;"/>
    </g>
</svg>
