<?xml version="1.0" encoding="UTF-8" standalone="no"?>
<!DOCTYPE svg PUBLIC "-//W3C//DTD SVG 1.1//EN" "http://www.w3.org/Graphics/SVG/1.1/DTD/svg11.dtd">
<svg width="100%" height="100%" viewBox="0 0 1182 1182" version="1.1" xmlns="http://www.w3.org/2000/svg" xmlns:xlink="http://www.w3.org/1999/xlink" xml:space="preserve" xmlns:serif="http://www.serif.com/" style="fill-rule:evenodd;clip-rule:evenodd;">
    <g transform="matrix(12.15419,0,0,12.15419,-1525.319717,-4094.723472)">
        <path d="M270.588,412.908L268.031,411.531L266.981,408.776L264.62,407.268L261.013,407.596L255.831,408.973L253.011,410.219L250.584,410.088L249.863,406.415L244.813,406.546L242.583,408.776L241.599,411.99L240.09,412.384L239.631,409.367L237.401,408.252L234.188,409.039L230.843,411.531L230.58,417.368L227.498,420.057L228.035,428.216L223.313,431.954L221.28,432.282L216.558,436.152L212.557,437.201L209.802,442.12L210.458,443.957L211.77,442.776L213.41,442.645L215.639,443.498C215.705,443.498 217.279,441.661 217.279,441.661L219.509,442.448L218.788,444.154L214,448.482L210.983,448.679L210.917,450.319L212.95,451.106L213.606,453.139L211.048,459.37L208.294,459.37L208.556,464.682L207.572,466.191L207.507,476.226L211.77,477.144C211.835,477.144 217.476,478.587 217.476,478.587L222.395,480.03L226.265,480.358L232.167,482.85L241.94,487.704L253.339,492.564L253.15,489.099L250.918,486.677C250.918,486.677 251.345,484.731 251.345,484.683L251.345,480.553L250.681,479.271L251.583,476.375L249.969,475.473L248.26,474.998L246.645,471.675L245.791,466.643L251.535,465.978L255.523,467.782L258.847,469.539L262.17,469.491L262.787,471.248L264.639,470.963L266.728,466.927L267.107,460.281L268.389,459.236L270.383,459.616L272.538,456.146L274.437,452.775L272.349,449.736L271.114,447.932L272.728,445.796L272.206,442.9L266.082,439.387L262.284,436.586L257.916,436.586L256.349,435.304L256.587,429.654C256.587,429.654 264.183,426.592 264.183,426.544C264.183,426.496 266.414,427.114 266.414,427.114L266.414,424.503L269.927,423.886L273.488,420.325L275.15,418.141L274.865,415.625L270.588,412.908Z" style="fill:rgb(227,249,255);fill-rule:nonzero;stroke:rgb(0,178,227);stroke-width:1px;"/>
    </g>
    <g transform="matrix(12.15419,0,0,12.15419,-1525.319717,-4094.723472)">
        <path d="M222.267,312.994L218.539,317.235L217.794,319.891L216.908,319.565L216.768,317.468L215.044,316.07L206.795,315.324C206.795,315.278 206.283,309.313 206.283,309.313L204.139,305.864L201.296,304.326L196.589,311.549L193.933,310.058L192.675,310.058L192.302,312.435L194.166,314.439L191.276,319.286L186.756,316.489L185.591,317.561L185.8,327.455L190.368,333.886L190.834,335.517L194.282,339.199L198.243,341.389L203.789,346.422L203.789,349.777L205.653,352.853L208.45,356.255L207.704,360.03L212.224,360.869L215.44,361.009L216.978,359.611L220.147,359.098L222.384,359.005L226.019,359.984L228.489,359.378L228.535,357.747L229.467,355.976L232.357,355.882L232.963,358.632L233.882,361.356L237.358,361.656L238.497,360.877L242.813,361.116L244.612,360.397L244.432,358.539L244.252,355.781L280.437,328.982L285.389,322.152L285.987,312.248L280.949,312.589L276.339,313.529L273.351,314.382L258.153,314.126C258.153,314.126 256.275,313.187 256.275,313.102L251.237,312.504L247.395,310.967L245.858,312.845L244.919,315.578L243.211,316.175L240.565,317.968L237.15,314.553L234.844,314.382L232.197,311.821L224.086,310.967L222.267,312.994ZM283.084,327.275L284.27,327.176L283.084,327.275Z" style="fill:rgb(227,249,255);fill-rule:nonzero;stroke:rgb(0,178,227);stroke-width:1px;"/>
    </g>
    <g transform="matrix(12.15419,0,0,12.15419,-1525.319717,-4094.723472)">
        <path d="M211.208,436.372L211.051,433.754L208.905,431.608L209.062,429.409L207.858,427.734L207.669,425.101L210.234,420.233L210.444,415.783L207.931,416.568L205.942,415.888L204.685,412.328L202.539,410.286L201.335,406.727L202.958,401.806L203.01,398.612L201.806,397.251L202.382,395.733L203.691,395.733L205.418,397.461L206.308,396.309L205.295,394.537L204.641,387.972L201.263,386.8L200.827,382.741L199.138,382.523L197.231,383.94L195.962,382.904L193.271,382.833L192.422,380.284L190.297,379.151L191.501,376.46L194.05,375.752L196.033,374.194L196.316,371.645L198.299,370.583L198.228,366.688L200.069,364.776L202.052,364.351L202.406,362.864L207.704,360.03L212.224,360.869L215.44,361.009L216.978,359.611L220.147,359.098L222.384,359.005L226.019,359.984L228.489,359.378L228.535,357.747L229.467,355.976L232.357,355.882L232.963,358.632L233.882,361.356L233.042,363.154L235.5,365.133L237.658,365.073L239.037,364.174L242.694,366.332L242.394,368.909L240.775,372.326L241.435,376.043L243.233,379.1L246.59,381.618L250.187,382.996L254.023,384.255L255.582,385.274L255.484,386.839L255.287,389.725L254.369,392.086L250.499,393.529L249.319,395.103L249.384,400.744L249.778,402.252L248.007,403.367L247.633,406.349L244.813,406.546L242.583,408.776L241.599,411.99L240.09,412.384L239.631,409.367L237.401,408.252L234.188,409.039L230.843,411.531L230.58,417.368L227.498,420.057L228.035,428.216L223.313,431.954L221.28,432.282L216.558,436.152L212.557,437.201L211.208,436.372ZM212.462,396.567L213.297,397.469L215.168,396.6L216.705,398.872L215.235,400.443L218.142,401.311L219.946,398.438L219.144,397.435L221.918,393.626L228.467,391.154L237.054,391.722L238.023,390.987L237.221,387.445L237.588,383.736L238.557,382.634L237.521,380.462L234.013,380.362L231.44,381.097L230.605,380.629L229.068,380.963L228.433,382.032L226.796,382.667L224.858,383.87L224.992,385.106L223.588,385.039L222.118,384.438L221.316,385.207L220.481,384.872L217.04,387.88L215.235,387.712L213.531,388.648L214.066,390.285L212.863,391.555C212.863,391.555 213.565,394.194 213.565,394.228C213.565,394.262 212.562,396.4 212.462,396.567Z" style="fill:rgb(227,249,255);fill-rule:nonzero;stroke:rgb(0,178,227);stroke-width:1px;"/>
    </g>
    <g transform="matrix(12.15419,0,0,12.15419,-1525.319717,-4094.723472)">
        <path d="M200.371,412.688L198.603,413.368L197.039,414.796L194.659,414.66L194.115,413.062L192.518,412.28L191.43,412.756L189.458,414.932L187.52,415.34L187.01,417.311L186.33,419.725L185.378,421.119L184.188,420.575L183.848,417.141L182.964,416.937L182.42,415.34L180.313,412.042L178.239,410.172L175.961,410.546L174.873,412.518L169.638,415.306L169.468,417.141L166.136,421.187L165.286,420.813L165.15,416.087L163.552,415.544L163.28,413.504L162.056,413.436L160.251,416.723L158.415,416.995L158.415,414.751L156.069,415.023L154.982,416.349L152.704,417.471L150.8,415.771L149.168,417.301L148.556,419.511L146.618,420.225L146.618,422.061L147.468,422.911L147.638,426.48L145.462,429.472L145.394,431.58L139.683,431.648L139.309,430.9L135.263,431.138L135.535,430.424L132.408,430.084L132.102,428.758L131.898,426.752L130.198,426.65L129.96,428.996L128.906,429.472L128.056,428.554L125.098,428.35C125.098,428.35 124.112,427.364 124.078,427.398C124.044,427.432 122.684,428.248 122.684,428.248L121.936,427.398L122.854,425.902L122.582,421.517L123.398,420.599L123.398,418.525L119.693,420.667L117.585,424.509L114.817,427.344L116.279,429.18L115.905,431.186L114.308,432.308L112.234,431.934L111.69,429.86L112.574,428.942L111.35,427.31L108.596,429.52L109.616,434.688L110.19,442.881L105.703,448.116L105.499,450.122L101.487,455.868L100.501,456.344L100.433,459.675L99.447,461.341L112.196,466.713L116.538,469.806L119.121,469.84L123.779,471.71L139.696,476.378L150.78,477.976L172.708,477.364L182.635,475.902L187.224,476.684L189.706,475.868L193.786,476.616L199.701,476.174L207.507,476.226L207.572,466.191L208.556,464.682L208.294,459.37L211.048,459.37L213.606,453.139L212.95,451.106L210.917,450.319L210.983,448.679L214,448.482L218.788,444.154L219.509,442.448L217.279,441.661C217.279,441.661 215.705,443.498 215.639,443.498L213.41,442.645L211.77,442.776L210.458,443.957L209.802,442.12L212.557,437.201L211.208,436.372L211.051,433.754L208.905,431.608L209.062,429.409L207.858,427.734L207.669,425.101L210.234,420.233L210.444,415.783L207.931,416.568L205.942,415.888L204.685,412.328L202.539,410.286L200.371,412.688Z" style="fill:rgb(227,249,255);fill-rule:nonzero;stroke:rgb(0,178,227);stroke-width:1px;"/>
    </g>
    <g transform="matrix(12.15419,0,0,12.15419,-1525.319717,-4094.723472)">
        <path d="M188.985,380.416L189.259,383.609L190.445,385.616L190.262,388.08L186.886,391.638L186.795,395.243L184.605,397.98L181.868,399.075L180.408,398.436L178.492,398.892L177.443,402.177L178.239,410.172L180.313,412.042L182.42,415.34L182.964,416.937L183.848,417.141L184.188,420.575L185.378,421.119L186.33,419.725L187.01,417.311L187.52,415.34L189.458,414.932L191.43,412.756L192.518,412.28L194.115,413.062L194.659,414.66L197.039,414.796L198.603,413.368L200.371,412.688L202.539,410.286L201.335,406.727L202.958,401.806L203.01,398.612L201.806,397.251L202.382,395.733L203.691,395.733L205.418,397.461L206.308,396.309L205.295,394.537L204.641,387.972L201.263,386.8L200.827,382.741L199.138,382.523L197.231,383.94L195.962,382.904L193.271,382.833L192.422,380.284L190.297,379.151L188.985,380.416Z" style="fill:rgb(227,249,255);fill-rule:nonzero;stroke:rgb(0,178,227);stroke-width:1px;"/>
    </g>
    <g transform="matrix(12.15419,0,0,12.15419,-1525.319717,-4094.723472)">
        <path d="M206.183,359.291L202.282,358.991L198.68,356.32L197.09,356.35L195.619,355.57L192.918,355.48L191.264,354.477L186.373,355.108L183.101,354.207L179.14,354.147L174.998,354.027L170.977,354.747L167.495,354.807L164.794,353.787L161.493,354.537L160.953,356.548L160.082,356.548L159.944,360.309L158.714,361.629L158.414,365.561L159.644,366.311L160.034,367.541L158.384,367.992L157.093,369.222L155.053,369.132L153.42,374.09L153.84,376.251L152.97,378.562L153.69,380.062L153.51,382.403L152.46,384.654L151.427,388.913L150.107,389.903L150.317,394.645L149.416,395.546L149.326,402.238L148.546,403.649L148.126,411.152L149.326,412.112L151.547,412.322L150.8,415.771L152.704,417.471L154.982,416.349L156.069,415.023L158.415,414.751L158.415,416.995L160.251,416.723L162.056,413.436L163.28,413.504L163.552,415.544L165.15,416.087L165.286,420.813L166.136,421.187L169.468,417.141L169.638,415.306L174.873,412.518L175.961,410.546L178.239,410.172L177.443,402.177L178.492,398.892L180.408,398.436L181.868,399.075L184.605,397.98L186.795,395.243L186.886,391.638L190.262,388.08L190.445,385.616L189.259,383.609L188.985,380.416L190.297,379.151L191.501,376.46L194.05,375.752L196.033,374.194L196.316,371.645L198.299,370.583L198.228,366.688L200.069,364.776L202.052,364.351L202.406,362.864L207.704,360.03L206.183,359.291Z" style="fill:rgb(0,178,227);fill-rule:nonzero;stroke:rgb(0,178,227);stroke-width:1px;"/>
    </g>
    <g transform="matrix(12.15419,0,0,12.15419,-1525.319717,-4094.723472)">
        <path d="M206.183,359.291L207.704,360.03L208.45,356.255L205.653,352.853L203.789,349.777L203.789,346.422L198.243,341.389L194.282,339.199L190.834,335.517L190.368,333.886L185.8,327.455L185.591,317.561L186.756,316.489L191.276,319.286L194.166,314.439L192.302,312.435L192.675,310.058L193.933,310.058L196.589,311.549L201.296,304.326L204.139,305.864L206.283,309.313C206.283,309.313 206.795,315.278 206.795,315.324L215.044,316.07L216.768,317.468L216.908,319.565L217.794,319.891L218.539,317.235L222.267,312.994L224.086,310.967L224.428,307.381L222.208,305.161L215.548,303.624L208.291,303.966C208.291,303.966 204.466,302.856 204.466,302.771L202.417,301.405L199.941,301.575L197.636,299.356L197.209,292.696C197.209,292.696 202.758,292.354 202.673,292.354L205.149,290.391L205.405,287.915L209.76,283.389L208.479,278.096L204.978,273.912L204.807,269.473L201.819,265.887L197.721,266.399L187.902,263.411L187.219,261.703L189.354,260.252L187.219,258.544L189.012,256.409L187.731,254.958L185.682,255.556L184.231,253.677L188.158,249.835L189.61,245.566L193.708,242.151L193.367,238.907L191.061,238.138L191.232,235.918L193.623,231.82L191.574,230.966L191.232,228.746L193.469,227.184L195.262,225.818L197.396,227.44L197.908,224.622L200.299,221.378L204.397,220.097L208.581,220.609L209.776,223.342L213.106,224.793L216.18,224.878L220.363,225.391L222.498,223.256L224.803,223.939L228.645,221.976L229.072,218.731L228.838,215.631L149.572,215.809L149.572,218.236L147.225,220.583L147.622,224.083L151.242,226.987L151.799,228.777L156.413,228.896L155.856,230.129L155.618,231.999L157.447,232.039L157.368,235.221L155.363,239.628L154.926,247.146L152.778,247.146L151.664,246.43L147.129,245.475L146.373,244.839L145.538,245.157C145.538,245.197 145.419,247.345 145.419,247.345L143.112,249.214L143.072,250.925L145.14,251.402L146.97,253.351L144.623,255.221L145.379,255.857L145.498,257.965L144.066,259.119L143.824,261.079L142.471,261.716L139.926,263.029L139.528,264.898L137.42,265.932L135.073,269.91L131.533,270.109L129.981,271.143L128.629,272.535C128.629,272.575 130.101,273.928 130.101,273.928L130.101,275.638L125.765,278.104L127.256,293.227L134.098,298.955L140.105,298.995L142.412,299.989L144.003,302.655L141.616,306.195L140.176,311.743L137.392,310.669L135.801,310.789L133.613,313.374L130.55,313.374L130.351,312.34L129.118,312.101L128.163,313.136L125.379,313.533C125.419,313.533 125.18,315.88 125.18,315.88L125.419,320.256L129.078,325.864L131.863,327.018L136.437,328.689L136.318,331.035L137.273,332.865L134.806,332.07L133.374,330.876L132.221,331.871L132.034,338.625L131.278,340.852L132.153,342.443L132.352,345.904L133.943,347.933L135.813,348.649L136.409,351.513L140.864,355.45L142.416,358.235L144.285,359.07L145.24,361.139L147.706,361.616L148.581,363.645L150.809,365.156L150.729,366.548L148.144,367.861L147.945,370.486L149.934,372.038L151.087,371.202L152.44,368.696L153.792,368.1C153.792,368.139 155.053,369.132 155.053,369.132L157.093,369.222L158.384,367.992L160.034,367.541L159.644,366.311L158.414,365.561L158.714,361.629L159.944,360.309L160.082,356.548L160.953,356.548L161.493,354.537L164.794,353.787L167.495,354.807L170.977,354.747L174.998,354.027L179.14,354.147L183.101,354.207L186.373,355.108L191.264,354.477L192.918,355.48L195.619,355.57L197.09,356.35L198.68,356.32L202.282,358.991L206.183,359.291" style="fill:rgb(227,249,255);fill-rule:nonzero;stroke:rgb(0,178,227);stroke-width:1px;"/>
    </g>
    <g transform="matrix(12.15419,0,0,12.15419,-1525.319717,-4094.723472)">
        <path d="M142.416,358.235L140.864,355.45L136.409,351.513L135.813,348.649L133.943,347.933L132.352,345.904L132.153,342.443L131.278,340.852L132.034,338.625L132.221,331.871L133.374,330.876L134.806,332.07L137.273,332.865L136.318,331.035L136.437,328.689L131.863,327.018L129.078,325.864L125.419,320.256L125.18,315.88L122.194,317.253L118.243,320.334L117.372,325.625L117.171,329.308L107.327,329.509L102.973,327.433L98.809,331.864L98.809,339.064L99.267,346.805L100.266,348.845L99.975,350.676L98.934,351.841L99.309,353.007L100.474,352.299L101.972,353.048L102.18,355.545L103.845,357.834L105.094,359.707L106.675,359.499L107.133,358.375L109.63,357.626L111.212,358.916L111.336,360.623L110.837,362.121L111.794,363.037L113.376,363.161L116.039,366.2L122.781,360.373L124.904,361.122L127.193,362.953L129.232,362.204L131.771,362.287L131.896,364.035L133.894,363.661L135.267,362.704L137.306,362.745L138.721,360.664L139.637,359.291L142.416,358.235Z" style="fill:rgb(227,249,255);fill-rule:nonzero;stroke:rgb(0,178,227);stroke-width:1px;"/>
    </g>
    <g transform="matrix(12.15419,0,0,12.15419,-1525.319717,-4094.723472)">
        <path d="M116.039,366.2L122.781,360.373L124.904,361.122L127.193,362.953L129.232,362.204L131.771,362.287L131.896,364.035L133.894,363.661L135.267,362.704L137.306,362.745L138.721,360.664L139.637,359.291L142.416,358.235L144.285,359.07L145.24,361.139L147.706,361.616L148.581,363.645L150.809,365.156L150.729,366.548L148.144,367.861L147.945,370.486L149.934,372.038L151.087,371.202L152.44,368.696L153.792,368.1C153.792,368.139 155.049,369.129 155.053,369.132L153.42,374.09L153.84,376.251L152.97,378.562L153.69,380.062L153.51,382.403L152.46,384.654L151.427,388.913L150.107,389.903L150.317,394.645L149.416,395.546L149.326,402.238L148.546,403.649L147.636,402.076L147.312,400.863L145.533,399.772L142.218,400.135L140.722,398.64L137.205,399.044L134.658,401.753L131.343,402.359L129.766,400.499L129.483,393.788L126.41,392.373L125.359,390.149L120.952,388.694L119.092,389.624L115.818,389.341L111.734,391.767C111.734,391.767 110.481,393.748 110.481,393.788L107.408,394.354L105.751,392.818L104.74,389.907L106.115,388.33L105.427,380.972L109.187,376.08L110.562,376.282L111.188,372.777L115.878,369.179L116.039,366.2ZM129.345,382.913L131.581,383.015L134.173,385.047L133.919,387.944L132.496,390.536L133.208,392.569L135.19,391.4L135.596,388.249L137.629,386.115L140.17,385.606L142.254,384.59L143.168,385.86L145.099,386.623L145.252,388.859L146.929,389.621L147.437,387.131L149.216,386.521L148.504,382.1L147.539,381.134L146.776,378.542L145.201,378.034L142.66,376.51L139.154,376.51L135.901,377.78L132.903,379.203L130.616,379.711L128.837,380.88L129.345,382.913Z" style="fill:rgb(227,249,255);fill-rule:nonzero;stroke:rgb(0,178,227);stroke-width:1px;"/>
    </g>
    <g transform="matrix(12.15419,0,0,12.15419,-1525.319717,-4094.723472)">
        <path d="M99.447,461.341L100.433,459.675L100.501,456.344L101.487,455.868L105.499,450.122L105.703,448.116L110.19,442.881L109.616,434.688L108.596,429.52L111.35,427.31L112.574,428.942L111.69,429.86L112.234,431.934L114.308,432.308L115.905,431.186L116.279,429.18L114.817,427.344L117.585,424.509L119.693,420.667L123.398,418.525L123.398,420.599L122.582,421.517L122.854,425.902L121.936,427.398L122.684,428.248C122.684,428.248 124.044,427.432 124.078,427.398C124.112,427.364 125.098,428.35 125.098,428.35L128.056,428.554L128.906,429.472L129.96,428.996L130.198,426.65L131.898,426.752L132.102,428.758L132.408,430.084L135.535,430.424L135.263,431.138L139.309,430.9L139.683,431.648L145.394,431.58L145.462,429.472L147.638,426.48L147.468,422.911L146.618,422.061L146.618,420.225L148.556,419.511L149.168,417.301L150.8,415.771L151.547,412.322L149.326,412.112L148.126,411.152L148.546,403.649L147.636,402.076L147.312,400.863L145.533,399.772L142.218,400.135L140.722,398.64L137.205,399.044L134.658,401.753L131.343,402.359L129.766,400.499L129.483,393.788L126.41,392.373L125.359,390.149L120.952,388.694L119.092,389.624L115.818,389.341L111.734,391.767C111.734,391.767 110.481,393.748 110.481,393.788L107.408,394.354L105.751,392.818L104.74,389.907L106.115,388.33L105.427,380.972L102.165,383.942L101.152,386.617L99.128,387.341L97.32,390.883L96.163,396.812L94.139,400.862L93.777,403.971L94.862,407.514L94.356,416.046L93.343,419.733L92.982,426.819L89.439,432.748L89.511,441.858L86.836,445.98L86.764,448.293L85.535,449.306L85.462,452.921L91.586,457.244L99.447,461.341Z" style="fill:rgb(227,249,255);fill-rule:nonzero;stroke:rgb(0,178,227);stroke-width:1px;"/>
    </g>
    <g transform="matrix(12.15419,0,0,12.15419,-1525.319717,-4094.723472)">
        <path d="M212.462,396.567L213.297,397.469L215.168,396.6L216.705,398.872L215.235,400.443L218.142,401.311L219.946,398.438L219.144,397.435L221.918,393.626L228.467,391.154L237.054,391.722L238.023,390.987L237.221,387.445L237.588,383.736L238.557,382.634L237.521,380.462L234.013,380.362L231.44,381.097L230.605,380.629L229.068,380.963L228.433,382.032L226.796,382.667L224.858,383.87L224.992,385.106L223.588,385.039L222.118,384.438L221.316,385.207L220.481,384.872L217.04,387.88L215.235,387.712L213.531,388.648L214.066,390.285L212.863,391.555C212.863,391.555 213.565,394.194 213.565,394.228C213.565,394.262 212.562,396.4 212.462,396.567Z" style="fill:rgb(227,249,255);fill-rule:nonzero;stroke:rgb(0,178,227);stroke-width:1px;"/>
    </g>
</svg>
