<?xml version="1.0" encoding="UTF-8" standalone="no"?>
<!DOCTYPE svg PUBLIC "-//W3C//DTD SVG 1.1//EN" "http://www.w3.org/Graphics/SVG/1.1/DTD/svg11.dtd">
<svg width="100%" height="100%" viewBox="0 0 1182 1182" version="1.1" xmlns="http://www.w3.org/2000/svg" xmlns:xlink="http://www.w3.org/1999/xlink" xml:space="preserve" xmlns:serif="http://www.serif.com/" style="fill-rule:evenodd;clip-rule:evenodd;">
    <g transform="matrix(6.728169,0,0,6.728169,-56.548203,-1221.372668)">
        <path d="M165.517,3.382L378.459,3.516L378.563,98.601L370.689,236.428L367.171,234.255L354.755,234.566L350.41,241.291L345.03,243.36L338.925,242.015L338.615,231.979L333.752,230.53L332.303,232.393L326.82,231.875L322.681,233.531L313.369,228.047L310.99,229.496L309.024,233.531L306.023,234.048C306.023,234.048 304.368,235.497 304.264,235.497L295.573,235.497L295.366,231.875L293.297,230.841L292.78,228.565L291.124,229.392L289.365,227.633L286.572,227.633L283.468,222.874L281.605,225.254L278.915,225.15L277.777,223.391L275.811,222.874L273.121,225.047L256.463,219.873L240.736,217.39L228.838,215.631L229.986,213.055L226.365,211.503L226.468,209.434L229.572,208.71L227.4,206.64L229.365,204.571L229.572,202.709L226.261,201.467L226.365,197.639L228.848,195.88L226.468,194.638L226.675,192.569L230.09,192.258L228.952,190.086L230.71,189.051L228.641,187.913L233.607,183.153L231.228,180.463L235.884,180.36L233.711,177.049L233.918,173.738L231.435,174.152L228.124,172.703L223.882,172.703L223.468,168.254L217.156,167.53L214.984,165.047L211.88,166.289L208.983,164.53L206.81,165.047L208.569,162.357L207.638,161.219L205.154,161.115L204.637,156.563L206.499,153.769L204.534,151.907L202.775,154.287L201.43,152.424L203.396,150.044L203.292,147.147L200.602,143.94L200.705,140.733L196.567,135.663L191.497,131.317L187.462,129.662L186.944,126.765L183.944,126.765L182.185,127.282L178.15,124.799L173.701,123.971L170.907,119.936L168.01,118.177L170.08,115.59L164.803,115.073L165.527,118.591L162.32,116.211L156.526,114.556L156.319,110.624L153.525,108.141L150.494,104.478L149.355,100.96L143.665,99.512L138.181,92.787L137.457,89.579L133.732,87.613L131.973,85.958L131.352,81.302L127.524,79.233L123.282,80.371L120.385,77.37L118.109,75.301L113.349,74.68L112.625,71.576L165.703,72.3L165.517,3.382ZM282.945,110.018L286.519,110.813L290.54,111.954L291.483,110.267L291.582,109.026L293.319,109.572L294.163,107.04L296.844,106.097L300.765,106.643L304.836,106.841L306.772,105.303L310.296,107.338L313.82,106.494L315.061,104.211L314.118,102.721L311.338,102.672L309.005,100.785L305.928,100.637L304.885,101.183L303.495,100.686L302.006,101.282L298.283,101.332L294.957,101.282L293.071,101.629L292.327,103.665L290.49,105.849L288.008,107.189L286.767,108.529L283.342,108.976L282.945,110.018Z" style="fill:rgb(227,249,255);fill-rule:nonzero;stroke:rgb(0,178,227);stroke-width:1px;"/>
    </g>
    <g transform="matrix(6.728169,0,0,6.728169,-56.548203,-1221.372668)">
        <path d="M229.072,218.731L228.645,221.976L224.803,223.939L222.498,223.256L220.363,225.391L216.18,224.878L213.106,224.793L209.776,223.342L208.581,220.609L204.397,220.097L200.299,221.378L197.908,224.622L197.396,227.44L195.262,225.818L193.469,227.184L191.232,228.746L191.574,230.966L193.623,231.82L191.232,235.918L191.061,238.138L193.367,238.907L193.708,242.151L189.61,245.566L188.158,249.835L184.231,253.677L185.682,255.556L187.731,254.958L189.012,256.409L187.219,258.544L189.354,260.252L187.219,261.703L187.902,263.411L197.721,266.399L201.819,265.887L204.807,269.473L204.978,273.912L208.479,278.096L209.76,283.389L205.405,287.915L205.149,290.391L202.673,292.354C202.758,292.354 197.209,292.696 197.209,292.696L197.636,299.356L199.941,301.575L202.417,301.405L204.466,302.771C204.466,302.856 208.291,303.966 208.291,303.966L215.548,303.624L222.208,305.161L224.428,307.381L224.086,310.967L232.197,311.821L234.844,314.382L237.15,314.553L240.565,317.968L243.211,316.175L244.919,315.578L245.858,312.845L247.395,310.967L251.237,312.504L256.275,313.102C256.275,313.187 258.153,314.126 258.153,314.126L273.351,314.382L276.339,313.529L280.949,312.589L285.987,312.248L285.389,322.152L280.437,328.982L283.084,327.275L285.133,327.104L287.097,328.385L292.134,329.068L292.732,327.787L295.293,328.214L296.232,326.165L299.306,326.592C299.306,326.677 301.099,325.055 301.099,325.055L302.38,326.25L305.027,324.884L306.222,327.189L308.698,328.726L312.967,327.702L315.358,328.385L316.638,330.348L318.687,330.092L320.053,326.165L325.005,325.738L331.067,314.468L332.007,308.576L334.995,308.576L333.543,305.674L333.885,303.966L337.386,302.685L336.276,299.355L337.215,298.587L336.873,295.855L335.849,294.318C335.849,294.403 336.446,292.269 336.446,292.269L336.105,289.024L333.202,290.134L332.177,288.341L330.641,288.427L329.531,287.317L330.726,284.841L326.542,280.316L323.725,281.596L319.968,276.303L333.543,258.544L333.885,254.189L335.251,252.567L337.898,252.994L338.41,251.116L339.691,251.713C339.691,251.799 341.74,250.177 341.74,250.177L341.655,247.53L343.704,247.701L347.802,245.481L350.41,241.291L345.03,243.36L338.925,242.015L338.615,231.979L333.752,230.53L332.303,232.393L326.82,231.875L322.681,233.531L313.369,228.047L310.99,229.496L309.024,233.531L306.023,234.048C306.023,234.048 304.368,235.497 304.264,235.497L295.573,235.497L295.366,231.875L293.297,230.841L292.78,228.565L291.124,229.392L289.365,227.633L286.572,227.633L283.468,222.874L281.605,225.254L278.915,225.15L277.777,223.391L275.811,222.874L273.121,225.047L256.463,219.873L240.736,217.39L228.838,215.631L229.072,218.731Z" style="fill:rgb(227,249,255);fill-rule:nonzero;stroke:rgb(0,178,227);stroke-width:1px;"/>
    </g>
    <g transform="matrix(6.728169,0,0,6.728169,-56.548203,-1221.372668)">
        <path d="M222.267,312.994L218.539,317.235L217.794,319.891L216.908,319.565L216.768,317.468L215.044,316.07L206.795,315.324C206.795,315.278 206.283,309.313 206.283,309.313L204.139,305.864L201.296,304.326L196.589,311.549L193.933,310.058L192.675,310.058L192.302,312.435L194.166,314.439L191.276,319.286L186.756,316.489L185.591,317.561L185.8,327.455L190.368,333.886L190.834,335.517L194.282,339.199L198.243,341.389L203.789,346.422L203.789,349.777L205.653,352.853L208.45,356.255L207.704,360.03L212.224,360.869L215.44,361.009L216.978,359.611L220.147,359.098L222.384,359.005L226.019,359.984L228.489,359.378L228.535,357.747L229.467,355.976L232.357,355.882L232.963,358.632L233.882,361.356L237.358,361.656L238.497,360.877L242.813,361.116L244.612,360.397L244.432,358.539L244.252,355.781L280.437,328.982L285.389,322.152L285.987,312.248L280.949,312.589L276.339,313.529L273.351,314.382L258.153,314.126C258.153,314.126 256.275,313.187 256.275,313.102L251.237,312.504L247.395,310.967L245.858,312.845L244.919,315.578L243.211,316.175L240.565,317.968L237.15,314.553L234.844,314.382L232.197,311.821L224.086,310.967L222.267,312.994ZM283.084,327.275L284.27,327.176L283.084,327.275Z" style="fill:rgb(227,249,255);fill-rule:nonzero;stroke:rgb(0,178,227);stroke-width:1px;"/>
    </g>
    <g transform="matrix(6.728169,0,0,6.728169,-56.548203,-1221.372668)">
        <path d="M206.183,359.291L202.282,358.991L198.68,356.32L197.09,356.35L195.619,355.57L192.918,355.48L191.264,354.477L186.373,355.108L183.101,354.207L179.14,354.147L174.998,354.027L170.977,354.747L167.495,354.807L164.794,353.787L161.493,354.537L160.953,356.548L160.082,356.548L159.944,360.309L158.714,361.629L158.414,365.561L159.644,366.311L160.034,367.541L158.384,367.992L157.093,369.222L155.053,369.132L153.42,374.09L153.84,376.251L152.97,378.562L153.69,380.062L153.51,382.403L152.46,384.654L151.427,388.913L150.107,389.903L150.317,394.645L149.416,395.546L149.326,402.238L148.546,403.649L148.126,411.152L149.326,412.112L151.547,412.322L150.8,415.771L152.704,417.471L154.982,416.349L156.069,415.023L158.415,414.751L158.415,416.995L160.251,416.723L162.056,413.436L163.28,413.504L163.552,415.544L165.15,416.087L165.286,420.813L166.136,421.187L169.468,417.141L169.638,415.306L174.873,412.518L175.961,410.546L178.239,410.172L177.443,402.177L178.492,398.892L180.408,398.436L181.868,399.075L184.605,397.98L186.795,395.243L186.886,391.638L190.262,388.08L190.445,385.616L189.259,383.609L188.985,380.416L190.297,379.151L191.501,376.46L194.05,375.752L196.033,374.194L196.316,371.645L198.299,370.583L198.228,366.688L200.069,364.776L202.052,364.351L202.406,362.864L207.704,360.03L206.183,359.291Z" style="fill:rgb(227,249,255);fill-rule:nonzero;stroke:rgb(0,178,227);stroke-width:1px;"/>
    </g>
    <g transform="matrix(6.728169,0,0,6.728169,-56.548203,-1221.372668)">
        <path d="M206.183,359.291L207.704,360.03L208.45,356.255L205.653,352.853L203.789,349.777L203.789,346.422L198.243,341.389L194.282,339.199L190.834,335.517L190.368,333.886L185.8,327.455L185.591,317.561L186.756,316.489L191.276,319.286L194.166,314.439L192.302,312.435L192.675,310.058L193.933,310.058L196.589,311.549L201.296,304.326L204.139,305.864L206.283,309.313C206.283,309.313 206.795,315.278 206.795,315.324L215.044,316.07L216.768,317.468L216.908,319.565L217.794,319.891L218.539,317.235L222.267,312.994L224.086,310.967L224.428,307.381L222.208,305.161L215.548,303.624L208.291,303.966C208.291,303.966 204.466,302.856 204.466,302.771L202.417,301.405L199.941,301.575L197.636,299.356L197.209,292.696C197.209,292.696 202.758,292.354 202.673,292.354L205.149,290.391L205.405,287.915L209.76,283.389L208.479,278.096L204.978,273.912L204.807,269.473L201.819,265.887L197.721,266.399L187.902,263.411L187.219,261.703L189.354,260.252L187.219,258.544L189.012,256.409L187.731,254.958L185.682,255.556L184.231,253.677L188.158,249.835L189.61,245.566L193.708,242.151L193.367,238.907L191.061,238.138L191.232,235.918L193.623,231.82L191.574,230.966L191.232,228.746L193.469,227.184L195.262,225.818L197.396,227.44L197.908,224.622L200.299,221.378L204.397,220.097L208.581,220.609L209.776,223.342L213.106,224.793L216.18,224.878L220.363,225.391L222.498,223.256L224.803,223.939L228.645,221.976L229.072,218.731L228.838,215.631L149.572,215.809L149.572,218.236L147.225,220.583L147.622,224.083L151.242,226.987L151.799,228.777L156.413,228.896L155.856,230.129L155.618,231.999L157.447,232.039L157.368,235.221L155.363,239.628L154.926,247.146L152.778,247.146L151.664,246.43L147.129,245.475L146.373,244.839L145.538,245.157C145.538,245.197 145.419,247.345 145.419,247.345L143.112,249.214L143.072,250.925L145.14,251.402L146.97,253.351L144.623,255.221L145.379,255.857L145.498,257.965L144.066,259.119L143.824,261.079L142.471,261.716L139.926,263.029L139.528,264.898L137.42,265.932L135.073,269.91L131.533,270.109L129.981,271.143L128.629,272.535C128.629,272.575 130.101,273.928 130.101,273.928L130.101,275.638L125.765,278.104L127.256,293.227L134.098,298.955L140.105,298.995L142.412,299.989L144.003,302.655L141.616,306.195L140.176,311.743L137.392,310.669L135.801,310.789L133.613,313.374L130.55,313.374L130.351,312.34L129.118,312.101L128.163,313.136L125.379,313.533C125.419,313.533 125.18,315.88 125.18,315.88L125.419,320.256L129.078,325.864L131.863,327.018L136.437,328.689L136.318,331.035L137.273,332.865L134.806,332.07L133.374,330.876L132.221,331.871L132.034,338.625L131.278,340.852L132.153,342.443L132.352,345.904L133.943,347.933L135.813,348.649L136.409,351.513L140.864,355.45L142.416,358.235L144.285,359.07L145.24,361.139L147.706,361.616L148.581,363.645L150.809,365.156L150.729,366.548L148.144,367.861L147.945,370.486L149.934,372.038L151.087,371.202L152.44,368.696L153.792,368.1C153.792,368.139 155.053,369.132 155.053,369.132L157.093,369.222L158.384,367.992L160.034,367.541L159.644,366.311L158.414,365.561L158.714,361.629L159.944,360.309L160.082,356.548L160.953,356.548L161.493,354.537L164.794,353.787L167.495,354.807L170.977,354.747L174.998,354.027L179.14,354.147L183.101,354.207L186.373,355.108L191.264,354.477L192.918,355.48L195.619,355.57L197.09,356.35L198.68,356.32L202.282,358.991L206.183,359.291" style="fill:rgb(227,249,255);fill-rule:nonzero;stroke:rgb(0,178,227);stroke-width:1px;"/>
    </g>
    <g transform="matrix(6.728169,0,0,6.728169,-56.548203,-1221.372668)">
        <path d="M149.572,215.809L149.572,218.236L147.225,220.583L147.622,224.083L151.242,226.987L151.799,228.777L156.413,228.896L155.856,230.129L155.618,231.999L157.447,232.039L157.368,235.221L155.363,239.628L154.926,247.146L152.778,247.146L151.664,246.43L147.129,245.475L146.373,244.839L145.538,245.157C145.538,245.197 145.419,247.345 145.419,247.345L143.112,249.214L143.072,250.925L145.14,251.402L146.97,253.351L144.623,255.221L145.379,255.857L145.498,257.965L144.066,259.119L143.824,261.079L142.471,261.716L139.926,263.029L139.528,264.898L137.42,265.932L135.073,269.91L131.533,270.109L129.981,271.143L128.629,272.535C128.629,272.575 130.101,273.928 130.101,273.928L130.101,275.638L125.765,278.104L127.256,293.227L134.098,298.955L140.105,298.995L142.412,299.989L144.003,302.655L141.616,306.195L140.176,311.743L137.392,310.669L135.801,310.789L133.613,313.374L130.55,313.374L130.351,312.34L129.118,312.101L128.163,313.136L125.379,313.533C125.419,313.533 125.18,315.88 125.18,315.88L122.194,317.253L118.243,320.334L117.372,325.625L117.171,329.308L107.327,329.509L102.973,327.433L101.634,320.803L96.41,318.191L93.865,316.785L90.182,316.852L88.105,311.427L83.417,307.877L79.533,303.524L73.238,303.323L67.987,303.558C67.987,303.558 59.883,301.147 59.816,301.147C59.749,301.147 52.985,305.232 53.052,305.232C53.119,305.232 51.244,305.098 51.244,305.098L44.948,312.398L37.046,310.59L37.046,296.526L33.965,295.856L33.228,293.043L78.066,215.616L149.572,215.809Z" style="fill:rgb(0,178,227);fill-rule:nonzero;stroke:rgb(0,178,227);stroke-width:1px;"/>
    </g>
    <g transform="matrix(6.728169,0,0,6.728169,-56.548203,-1221.372668)">
        <path d="M142.416,358.235L140.864,355.45L136.409,351.513L135.813,348.649L133.943,347.933L132.352,345.904L132.153,342.443L131.278,340.852L132.034,338.625L132.221,331.871L133.374,330.876L134.806,332.07L137.273,332.865L136.318,331.035L136.437,328.689L131.863,327.018L129.078,325.864L125.419,320.256L125.18,315.88L122.194,317.253L118.243,320.334L117.372,325.625L117.171,329.308L107.327,329.509L102.973,327.433L98.809,331.864L98.809,339.064L99.267,346.805L100.266,348.845L99.975,350.676L98.934,351.841L99.309,353.007L100.474,352.299L101.972,353.048L102.18,355.545L103.845,357.834L105.094,359.707L106.675,359.499L107.133,358.375L109.63,357.626L111.212,358.916L111.336,360.623L110.837,362.121L111.794,363.037L113.376,363.161L116.039,366.2L122.781,360.373L124.904,361.122L127.193,362.953L129.232,362.204L131.771,362.287L131.896,364.035L133.894,363.661L135.267,362.704L137.306,362.745L138.721,360.664L139.637,359.291L142.416,358.235Z" style="fill:rgb(227,249,255);fill-rule:nonzero;stroke:rgb(0,178,227);stroke-width:1px;"/>
    </g>
    <g transform="matrix(6.728169,0,0,6.728169,-56.548203,-1221.372668)">
        <path d="M116.039,366.2L122.781,360.373L124.904,361.122L127.193,362.953L129.232,362.204L131.771,362.287L131.896,364.035L133.894,363.661L135.267,362.704L137.306,362.745L138.721,360.664L139.637,359.291L142.416,358.235L144.285,359.07L145.24,361.139L147.706,361.616L148.581,363.645L150.809,365.156L150.729,366.548L148.144,367.861L147.945,370.486L149.934,372.038L151.087,371.202L152.44,368.696L153.792,368.1C153.792,368.139 155.049,369.129 155.053,369.132L153.42,374.09L153.84,376.251L152.97,378.562L153.69,380.062L153.51,382.403L152.46,384.654L151.427,388.913L150.107,389.903L150.317,394.645L149.416,395.546L149.326,402.238L148.546,403.649L147.636,402.076L147.312,400.863L145.533,399.772L142.218,400.135L140.722,398.64L137.205,399.044L134.658,401.753L131.343,402.359L129.766,400.499L129.483,393.788L126.41,392.373L125.359,390.149L120.952,388.694L119.092,389.624L115.818,389.341L111.734,391.767C111.734,391.767 110.481,393.748 110.481,393.788L107.408,394.354L105.751,392.818L104.74,389.907L106.115,388.33L105.427,380.972L109.187,376.08L110.562,376.282L111.188,372.777L115.878,369.179L116.039,366.2ZM129.345,382.913L131.581,383.015L134.173,385.047L133.919,387.944L132.496,390.536L133.208,392.569L135.19,391.4L135.596,388.249L137.629,386.115L140.17,385.606L142.254,384.59L143.168,385.86L145.099,386.623L145.252,388.859L146.929,389.621L147.437,387.131L149.216,386.521L148.504,382.1L147.539,381.134L146.776,378.542L145.201,378.034L142.66,376.51L139.154,376.51L135.901,377.78L132.903,379.203L130.616,379.711L128.837,380.88L129.345,382.913Z" style="fill:rgb(227,249,255);fill-rule:nonzero;stroke:rgb(0,178,227);stroke-width:1px;"/>
    </g>
    <g transform="matrix(6.728169,0,0,6.728169,-56.548203,-1221.372668)">
        <path d="M39.129,397.354L48.529,401.909L54.024,401.692L57.278,404.006L60.604,404.295L64.074,406.97L67.039,406.103L68.847,405.958L68.919,403.5L70.51,401.548L70.654,394.823L72.1,394.462L74.269,395.04L74.197,393.811L73.98,391.136L75.354,387.954L76.077,384.628L77.957,385.568L79.331,385.568L80.777,382.242L83.163,379.928L85.115,381.302L84.031,384.05L82.078,387.304L83.452,388.46L85.549,387.593L85.983,391.786L86.706,393.305L87.863,390.123L88.586,387.304L90.9,387.376L90.9,389.617L92.418,390.123L93.792,388.605L96.25,387.159L98.564,386.147L99.648,383.833L102.165,383.942L105.427,380.972L109.187,376.08L110.562,376.282L111.188,372.777L115.878,369.179L116.039,366.2L113.376,363.161L111.794,363.037L110.837,362.121L111.336,360.623L111.212,358.916L109.63,357.626L107.133,358.375L106.675,359.499L105.094,359.707L103.845,357.834L102.18,355.545L101.972,353.048L100.474,352.299L99.309,353.007L98.934,351.841L99.975,350.676L100.266,348.845L99.267,346.805L98.809,339.064L98.809,331.864L102.973,327.433L101.634,320.803L96.41,318.191L95.238,322.511L89.092,327.645L83.452,327.789L80.922,332.055L81.5,335.309L85.838,339.358L84.537,342.395L83.958,349.987L81.572,353.674L79.475,354.47L79.259,358.302L76.583,358.157L74.356,361.208L71.609,368.945L69.729,377.694L66.403,377.404L64.089,379.429L56.352,379.357L55.123,378.2L52.448,378.344L49.339,380.297L44.205,380.369L42.181,379.357L39.361,380.441L38.493,382.61L36.252,382.61L35.095,383.55L35.095,385.43L30.684,388.612L31.696,391.432L36.252,394.324L39.129,397.354Z" style="fill:rgb(227,249,255);fill-rule:nonzero;stroke:rgb(0,178,227);stroke-width:1px;"/>
    </g>
    <g transform="matrix(6.728169,0,0,6.728169,-56.548203,-1221.372668)">
        <path d="M25.608,407.766L28.139,406.609L29.296,404.946C29.368,404.946 32.188,404.368 32.188,404.368L32.983,402.126L39.129,397.354L36.252,394.324L31.696,391.432L30.684,388.612L35.095,385.43L35.095,383.55L36.252,382.61L38.493,382.61L39.361,380.441L42.181,379.357L44.205,380.369L49.339,380.297L52.448,378.344L55.123,378.2L56.352,379.357L64.089,379.429L66.403,377.404L69.729,377.694L71.609,368.945L74.356,361.208L76.583,358.157L79.259,358.302L79.475,354.47L81.572,353.674L83.958,349.987L84.537,342.395L85.838,339.358L81.5,335.309L80.922,332.055L83.452,327.789L89.092,327.645L95.238,322.511L96.41,318.191L93.865,316.785L90.182,316.852L88.105,311.427L83.417,307.877L79.533,303.524L73.238,303.323L67.987,303.558C67.987,303.558 59.883,301.147 59.816,301.147C59.749,301.147 53.075,305.177 53.052,305.231C52.982,305.222 51.244,305.098 51.244,305.098L44.948,312.398L37.046,310.59L37.046,296.526L33.965,295.856L33.228,293.043L21.263,313.479L37.893,335.821L36.953,336.833L36.736,340.232L34.784,342.184L30.518,343.051L27.842,345.221L28.421,355.705L29.216,357.729L23.938,363.875L23.866,368.503L26.035,372.046L24.733,373.781L25.804,377.996L27.467,380.671L27.322,385.444L23.924,391.228L23.201,395.928L21.248,396.723L20.019,398.531L19.151,400.772L16.765,400.266L16.259,401.351L25.608,407.766ZM53.052,305.231C53.055,305.231 53.055,305.232 53.052,305.232C53.052,305.232 53.051,305.232 53.052,305.231Z" style="fill:rgb(227,249,255);fill-rule:nonzero;stroke:rgb(0,178,227);stroke-width:1px;"/>
    </g>
</svg>
