<?xml version="1.0" encoding="UTF-8" ?>
<!DOCTYPE svg PUBLIC "-//W3C//DTD SVG 1.1//EN" "http://www.w3.org/Graphics/SVG/1.1/DTD/svg11.dtd">
<svg width="1200pt" height="920pt" viewBox="0 0 1200 920" version="1.1" xmlns="http://www.w3.org/2000/svg">
<g id="#ed1c24ff">
<path fill="#ed1c24" opacity="1.00" d=" M 586.34 15.50 C 623.16 13.39 660.38 29.72 683.76 58.24 C 708.14 87.00 717.17 127.71 707.61 164.14 C 698.95 198.74 673.71 228.62 641.15 243.12 C 623.06 251.26 602.93 254.86 583.14 253.32 C 546.96 250.80 512.66 230.57 492.79 200.25 C 476.99 176.60 470.26 147.17 474.02 118.98 C 477.44 91.91 490.63 66.24 510.59 47.64 C 530.91 28.32 558.32 16.71 586.34 15.50 Z" />
<path fill="#ed1c24" opacity="1.00" d=" M 95.10 177.97 C 96.66 172.84 101.60 168.95 106.83 168.12 C 110.57 167.45 114.22 169.76 115.87 173.04 C 126.56 193.78 135.70 215.33 147.40 235.54 C 153.94 246.14 160.30 256.98 168.61 266.33 C 173.71 271.71 179.71 276.99 187.18 278.51 C 190.78 279.39 194.56 276.99 195.27 273.35 C 197.43 265.32 198.68 256.94 202.41 249.40 C 206.54 240.48 213.37 232.75 221.91 227.84 C 225.43 225.87 229.88 224.36 233.76 226.22 C 236.36 227.54 237.42 230.90 236.38 233.57 C 230.51 250.73 224.43 267.96 221.51 285.92 C 220.48 295.81 218.96 305.71 216.24 315.29 C 212.84 325.92 208.83 336.38 203.77 346.34 C 205.04 351.25 206.52 356.09 207.82 360.99 C 208.36 362.72 208.60 364.72 210.05 365.98 C 250.39 404.95 290.79 443.88 331.09 482.89 C 404.99 414.53 478.92 346.19 552.90 277.91 C 577.99 281.53 603.60 281.35 628.70 277.91 C 702.64 346.22 776.60 414.51 850.47 482.90 C 891.00 443.60 931.77 404.55 972.22 365.19 C 974.60 359.29 975.90 352.89 977.66 346.74 C 971.55 332.66 965.06 318.39 962.51 303.09 C 960.73 294.75 960.47 286.19 958.57 277.88 C 955.31 263.17 950.49 248.86 945.52 234.65 C 944.69 232.50 944.34 229.91 945.84 227.96 C 948.06 224.81 952.61 224.98 955.88 226.15 C 961.97 228.37 967.02 232.74 971.36 237.45 C 979.19 246.13 982.89 257.57 985.12 268.83 C 985.99 272.20 986.45 276.61 990.12 278.14 C 994.62 279.62 999.22 277.17 1003.00 274.89 C 1013.66 267.93 1020.60 256.89 1027.42 246.43 C 1042.10 224.02 1052.41 199.20 1064.46 175.37 C 1066.04 171.48 1069.39 167.54 1074.02 168.06 C 1080.99 168.67 1088.60 175.53 1086.12 183.02 C 1083.52 192.81 1079.23 202.05 1075.44 211.42 C 1069.06 226.76 1062.67 242.11 1056.47 257.53 C 1059.22 257.74 1060.40 254.73 1061.83 252.90 C 1068.52 241.76 1073.76 229.81 1078.91 217.89 C 1082.54 209.70 1085.11 201.07 1088.93 192.96 C 1091.82 187.20 1095.25 181.11 1101.12 177.93 C 1107.84 174.23 1117.30 180.24 1116.58 187.99 C 1116.04 197.27 1111.39 205.60 1108.12 214.13 C 1102.23 227.85 1095.86 241.35 1090.12 255.13 C 1088.35 259.83 1085.97 264.45 1085.77 269.57 C 1089.30 267.93 1091.06 264.27 1093.23 261.25 C 1100.45 249.92 1106.70 238.01 1113.42 226.38 C 1117.32 219.91 1120.89 212.58 1127.53 208.50 C 1132.84 205.39 1139.17 209.76 1140.73 215.07 C 1142.21 218.47 1140.83 222.08 1139.13 225.09 C 1127.56 246.34 1116.11 267.67 1105.32 289.32 C 1107.74 288.80 1109.80 287.38 1111.52 285.64 C 1120.30 277.25 1127.88 267.71 1135.15 258.00 C 1137.28 255.25 1139.34 252.22 1142.53 250.58 C 1148.59 246.83 1157.82 254.15 1154.80 260.91 C 1151.61 268.71 1145.60 274.89 1140.70 281.62 C 1133.07 291.35 1125.43 301.07 1117.75 310.76 C 1114.98 314.36 1111.80 317.67 1109.53 321.62 C 1104.33 331.21 1098.71 340.59 1092.53 349.57 C 1084.61 359.57 1074.35 367.33 1064.47 375.27 C 1057.60 380.85 1049.97 385.50 1043.23 391.17 C 990.38 468.71 937.78 546.42 884.96 623.99 C 879.11 631.88 872.62 640.46 862.94 643.72 C 854.46 646.40 846.55 640.83 840.39 635.65 C 828.88 625.32 816.25 616.38 804.20 606.71 C 743.41 559.22 682.62 511.72 621.82 464.22 C 611.40 456.20 601.20 447.87 590.64 440.04 C 532.21 485.82 473.66 531.45 415.19 577.18 C 393.99 593.67 372.92 610.34 351.63 626.70 C 344.39 632.45 338.01 639.67 329.31 643.28 C 323.42 645.69 316.67 643.98 311.74 640.26 C 302.00 633.21 295.77 622.66 289.07 612.93 C 239.03 539.29 188.99 465.64 138.96 392.00 C 136.85 389.02 133.38 387.51 130.58 385.30 C 116.52 374.96 102.20 364.61 90.55 351.50 C 82.93 341.46 76.99 330.27 70.66 319.41 C 58.15 303.51 45.46 287.75 33.21 271.65 C 30.47 267.76 27.27 263.87 26.29 259.10 C 25.41 254.77 29.32 251.22 33.02 249.88 C 37.65 248.39 41.84 252.03 44.45 255.46 C 52.61 266.23 60.84 277.07 70.76 286.30 C 72.28 287.83 74.20 288.83 76.28 289.34 C 65.49 267.81 54.13 246.55 42.59 225.41 C 41.26 222.78 39.60 219.93 40.36 216.87 C 41.24 211.58 46.25 206.29 51.97 207.70 C 57.22 209.31 60.43 214.23 63.40 218.51 C 72.59 233.20 80.13 248.89 89.72 263.34 C 91.46 265.59 92.87 268.68 95.94 269.30 C 95.31 264.18 93.12 259.45 91.25 254.70 C 83.89 236.98 75.40 219.74 68.42 201.87 C 66.47 196.45 64.12 190.69 65.33 184.84 C 66.27 180.37 70.68 177.41 75.01 176.84 C 79.55 176.37 83.42 179.46 86.21 182.69 C 92.89 190.78 95.92 200.99 99.68 210.60 C 105.11 224.02 110.94 237.33 117.97 250.01 C 119.91 252.89 121.32 256.78 124.99 257.83 C 116.68 235.61 106.75 214.02 98.24 191.88 C 96.78 187.38 94.56 182.81 95.10 177.97 Z" />
<path fill="#ed1c24" opacity="1.00" d=" M 997.18 699.23 C 1016.08 688.15 1038.50 685.71 1059.99 684.91 C 1081.50 684.61 1103.55 685.63 1123.97 693.01 C 1136.47 697.47 1148.10 705.32 1155.29 716.67 C 1166.03 733.31 1169.09 753.54 1169.91 772.97 C 1170.45 792.90 1169.34 813.40 1162.10 832.20 C 1158.59 841.36 1153.12 849.79 1145.89 856.46 C 1157.49 864.06 1168.97 871.86 1180.58 879.45 C 1165.55 887.87 1150.41 896.10 1135.49 904.69 C 1123.00 896.11 1110.60 887.41 1098.15 878.79 C 1096.24 877.54 1094.37 875.65 1091.89 876.21 C 1067.32 878.12 1042.15 878.28 1018.19 871.78 C 1004.33 867.87 990.58 861.07 981.74 849.33 C 969.67 833.61 965.89 813.33 964.62 794.01 C 963.61 773.25 964.44 751.92 971.39 732.14 C 976.07 718.75 984.76 706.43 997.18 699.23 M 1058.46 718.70 C 1051.99 720.32 1046.91 725.75 1045.28 732.15 C 1043.05 740.56 1042.68 749.33 1042.19 757.98 C 1041.62 773.99 1041.60 790.02 1042.27 806.03 C 1042.82 814.44 1043.17 823.00 1045.60 831.13 C 1047.65 837.96 1053.82 843.12 1060.86 844.13 C 1068.53 845.33 1077.44 844.86 1083.48 839.39 C 1088.13 835.27 1089.67 828.94 1090.49 823.03 C 1092.50 808.78 1092.42 794.36 1092.57 780.00 C 1092.31 764.96 1092.54 749.78 1089.73 734.95 C 1088.68 728.93 1085.32 723.02 1079.71 720.21 C 1073.16 717.05 1065.42 716.97 1058.46 718.70 Z" />
<path fill="#ed1c24" opacity="1.00" d=" M 19.43 688.47 C 43.62 688.44 67.80 688.53 91.99 688.43 C 99.55 730.29 106.80 772.21 114.21 814.10 C 114.41 815.16 114.82 816.21 115.18 817.25 C 124.64 774.40 133.35 731.39 142.52 688.48 C 165.13 688.46 187.73 688.46 210.33 688.48 C 219.95 730.34 229.57 772.20 239.19 814.06 C 239.48 815.13 239.89 816.21 240.31 817.25 C 247.51 774.40 253.90 731.39 260.78 688.48 C 284.99 688.46 309.21 688.47 333.42 688.48 C 317.04 750.21 300.54 811.92 284.25 873.68 C 256.79 873.81 229.32 873.69 201.86 873.73 C 193.36 832.02 185.29 790.21 176.54 748.55 C 175.33 751.53 174.93 754.74 174.28 757.88 C 166.52 796.50 158.76 835.11 151.00 873.73 C 123.56 873.73 96.12 873.72 68.68 873.74 C 52.25 811.98 35.85 750.23 19.43 688.47 Z" />
<path fill="#ed1c24" opacity="1.00" d=" M 361.68 688.48 C 386.70 688.46 411.73 688.48 436.75 688.47 C 436.77 750.25 436.75 812.02 436.76 873.79 C 411.73 873.80 386.71 873.79 361.69 873.80 C 361.67 812.02 361.69 750.25 361.68 688.48 Z" />
<path fill="#ed1c24" opacity="1.00" d=" M 482.75 688.48 C 510.91 688.46 539.06 688.46 567.21 688.48 C 583.44 726.54 599.72 764.58 615.92 802.66 C 615.98 764.60 615.93 726.54 615.94 688.48 C 639.35 688.45 662.76 688.47 686.17 688.48 C 686.16 750.23 686.17 811.98 686.16 873.73 C 658.55 873.73 630.94 873.73 603.33 873.73 C 586.57 835.61 569.79 797.50 553.03 759.38 C 552.91 797.50 553.02 835.62 552.97 873.74 C 529.56 873.70 506.15 873.78 482.74 873.70 C 482.78 811.96 482.75 750.22 482.75 688.48 Z" />
<path fill="#ed1c24" opacity="1.00" d=" M 782.23 688.47 C 813.70 688.47 845.18 688.47 876.66 688.47 C 900.08 750.22 923.48 811.97 946.88 873.72 C 920.25 873.74 893.61 873.73 866.98 873.73 C 864.48 862.95 861.78 852.22 859.41 841.42 C 839.46 841.22 819.51 841.38 799.56 841.34 C 797.01 852.14 794.46 862.94 791.90 873.74 C 765.27 873.72 738.64 873.73 712.01 873.73 C 735.39 811.97 758.82 750.22 782.23 688.47 M 829.35 725.65 C 822.13 752.03 815.45 778.56 808.46 805.00 C 822.44 805.00 836.43 805.00 850.42 805.00 C 846.09 788.36 841.72 771.73 837.37 755.10 C 834.62 745.30 832.60 735.29 829.35 725.65 Z" />
</g>
</svg>
