<?xml version="1.0" encoding="UTF-8" standalone="no"?>
<svg
   xmlns:dc="http://purl.org/dc/elements/1.1/"
   xmlns:cc="http://creativecommons.org/ns#"
   xmlns:rdf="http://www.w3.org/1999/02/22-rdf-syntax-ns#"
   xmlns:svg="http://www.w3.org/2000/svg"
   xmlns="http://www.w3.org/2000/svg"
   xmlns:sodipodi="http://sodipodi.sourceforge.net/DTD/sodipodi-0.dtd"
   xmlns:inkscape="http://www.inkscape.org/namespaces/inkscape"
   width="225pt"
   height="225pt"
   viewBox="0 0 225 225"
   version="1.1"
   id="svg80"
   sodipodi:docname="cabal.svg"
   inkscape:version="1.0.2-2 (e86c870879, 2021-01-15)"
   inkscape:export-filename="F:\Mis imagenes\Graficolor\Logos\Politica\cabal.png"
   inkscape:export-xdpi="169"
   inkscape:export-ydpi="169">
  <metadata
     id="metadata86">
    <rdf:RDF>
      <cc:Work
         rdf:about="">
        <dc:format>image/svg+xml</dc:format>
        <dc:type
           rdf:resource="http://purl.org/dc/dcmitype/StillImage" />
      </cc:Work>
    </rdf:RDF>
  </metadata>
  <defs
     id="defs84" />
  <sodipodi:namedview
     pagecolor="#ffffff"
     bordercolor="#666666"
     borderopacity="1"
     objecttolerance="10"
     gridtolerance="10"
     guidetolerance="10"
     inkscape:pageopacity="0"
     inkscape:pageshadow="2"
     inkscape:window-width="1920"
     inkscape:window-height="1017"
     id="namedview82"
     showgrid="false"
     inkscape:zoom="1.4166667"
     inkscape:cx="228.25839"
     inkscape:cy="155.83568"
     inkscape:window-x="-8"
     inkscape:window-y="-8"
     inkscape:window-maximized="1"
     inkscape:current-layer="svg80"
     inkscape:document-rotation="0" />
  <path
     fill="#365ea6"
     opacity="1"
     d="m 94.414564,64.004896 c 5.14059,-15.39305 10.309896,-30.7861 15.594076,-46.136072 4.91084,12.262747 10.46785,24.252669 15.551,36.429261 27.21066,-9.462705 54.40696,-18.968488 81.63198,-28.373756 -22.08443,20.820823 -44.14014,41.656005 -66.28201,62.405032 -0.93335,1.378482 -3.66159,2.48414 -2.39798,4.508785 5.557,16.900764 11.70273,33.600494 17.43205,50.443824 -16.59922,-9.33347 -33.06921,-18.93977 -49.82638,-27.9717 -13.425836,9.27604 -25.860896,20.00235 -39.042631,29.68044 3.776465,-14.96227 7.911915,-29.82403 11.544785,-44.82938 C 67.76391,94.475094 57.195547,88.228847 46.35436,82.49953 62.336136,76.224565 78.475864,70.380376 94.414564,64.004896 Z"
     id="path25"
     style="stroke-width:1.43592" />
  <path
     fill="#365ea6"
     opacity="1"
     d="m 6.7517191,184.66515 c 0.717959,-11.21452 11.3868359,-19.78696 22.3141779,-19.85876 6.734459,-0.34462 12.837115,3.05851 18.035141,6.99293 -1.866695,2.35491 -3.71903,4.72417 -5.542647,7.12216 -3.259536,-2.46978 -6.662663,-5.37034 -10.97042,-5.55701 -5.987781,-0.3877 -11.817612,3.77647 -13.397123,9.56322 -2.728245,7.85448 3.316973,17.56129 11.803253,17.79103 4.767251,0.51693 8.759105,-2.4985 12.549931,-4.91084 1.881053,2.1108 3.776466,4.19288 5.65752,6.30368 -5.872908,4.76726 -13.153016,8.64424 -20.964415,7.32319 C 14.290292,208.5014 4.9711791,196.45404 6.7517191,184.66515 Z"
     id="path27"
     style="stroke-width:1.43592" />
  <path
     fill="#365ea6"
     opacity="1"
     d="m 66.356709,165.61051 c 3.360055,-0.0144 6.734455,-0.0144 10.094505,-0.0144 6.26061,14.48842 12.44942,29.00556 18.65259,43.5227 -3.44621,0 -6.89241,-0.0144 -10.33862,0 -1.23489,-2.84312 -2.44106,-5.7006 -3.64723,-8.55808 -6.70574,0.0431 -13.42584,0.0144 -20.131581,0.0574 -1.163095,2.82876 -2.29747,5.65752 -3.417487,8.50064 -3.403128,0 -6.791896,0 -10.180665,0 6.318043,-14.50278 12.621727,-29.01992 18.968488,-43.50834 m -2.168237,27.12451 c 4.609302,-0.0144 9.218602,-0.0287 13.842262,-0.0287 -2.34055,-5.62881 -4.58059,-11.28633 -6.82062,-16.9582 -2.4267,5.6288 -4.695454,11.31504 -7.021642,16.98692 z"
     id="path29"
     style="stroke-width:1.43592" />
  <path
     fill="#365ea6"
     opacity="1"
     d="m 99.583874,165.58179 c 8.098576,0.20103 16.225876,-0.35898 24.310096,0.28718 6.00214,0.31591 12.33455,5.3129 11.30068,11.84633 -0.27282,3.77647 -3.50364,6.1601 -6.34676,8.17038 4.10673,1.92413 7.99807,5.37034 7.82576,10.3099 0.83283,6.36112 -4.76725,11.2576 -10.61144,12.19095 -8.73039,1.46464 -17.6618,0.41642 -26.463976,0.73232 0.0144,-14.51714 0.0287,-29.01992 -0.0144,-43.53706 m 9.907836,7.84012 c 0,3.23081 0,6.46163 0,9.70681 4.17852,-0.11488 8.40012,0.2441 12.53557,-0.4595 3.71903,-1.16309 4.48006,-6.87805 0.68924,-8.47192 -4.26468,-1.26361 -8.8309,-0.60308 -13.22481,-0.77539 m 0,17.17359 c 0,3.46056 0,6.92112 0,10.38169 4.68109,-0.0862 9.52014,0.51693 14.10072,-0.76104 4.12109,-1.46464 3.94878,-7.86883 -0.33026,-9.00321 -4.49443,-1.07694 -9.18988,-0.48821 -13.77046,-0.61744 z"
     id="path31"
     style="stroke-width:1.43592" />
  <path
     fill="#365ea6"
     opacity="1"
     d="m 138.87061,209.11885 c 6.31804,-14.51714 12.60736,-29.04864 18.96848,-43.55142 3.40313,0.0287 6.80626,0.0431 10.20939,0.0718 6.10265,14.5315 12.3489,28.9912 18.52335,43.47962 -3.50364,0 -6.99293,-0.0287 -10.49657,-0.0718 -1.13437,-2.82876 -2.28311,-5.65752 -3.41748,-8.48628 -6.73446,0.0431 -13.46892,0.0574 -20.18902,-0.0144 -1.1631,2.82876 -2.29747,5.65752 -3.40313,8.515 -3.40313,0.0431 -6.7919,0.0431 -10.19502,0.0574 m 16.81461,-16.38383 c 4.60929,-0.0144 9.20424,-0.0287 13.81353,-0.0431 -2.3549,-5.65752 -4.56622,-11.37248 -6.87805,-17.04436 -2.32619,5.68624 -4.6093,11.4012 -6.93548,17.08744 z"
     id="path33"
     style="stroke-width:1.43592" />
  <path
     fill="#365ea6"
     opacity="1"
     d="m 191.09497,165.63923 c 3.25954,-0.0287 6.50472,-0.0574 9.74989,-0.10052 0.11488,11.63094 0.0144,23.24753 0.0718,34.87847 6.21753,-0.0431 12.4207,-0.0431 18.63823,-0.0144 0,2.90056 0,5.80111 0,8.71603 -9.47707,-0.0144 -18.96849,0 -28.44556,0 0.0144,-14.50278 0.0144,-28.9912 -0.0144,-43.47962 z"
     id="path35"
     style="stroke-width:1.43592" />
</svg>
