<svg xmlns="http://www.w3.org/2000/svg" viewBox="0 0 1000 1000"><path fill="#080800" d="M18.116 487.018C24.643 284.439 154.141 109.05 345.431 43.602c63.921-21.87 129.671-29.6 196.985-23.8 208.897 17.995 382.457 168.626 429.42 372.657 55.596 241.534-81.2 486.909-315.714 566.177-62.037 20.969-125.821 29.047-191.072 24.098-180.872-13.72-337.904-126.33-408.866-293.061-27.474-64.55-39.812-132.056-38.068-202.655M598.294 37.2c-44.186-9.053-88.774-12.306-133.742-8.484-127.962 10.876-235.405 63.987-319.83 160.497C56.32 290.273 17.798 409.237 29.376 542.947c10.943 126.376 65.328 232.246 160.997 315.366 99.163 86.157 215.616 124.592 346.637 114.757 128.817-9.67 236.834-63.992 321.265-161.508 93.599-108.106 131.522-234.901 111.399-376.375C948.007 282.874 867.743 167.973 735.64 89.49c-42.39-25.186-88.321-41.801-137.347-52.29"/><path fill="#f9e900" d="M598.71 37.273c48.61 10.416 94.54 27.031 136.931 52.217 132.101 78.483 212.366 193.384 234.032 345.697 20.123 141.474-17.8 268.269-111.4 376.375-84.43 97.516-192.447 151.839-321.264 161.508-131.02 9.835-247.474-28.6-346.637-114.757-95.669-83.12-150.054-188.99-160.997-315.366-11.578-133.71 26.944-252.675 115.348-353.734 84.424-96.51 191.867-149.62 319.83-160.497 44.967-3.822 89.555-.57 134.157 8.557M40.813 473.271c-2.787 46.043 1.173 91.482 11.994 136.338 47.922 198.644 221.937 342.493 426.304 352.064 62.302 2.917 122.883-6.262 181.478-27.852 211.075-77.773 335.34-296.628 293.442-518.17-21.596-114.195-79.11-207.234-170.465-278.83-70.737-55.437-151.425-86.755-241-94.95-48.663-4.453-96.88-1.461-144.451 9.644-99.948 23.333-183.454 74.095-249.61 152.513-65.33 77.44-100.988 167.144-107.692 269.243"/><path fill="#040400" d="M40.844 472.803c6.673-101.63 42.33-191.335 107.66-268.775 66.157-78.418 149.663-129.18 249.61-152.513 47.571-11.105 95.79-14.097 144.452-9.644 89.575 8.195 170.263 39.513 241 94.95 91.354 71.596 148.87 164.635 170.465 278.83 41.898 221.542-82.367 440.397-293.442 518.17-58.595 21.59-119.176 30.77-181.478 27.852-204.367-9.57-378.382-153.42-426.304-352.064-10.821-44.856-14.781-90.295-11.963-136.806m237.22-354.308c-41.14 24.15-78.092 53.574-109.008 89.917C68.606 326.493 35.287 461.89 72.767 611.932c51.127 204.676 242.393 343.7 452.783 330.865 141.065-8.606 254.235-71.417 336.432-186.17 72.646-101.42 96.199-215.32 73.808-337.925-17.831-97.638-64.724-179.937-138.397-246.26-80.292-72.284-175.026-110.235-283.101-113.75-84.109-2.735-162.664 17.417-236.228 59.803"/><path fill="#feee00" d="M278.382 118.314c73.246-42.205 151.801-62.357 235.91-59.622 108.075 3.515 202.81 41.466 283.101 113.75 73.673 66.323 120.566 148.622 138.397 246.26 22.391 122.604-1.162 236.505-73.808 337.925-82.197 114.753-195.367 177.564-336.432 186.17-210.39 12.835-401.656-126.189-452.783-330.865-37.48-150.041-4.162-285.439 96.289-403.52 30.916-36.343 67.868-65.767 109.326-90.098m-61.14 454.7H198.39l.002 1.894c6.559 0 13.117 0 20.602.048 119.546.794 239.092 2.01 358.64 2.215 65.427.113 130.858-1.48 197.205-2.09h12.693l-.069-1.768c-4.541 0-9.083 0-14.539-.062-184.918-3.54-369.836-3.522-555.683-.237m57.733-178.728-8.733 59.36c14.318-6.349 24.583-24.606 22.552-40.745-2.578-20.482-3.093-40.834 4.312-60.628 1.176-3.142 2.02-6.408 2.944-9.378 1.263 9.225 1.336 18.718 3.993 27.422 6.977 22.863 14.5 45.6 22.883 67.983 10.2 27.232 14.67 55.113 13.06 84.076-.34 6.095-1.877 11.334-7.166 15.124-4.97 3.563-4.683 9.193-3.686 14.141.993 4.923 5.838 5.266 10.081 5.511 1.825.106 3.663.057 5.493.003 12.822-.376 25.642-.824 38.466-1.128 3.411-.08 6.889.255 8.142-3.954 1.19-3.994 1.358-7.797-2.08-11.042-2.294-2.165-4.273-4.661-6.443-6.962-5.443-5.77-6.283-12.257-4.342-19.882 1.362-5.348 1.543-11.105 1.497-16.673-.05-6.14-1.447-12.282-1.359-18.41.083-5.695.52-11.653 2.309-16.99 2.14-6.38 6.426-12.02 8.799-18.35 3.445-9.193 9.29-13.154 19.25-13.113 26.315.11 51.962-4.419 77.008-12.557 12.58-4.088 25.218-8.083 38.027-11.346 6.828-1.739 14.076-1.83 21.438-2.702l-.786-4.31h-7.094l-.043-.622 6.704-2.238-1.05-15.38c1.045 1.392 1.552 2.92 2.078 4.442 4.295 12.41 8.353 24.91 12.974 37.196 3.096 8.23 8.647 14.622 15.593 20.298 23.983 19.6 43.638 42.839 57.715 70.664 4.613 9.118 5.426 17.845 1.399 27.314-3.254 7.65 2.156 15.082 10.352 14.21 7.4-.788 14.836-1.947 22.022-3.835 8.276-2.174 15.926-5.968 21.429-12.954 4.65-5.905 3.56-9.602-3.095-12.913-7.18-3.573-11.047-9.302-11.823-17.642-.602-6.466-1.439-13.527-4.495-19.034-10.407-18.75-22.009-36.831-32.75-55.403-2.252-3.894-3.21-8.71-4.016-13.235-2.015-11.3-3.476-22.696-5.39-34.015-2-11.822-4.27-23.598-6.42-35.393l1.038-.383 5.875 16.706c1.612-4.933 2.866-9.594 4.65-14.042 2.934-7.322 3.08-7.266-2.866-12.419-.63-.545-1.253-1.106-1.933-1.583-13.627-9.552-27.208-19.17-40.908-28.616-17.605-12.138-31.39-43.007-14.723-67.619 2.89-4.269 5.513-8.722 8.193-13.13.905-1.487 1.605-3.097 2.87-5.574-2.683.187-4.31.155-5.882.434-11.61 2.06-23.183 4.354-34.822 6.24-12.96 2.099-25.875 4.708-39.18 2.369-15.226-2.676-30.465-5.57-45.825-7.083-12.508-1.234-25.32-1.68-37.773-.359-8.139.864-16.103 5.017-23.752 8.55-23.726 10.955-47.164 22.52-68.499 37.803-3.026 2.167-6.223 4.966-7.746 8.219-9.66 20.628-18.941 41.435-28.208 62.245-7.136 16.026-9.959 32.974-10.258 51.332m461.134 14.232c-.249 7.653.217 15.41-.879 22.94-3.564 24.509-7.902 48.904-11.527 73.404-1.75 11.825-2.584 23.787-3.806 35.689-.397 3.867 1.418 5.968 5.28 6.29 1.987.166 4.157.839 5.914.268 1.61-.523 3.577-2.203 3.975-3.74.908-3.505.66-7.295 1.394-10.864 4.985-24.266 9.6-48.623 15.293-72.724 8.79-37.217 16.316-74.49 12.088-113.035-2.197-20.028-6.728-39.458-18.768-56.103-3.833-5.299-5.772-10.378-5.44-16.843.252-4.936.177-10.405-4.567-13.608-7.85-5.298-12.15-12.944-15.534-21.408-1.418-3.547-3.26-6.923-4.868-10.396-3.974-8.577-10.975-13.05-20.117-13.25-8.275-.182-16.58.792-24.867 1.348-6.749.452-12.91-.464-19.027-4.09-5.127-3.038-11.178-5.595-17.022-6.12-11.574-1.041-23.29-.622-34.944-.553-1.491.009-3.556 1.148-4.37 2.403-8.415 12.973-16.783 25.982-24.85 39.173-7.596 12.416-6.735 25.271-1.33 38.303 5.804 13.99 16.373 23.2 29.369 30.089 16.469 8.728 30.222 20.54 41.073 35.742 5.018 7.03 10.145 6.605 13.277-1.534 3.278-8.52 5.772-17.356 8.303-26.142 1.482-5.14 2.368-10.453 3.521-15.688l1.367.042c0 2.863.068 5.728-.017 8.588-.111 3.753 1.65 5.385 5.376 5.591 5.65.313 11.28 1.263 16.924 1.317 4.235.04 5.714 2.098 7.31 5.64 2.635 5.845 6.1 11.333 9.424 16.845 1.715 2.842 4.357 5.187 5.756 8.145 4.905 10.369 9.363 20.95 14.21 31.347 1.024 2.2 2.977 3.966 5.254 6.901l2.802-13.226 1.558.042c.818 9.409 1.636 18.817 2.465 29.217M501.221 516.675c1.358 9.334-1.27 16.907-9.15 22.667-2.104 1.538-3.696 4.37-4.524 6.932-1.466 4.537 1.549 8.745 5.922 8.77 13.826.08 27.653.12 41.479-.02 5.23-.052 7.783-4.581 4.981-9.029-1.828-2.902-4.452-5.348-6.926-7.788-3.71-3.658-3.977-7.101.558-9.726 5.492-3.18 6.9-7.889 7.837-13.525 3.72-22.366 8.966-44.298 19.271-64.738.673-1.335.349-3.955-.57-5.187-7.748-10.38-13.656-21.688-17.57-33.999-.909-2.858-2.242-3.638-5.034-3.188-6.903 1.113-13.846 1.983-20.754 3.068-7.41 1.163-7.837 2.55-7.658 9.804.53 21.43 1.057 42.887.474 64.303-.196 7.2-3.731 14.31-5.74 21.462-.866 3.087-1.73 6.175-2.596 10.194m-217.893-51.897c-5.537 20.727-14.043 39.81-30.128 54.746-1.447 1.344-2.66 2.995-3.75 4.655-2.621 3.989-2.846 8.091 1.27 11.051 8.736 6.283 17.58 12.448 26.692 18.163 2.803 1.758 6.578 2.373 9.983 2.677 5.893.527 8.813-2.594 8.055-8.45-.574-4.433-1.735-8.796-2.743-13.165-.974-4.219.59-7.223 3.649-10.156 2.659-2.55 5.25-5.584 6.7-8.914 7.219-16.594 14.149-33.318 20.901-50.109.881-2.19.83-5.262.051-7.527-3.734-10.85-7.89-21.554-11.853-32.326-3.532-9.596-7.009-19.212-10.51-28.82l-1.266-.086c-5.594 22.497-11.188 44.993-17.05 68.261m328.923 239.715v14.176c-1.498-.706-2.044-1.622-2.557-2.555-4.972-9.035-9.88-18.105-14.966-27.074-.803-1.415-2.318-3.247-3.658-3.385-4.247-.436-8.567-.16-12.897-.16v64.408h14.999v-33.1c6.325 9.91 11.777 19.967 17.352 29.955.73 1.308 2.02 3.135 3.172 3.23 4.536.375 9.12.153 13.73.153v-64.348h-15.175zm-377.747 26.919v-8.215h24.6v-13.542h-24.331V700.9h26.296v-15.111h-42.538v64.041h43.377v-14.988c-8.026 0-15.815.112-23.595-.11-1.29-.037-2.537-1.527-3.809-3.319m500.57-45.89c-.643 1.25-1.804 2.485-1.84 3.753-.189 6.49-.087 12.99-.087 19.485v41.123h43.58v-15.291h-27.081v-11.697h24.277V709.47h-24.242v-8.684h26.324v-15.29c-13.448 0-26.73 0-40.932.027m-332.92-.031H362.52v64.281h43.29v-15.09h-27.125v-11.71h24.325V709.54h-24.296v-8.714h26.502c0-4.502.123-8.636-.097-12.752-.047-.89-1.325-1.716-2.967-2.583m106.893 64.658c1.622-3.333 3.245-6.666 5.09-10.46 1.323 0 3.138-.038 4.951.009 3.973.102 8.587-.927 11.7.773 2.214 1.21 2.405 6.121 3.523 9.455h16.11c-.38-1.57-.632-2.855-1.006-4.103-4.764-15.93-9.523-31.863-14.331-47.78-3.874-12.827-3.902-12.713-17.499-12.645-3.08.016-4.253 1.027-5.102 3.937-5.54 18.98-11.307 37.893-16.97 56.837-.352 1.18-.453 2.435-.731 3.99 4.727 0 9.04 0 14.265-.013m-37.023-34.615v-5.032h-19.84v-9.523h23.032v-15.167h-39.002v64.036h15.937v-25.92h19.873zm232.91-22.975v-6.753h-48.456v15.215h16.29v48.784h16.088v-48.963h16.079zM291.93 710.5v39.429h40.698v-16.31h-24.843v-47.828H291.93zm71.14-71.947v-9.844l1.311-.034 5.838 24.509c7.261 1.23 7.318 1.172 8.847-5.52 1.361-5.957 2.784-11.9 4.18-17.848l.644.08 1.482 23.504h6.413v-37.185H380.66l-6.237 23.391-.935-.096-6.275-23.226h-10.997v37.076h6.857zm134.974-10.04v24.884h7.338v-23.542c4.575 7.352 8.67 13.248 12.019 19.54 2.52 4.737 5.789 5.168 10.012 3.798v-37.078h-6.854v22.66c-4.682-5.806-8.667-11.69-11.958-17.94-2.435-4.625-5.55-5.978-10.557-4.329zm-177.901 4.178c-1.327-12.067-8.323-18.353-19.719-17.718-10.023.558-16.331 8.017-16.464 19.466-.122 10.558 4.691 17.635 13.355 19.635 13.498 3.117 22.675-5.096 22.828-21.383m321.01-1.441c-1.192-8.948-4.86-14.013-12.12-14.828-6.158-.69-12.455-.142-18.768-.142v37.323c6.003 0 11.823.472 17.533-.117 7.457-.769 12.08-5.811 13.179-13.455.375-2.61.187-5.301.177-8.781m118.987 22.494c8.905-.652 13.756-3.856 15.496-11.373 1.97-8.514 1.987-16.934-5.257-23.49-1.06-.96-2.552-1.885-3.91-1.995-6.992-.565-14.005-.858-20.943-1.243v38.101zm-317.991-6.092c-3.928-1.31-5.183-4.186-5.122-8.123.12-7.768.035-15.54.035-23.3h-7.726c0 7.752-.15 15.22.033 22.681.318 12.932 8.75 18.839 21.193 14.987 3.89-1.204 7.467-3.506 7.65-7.682.44-10.028.143-20.089.143-30.1h-6.81c0 7.975.172 15.784-.054 23.582-.19 6.533-1.955 7.997-9.342 7.955m257.769-23.123c-.872-2.155-1.474-4.487-2.72-6.399-.708-1.086-2.475-2.07-3.755-2.058-1.889.02-4.988.458-5.463 1.598-4.905 11.75-9.384 23.675-14.162 36.017 3.93-.428 8.301 2.066 9.32-3.668.757-4.263 3.2-5.694 7.331-5.091 1.793.261 3.673.208 5.482.006 2.906-.323 4.796.517 5.301 3.628.984 6.056 5.019 5.768 9.98 4.642-3.77-9.497-7.43-18.716-11.314-28.675m-473.464.704c5.777-6.009 12.319-3.715 15.648 2.279l6.598-1.062c-1.534-8.999-10.58-12.89-18.588-11.136-10.955 2.4-16.553 14.466-12.474 26.833 2.417 7.326 8.585 11.726 16.254 11.594 7.746-.133 12.502-4.028 14.961-12.574l-6.503-1.903c-.427.588-.83.936-.971 1.368-1.433 4.395-4.454 6.731-9.034 6.118-4.774-.64-7.443-3.936-7.529-8.585-.075-4.065.775-8.147 1.638-12.932m339.528 28.235h6.72v-37.274h-7.327c0 12.393 0 24.512.607 37.274"/><path fill="#010100" d="M274.996 393.83c.277-17.902 3.1-34.85 10.236-50.876 9.267-20.81 18.548-41.617 28.208-62.245 1.523-3.253 4.72-6.052 7.746-8.22 21.335-15.282 44.773-26.847 68.499-37.803 7.649-3.532 15.613-7.685 23.752-8.549 12.453-1.32 25.265-.875 37.773.359 15.36 1.514 30.6 4.407 45.824 7.083 13.306 2.339 26.22-.27 39.181-2.37 11.639-1.885 23.211-4.179 34.822-6.24 1.572-.278 3.2-.246 5.882-.433-1.265 2.477-1.965 4.087-2.87 5.574-2.68 4.408-5.302 8.861-8.193 13.13-16.668 24.612-2.882 55.48 14.723 67.62 13.7 9.445 27.281 19.063 40.908 28.615.68.477 1.303 1.038 1.933 1.583 5.946 5.153 5.8 5.097 2.865 12.419-1.783 4.448-3.037 9.109-4.649 14.042l-5.875-16.706-1.039.383c2.152 11.795 4.421 23.571 6.42 35.393 1.915 11.319 3.376 22.715 5.39 34.015.807 4.525 1.765 9.34 4.018 13.235 10.74 18.572 22.342 36.654 32.749 55.403 3.056 5.507 3.893 12.568 4.495 19.034.776 8.34 4.643 14.07 11.823 17.642 6.655 3.311 7.746 7.008 3.095 12.913-5.503 6.986-13.153 10.78-21.43 12.954-7.185 1.888-14.622 3.047-22.021 3.835-8.196.872-13.606-6.56-10.352-14.21 4.027-9.469 3.214-18.196-1.4-27.314-14.076-27.825-33.73-51.064-57.714-70.664-6.946-5.676-12.497-12.068-15.593-20.298-4.62-12.287-8.68-24.786-12.974-37.196-.526-1.521-1.033-3.05-2.078-4.441l1.05 15.379-6.704 2.238.043.621h7.094l.786 4.311c-7.362.872-14.61.963-21.438 2.702-12.81 3.263-25.447 7.258-38.027 11.346-25.046 8.138-50.693 12.668-77.007 12.557-9.962-.041-15.806 3.92-19.251 13.113-2.373 6.33-6.66 11.97-8.8 18.35-1.788 5.337-2.225 11.295-2.308 16.99-.088 6.128 1.308 12.27 1.359 18.41.046 5.568-.135 11.325-1.497 16.673-1.941 7.625-1.101 14.111 4.342 19.882 2.17 2.3 4.149 4.797 6.443 6.962 3.438 3.245 3.27 7.048 2.08 11.042-1.253 4.209-4.73 3.874-8.142 3.954-12.824.304-25.644.752-38.466 1.128-1.83.054-3.668.103-5.493-.003-4.243-.245-9.088-.588-10.08-5.51-.998-4.95-1.286-10.58 3.685-14.142 5.289-3.79 6.827-9.029 7.166-15.124 1.61-28.963-2.86-56.844-13.06-84.076-8.383-22.383-15.906-45.12-22.883-67.983-2.657-8.704-2.73-18.197-3.993-27.422-.923 2.97-1.768 6.236-2.944 9.378-7.405 19.794-6.89 40.146-4.312 60.628 2.03 16.139-8.234 34.396-22.552 40.745 2.872-19.523 5.803-39.441 8.755-59.817"/><path fill="#020201" d="M736.103 408.022a7521 7521 0 0 0-2.46-28.72q-.78-.023-1.558-.043l-2.802 13.226c-2.277-2.935-4.23-4.702-5.255-6.9-4.846-10.399-9.304-20.979-14.209-31.348-1.4-2.958-4.041-5.303-5.756-8.145-3.324-5.512-6.79-11-9.424-16.846-1.596-3.54-3.075-5.598-7.31-5.639-5.644-.054-11.274-1.004-16.924-1.317-3.725-.206-5.487-1.838-5.376-5.59.085-2.861.017-5.726.017-8.589l-1.367-.042c-1.153 5.235-2.04 10.547-3.52 15.688-2.532 8.786-5.026 17.623-8.304 26.142-3.132 8.139-8.26 8.564-13.277 1.534-10.85-15.202-24.604-27.014-41.073-35.742-12.996-6.888-23.565-16.1-29.368-30.089-5.406-13.032-6.267-25.887 1.328-38.303 8.068-13.19 16.436-26.2 24.85-39.173.815-1.255 2.88-2.394 4.37-2.403 11.656-.069 23.37-.488 34.945.553 5.844.525 11.895 3.082 17.022 6.12 6.117 3.626 12.278 4.542 19.027 4.09 8.286-.556 16.592-1.53 24.867-1.348 9.142.2 16.143 4.673 20.117 13.25 1.608 3.473 3.45 6.849 4.868 10.396 3.383 8.464 7.684 16.11 15.534 21.408 4.744 3.203 4.819 8.672 4.566 13.608-.33 6.465 1.608 11.544 5.441 16.843 12.04 16.645 16.57 36.075 18.768 56.103 4.228 38.545-3.297 75.818-12.088 113.035-5.693 24.101-10.308 48.458-15.293 72.724-.733 3.57-.486 7.359-1.394 10.865-.398 1.536-2.365 3.216-3.975 3.739-1.757.571-3.927-.102-5.914-.268-3.862-.322-5.677-2.423-5.28-6.29 1.222-11.902 2.056-23.864 3.806-35.689 3.625-24.5 7.963-48.895 11.527-73.404 1.096-7.53.63-15.287.874-23.436m4.78-39.406c5.155 4.528 9.174 10.787 17.875 11.93-1.09-3.048-1.649-5.28-2.647-7.293-5.138-10.37-10.388-20.686-15.606-31.016-.3-.591-.622-1.181-1.014-1.713-2.744-3.73-11.117-5.885-14.484-3.261-4.569 3.56-1.828 7.811.372 11.04 4.658 6.837 9.964 13.233 15.503 20.313m-6.941-43.87c.7-.748 2.117-1.652 1.993-2.22-1.811-8.295-3.835-16.587-10.51-22.559-1.056-.945-3.085-.802-4.665-1.161.466 1.417.707 2.964 1.437 4.23 2.992 5.19 6.133 10.293 9.643 16.136-3.968.74-6.407 1.03-8.73 1.714-.862.253-1.452 1.43-2.166 2.186.874.568 1.72 1.566 2.63 1.626 3.147.206 6.316.086 10.368.048m-14.735-54.655 7.31 3.082 1.127-1.195c-1.347-1.989-2.35-5.152-4.128-5.674-2.313-.679-5.242.74-7.906 1.256l.19 1.34c.894.303 1.787.607 3.407 1.19"/><path fill="#020200" d="M501.221 516.21c.866-3.554 1.73-6.642 2.597-9.73 2.008-7.151 5.543-14.26 5.739-21.461.583-21.416.056-42.873-.474-64.303-.179-7.255.248-8.64 7.658-9.804 6.908-1.085 13.85-1.955 20.754-3.068 2.792-.45 4.125.33 5.034 3.188 3.914 12.31 9.822 23.62 17.57 33.999.919 1.232 1.243 3.852.57 5.187-10.305 20.44-15.552 42.372-19.271 64.738-.938 5.636-2.345 10.346-7.837 13.525-4.535 2.625-4.268 6.068-.558 9.726 2.474 2.44 5.098 4.886 6.926 7.788 2.802 4.448.25 8.977-4.981 9.03-13.826.139-27.653.1-41.48.02-4.372-.026-7.387-4.234-5.921-8.771.828-2.561 2.42-5.394 4.524-6.932 7.88-5.76 10.508-13.333 9.15-23.133"/><path fill="#030300" d="M283.463 464.393a43547 43547 0 0 0 16.916-67.876l1.267.087c3.5 9.607 6.977 19.223 10.509 28.819 3.964 10.772 8.119 21.476 11.853 32.326.78 2.265.83 5.337-.05 7.527-6.753 16.791-13.683 33.515-20.903 50.11-1.449 3.33-4.04 6.362-6.7 8.913-3.057 2.933-4.622 5.937-3.648 10.156 1.008 4.369 2.17 8.732 2.743 13.165.758 5.856-2.162 8.977-8.055 8.45-3.405-.304-7.18-.92-9.983-2.677-9.112-5.715-17.956-11.88-26.693-18.163-4.115-2.96-3.89-7.062-1.27-11.051 1.09-1.66 2.304-3.311 3.75-4.655 16.086-14.936 24.592-34.019 30.264-55.131"/><path fill="#0d0c00" d="M773.922 574.866c-65.43.824-130.861 2.418-196.289 2.305-119.547-.206-239.093-1.42-359.121-2.513-.436-.66-.389-1.022-.342-1.384 184.918-3.545 369.836-3.563 555.196.268.48.635.518.98.556 1.324"/><path fill="#070600" d="M612.252 703.995v-18.202h15.174v64.348c-4.608 0-9.193.222-13.729-.153-1.153-.095-2.442-1.922-3.172-3.23-5.575-9.988-11.027-20.045-17.352-29.954v33.1h-15v-64.41c4.33 0 8.65-.275 12.898.161 1.34.138 2.855 1.97 3.658 3.385 5.086 8.97 9.994 18.04 14.966 27.074.513.933 1.059 1.85 2.557 2.555z"/><path fill="#030300" d="M234.507 731.898c1.27 1.306 2.518 2.796 3.807 2.833 7.78.222 15.569.11 23.595.11v14.988h-43.377v-64.041h42.538v15.111h-26.296v8.756h24.332v13.542h-24.6z"/><path fill="#030200" d="M735.534 685.508c13.741-.013 27.024-.013 40.472-.013v15.29h-26.324v8.684h24.242v13.426h-24.277v11.697h27.082v15.29h-43.581V708.76c0-6.496-.102-12.994.086-19.485.037-1.268 1.198-2.503 2.3-3.767"/><path fill="#030300" d="M402.62 685.497c1.175.861 2.453 1.686 2.5 2.577.22 4.116.097 8.25.097 12.752h-26.502v8.714h24.296v13.432h-24.325v11.71h27.126v15.09h-43.29v-64.281c13.12 0 26.376 0 40.097.006"/><path fill="#050500" d="M508.59 750.156c-4.77.006-9.082.006-13.81.006.279-1.555.38-2.81.732-3.99 5.663-18.944 11.43-37.857 16.97-56.837.85-2.91 2.021-3.921 5.102-3.937 13.597-.068 13.625-.182 17.499 12.645 4.808 15.917 9.567 31.85 14.331 47.78.374 1.248.625 2.534 1.007 4.103h-16.11c-1.12-3.334-1.31-8.246-3.523-9.455-3.114-1.7-7.728-.671-11.7-.773-1.814-.047-3.629-.008-4.951-.008-1.846 3.793-3.469 7.126-5.547 10.466m17.007-35.307-2.826-11.017-.805-.095-5.092 20.978h11.105c-.78-3.294-1.465-6.185-2.382-9.866"/><path fill="#040300" d="M472.023 716.022v7.907H452.15v25.92h-15.937v-64.037h39.002v15.167h-23.032v9.523h19.84z"/><path fill="#050500" d="M704.934 693.032v7.81h-16.079v48.963h-16.089v-48.784h-16.289v-15.215h48.457z"/><path fill="#030300" d="M291.931 710v-24.21h15.855v47.83h24.843v16.309h-40.698z"/><path fill="#0a0900" d="M363.072 639.043v14.317h-6.857v-37.076h10.997l6.275 23.226.935.096 6.237-23.391h11.127V653.4h-6.413l-1.482-23.505-.644-.079c-1.396 5.949-2.819 11.891-4.18 17.848-1.529 6.692-1.586 6.75-8.847 5.52l-5.838-24.51-1.31.035z"/><path fill="#0c0c00" d="M498.046 628.016v-11.51c5.007-1.649 8.122-.296 10.557 4.328 3.29 6.25 7.276 12.135 11.958 17.94v-22.659h6.854v37.078c-4.223 1.37-7.491.94-10.012-3.797-3.349-6.293-7.444-12.189-12.02-19.541v23.542h-7.337z"/><path fill="#0c0b00" d="M320.168 633.148c-.176 15.83-9.353 24.043-22.851 20.926-8.664-2-13.477-9.077-13.355-19.635.133-11.45 6.441-18.908 16.464-19.466 11.396-.635 18.392 5.65 19.742 18.175m-17.725 14.721c4.922-.377 8.17-3.104 9.197-7.74 1.236-5.577 1.716-11.356-2.924-15.89-3.764-3.678-10.292-3.263-13.927.634-6.732 7.215-2.683 20.759 7.654 22.996"/><path fill="#0c0c00" d="M641.196 631.662c-.03 3.068.158 5.759-.217 8.369-1.1 7.644-5.722 12.686-13.179 13.455-5.71.59-11.53.117-17.533.117V616.28c6.313 0 12.61-.548 18.768.142 7.26.815 10.928 5.88 12.161 15.24m-23.462 2.838v12.669c5.597-.978 11.756 1.878 14.376-4.445 2.315-5.587 2.788-11.891-.98-17.108-3.378-4.674-8.661-2.263-13.396-2.846z"/><path fill="#0d0c00" d="M759.681 653.744H745.53v-38.1c6.938.384 13.951.677 20.943 1.242 1.358.11 2.85 1.036 3.91 1.995 7.244 6.556 7.227 14.976 5.257 23.49-1.74 7.517-6.591 10.721-15.958 11.373m-6.729-22.214v15.41c5.548-.473 11.388 1.85 14.217-3.8 2.676-5.343 2.854-11.45-.257-16.768-3.147-5.38-8.717-3.21-13.96-3.457z"/><path fill="#0b0a00" d="M442.543 647.74c6.996-.046 8.76-1.51 8.95-8.043.227-7.798.054-15.607.054-23.583h6.81c0 10.012.298 20.073-.142 30.101-.183 4.176-3.76 6.478-7.65 7.682-12.444 3.852-20.875-2.055-21.193-14.987-.183-7.46-.033-14.929-.033-22.68h7.726c0 7.76.085 15.53-.035 23.299-.06 3.937 1.194 6.813 5.513 8.21"/><path fill="#0c0b00" d="M700.032 624.9c3.772 9.588 7.433 18.807 11.204 28.304-4.962 1.126-8.997 1.414-9.98-4.642-.506-3.111-2.396-3.951-5.302-3.628-1.809.202-3.69.255-5.482-.006-4.131-.603-6.574.828-7.331 5.09-1.019 5.735-5.39 3.241-9.32 3.67 4.778-12.343 9.257-24.269 14.162-36.018.475-1.14 3.574-1.579 5.463-1.598 1.28-.012 3.047.972 3.755 2.058 1.246 1.912 1.848 4.244 2.831 6.77m-6.718 13.218 3.897-.212-4.884-13.12-4.568 12.713c.621.299.9.54 1.191.554 1.16.06 2.322.05 4.364.065"/><path fill="#0c0c00" d="M226.246 625.588c-.652 4.43-1.502 8.512-1.427 12.577.086 4.649 2.755 7.946 7.53 8.585 4.58.613 7.6-1.723 9.033-6.118.14-.432.544-.78.971-1.368l6.503 1.903c-2.46 8.546-7.215 12.441-14.961 12.574-7.67.132-13.837-4.268-16.254-11.594-4.079-12.367 1.52-24.433 12.474-26.833 8.007-1.755 17.054 2.137 18.588 11.136l-6.598 1.062c-3.33-5.994-9.87-8.288-15.859-1.924"/><path fill="#151300" d="M565.681 653.146c-.303-12.44-.303-24.559-.303-36.952h7.328v37.274c-2.225 0-4.473 0-7.025-.322"/><path fill="#7a7200" d="M217.706 573.144c.417.492.37.854.342 1.49-6.54.274-13.097.274-19.656.274l-.002-1.894c6.284 0 12.568 0 19.316.13"/><path fill="#6b6500" d="M774.38 574.974c-.496-.452-.534-.797-.557-1.401 4.557-.26 9.099-.26 13.64-.26l.069 1.768c-4.231 0-8.462 0-13.152-.107"/><path fill="#f7f7f7" d="M740.633 368.364c-5.29-6.828-10.596-13.224-15.254-20.061-2.2-3.229-4.94-7.48-.372-11.04 3.367-2.624 11.74-.468 14.484 3.26.392.533.715 1.123 1.014 1.714 5.218 10.33 10.468 20.646 15.606 31.016.998 2.014 1.558 4.245 2.647 7.293-8.701-1.143-12.72-7.402-18.125-12.182"/><path fill="#e6e6e6" d="M733.496 324.768c-3.607.016-6.776.136-9.924-.07-.908-.06-1.755-1.058-2.63-1.626.715-.756 1.305-1.933 2.166-2.186 2.324-.684 4.763-.974 8.731-1.714-3.51-5.843-6.651-10.947-9.643-16.137-.73-1.265-.971-2.812-1.437-4.23 1.58.36 3.609.217 4.665 1.162 6.675 5.972 8.699 14.264 10.51 22.559.124.568-1.293 1.472-2.438 2.242M718.842 269.95c-1.256-.443-2.15-.747-3.042-1.05l-.191-1.34c2.664-.516 5.593-1.935 7.906-1.256 1.778.522 2.78 3.685 4.128 5.674l-1.127 1.195a2009 2009 0 0 0-7.674-3.222"/><path fill="#f3e300" d="M525.713 715.244c.8 3.286 1.486 6.177 2.266 9.47h-11.105l5.092-20.977.805.095c.942 3.672 1.884 7.345 2.942 11.412"/><path fill="#f9e900" d="M302.053 647.868c-9.947-2.236-13.996-15.78-7.264-22.995 3.635-3.897 10.163-4.312 13.927-.633 4.64 4.533 4.16 10.312 2.924 15.89-1.027 4.635-4.275 7.362-9.587 7.738"/><path fill="#fbeb00" d="M617.734 634.002V622.77c4.735.583 10.018-1.828 13.395 2.846 3.77 5.217 3.296 11.52.98 17.108-2.62 6.323-8.778 3.467-14.375 4.445z"/><path fill="#f8e800" d="M752.952 631.038v-8.123c5.243.247 10.813-1.922 13.96 3.457 3.11 5.317 2.933 11.425.257 16.769-2.829 5.649-8.669 3.326-14.217 3.798z"/><path fill="#f3e300" d="M692.873 638.118c-1.601-.016-2.764-.005-3.923-.065-.29-.015-.57-.255-1.19-.554l4.567-12.713 4.884 13.12c-1.614.088-2.756.15-4.338.212"/></svg>