<?xml version="1.0" encoding="UTF-8" ?>
<!DOCTYPE svg PUBLIC "-//W3C//DTD SVG 1.1//EN" "http://www.w3.org/Graphics/SVG/1.1/DTD/svg11.dtd">
<svg width="600pt" height="750pt" viewBox="0 0 600 750" version="1.1" xmlns="http://www.w3.org/2000/svg">
<g id="#d7df28ff">
<path fill="#d7df28" opacity="1.00" d=" M 387.59 25.83 C 392.29 25.30 398.01 23.24 401.84 27.17 C 409.95 34.61 417.64 43.31 420.99 53.99 C 423.29 61.03 420.94 69.55 414.57 73.64 C 406.78 78.71 397.01 78.81 388.03 78.45 C 380.84 77.77 373.68 79.13 366.71 80.79 C 349.39 84.97 332.63 91.21 316.36 98.44 C 302.38 104.76 288.60 111.87 276.43 121.30 C 265.41 129.71 257.12 141.07 249.73 152.66 C 234.73 176.95 224.20 203.76 215.99 231.02 C 208.92 255.09 204.35 279.90 202.57 304.93 C 200.65 330.29 204.32 356.41 215.56 379.38 C 230.30 410.13 258.62 434.01 291.46 443.25 C 305.50 447.06 320.50 448.48 334.83 445.46 C 348.29 442.47 359.12 432.43 365.65 420.61 C 375.67 402.68 379.18 382.04 381.46 361.88 C 384.46 334.02 384.94 305.97 385.04 277.97 C 384.98 257.95 384.46 237.88 382.02 217.99 C 380.65 207.53 378.90 197.01 375.09 187.12 C 372.67 181.11 369.09 174.93 363.01 172.04 C 358.44 169.79 353.21 170.65 348.44 171.63 C 339.46 173.58 330.62 176.35 322.35 180.38 C 316.29 183.30 311.62 188.42 307.82 193.85 C 301.72 202.70 297.49 212.66 293.87 222.73 C 286.51 243.76 281.22 265.72 280.61 288.06 C 279.82 306.01 276.21 324.70 265.35 339.45 C 261.40 344.78 255.93 349.97 248.94 350.35 C 243.34 350.91 237.85 346.30 237.42 340.70 C 236.97 334.41 237.85 328.13 238.41 321.87 C 240.80 300.42 244.39 279.12 248.37 257.92 C 252.91 234.65 257.68 211.37 264.81 188.73 C 268.19 178.50 271.80 168.05 278.53 159.46 C 286.45 149.25 297.10 141.54 308.23 135.15 C 321.68 127.63 335.99 121.48 351.01 117.90 C 358.82 116.01 367.12 114.77 375.01 116.96 C 384.52 119.49 392.26 126.26 398.13 133.92 C 406.79 145.29 412.42 158.62 417.00 172.06 C 424.37 194.39 428.87 217.56 432.13 240.81 C 436.26 271.02 438.36 301.53 437.95 332.03 C 437.20 364.84 431.48 398.15 416.71 427.72 C 408.56 443.97 397.48 458.88 383.53 470.61 C 370.41 481.70 354.83 489.74 338.35 494.53 C 318.84 500.25 298.28 501.65 278.05 500.51 C 256.25 499.57 234.03 494.69 215.76 482.27 C 189.80 465.13 173.58 436.75 164.65 407.56 C 152.31 366.68 150.80 323.32 153.99 280.99 C 157.73 236.40 166.51 191.90 183.20 150.27 C 193.86 122.77 214.10 99.97 237.65 82.68 C 265.38 62.19 297.55 48.57 330.38 38.60 C 349.11 32.97 368.25 28.72 387.59 25.83 Z" />
</g>
<g id="#67308fff">
<path fill="#67308f" opacity="1.00" d=" M 337.23 306.26 C 341.91 305.37 348.01 304.42 351.48 308.53 C 353.88 312.19 353.61 316.84 353.92 321.04 C 354.09 338.40 355.89 356.04 352.19 373.18 C 350.91 378.06 349.16 384.07 343.93 386.00 C 338.12 387.25 332.37 383.75 328.62 379.54 C 322.37 372.16 319.09 362.58 318.08 353.05 C 317.17 345.31 318.95 337.65 319.40 329.95 C 320.05 324.87 320.34 319.50 322.89 314.93 C 325.92 309.88 331.72 307.45 337.23 306.26 Z" />
</g>
<g id="#00a79eff">
<path fill="#00a79e" opacity="1.00" d=" M 131.46 543.63 C 141.79 541.38 153.75 542.81 161.74 550.28 C 172.08 559.81 174.14 576.09 168.83 588.73 C 165.31 596.88 158.14 603.56 149.40 605.62 C 139.02 608.14 126.92 606.55 118.96 598.94 C 108.49 589.22 106.38 572.70 111.93 559.91 C 115.49 551.86 122.80 545.51 131.46 543.63 M 134.46 550.68 C 129.41 551.63 124.68 554.40 121.60 558.54 C 116.98 564.59 115.91 572.74 117.25 580.08 C 118.77 588.50 124.99 596.25 133.45 598.38 C 140.60 600.14 148.78 599.33 154.75 594.74 C 166.54 585.65 167.18 565.70 156.27 555.68 C 150.47 550.38 141.95 549.28 134.46 550.68 Z" />
<path fill="#00a79e" opacity="1.00" d=" M 520.47 543.67 C 530.80 541.39 542.81 542.71 550.82 550.19 C 560.95 559.37 563.22 575.01 558.52 587.48 C 555.23 596.08 547.94 603.30 538.88 605.55 C 528.20 608.25 515.62 606.52 507.65 598.40 C 498.05 589.04 495.98 573.87 500.47 561.58 C 503.68 552.81 511.28 545.70 520.47 543.67 M 523.53 550.71 C 516.25 552.00 510.10 557.48 507.64 564.40 C 504.37 573.46 505.60 584.51 512.14 591.85 C 519.32 600.27 532.69 601.35 542.02 596.07 C 555.87 587.74 557.10 565.42 544.85 555.17 C 539.02 550.26 530.80 549.33 523.53 550.71 Z" />
<path fill="#00a79e" opacity="1.00" d=" M 42.83 543.57 C 45.47 543.55 48.12 543.56 50.76 543.58 C 57.94 554.57 65.15 565.54 72.33 576.52 C 79.50 565.55 86.60 554.53 93.76 543.56 C 96.45 543.56 99.13 543.56 101.81 543.58 C 101.80 564.27 101.82 584.97 101.81 605.67 C 99.25 605.66 96.69 605.67 94.13 605.67 C 94.10 589.54 94.15 573.40 94.11 557.27 C 87.39 567.43 80.77 577.66 74.06 587.83 C 73.26 587.84 71.65 587.84 70.85 587.84 C 64.07 577.64 57.37 567.40 50.59 557.20 C 50.58 573.35 50.59 589.51 50.58 605.66 C 48.02 605.66 45.46 605.66 42.89 605.70 C 42.73 584.99 42.86 564.28 42.83 543.57 Z" />
<path fill="#00a79e" opacity="1.00" d=" M 171.23 543.57 C 174.03 543.55 176.82 543.56 179.62 543.59 C 186.48 560.62 193.38 577.64 200.29 594.66 C 207.20 577.63 214.08 560.59 220.99 543.57 C 223.80 543.56 226.61 543.56 229.41 543.57 C 220.90 564.33 212.39 585.09 203.84 605.83 C 201.44 605.86 199.03 605.83 196.64 605.76 C 188.26 584.99 179.68 564.31 171.23 543.57 Z" />
<path fill="#00a79e" opacity="1.00" d=" M 233.26 605.67 C 233.26 584.96 233.23 564.26 233.27 543.56 C 235.83 543.56 238.40 543.57 240.97 543.57 C 240.97 564.27 240.99 584.97 240.96 605.67 C 238.39 605.67 235.82 605.66 233.26 605.67 Z" />
<path fill="#00a79e" opacity="1.00" d=" M 250.73 543.58 C 253.37 543.54 256.01 543.56 258.66 543.60 C 265.82 554.60 273.07 565.54 280.27 576.52 C 287.44 565.54 294.53 554.52 301.71 543.56 C 304.39 543.56 307.07 543.56 309.75 543.58 C 309.74 564.27 309.76 584.97 309.74 605.67 C 307.18 605.66 304.63 605.67 302.07 605.67 C 302.04 589.53 302.08 573.39 302.05 557.25 C 295.35 567.44 288.68 577.66 281.99 587.87 C 280.77 587.60 278.96 588.42 278.24 587.05 C 271.69 577.10 265.15 567.14 258.57 557.21 C 258.56 573.35 258.55 589.50 258.57 605.65 C 255.95 605.67 253.33 605.67 250.72 605.65 C 250.74 584.96 250.72 564.27 250.73 543.58 Z" />
<path fill="#00a79e" opacity="1.00" d=" M 319.58 543.57 C 322.13 543.56 324.70 543.56 327.26 543.57 C 327.27 564.26 327.26 584.96 327.26 605.65 C 324.70 605.67 322.13 605.67 319.57 605.65 C 319.58 584.96 319.56 564.26 319.58 543.57 Z" />
<path fill="#00a79e" opacity="1.00" d=" M 336.98 543.57 C 351.60 543.57 366.23 543.56 380.85 543.58 C 380.85 546.08 380.85 548.59 380.85 551.10 C 368.79 551.11 356.73 551.09 344.67 551.11 C 344.66 557.66 344.66 564.21 344.67 570.77 C 356.17 570.77 367.66 570.76 379.16 570.77 C 379.16 573.21 379.16 575.65 379.16 578.10 C 367.66 578.11 356.16 578.09 344.67 578.11 C 344.66 584.77 344.66 591.43 344.67 598.09 C 357.07 598.11 369.46 598.09 381.86 598.10 C 381.87 600.62 381.86 603.14 381.86 605.67 C 366.90 605.66 351.94 605.67 336.98 605.67 C 336.96 584.97 336.97 564.27 336.98 543.57 Z" />
<path fill="#00a79e" opacity="1.00" d=" M 390.49 605.66 C 390.49 584.96 390.48 564.26 390.50 543.56 C 391.93 543.56 393.38 543.57 394.82 543.58 C 407.20 558.82 419.59 574.06 431.99 589.28 C 432.01 574.04 431.99 558.81 432.00 543.57 C 434.57 543.57 437.13 543.56 439.70 543.56 C 439.75 564.27 439.72 584.98 439.72 605.68 C 438.30 605.65 436.89 605.63 435.48 605.62 C 423.13 590.37 410.67 575.20 398.25 560.00 C 398.22 575.23 398.33 590.47 398.19 605.70 C 395.62 605.66 393.05 605.65 390.49 605.66 Z" />
<path fill="#00a79e" opacity="1.00" d=" M 445.06 543.67 C 461.83 543.67 478.60 543.66 495.37 543.67 C 495.37 546.07 495.37 548.48 495.37 550.90 C 488.30 550.91 481.23 550.89 474.16 550.90 C 474.14 569.16 474.17 587.41 474.14 605.67 C 471.53 605.67 468.92 605.67 466.32 605.67 C 466.30 587.41 466.32 569.16 466.31 550.91 C 459.22 550.89 452.14 550.91 445.06 550.90 C 445.05 548.49 445.04 546.07 445.06 543.67 Z" />
<path fill="#00a79e" opacity="1.00" d=" M 49.37 639.39 C 55.75 633.59 64.45 631.05 72.89 630.26 C 80.41 629.75 88.16 630.05 95.37 632.46 C 102.90 634.98 108.96 640.70 113.04 647.39 C 110.24 649.04 107.44 650.70 104.64 652.37 C 101.34 646.47 95.58 642.04 88.91 640.78 C 79.07 638.89 68.18 639.11 59.32 644.25 C 53.60 647.45 50.71 655.24 53.83 661.18 C 56.41 665.64 61.64 667.38 66.30 668.70 C 77.87 671.85 90.07 672.81 101.16 677.60 C 107.22 680.17 112.44 685.24 114.13 691.73 C 116.15 699.45 114.95 708.43 109.52 714.53 C 104.64 720.00 97.49 722.76 90.47 724.24 C 77.68 726.69 63.70 725.50 52.45 718.53 C 46.63 715.07 42.05 709.76 39.18 703.65 C 42.19 702.14 45.21 700.67 48.23 699.17 C 52.02 707.60 60.59 712.71 69.28 714.83 C 75.75 716.36 82.56 716.10 89.04 714.77 C 93.80 713.69 98.68 711.76 101.84 707.88 C 104.80 704.20 105.58 699.00 104.27 694.52 C 102.80 690.04 98.59 687.12 94.35 685.52 C 81.75 681.02 68.06 680.41 55.66 675.24 C 50.41 673.03 45.59 669.07 43.61 663.59 C 40.78 655.32 42.82 645.35 49.37 639.39 Z" />
<path fill="#00a79e" opacity="1.00" d=" M 126.38 631.30 C 148.03 631.30 169.68 631.28 191.33 631.32 C 191.32 634.56 191.32 637.81 191.32 641.06 C 173.02 641.08 154.72 641.04 136.42 641.08 C 136.44 651.59 136.42 662.09 136.43 672.60 C 153.86 672.59 171.30 672.62 188.73 672.58 C 188.79 675.76 188.78 678.94 188.77 682.13 C 171.32 682.15 153.87 682.11 136.42 682.14 C 136.43 692.78 136.43 703.42 136.42 714.06 C 155.25 714.15 174.07 714.07 192.90 714.10 C 192.90 717.40 192.90 720.69 192.90 724.00 C 170.72 724.00 148.55 724.01 126.37 723.99 C 126.39 693.09 126.37 662.20 126.38 631.30 Z" />
<path fill="#00a79e" opacity="1.00" d=" M 204.95 631.30 C 208.51 631.29 212.06 631.29 215.63 631.31 C 226.73 648.24 237.84 665.18 248.96 682.11 C 260.04 665.18 270.92 648.12 282.10 631.25 C 285.70 631.33 289.30 631.28 292.90 631.30 C 292.93 662.20 292.91 693.09 292.92 723.99 C 289.56 724.00 286.21 724.00 282.87 723.99 C 282.85 698.81 282.87 673.62 282.86 648.44 C 272.25 664.59 261.72 680.79 251.09 696.92 C 249.75 696.90 248.41 696.89 247.07 696.90 C 236.38 680.74 225.78 664.52 215.10 648.35 C 215.10 673.57 215.11 698.78 215.10 723.99 C 211.71 724.00 208.33 724.00 204.94 723.99 C 204.94 693.10 204.93 662.20 204.95 631.30 Z" />
<path fill="#00a79e" opacity="1.00" d=" M 309.45 631.31 C 312.79 631.29 316.13 631.28 319.47 631.32 C 319.45 662.21 319.47 693.10 319.46 724.00 C 316.12 724.00 312.78 724.00 309.44 723.98 C 309.46 693.09 309.44 662.20 309.45 631.31 Z" />
<path fill="#00a79e" opacity="1.00" d=" M 335.89 631.30 C 339.28 631.29 342.66 631.29 346.04 631.30 C 346.06 658.95 346.04 686.61 346.06 714.26 C 362.82 714.27 379.59 714.27 396.36 714.26 C 396.38 717.50 396.38 720.75 396.37 724.00 C 376.21 724.00 356.05 724.00 335.89 723.99 C 335.89 693.10 335.88 662.20 335.89 631.30 Z" />
<path fill="#00a79e" opacity="1.00" d=" M 406.21 631.30 C 409.57 631.29 412.93 631.28 416.29 631.31 C 416.28 658.96 416.29 686.61 416.28 714.26 C 433.06 714.29 449.84 714.24 466.62 714.28 C 466.61 717.28 466.60 720.28 466.62 723.28 C 480.33 692.67 494.19 662.12 507.75 631.44 C 511.00 631.15 514.27 631.34 517.54 631.31 C 531.38 662.21 545.27 693.09 559.11 724.00 C 555.46 724.00 551.82 724.00 548.17 724.00 C 544.81 716.67 541.64 709.26 538.18 701.99 C 521.12 702.10 504.07 702.00 487.02 702.04 C 483.70 709.36 480.66 716.81 477.20 724.07 C 453.54 723.91 429.87 724.05 406.20 723.99 C 406.21 693.09 406.19 662.20 406.21 631.30 M 491.11 692.40 C 505.42 692.41 519.73 692.38 534.04 692.42 C 527.11 676.09 519.77 659.92 512.66 643.67 C 505.47 659.91 498.28 676.15 491.11 692.40 Z" />
</g>
</svg>
