<?xml version="1.0" encoding="utf-8"?>
<svg version="1.1" id="Layer_1" xmlns="http://www.w3.org/2000/svg" x="0px" y="0px" width="100%" viewBox="0 0 2048 2048" enable-background="new 0 0 2048 2048">
  <path fill="#D10E81" opacity="1.000000" stroke="none" d="M 1075.33 604.095 C 1145.03 607.253 1207.94 629.81 1263.41 671.912 C 1332.04 724 1376.07 792.41 1392.29 877.146 C 1412.59 983.193 1388.3 1078.93 1319.33 1162.22 C 1264.72 1228.16 1193.9 1266.73 1109.52 1280.25 C 1086.55 1283.93 1063.32 1285.14 1039.19 1282.59 C 1036.87 1281.72 1035.44 1281.08 1033.94 1280.66 C 1015.22 1275.46 999.025 1265.53 987.109 1250.57 C 969.254 1228.15 961.599 1202.49 967.23 1173.43 C 972.293 1147.32 985.884 1127.26 1007.65 1112.43 C 1020.05 1103.97 1033.97 1099.57 1049.15 1097.33 C 1068.63 1097.46 1087.41 1095.92 1105.54 1089.89 C 1175.8 1066.49 1218.7 1001.76 1211.17 927.836 C 1205.62 873.336 1176.96 833.353 1128.91 807.298 C 1109.75 796.905 1088.95 792.076 1067.79 789.942 C 1083.17 787.595 1097.11 782.905 1109.86 774.596 C 1129.85 761.567 1143.21 743.377 1148.98 720.627 C 1156.22 691.97 1151.07 665.082 1133.06 640.989 C 1123.04 627.593 1110.3 617.918 1095.09 611.389 C 1088.65 608.622 1081.93 606.506 1075.33 604.095 Z" style=""/>
  <path fill="#03CB99" opacity="1.000000" stroke="none" d="M 1048.66 1097.32 C 1033.97 1099.57 1020.05 1103.97 1007.65 1112.43 C 985.884 1127.26 972.293 1147.32 967.23 1173.43 C 961.599 1202.49 969.254 1228.15 987.109 1250.57 C 999.025 1265.53 1015.22 1275.46 1033.94 1280.66 C 1035.44 1281.08 1036.87 1281.72 1038.68 1282.57 C 1006.61 1282.22 975.427 1275.1 945.009 1264.39 C 896.685 1247.39 854.421 1220.52 818.253 1184.35 C 779.45 1145.54 751.401 1099.89 734.733 1047.57 C 719.459 999.624 714.928 950.535 721.504 900.554 C 732.061 820.299 766.596 752.093 825.361 696.484 C 880.665 644.149 946.412 613.678 1022.19 605.73 C 1039.53 603.911 1057.13 604.513 1074.97 604.048 C 1081.93 606.506 1088.65 608.622 1095.09 611.389 C 1110.3 617.918 1123.04 627.593 1133.06 640.989 C 1151.07 665.082 1156.22 691.97 1148.98 720.627 C 1143.21 743.377 1129.85 761.567 1109.86 774.596 C 1097.11 782.905 1083.17 787.595 1067.33 789.916 C 1046.38 789.837 1026.63 791.934 1007.76 798.958 C 934.694 826.149 893.9 897.194 908.636 973.618 C 918.057 1022.48 946.46 1057.93 990.445 1080.99 C 1008.7 1090.56 1028.46 1094.71 1048.66 1097.32 Z" style=""/>
  <path fill="#7A0234" opacity="1.000000" stroke="none" d="M 1787.68 1045.62 C 1730.13 1019.94 1668.22 1007.99 1608.62 988.782 C 1575.4 978.081 1542.84 965.928 1513.94 945.705 C 1473.4 917.34 1452.36 878.311 1450.12 829.063 C 1448.51 794.144 1453.53 760.344 1468.44 728.437 C 1488.3 685.973 1520.9 656.226 1562.31 635.601 C 1601.85 615.908 1644.1 606.789 1687.97 604.279 C 1734.28 601.63 1780.02 605.154 1824.91 617.318 C 1879.09 631.998 1923.45 661.106 1955.81 707.445 C 1976.41 736.949 1980.11 768.813 1965.03 801.385 C 1949.98 833.894 1923.6 852.154 1887.61 855.324 C 1846.3 858.964 1806.26 834.105 1793.17 795.189 C 1786.45 775.154 1773.07 762.965 1754.72 755.675 C 1725.78 744.178 1696.21 744.441 1667 754.912 C 1653.02 759.925 1642.46 768.875 1639.85 784.786 C 1637.9 796.669 1642.6 806.004 1650.71 813.922 C 1663.48 826.37 1679.55 833.229 1696.2 838.002 C 1727.56 846.993 1759.33 854.518 1790.77 863.253 C 1819.55 871.25 1848.11 880.039 1876.53 888.878 C 1866.41 888.894 1856.4 887.346 1846.67 888.345 C 1815.73 891.52 1791.9 907.284 1776.43 933.815 C 1757.4 966.426 1758.66 999.537 1778.59 1031.74 C 1781.51 1036.44 1784.65 1041 1787.68 1045.62 Z" style=""/>
  <path fill="#486ECF" opacity="1.000000" stroke="none" d="M 378.763 980.832 C 389.858 958.897 401.031 937.005 412.034 915.029 C 455.634 827.954 499.039 740.78 542.817 653.796 C 560.898 617.873 600.419 598.329 640.468 604.573 C 679.497 610.656 711.439 642.213 717.81 681.337 C 721.382 703.279 716.912 723.814 706.936 743.605 C 675.308 806.343 644.039 869.263 612.591 932.092 C 577.002 1003.2 541.349 1074.27 505.763 1145.38 C 491.317 1174.23 477.348 1203.35 462.485 1232 C 446.057 1263.66 419.607 1281.69 383.967 1283.57 C 347.115 1285.53 318.449 1269.81 298.729 1238.47 C 294.759 1232.17 291.645 1225.32 288.407 1218.02 C 288.742 1216.73 288.984 1216.12 288.845 1215.6 C 282.502 1191.65 284.917 1168.79 296.227 1146.59 C 315.151 1109.44 333.638 1072.07 352.231 1034.76 C 361.166 1016.83 369.925 998.811 378.763 980.832 Z" style=""/>
  <path fill="#CF1C3D" opacity="1.000000" stroke="none" d="M 1787.72 1045.6 C 1784.65 1041 1781.51 1036.44 1778.59 1031.74 C 1758.66 999.537 1757.4 966.426 1776.43 933.815 C 1791.9 907.284 1815.73 891.52 1846.67 888.345 C 1856.4 887.346 1866.41 888.894 1876.84 889.216 C 1877.37 889.154 1877.67 889.07 1877.87 889.385 C 1878.42 889.657 1878.78 889.614 1879.13 889.571 C 1917.49 904.293 1952.6 923.9 1978.2 957.2 C 2000.95 986.789 2009.94 1020.95 2010.23 1057.74 C 2010.55 1097.26 2002.88 1134.82 1982.14 1169 C 1958.84 1207.45 1924.71 1233.14 1884.26 1251.24 C 1845.22 1268.7 1803.97 1277.53 1761.62 1281.54 C 1724.85 1285.03 1688.09 1285.1 1651.47 1279.46 C 1597.65 1271.16 1546.96 1254.81 1503.21 1221.04 C 1485.59 1207.43 1470.11 1192.07 1462.31 1170.3 C 1447.73 1129.59 1462.31 1084.63 1498.33 1060.48 C 1533.68 1036.79 1580.85 1039.96 1612.38 1069.08 C 1620.32 1076.43 1627.75 1085.33 1632.46 1094.96 C 1642.69 1115.92 1659.06 1128.33 1680.79 1134.08 C 1711.06 1142.1 1741.54 1143.1 1771.49 1132.54 C 1796.08 1123.88 1809.17 1106.12 1809.91 1082.68 C 1810.37 1067.9 1804.33 1056.86 1791.63 1048.32 C 1790.54 1047.28 1789.79 1046.96 1789.05 1046.63 C 1789.05 1046.63 1789.22 1046.64 1789.11 1046.37 C 1788.61 1045.89 1788.21 1045.69 1787.81 1045.48 C 1787.81 1045.48 1787.77 1045.57 1787.72 1045.6 Z" style=""/>
  <path fill="#013C95" opacity="1.000000" stroke="none" d="M 378.449 980.539 C 369.925 998.811 361.166 1016.83 352.231 1034.76 C 333.638 1072.07 315.151 1109.44 296.227 1146.59 C 284.917 1168.79 282.502 1191.65 288.845 1215.6 C 288.984 1216.12 288.742 1216.73 288.381 1217.6 C 245.852 1133.51 203.614 1049.11 161.391 964.715 C 123.916 889.8 86.483 814.87 48.987 739.972 C 20.361 682.794 53.842 615.437 116.323 604.613 C 156.249 597.696 196.405 617.887 215.24 654.722 C 228.31 680.284 240.951 706.064 253.798 731.74 C 295.24 814.575 336.688 897.406 378.449 980.539 Z" style=""/>
  <path fill="#19458F" opacity="1.000000" stroke="none" d="M 805.585 1415.18 C 795.628 1429.24 779.208 1434.07 763.668 1427.82 C 750.02 1422.33 742.126 1408.33 744.64 1393.5 C 746.805 1380.73 754.125 1371.9 766.58 1368.31 C 779.523 1364.57 791.838 1366.48 801.393 1376.61 C 810.34 1386.12 812.32 1397.59 808.005 1410 C 807.429 1411.65 806.539 1413.21 805.585 1415.18 M 768.668 1422.73 C 779.15 1425.79 788.665 1424.06 796.304 1416.08 C 803.145 1408.94 804.488 1400.09 801.836 1390.79 C 798.656 1379.64 788.016 1372.41 776.252 1372.95 C 763.749 1373.54 753.931 1381.77 751.584 1393.64 C 749.173 1405.83 755.381 1416.92 768.668 1422.73 Z" style=""/>
  <path fill="#16418C" opacity="1.000000" stroke="none" d="M 1186.13 1427.08 C 1174.97 1432.66 1162.6 1430.39 1155.78 1421.76 C 1149.01 1413.21 1149.18 1398.85 1156.16 1390.43 C 1163.98 1380.99 1175.08 1380.35 1191.83 1388.8 C 1191.83 1380.35 1191.83 1372.25 1191.83 1363.88 C 1194.24 1363.77 1195.95 1363.69 1198.09 1363.6 C 1198.09 1385.64 1198.09 1407.35 1198.09 1429.52 C 1196.38 1429.6 1194.51 1429.7 1192.32 1429.8 C 1192.32 1427.33 1192.32 1425.21 1192.32 1422.21 C 1189.99 1424.09 1188.26 1425.48 1186.13 1427.08 M 1157.92 1403.43 C 1157.2 1416.87 1165.43 1425.86 1176.99 1424.25 C 1185.76 1423.03 1191.95 1415.81 1192.05 1406.72 C 1192.17 1396.86 1186.1 1389.57 1176.69 1388.32 C 1167.86 1387.14 1161.01 1392.32 1157.92 1403.43 Z" style=""/>
  <path fill="#19458F" opacity="1.000000" stroke="none" d="M 649.92 1424.81 C 637.734 1432.16 626.259 1431.85 617.938 1423.99 C 609.055 1415.6 608.374 1399.24 616.528 1390.11 C 625.116 1380.49 639.243 1379.61 649.369 1388.08 C 649.911 1388.53 650.473 1388.96 651.852 1390.06 C 651.852 1380.85 651.852 1372.52 651.852 1363.88 C 654.321 1363.88 656.168 1363.88 658.376 1363.88 C 658.376 1385.7 658.376 1407.3 658.376 1429.31 C 656.259 1428.97 653.001 1432.44 652.006 1426.51 C 651.961 1424.86 651.912 1423.86 651.805 1421.65 C 650.774 1423.38 650.347 1424.1 649.92 1424.81 M 646.697 1392.84 C 645.391 1391.98 644.156 1390.98 642.765 1390.28 C 635.349 1386.61 626.797 1388.24 621.823 1394.17 C 616.67 1400.31 616.35 1410.62 621.104 1417.33 C 625.546 1423.59 633.566 1425.97 641.102 1423.25 C 652.247 1419.22 655.272 1404.7 646.697 1392.84 Z" style=""/>
  <path fill="#19458F" opacity="1.000000" stroke="none" d="M 1311.3 1419.94 C 1311.3 1423.26 1311.3 1426.03 1311.3 1429.51 C 1309.31 1429.62 1307.32 1429.73 1304.99 1429.86 C 1304.85 1427.41 1304.75 1425.53 1304.71 1424.8 C 1298.7 1426.58 1292.85 1429.04 1286.77 1429.9 C 1280.27 1430.85 1274.4 1428.17 1269.9 1423.16 C 1262.04 1414.4 1261.43 1400.03 1268.48 1390.95 C 1276.18 1381.03 1287.55 1380.19 1304.39 1388.66 C 1304.39 1380.38 1304.39 1372.42 1304.39 1363.91 C 1306.84 1363.76 1308.67 1363.66 1311.3 1363.5 C 1311.3 1382.45 1311.3 1400.92 1311.3 1419.94 M 1300.3 1418.69 C 1308.18 1407.34 1304.92 1393.32 1293.48 1389.29 C 1285.73 1386.57 1276.83 1389.63 1272.96 1396.37 C 1268.49 1404.17 1269.92 1414.6 1276.22 1420.1 C 1283.08 1426.08 1291.72 1425.8 1300.3 1418.69 Z" style=""/>
  <path fill="#19458F" opacity="1.000000" stroke="none" d="M 1773.58 1428.54 C 1771.46 1429.32 1769.43 1429.62 1767.2 1429.95 C 1766.97 1427.47 1766.81 1425.58 1766.53 1422.45 C 1759.85 1429.97 1751.78 1431.58 1743.54 1429.39 C 1738.92 1428.17 1734.08 1425.13 1730.91 1421.52 C 1723.04 1412.56 1724.36 1396.91 1732.8 1388.66 C 1741.58 1380.06 1754.54 1380.24 1766.49 1389.64 C 1766.49 1380.86 1766.49 1372.57 1766.49 1364.32 C 1771.77 1362.58 1773.82 1363.66 1773.75 1369.08 C 1773.53 1388.73 1773.65 1408.39 1773.58 1428.54 M 1754.45 1388.91 C 1742.72 1386.87 1734.25 1392.72 1732.72 1403.89 C 1731.31 1414.36 1738.25 1423.31 1748.51 1424.25 C 1756.9 1425.02 1764.29 1419.63 1766.42 1411.19 C 1768.8 1401.78 1764.47 1393.17 1754.45 1388.91 Z" style=""/>
  <path fill="#19458F" opacity="1.000000" stroke="none" d="M 1602.41 1389.36 C 1602.4 1402.93 1602.4 1415.91 1602.4 1429.37 C 1600.17 1429.37 1598.16 1429.37 1595.88 1429.37 C 1595.68 1427.51 1595.46 1425.61 1595.15 1422.78 C 1588.65 1429.51 1580.97 1431.77 1572.82 1429.52 C 1568.14 1428.23 1563.15 1425.57 1559.92 1422.04 C 1551.95 1413.3 1552.97 1397.28 1561.1 1389.01 C 1569.81 1380.14 1582.4 1380.12 1595.43 1389.51 C 1595.43 1384.96 1595.43 1380.95 1595.43 1376.93 C 1595.43 1372.81 1595.43 1368.68 1595.43 1364.07 C 1597.74 1364.07 1599.73 1364.07 1602.41 1364.07 C 1602.41 1372.36 1602.41 1380.56 1602.41 1389.36 M 1595.55 1407.51 C 1595.25 1394.61 1587.43 1386.85 1576.27 1388.38 C 1567.27 1389.61 1561.14 1397.07 1561.27 1406.65 C 1561.38 1416.05 1567.83 1423.3 1576.97 1424.28 C 1586.21 1425.29 1593.33 1419.22 1595.55 1407.51 Z" style=""/>
  <path fill="#16418C" opacity="1.000000" stroke="none" d="M 1846.31 1424.54 C 1838.19 1415.59 1836.38 1404.54 1841.13 1394.9 C 1845.33 1386.42 1854 1381.15 1863.93 1382.57 C 1869.26 1383.34 1874.27 1386.31 1879.79 1388.42 C 1879.79 1380.74 1879.79 1372.4 1879.79 1363.84 C 1882.14 1363.84 1883.84 1363.84 1885.92 1363.84 C 1885.92 1385.71 1885.92 1407.44 1885.92 1429.5 C 1884.35 1429.61 1882.63 1429.72 1880.52 1429.87 C 1880.19 1427.67 1879.88 1425.67 1879.47 1423.05 C 1868.74 1431.77 1857.87 1433.06 1846.31 1424.54 M 1873.16 1420.82 C 1880.19 1413.99 1881.83 1405.46 1877.67 1397.31 C 1874.37 1390.88 1867.15 1387.15 1859.96 1388.45 C 1852.74 1389.75 1847.77 1393.83 1846.1 1401.14 C 1844.36 1408.75 1845.57 1415.86 1852.09 1420.78 C 1858.52 1425.64 1865.54 1425.64 1873.16 1420.82 Z" style=""/>
  <path fill="#16418C" opacity="1.000000" stroke="none" d="M 851.185 1382.57 C 863.07 1385.54 869.618 1392.62 870.647 1403.19 C 871.722 1414.26 867.314 1423.54 858.115 1427.74 C 849.532 1431.65 840.938 1431.45 833.107 1425.35 C 832.352 1424.77 831.592 1424.18 830.81 1423.63 C 830.684 1423.55 830.426 1423.65 829.782 1423.7 C 829.782 1431.24 829.782 1438.83 829.782 1446.89 C 827.526 1447.04 825.678 1447.17 823.506 1447.32 C 823.506 1425.81 823.506 1404.63 823.506 1383.03 C 825.35 1383.03 827.151 1383.03 829.124 1383.03 C 829.31 1385.18 829.475 1387.11 829.741 1390.2 C 835.858 1384.17 842.678 1381.41 851.185 1382.57 M 834.421 1419.09 C 841.975 1425.83 851.445 1426.2 858.346 1420 C 864.809 1414.21 865.877 1402.47 860.61 1395.12 C 855.746 1388.34 846.229 1386.32 838.451 1390.42 C 828.82 1395.5 826.778 1407.71 834.421 1419.09 Z" style=""/>
  <path fill="#19458F" opacity="1.000000" stroke="none" d="M 1418.63 1366.79 C 1426.15 1367.92 1433.18 1369.07 1441.08 1370.35 C 1439.9 1373.88 1439.32 1375.61 1439 1376.53 C 1432.16 1375.24 1425.94 1373.72 1419.62 1373.03 C 1416.87 1372.74 1413.29 1373.34 1411.23 1374.98 C 1408.59 1377.07 1405.73 1380.54 1405.54 1383.58 C 1405.37 1386.26 1408.2 1389.86 1410.68 1391.8 C 1413.16 1393.73 1416.85 1394.12 1420.03 1395.15 C 1424.88 1396.72 1429.85 1397.97 1434.56 1399.87 C 1439.95 1402.04 1442.92 1406.29 1443.13 1412.19 C 1443.35 1418.36 1441.14 1423.28 1435.7 1426.61 C 1425.08 1433.12 1406.54 1431.14 1396.74 1422.06 C 1397.51 1420.53 1398.34 1418.89 1399.28 1417.05 C 1407.59 1423.02 1416.27 1425.81 1426.18 1423.7 C 1431.72 1422.52 1435.98 1419.79 1436.33 1413.86 C 1436.65 1408.25 1432.4 1405.6 1427.67 1404.06 C 1420.76 1401.81 1413.65 1400.18 1406.89 1397.57 C 1401.08 1395.33 1397.99 1390.44 1398.08 1384.11 C 1398.19 1377.76 1400.76 1372.49 1406.85 1369.91 C 1410.41 1368.4 1414.36 1367.82 1418.63 1366.79 Z" style=""/>
  <path fill="#19458F" opacity="1.000000" stroke="none" d="M 277.019 1401.64 C 272.012 1390.31 267.177 1379.38 262.204 1368.14 C 267.082 1366.09 269.679 1367.23 271.738 1372.16 C 277.87 1386.84 284.509 1401.32 290.971 1415.86 C 291.506 1417.07 292.207 1418.19 293.298 1420.23 C 298.904 1407.67 304.158 1395.89 309.404 1384.13 C 311.242 1380 313.382 1375.97 314.813 1371.72 C 316.385 1367.04 319.288 1366.53 323.81 1367.91 C 315.004 1387.82 306.331 1407.56 297.474 1427.2 C 296.928 1428.41 295.016 1429.34 293.56 1429.73 C 290.717 1430.49 289.048 1429.21 287.86 1426.31 C 284.515 1418.14 280.774 1410.13 277.019 1401.64 Z" style=""/>
  <path fill="#16418C" opacity="1.000000" stroke="none" d="M 1654.9 1401.54 C 1654.91 1410.73 1654.92 1419.38 1654.92 1428.02 C 1654.92 1428.4 1654.75 1428.78 1654.58 1429.48 C 1652.8 1429.48 1650.95 1429.48 1648.84 1429.48 C 1648.67 1427.92 1648.52 1426.42 1648.36 1424.74 C 1647.62 1425.09 1647.04 1425.23 1646.63 1425.59 C 1640.27 1430.96 1632.9 1431.08 1625.44 1429.16 C 1618.66 1427.4 1615.26 1422.29 1615.61 1415.62 C 1615.95 1409.27 1619.7 1404.59 1626.64 1403.87 C 1633.6 1403.14 1640.69 1403.71 1647.9 1403.71 C 1648.92 1397.95 1648.22 1393.55 1643.95 1390.85 C 1635.6 1385.57 1627.8 1388.91 1619.85 1393.36 C 1618.91 1391.99 1617.97 1390.63 1617.07 1389.32 C 1623.32 1382.73 1636.04 1380.31 1645.12 1383.9 C 1652.89 1386.97 1655.12 1393.31 1654.9 1401.54 M 1632.81 1424.9 C 1644.58 1424.4 1649.3 1419.38 1648 1408.38 C 1642 1408.38 1635.86 1407.73 1629.97 1408.66 C 1627.19 1409.11 1623.79 1412.19 1622.78 1414.88 C 1622.02 1416.87 1624.14 1420.55 1625.9 1422.73 C 1627 1424.12 1629.78 1424.16 1632.81 1424.9 Z" style=""/>
  <path fill="#16418C" opacity="1.000000" stroke="none" d="M 1826.23 1407.19 C 1826.22 1414.07 1826.21 1420.36 1826.2 1426.66 C 1826.2 1427.44 1826.2 1428.22 1826.2 1429.4 C 1824.22 1429.4 1822.39 1429.4 1820.23 1429.4 C 1820.08 1427.97 1819.91 1426.49 1819.76 1425.02 C 1819.22 1425.06 1818.76 1424.94 1818.56 1425.13 C 1812.38 1430.76 1805 1431.08 1797.47 1429.35 C 1790.25 1427.69 1786.69 1422.7 1786.99 1415.72 C 1787.26 1409.1 1791.06 1404.55 1798.49 1403.79 C 1805.26 1403.1 1812.16 1403.64 1819.11 1403.64 C 1820.25 1398.07 1819.62 1393.69 1815.72 1391.08 C 1807.25 1385.4 1799.18 1388.94 1791.07 1393.4 C 1790.11 1391.92 1789.2 1390.51 1788.31 1389.16 C 1796.26 1382.07 1809.7 1380.12 1818.36 1384.74 C 1823.49 1387.48 1825.81 1392.11 1826.15 1397.77 C 1826.33 1400.7 1826.21 1403.66 1826.23 1407.19 M 1793.83 1417.92 C 1796.55 1424.38 1803.34 1426.78 1810.97 1424 C 1818.32 1421.3 1821.03 1416.03 1818.86 1408.35 C 1813.25 1408.35 1807.58 1408.07 1801.95 1408.42 C 1796.93 1408.75 1793.39 1411.15 1793.83 1417.92 Z" style=""/>
  <path fill="#19458F" opacity="1.000000" stroke="none" d="M 566.388 1391.76 C 561.601 1395.17 562.064 1390.7 560.458 1388.66 C 569.308 1382.26 578.634 1380.5 588.595 1383.83 C 595.604 1386.18 598.504 1391.93 598.626 1398.98 C 598.8 1409.01 598.67 1419.03 598.67 1429.26 C 595.106 1430.07 591.683 1431.18 591.919 1427.03 C 585.272 1428 578.729 1429.77 572.213 1429.69 C 564.157 1429.57 559.343 1423.85 559.346 1416.44 C 559.349 1409.06 563.527 1404.32 571.84 1403.55 C 578.234 1402.97 584.726 1403.43 591.034 1403.43 C 592.62 1393.94 588.904 1388.56 580.318 1388.52 C 575.804 1388.5 571.279 1390.48 566.388 1391.76 M 590.724 1417.91 C 591.221 1414.83 591.719 1411.74 592.252 1408.42 C 585.279 1408.42 579.417 1408.12 573.603 1408.53 C 569.407 1408.82 566.07 1411.04 565.801 1415.79 C 565.523 1420.73 568.495 1423.45 572.96 1424.38 C 579.703 1425.78 585.825 1424.75 590.724 1417.91 Z" style=""/>
  <path fill="#16418C" opacity="1.000000" stroke="none" d="M 1251.45 1419.93 C 1251.45 1423.43 1251.45 1426.36 1251.45 1429.28 C 1247.76 1430.21 1244.38 1431.07 1244.56 1427.2 C 1237.85 1428.08 1231.25 1429.78 1224.71 1429.61 C 1216.7 1429.39 1211.73 1423.48 1211.78 1416.26 C 1211.81 1409.34 1216.55 1404.27 1224.65 1403.58 C 1230.9 1403.06 1237.23 1403.49 1243.74 1403.49 C 1245.5 1398.35 1244.78 1393.79 1240.73 1391.1 C 1232.37 1385.55 1224.25 1388.64 1216.37 1393.24 C 1212.2 1390.01 1213.13 1387.38 1217.6 1385.85 C 1222.01 1384.34 1226.58 1382.7 1231.16 1382.44 C 1244.71 1381.68 1251.29 1388.18 1251.42 1401.66 C 1251.47 1407.56 1251.44 1413.46 1251.45 1419.93 M 1237.72 1408.16 C 1233.23 1408.42 1228.52 1407.99 1224.33 1409.23 C 1221.94 1409.94 1219.01 1413.27 1218.8 1415.65 C 1218.57 1418.1 1220.7 1421.93 1222.92 1423.19 C 1228.38 1426.28 1234.37 1425.66 1239.63 1422.04 C 1244.37 1418.79 1245.67 1414.15 1244.13 1408.4 C 1242.34 1408.33 1240.61 1408.24 1237.72 1408.16 Z" style=""/>
  <path fill="#19458F" opacity="1.000000" stroke="none" d="M 370.047 1399.48 C 374.145 1418.45 360.749 1434.06 340.034 1429.32 C 329.231 1426.85 322.85 1417.59 323.022 1405.48 C 323.184 1394.09 329.929 1385.68 341.036 1383.05 C 352.162 1380.4 363.391 1385.19 368.162 1394.66 C 368.867 1396.06 369.323 1397.57 370.047 1399.48 M 363.549 1410.56 C 363.627 1408.39 363.894 1406.22 363.751 1404.07 C 362.996 1392.71 352.095 1385.52 341.305 1389.18 C 333.718 1391.76 328.809 1399.55 329.638 1407.72 C 330.568 1416.88 335.985 1422.83 344.653 1424.21 C 353.004 1425.54 359.645 1421.05 363.549 1410.56 Z" style=""/>
  <path fill="#19458F" opacity="1.000000" stroke="none" d="M 885.711 1423.99 C 876.615 1413.35 876.079 1399.79 884.083 1390.29 C 891.115 1381.95 904.967 1379.78 914.845 1385.45 C 926.412 1392.1 930.032 1408.48 922.508 1420.11 C 915.038 1431.66 898.2 1433.59 885.711 1423.99 M 910.39 1390.02 C 909.274 1389.65 908.175 1389.21 907.041 1388.91 C 900.038 1387.07 892.688 1389.53 888.706 1395.02 C 884.438 1400.91 884.226 1410.63 888.232 1416.7 C 892.279 1422.83 899.362 1425.51 906.715 1423.74 C 913.545 1422.11 917.653 1417.61 919.014 1410.98 C 920.719 1402.66 918.867 1395.38 910.39 1390.02 Z" style=""/>
  <path fill="#19458F" opacity="1.000000" stroke="none" d="M 1496.78 1417.1 C 1489.6 1429.23 1476.6 1433.55 1464.58 1428.14 C 1453.63 1423.2 1448.32 1410.3 1452.28 1398.27 C 1456.33 1385.97 1468.93 1379.7 1482.27 1383.34 C 1494.59 1386.7 1501.42 1399.24 1498.28 1412.78 C 1497.97 1414.12 1497.42 1415.4 1496.78 1417.1 M 1458.15 1408.48 C 1459.72 1418.24 1465.39 1423.87 1474.22 1424.41 C 1482.37 1424.92 1489.45 1419.55 1491.51 1411.3 C 1493.81 1402.05 1490.21 1393.55 1482.41 1389.86 C 1471.39 1384.65 1456.76 1392.39 1458.15 1408.48 Z" style=""/>
  <path fill="#19458F" opacity="1.000000" stroke="none" d="M 493.215 1382.38 C 505.528 1385.01 510.12 1390.43 510.312 1402.43 C 510.456 1411.44 510.341 1420.45 510.341 1429.6 C 507.933 1429.6 506.031 1429.6 503.433 1429.6 C 503.433 1421.17 503.445 1412.96 503.431 1404.75 C 503.411 1393.83 499.164 1388.69 490.013 1388.48 C 480.448 1388.28 473.944 1394.52 473.593 1404.69 C 473.342 1411.97 473.568 1419.26 473.558 1426.55 C 473.557 1427.49 473.415 1428.42 473.324 1429.54 C 471.154 1429.54 469.27 1429.54 467.134 1429.54 C 467.134 1414.01 467.134 1398.73 467.134 1383.03 C 469.135 1383.03 470.943 1383.03 473.044 1383.03 C 473.254 1384.86 473.451 1386.57 473.515 1387.13 C 479.861 1385.55 486.282 1383.95 493.215 1382.38 Z" style=""/>
  <path fill="#16418C" opacity="1.000000" stroke="none" d="M 1054.31 1416.49 C 1054.31 1421 1054.31 1424.93 1054.31 1429.43 C 1052.46 1429.57 1050.61 1429.71 1048.32 1429.88 C 1048.13 1427.74 1047.96 1425.86 1047.66 1422.64 C 1042.6 1428.54 1036.58 1430.41 1029.68 1430.13 C 1018.95 1429.69 1011.85 1423.19 1011.47 1412.42 C 1011.13 1402.79 1011.4 1393.15 1011.4 1382.97 C 1013.43 1382.82 1015.28 1382.68 1018.08 1382.47 C 1018.08 1387.15 1018.08 1391.39 1018.08 1395.63 C 1018.09 1400.55 1017.92 1405.49 1018.16 1410.4 C 1018.59 1419.06 1022.77 1423.56 1030.53 1424.11 C 1039.15 1424.73 1045.67 1420.4 1046.89 1412.31 C 1047.79 1406.32 1047.57 1400.17 1047.74 1394.09 C 1047.85 1390.55 1047.76 1387.03 1047.76 1382.91 C 1049.89 1382.79 1051.7 1382.7 1054.31 1382.57 C 1054.31 1394.01 1054.31 1404.96 1054.31 1416.49 Z" style=""/>
  <path fill="#19458F" opacity="1.000000" stroke="none" d="M 427.387 1424.18 C 438.149 1422.74 442.406 1418.24 442.917 1408 C 443.123 1403.88 442.989 1399.74 442.999 1395.61 C 443.008 1391.52 443 1387.42 443 1383.2 C 447.659 1381.87 449.911 1382.41 449.801 1387.77 C 449.52 1401.52 449.707 1415.27 449.707 1429.52 C 447.608 1429.62 445.735 1429.72 443.568 1429.82 C 443.278 1427.63 443.032 1425.76 442.988 1425.43 C 437.125 1427 431.333 1429.65 425.445 1429.88 C 414.115 1430.33 407.365 1423.65 406.838 1412.31 C 406.394 1402.72 406.747 1393.09 406.747 1383.03 C 408.998 1383.03 410.991 1383.03 413.469 1383.03 C 413.469 1391.83 413.43 1400.45 413.479 1409.08 C 413.534 1418.76 417.121 1422.77 427.387 1424.18 Z" style=""/>
  <path fill="#16418C" opacity="1.000000" stroke="none" d="M 1079.89 1397.03 C 1079.22 1405.67 1078.72 1413.87 1078.3 1422.07 C 1078.18 1424.4 1078.28 1426.75 1078.28 1429.5 C 1076.12 1429.61 1074.24 1429.71 1071.99 1429.82 C 1071.99 1414.08 1071.99 1398.68 1071.99 1382.93 C 1073.74 1382.93 1075.41 1382.93 1077.47 1382.93 C 1077.79 1384.65 1078.12 1386.48 1078.2 1386.92 C 1084.77 1385.38 1091.17 1382.82 1097.65 1382.63 C 1107.09 1382.32 1113.93 1388.85 1114.49 1398.17 C 1115.12 1408.5 1114.63 1418.91 1114.63 1429.55 C 1112.43 1429.55 1110.57 1429.55 1108.26 1429.55 C 1108.26 1420.9 1108.3 1412.5 1108.25 1404.08 C 1108.21 1395.7 1105.34 1390.96 1099.34 1389.18 C 1091.68 1386.91 1084.52 1389.66 1079.89 1397.03 Z" style=""/>
  <path fill="#16418C" opacity="1.000000" stroke="none" d="M 977.019 1416.24 C 977.028 1406.87 977.028 1398.03 977.028 1388.78 C 974.279 1388.59 971.805 1388.42 968.994 1388.22 C 968.994 1386.45 968.994 1384.8 968.994 1382.8 C 971.568 1382.66 974.029 1382.53 976.99 1382.37 C 976.99 1379.14 976.99 1376.08 976.99 1372.8 C 979.221 1372.8 980.945 1372.8 983.169 1372.8 C 983.354 1375.76 983.545 1378.81 983.775 1382.49 C 988.274 1382.49 992.686 1382.49 997.344 1382.49 C 997.344 1384.79 997.344 1386.43 997.344 1388.57 C 992.767 1388.57 988.528 1388.57 983.572 1388.57 C 983.572 1398.63 983.11 1408.21 983.732 1417.73 C 984.158 1424.23 989.519 1425.82 998.435 1422.6 C 999.177 1423.93 999.959 1425.33 1000.73 1426.72 C 989.004 1434.28 977.724 1429.37 977.019 1416.24 Z" style=""/>
  <path fill="#19458F" opacity="1.000000" stroke="none" d="M 534.991 1379.9 C 536.519 1381.14 537.987 1382.29 539.565 1382.47 C 542.445 1382.81 545.391 1382.57 548.688 1382.57 C 548.688 1384.66 548.688 1386.31 548.688 1388.4 C 544.285 1388.4 540.013 1388.4 535.073 1388.4 C 535.073 1398.75 534.691 1408.71 535.241 1418.62 C 535.501 1423.29 539.554 1424.88 543.991 1424.33 C 545.877 1424.1 547.689 1423.26 549.602 1422.68 C 552.657 1426.02 551.78 1428.1 547.721 1429.42 C 536.323 1433.13 528.074 1427.23 527.994 1415.17 C 527.936 1406.54 527.983 1397.92 527.983 1388.9 C 525.11 1388.66 522.643 1388.44 519.883 1388.21 C 519.883 1386.43 519.883 1384.76 519.883 1382.83 C 522.438 1382.67 524.76 1382.52 527.668 1382.33 C 527.668 1379.32 527.668 1376.29 527.668 1372.89 C 530.325 1372.89 532.396 1372.89 534.98 1372.89 C 534.98 1375.13 534.98 1377.24 534.991 1379.9 Z" style=""/>
  <path fill="#16418C" opacity="1.000000" stroke="none" d="M 1680.08 1387.85 C 1684.85 1385.64 1689.62 1383.43 1695.38 1380.75 C 1695.58 1384.51 1695.67 1386.2 1695.78 1388.07 C 1694.86 1388.41 1694.17 1388.81 1693.46 1388.91 C 1683.19 1390.34 1678.92 1394.74 1678.54 1405.16 C 1678.24 1413.19 1678.48 1421.24 1678.48 1429.56 C 1676.12 1429.56 1674.25 1429.56 1672.14 1429.56 C 1672.14 1414.06 1672.14 1398.75 1672.14 1383.04 C 1674.8 1382.98 1678.13 1380.62 1678.24 1386.55 C 1678.25 1387.88 1678.3 1388.63 1678.37 1390.11 C 1679.23 1388.97 1679.65 1388.41 1680.08 1387.85 Z" style=""/>
  <path fill="#16418C" opacity="1.000000" stroke="none" d="M 938.788 1410.63 C 938.789 1401.05 938.789 1392.05 938.789 1382.82 C 941.157 1382.82 942.859 1382.82 944.9 1382.82 C 945.16 1384.85 945.4 1386.72 945.558 1387.94 C 950.828 1385.73 956.17 1383.5 962.487 1380.86 C 962.713 1384.47 962.829 1386.32 962.942 1388.11 C 947.829 1391.68 945.64 1394.52 945.652 1410.05 C 945.656 1416.49 945.652 1422.94 945.652 1429.58 C 943.194 1429.58 941.303 1429.58 938.788 1429.58 C 938.788 1423.31 938.788 1417.26 938.788 1410.63 Z" style=""/>
  <path fill="#19458F" opacity="1.000000" stroke="none" d="M 1511.49 1371.78 C 1511.49 1368.9 1511.49 1366.58 1511.49 1364.29 C 1516.39 1362.64 1518.34 1363.65 1518.29 1368.83 C 1518.08 1388.84 1518.21 1408.87 1518.21 1429.35 C 1516.05 1429.35 1514.04 1429.35 1511.49 1429.35 C 1511.49 1410.33 1511.49 1391.33 1511.49 1371.78 Z" style=""/>
  <path fill="#16418C" opacity="1.000000" stroke="none" d="M 383.25 1369.71 C 383.349 1367.46 383.447 1365.74 383.557 1363.86 C 385.673 1363.86 387.37 1363.86 389.423 1363.86 C 389.423 1385.8 389.423 1407.53 389.423 1429.46 C 387.372 1429.46 385.512 1429.46 383.249 1429.46 C 383.249 1409.53 383.249 1389.89 383.25 1369.71 Z" style=""/>
  <path fill="#19458F" opacity="1.000000" stroke="none" d="M 1138.56 1411.82 C 1138.56 1417.89 1138.56 1423.38 1138.56 1429.34 C 1136.29 1429.34 1134.27 1429.34 1131.98 1429.34 C 1131.98 1413.98 1131.98 1398.55 1131.98 1382.84 C 1134.12 1382.84 1136 1382.84 1138.56 1382.84 C 1138.56 1392.44 1138.56 1401.83 1138.56 1411.82 Z" style=""/>
  <path fill="#19458F" opacity="1.000000" stroke="none" d="M 1542.15 1415.35 C 1542.15 1420.25 1542.15 1424.57 1542.15 1429.35 C 1539.99 1429.35 1537.98 1429.35 1535.62 1429.35 C 1535.62 1414.01 1535.62 1398.64 1535.62 1382.93 C 1537.75 1382.93 1539.58 1382.93 1542.15 1382.93 C 1542.15 1393.65 1542.15 1404.2 1542.15 1415.35 Z" style=""/>
  <path fill="#013C95" opacity="1.000000" stroke="none" d="M 1707.69 1383.03 C 1709.37 1382.94 1711.05 1382.85 1713.07 1382.74 C 1713.07 1398.59 1713.07 1413.83 1713.07 1429.4 C 1711.03 1429.4 1709.18 1429.4 1706.83 1429.4 C 1706.83 1414.32 1706.83 1399.42 1707.16 1384.03 C 1707.72 1383.44 1707.79 1383.26 1707.69 1383.03 Z" style=""/>
  <path fill="#234785" opacity="1.000000" stroke="none" d="M 1137.88 1364.48 C 1138.32 1366.97 1139.03 1369.52 1138.2 1371.38 C 1137.8 1372.29 1134.21 1372.64 1132.68 1371.93 C 1131.48 1371.38 1130.39 1368.63 1130.69 1367.17 C 1131.45 1363.51 1134.22 1362.88 1137.88 1364.48 Z" style=""/>
  <path fill="#234785" opacity="1.000000" stroke="none" d="M 1541.82 1371.77 C 1539.14 1371.4 1536.64 1371.13 1534.62 1369.98 C 1534.11 1369.69 1534.6 1365.82 1535.66 1365.07 C 1537.08 1364.08 1540.97 1363.9 1541.24 1364.51 C 1542.17 1366.58 1541.96 1369.16 1541.82 1371.77 Z" style=""/>
  <path fill="#234785" opacity="1.000000" stroke="none" d="M 1714.77 1367.23 C 1714.68 1371.25 1712.79 1373.48 1709.29 1372.65 C 1707.71 1372.27 1705.65 1369.87 1705.61 1368.34 C 1705.57 1366.83 1707.71 1364.08 1709.05 1364 C 1710.85 1363.87 1712.79 1365.76 1714.77 1367.23 Z" style=""/>
  <path fill="#7A0234" opacity="1.000000" stroke="none" d="M 1789.24 1046.99 C 1789.79 1046.96 1790.54 1047.28 1791.44 1048.01 C 1790.88 1048.06 1790.15 1047.7 1789.24 1046.99 Z" style=""/>
  <path fill="#486ECF" opacity="1.000000" stroke="none" d="M 1707.51 1382.92 C 1707.79 1383.26 1707.72 1383.44 1707.35 1383.51 C 1707.2 1383.49 1707.01 1383.1 1707.01 1383.1 C 1707.01 1383.1 1707.32 1382.81 1707.51 1382.92 Z" style=""/>
  <path fill="#7A0234" opacity="1.000000" stroke="none" d="M 1878.82 889.451 C 1878.78 889.614 1878.42 889.657 1877.95 889.517 C 1878.05 889.334 1878.27 889.332 1878.82 889.451 Z" style=""/>
  <path fill="#7A0234" opacity="1.000000" stroke="none" d="M 1787.77 1045.86 C 1788.21 1045.69 1788.61 1045.89 1789.09 1046.46 C 1788.69 1046.62 1788.21 1046.44 1787.77 1045.86 Z" style=""/>
</svg>