<?xml version="1.0" encoding="utf-8"?>
<svg width="883pt" height="883pt" viewBox="0 0 883 883" version="1.1" xmlns="http://www.w3.org/2000/svg">
  <g id="#ffffffff"/>
  <g id="#cf152dff" style="" transform="matrix(1.193779, 0, 0, 1.193779, -85.964355, -29.516672)">
    <path fill="#cf152d" opacity="1.00" d=" M 537.93 93.93 C 539.61 91.93 542.29 91.34 544.60 90.38 C 543.80 103.60 553.06 116.70 565.93 119.98 C 562.70 113.31 559.30 105.54 562.19 98.13 C 563.26 94.72 566.92 92.97 570.32 93.51 C 571.07 98.31 571.30 103.53 574.52 107.48 C 580.72 115.51 590.67 119.01 599.31 123.68 C 607.19 127.74 612.94 135.44 614.99 144.02 C 616.25 149.03 614.73 154.53 611.40 158.41 C 610.54 159.51 608.95 159.90 607.72 159.20 C 604.83 157.49 602.43 155.05 599.50 153.40 C 590.42 147.86 579.45 146.89 569.05 147.06 C 552.47 147.17 536.10 152.95 522.81 162.80 C 519.09 165.20 515.94 169.72 511.02 169.18 C 499.55 167.32 490.16 156.67 490.17 144.98 C 490.20 138.08 494.71 131.64 500.94 128.83 C 506.75 125.98 513.53 126.48 519.58 128.25 C 518.24 123.30 515.80 118.22 516.95 112.98 C 517.53 110.05 519.84 108.01 521.98 106.14 C 525.64 115.20 533.47 122.05 542.78 124.87 C 538.54 119.77 535.05 113.70 534.70 106.93 C 534.52 102.47 534.84 97.45 537.93 93.93 Z"/>
    <path fill="#cf152d" opacity="1.00" d=" M 581.46 156.75 C 587.96 155.44 595.34 155.29 601.03 159.20 C 606.86 163.21 610.26 170.08 611.07 177.00 C 611.54 179.61 611.30 182.67 613.29 184.72 C 615.88 187.46 618.90 189.80 621.21 192.82 C 630.68 204.22 634.25 220.26 630.50 234.60 C 628.42 243.14 623.22 250.34 618.64 257.67 C 603.15 245.61 587.90 232.91 575.69 217.43 C 568.74 208.59 562.54 198.89 559.22 188.07 C 557.07 181.29 561.01 174.92 564.19 169.23 C 567.83 162.86 574.26 158.18 581.46 156.75 M 581.25 172.17 C 576.02 174.25 576.28 182.45 581.15 184.78 C 585.06 187.29 590.16 183.34 589.81 179.02 C 590.22 174.70 585.55 170.03 581.25 172.17 Z"/>
    <path fill="#cf152d" opacity="1.00" d=" M 611.15 162.27 C 616.63 160.90 622.23 162.76 627.36 164.65 C 633.38 167.14 639.54 170.09 643.98 175.00 C 638.47 180.83 631.81 187.47 623.05 186.89 C 620.11 185.86 617.86 183.55 615.27 181.90 C 617.51 175.09 615.62 167.71 611.15 162.27 Z"/>
    <path fill="#cf152d" opacity="1.00" d=" M 295.89 260.05 C 323.82 247.70 355.80 244.45 385.54 251.61 C 412.43 258.09 437.59 271.41 458.34 289.67 C 482.26 310.94 500.48 338.40 511.70 368.32 C 525.56 406.26 527.97 448.77 516.50 487.64 C 510.22 508.70 499.57 528.39 485.42 545.18 C 494.21 503.02 487.36 457.31 464.28 420.71 C 447.60 394.05 422.04 372.40 391.75 363.12 C 365.58 354.92 336.54 356.51 311.40 367.46 C 283.47 379.37 260.76 401.75 246.22 428.18 C 236.10 446.36 229.87 466.53 227.09 487.11 C 215.56 463.13 209.62 436.56 208.98 410.01 C 208.58 380.05 214.68 349.62 229.28 323.26 C 244.22 296.03 267.22 272.62 295.89 260.05 Z"/>
    <path fill="#cf152d" opacity="1.00" d=" M 282.65 406.68 C 304.85 388.46 334.62 381.12 362.94 382.92 C 392.40 387.33 421.71 399.55 442.20 421.76 C 456.41 437.00 465.82 456.30 470.67 476.47 C 476.90 502.56 476.89 530.00 471.73 556.27 C 463.51 533.00 454.29 509.57 439.22 489.77 C 432.66 481.01 424.00 474.14 415.16 467.82 C 402.43 458.78 387.75 452.06 372.12 450.33 C 350.62 447.83 328.05 452.17 309.63 463.74 C 300.91 469.07 293.89 476.73 287.87 484.90 C 284.88 488.75 282.79 493.21 281.55 497.92 C 277.14 513.74 279.13 530.59 283.57 546.17 C 261.05 527.56 247.67 498.18 248.95 468.95 C 252.61 445.21 263.91 422.11 282.65 406.68 Z"/>
    <path fill="#cf152d" opacity="1.00" d=" M 347.24 470.17 C 362.64 465.65 379.63 466.29 394.43 472.68 C 409.93 479.19 423.03 490.58 432.86 504.11 C 440.60 514.03 445.32 525.80 450.59 537.11 C 455.19 547.96 460.37 558.63 464.14 569.81 C 449.06 557.61 435.18 543.96 419.58 532.41 C 407.19 523.07 392.39 516.69 376.93 514.98 C 361.13 513.88 344.41 517.86 332.12 528.21 C 325.41 533.75 320.30 541.37 318.39 549.92 C 316.74 556.80 317.38 563.93 317.28 570.95 C 309.67 559.52 303.76 546.73 301.35 533.16 C 299.11 520.83 302.13 507.69 309.65 497.67 C 319.11 485.13 331.88 474.43 347.24 470.17 Z"/>
    <path fill="#cf152d" opacity="1.00" d=" M 352.98 530.89 C 362.75 524.08 375.34 522.31 386.88 524.69 C 400.80 527.25 412.87 535.53 422.89 545.19 C 434.49 556.73 444.92 569.65 452.04 584.46 C 442.68 578.35 433.68 571.72 424.46 565.40 C 413.62 557.71 401.56 550.98 388.17 549.32 C 376.78 547.66 364.01 550.40 355.75 558.80 C 350.17 564.45 349.64 572.79 349.83 580.28 C 342.44 572.50 339.04 561.57 339.08 550.98 C 339.33 542.19 346.24 535.60 352.98 530.89 Z"/>
  </g>
  <g id="#0f2556ff">
    <path fill="#0f2556" opacity="1.00" d="M 567.51 159.602 C 575.078 156.988 582.886 154.862 590.92 154.576 C 586.371 157.823 581.453 160.856 578.254 165.583 C 572.189 174.094 571.939 185.28 573.933 195.177 C 576.105 206.147 582.336 215.673 588.401 224.866 C 603.526 247.13 623.641 265.454 644.974 281.642 C 652.722 287.492 658.081 295.716 663.573 303.584 C 678.376 325.095 690.72 348.434 698.754 373.324 C 712.733 417.064 715.276 465.472 700.008 509.236 C 686.375 548.678 659.992 582.891 628.058 609.37 C 592.794 638.009 550.367 656.823 506.662 668.378 C 492.182 671.96 477.571 675.421 462.66 676.508 C 463.723 674.455 465.37 672.843 467.507 671.948 C 502.281 653.815 529.488 622.609 544.602 586.592 C 561.827 546.565 565.672 501.679 559.272 458.811 C 555.525 433.741 548.601 409.065 538.262 385.918 C 525.596 364.538 514.877 341.868 508.012 317.933 C 501.47 295.119 497.781 271.149 500.312 247.428 C 502.736 226.585 509.946 205.86 523.28 189.434 C 534.645 175.371 550.462 165.32 567.51 159.602 Z" style=""/>
    <path fill="#0f2556" opacity="1.00" d="M 180.666 708.442 C 186.922 708.43 193.176 708.406 199.432 708.453 C 199.397 739.551 199.397 770.65 199.432 801.748 C 180.749 784.796 162.126 767.784 143.504 750.773 C 143.516 767.724 143.491 784.676 143.504 801.628 C 137.284 801.628 131.052 801.616 124.833 801.64 C 124.856 770.554 124.809 739.48 124.856 708.394 C 143.48 725.346 162.103 742.285 180.701 759.26 C 180.654 742.321 180.737 725.381 180.666 708.442 Z" style=""/>
    <path fill="#0f2556" opacity="1.00" d="M 244.139 709.11 C 255.444 707.045 267.609 708.799 277.397 714.995 C 287.676 721.537 295.853 731.863 298.599 743.861 C 301.225 755.501 299.793 768.285 293.49 778.552 C 286.709 789.666 275.416 798.309 262.475 800.673 C 251.003 802.822 238.6 801.019 228.692 794.668 C 219.153 788.485 211.477 779.114 208.374 768.083 C 204.971 755.93 206.32 742.309 212.862 731.41 C 219.655 720.164 231.067 711.45 244.139 709.11 M 247.278 727.614 C 234.529 730.263 224.537 742.834 225.397 755.942 C 225.457 770.792 239.424 783.757 254.25 782.731 C 269.591 782.599 282.889 767.772 281.015 752.468 C 280.059 736.317 263.036 723.698 247.278 727.614 Z" style=""/>
    <path fill="#0f2556" opacity="1.00" d="M 317.819 710.77 C 327.752 705.875 340.644 707.427 348.797 715.067 C 354.838 720.283 358.157 728.091 358.324 736.029 C 352.116 736.054 345.92 736.042 339.713 736.054 C 339.211 730.92 334.914 726.157 329.482 726.694 C 322.641 726.969 318.404 735.779 322.57 741.247 C 327.811 747.227 336.407 747.204 342.996 750.892 C 350.768 754.939 357.99 762.221 358.133 771.509 C 359.565 786.813 346.076 801.437 330.7 801.222 C 315.491 801.986 301.775 788.305 302.049 773.156 C 308.257 773.12 314.465 773.204 320.672 773.097 C 321.114 778.11 325.304 782.873 330.629 782.432 C 336.574 782.349 340.943 775.795 339.069 770.219 C 337.791 765.385 332.013 764.919 328.146 763.212 C 318.189 760.324 308.161 754.521 303.732 744.732 C 298.742 731.923 305.654 716.643 317.819 710.77 Z" style=""/>
    <path fill="#0f2556" opacity="1.00" d="M 400.572 709.039 C 411.555 707.128 423.338 708.751 432.924 714.638 C 443.596 721.167 452.012 731.78 454.782 744.111 C 457.444 756.169 455.665 769.432 448.801 779.842 C 442.76 788.902 433.831 796.291 423.325 799.491 C 410.373 803.383 395.594 801.819 384.229 794.286 C 374.201 787.625 366.335 777.322 363.815 765.444 C 361.368 753.913 362.861 741.307 369.103 731.171 C 376.016 719.985 387.452 711.271 400.572 709.039 M 401.634 728.031 C 389.72 731.41 380.719 743.408 381.495 755.894 C 381.567 770.004 394.174 782.611 408.272 782.731 C 423.086 783.733 437.173 770.792 437.173 755.906 C 437.901 745.258 431.395 735.063 422.155 730.121 C 415.947 726.742 408.415 726.277 401.634 728.031 Z" style=""/>
    <path fill="#0f2556" opacity="1.00" d="M 458.112 708.465 C 480.054 708.382 502.007 708.453 523.96 708.43 C 523.997 714.673 523.985 720.94 523.973 727.196 C 516.129 727.232 508.287 727.244 500.443 727.207 C 500.42 752.015 500.431 776.821 500.431 801.64 C 494.176 801.628 487.92 801.616 481.666 801.652 C 481.641 776.821 481.773 752.003 481.606 727.184 C 473.798 727.28 466.003 727.159 458.195 727.267 C 458.088 721 458.208 714.732 458.112 708.465 Z" style=""/>
    <path fill="#0f2556" opacity="1.00" d="M 529.726 708.406 C 540.996 708.478 552.277 708.37 563.546 708.465 C 572.715 708.561 581.441 713.145 587.291 720.105 C 597.127 731.135 597.521 749.161 588.377 760.717 C 584.772 765.659 579.674 769.288 574.075 771.628 C 581.059 781.644 587.995 791.695 595.074 801.652 C 587.399 801.616 579.734 801.628 572.07 801.64 C 564.179 790.335 556.336 778.994 548.422 767.713 C 548.469 779.03 548.409 790.335 548.445 801.64 C 542.201 801.616 535.958 801.628 529.715 801.64 C 529.739 770.554 529.691 739.48 529.726 708.406 M 548.422 727.28 C 548.469 736.686 548.409 746.105 548.445 755.524 C 556.133 754.832 565.194 757.661 571.653 752.157 C 577.943 747.24 578.493 736.878 572.596 731.434 C 566.328 724.785 556.443 727.9 548.422 727.28 Z" style=""/>
    <path fill="#0f2556" opacity="1.00" d="M 638.015 709.122 C 649.344 707.045 661.556 708.788 671.357 715.007 C 681.373 721.406 689.406 731.327 692.319 742.966 C 695.423 755.369 693.681 769.193 686.553 779.937 C 680.143 789.63 670.342 797.307 658.965 800.1 C 646.526 803.144 632.69 801.402 621.946 794.215 C 612.289 787.744 604.612 777.908 601.879 766.495 C 599.085 754.712 600.518 741.724 606.869 731.302 C 613.697 720.164 625.002 711.438 638.015 709.122 M 639.208 728.115 C 627.426 731.613 618.496 743.539 619.356 755.966 C 619.392 770.375 632.607 783.077 646.979 782.742 C 661.102 783.22 674.257 771.174 674.985 757.064 C 675.988 746.881 670.556 736.734 662.009 731.327 C 655.384 726.886 646.801 726.026 639.208 728.115 Z" style=""/>
    <path fill="#0f2556" opacity="1.00" d="M 716.672 708.919 C 724.038 707.045 732.263 707.916 738.733 712.047 C 746.983 717.06 752.199 726.36 752.259 736.018 C 746.063 736.065 739.868 736.018 733.672 736.054 C 733.146 730.933 728.861 726.17 723.418 726.694 C 716.565 726.933 712.327 735.862 716.565 741.27 C 722.021 747.466 731.022 747.24 737.731 751.346 C 745.586 755.536 752.486 763.332 752.128 772.739 C 752.868 788.067 738.805 802.093 723.465 801.198 C 708.663 801.329 695.758 787.876 695.996 773.156 C 702.204 773.108 708.411 773.192 714.619 773.108 C 715.145 776.439 716.637 779.829 719.848 781.381 C 724.276 783.924 730.413 781.751 732.502 777.143 C 734.102 773.538 733.684 768.285 729.9 766.232 C 722.784 762.865 714.69 761.613 708.233 756.897 C 702.025 752.576 696.557 746.105 696.199 738.226 C 694.743 725.154 704.102 712.262 716.672 708.919 Z" style=""/>
  </g>
</svg>