<?xml version="1.0" encoding="UTF-8" ?>
<!DOCTYPE svg PUBLIC "-//W3C//DTD SVG 1.1//EN" "http://www.w3.org/Graphics/SVG/1.1/DTD/svg11.dtd">
<svg width="749pt" height="901pt" viewBox="0 0 749 901" version="1.1" xmlns="http://www.w3.org/2000/svg">
<g id="#ffffffff">
<path fill="#ffffff" opacity="1.00" d=" M 264.26 672.24 C 271.51 669.81 279.87 675.37 280.55 682.94 C 281.49 689.46 276.51 696.05 269.99 696.94 C 263.52 698.19 256.65 693.59 255.43 687.10 C 253.90 680.82 258.07 673.95 264.26 672.24 Z" />
<path fill="#ffffff" opacity="1.00" d=" M 468.39 672.60 C 475.01 669.75 483.33 673.82 485.26 680.72 C 487.38 687.06 483.50 694.57 477.09 696.48 C 470.84 698.69 463.31 695.15 461.14 688.87 C 458.63 682.63 462.13 674.95 468.39 672.60 Z" />
<path fill="#ffffff" opacity="1.00" d=" M 72.46 744.97 C 72.41 721.87 72.45 698.78 72.45 675.69 C 79.96 675.68 87.48 675.68 95.00 675.69 C 95.00 693.46 95.00 711.24 95.00 729.01 C 95.13 738.03 94.55 747.16 96.21 756.09 C 97.38 762.31 100.07 768.97 105.92 772.15 C 113.76 776.19 125.06 774.90 130.21 767.18 C 135.07 759.78 135.48 750.56 135.63 741.98 C 135.77 719.88 135.64 697.79 135.70 675.69 C 143.21 675.68 150.73 675.68 158.24 675.69 C 158.26 694.46 158.24 713.22 158.25 731.99 C 158.29 745.26 158.85 759.12 153.29 771.52 C 149.51 780.41 142.16 787.79 133.00 791.04 C 124.06 794.30 114.23 794.62 104.91 793.03 C 95.85 791.45 87.21 786.67 81.79 779.13 C 74.59 769.35 72.58 756.84 72.46 744.97 Z" />
<path fill="#ffffff" opacity="1.00" d=" M 565.30 715.88 C 565.33 707.41 565.29 698.95 565.33 690.49 C 572.49 690.51 579.65 690.48 586.82 690.51 C 586.82 698.96 586.80 707.42 586.83 715.87 C 591.21 715.87 595.60 715.87 599.99 715.88 C 600.00 721.90 600.00 727.92 600.00 733.94 C 595.60 733.95 591.21 733.93 586.82 733.95 C 586.81 752.95 586.82 771.94 586.81 790.94 C 579.64 790.93 572.47 790.95 565.31 790.93 C 565.31 771.93 565.32 752.94 565.30 733.95 C 562.84 733.95 560.39 733.92 557.93 733.94 C 557.94 727.91 557.93 721.90 557.94 715.88 C 560.39 715.87 562.84 715.86 565.30 715.88 Z" />
<path fill="#ffffff" opacity="1.00" d=" M 194.94 722.94 C 198.34 717.83 204.00 714.56 210.04 713.78 C 218.03 712.72 227.14 713.89 233.05 719.87 C 238.98 725.95 240.56 734.83 240.79 743.01 C 240.85 758.96 240.80 774.92 240.81 790.87 C 233.66 790.88 226.52 790.89 219.37 790.87 C 219.37 776.58 219.40 762.29 219.35 748.01 C 219.23 743.40 219.23 738.39 216.51 734.45 C 213.75 730.56 208.28 729.95 203.98 731.09 C 200.25 732.03 197.70 735.37 196.57 738.90 C 194.64 744.74 194.98 751.00 194.94 757.07 C 194.93 768.34 194.96 779.61 194.93 790.88 C 187.76 790.87 180.60 790.90 173.43 790.86 C 173.39 765.91 173.52 740.97 173.37 716.02 C 180.55 715.69 187.74 715.95 194.93 715.88 C 194.93 718.23 194.96 720.58 194.94 722.94 Z" />
<path fill="#ffffff" opacity="1.00" d=" M 318.43 714.65 C 330.39 711.85 343.85 713.66 353.76 721.23 C 373.91 736.43 373.69 771.42 353.04 786.10 C 337.24 797.16 313.04 795.69 299.72 781.30 C 288.42 768.91 286.77 749.55 293.63 734.60 C 298.26 724.59 307.71 717.12 318.43 714.65 M 323.33 733.49 C 308.65 739.78 307.43 762.90 320.36 771.67 C 326.07 775.66 334.38 775.07 339.52 770.38 C 348.81 762.14 349.19 746.23 340.60 737.36 C 336.31 732.74 329.18 731.11 323.33 733.49 Z" />
<path fill="#ffffff" opacity="1.00" d=" M 400.10 722.95 C 403.48 717.90 409.07 714.62 415.06 713.81 C 423.75 712.55 433.92 714.17 439.66 721.44 C 445.53 728.92 446.13 738.89 446.07 748.02 C 446.06 762.30 446.07 776.59 446.06 790.88 C 438.89 790.89 431.73 790.87 424.56 790.88 C 424.54 776.59 424.60 762.30 424.54 748.01 C 424.41 743.37 424.41 738.34 421.65 734.38 C 418.38 730.03 411.79 729.68 407.18 731.87 C 401.60 735.04 400.58 742.14 400.27 747.97 C 399.94 762.26 400.22 776.57 400.12 790.88 C 392.95 790.88 385.79 790.88 378.63 790.88 C 378.61 765.87 378.63 740.87 378.63 715.87 C 385.79 715.88 392.95 715.86 400.12 715.88 C 400.12 718.23 400.14 720.59 400.10 722.95 Z" />
<path fill="#ffffff" opacity="1.00" d=" M 511.40 716.42 C 517.67 712.88 525.23 712.92 532.12 714.27 C 537.77 715.37 543.33 717.50 547.82 721.18 C 544.76 725.33 541.67 729.46 538.60 733.60 C 534.66 730.08 528.69 726.66 523.48 729.52 C 519.81 731.35 519.07 737.04 522.73 739.30 C 530.52 744.29 540.94 745.29 546.91 753.01 C 555.01 764.02 551.18 781.54 539.45 788.47 C 525.51 797.34 505.65 793.60 495.36 780.84 C 498.61 776.56 501.91 772.32 505.19 768.06 C 509.54 772.74 515.31 777.19 522.05 776.73 C 526.06 776.51 529.69 773.11 529.65 769.00 C 530.01 764.96 526.36 762.24 523.04 760.87 C 515.63 757.53 506.60 755.45 502.15 747.97 C 496.52 737.30 500.62 722.22 511.40 716.42 Z" />
<path fill="#ffffff" opacity="1.00" d=" M 612.41 721.40 C 623.83 710.64 644.05 710.58 654.51 722.73 C 654.48 720.44 654.49 718.15 654.50 715.87 C 661.56 715.86 668.62 715.91 675.69 715.84 C 675.69 740.85 675.68 765.86 675.69 790.87 C 668.63 790.89 661.56 790.87 654.50 790.88 C 654.49 788.54 654.48 786.19 654.52 783.86 C 644.39 796.41 623.94 795.96 612.58 785.34 C 595.00 769.11 594.74 737.67 612.41 721.40 M 634.14 733.11 C 628.44 734.85 624.33 739.90 622.45 745.40 C 619.18 754.36 621.91 765.49 629.62 771.32 C 635.13 775.53 643.44 775.25 648.71 770.76 C 657.69 763.40 659.17 748.98 652.30 739.71 C 648.44 733.97 640.82 730.89 634.14 733.11 Z" />
<path fill="#ffffff" opacity="1.00" d=" M 257.12 715.88 C 264.27 715.84 271.41 715.93 278.56 715.83 C 278.73 740.86 278.57 765.89 278.64 790.92 C 271.46 790.96 264.30 790.94 257.13 790.93 C 257.11 765.91 257.12 740.90 257.12 715.88 Z" />
<path fill="#ffffff" opacity="1.00" d=" M 462.30 715.90 C 469.47 715.85 476.64 715.87 483.81 715.88 C 483.82 740.90 483.80 765.91 483.82 790.93 C 476.65 790.95 469.48 790.94 462.30 790.93 C 462.32 765.92 462.32 740.91 462.30 715.90 Z" />
</g>
<g id="#273284ff">
<path fill="#273284" opacity="1.00" d=" M 96.31 40.46 C 287.87 40.33 479.42 40.10 670.98 40.00 C 679.62 39.68 688.72 40.99 695.96 46.04 C 705.65 52.66 710.44 64.56 710.99 75.96 C 711.02 326.33 710.99 576.69 711.00 827.05 C 711.10 835.09 708.95 843.40 703.73 849.66 C 694.66 860.54 679.55 863.88 665.98 863.00 C 467.98 863.00 269.97 863.00 71.97 863.00 C 63.46 863.02 54.64 860.60 48.20 854.82 C 40.39 847.85 36.51 837.29 36.00 827.02 C 35.99 577.01 36.01 327.01 35.99 77.00 C 35.90 68.65 38.10 59.98 43.60 53.52 C 50.34 45.49 60.80 41.51 71.02 40.59 C 79.45 40.35 87.88 40.60 96.31 40.46 M 358.47 219.19 C 367.41 219.19 376.35 219.20 385.30 219.19 C 385.34 171.38 385.31 123.57 385.31 75.76 C 376.36 75.74 367.41 75.76 358.46 75.75 C 358.43 123.56 358.40 171.38 358.47 219.19 M 485.76 266.64 C 491.99 273.05 498.38 279.31 504.69 285.64 C 538.63 251.89 572.59 218.15 606.45 184.30 C 600.14 177.97 593.83 171.65 587.50 165.35 C 553.55 199.08 519.65 232.86 485.76 266.64 M 135.73 189.39 C 171.54 221.17 207.38 252.92 243.22 284.67 C 249.15 277.93 255.29 271.36 261.03 264.46 C 225.10 232.89 189.42 201.04 153.59 169.35 C 147.61 176.01 141.69 182.72 135.73 189.39 M 366.18 266.29 C 342.89 267.54 320.09 276.34 302.01 291.06 C 283.20 306.23 269.48 327.62 263.75 351.11 C 257.60 375.86 260.19 402.70 271.15 425.74 C 280.46 445.49 295.70 462.38 314.38 473.67 C 333.36 485.28 355.87 490.92 378.08 489.79 C 398.30 488.88 418.21 482.31 435.01 471.02 C 460.41 454.16 478.39 426.55 483.24 396.42 C 486.65 375.79 484.25 354.20 476.13 334.91 C 467.27 313.61 451.59 295.25 432.01 283.07 C 412.51 270.82 389.15 264.93 366.18 266.29 M 72.94 364.70 C 72.93 373.63 72.93 382.56 72.94 391.50 C 120.83 391.37 168.73 391.53 216.62 391.38 C 216.63 382.46 216.66 373.54 216.61 364.62 C 168.72 364.65 120.83 364.56 72.94 364.70 M 531.44 365.19 C 531.42 374.12 531.45 383.05 531.43 391.98 C 579.34 391.98 627.26 391.91 675.18 391.95 C 675.20 383.01 675.20 374.07 675.18 365.13 C 627.27 365.07 579.35 365.22 531.44 365.19 M 142.41 573.06 C 148.76 579.40 155.06 585.79 161.47 592.07 C 195.32 558.26 229.29 524.56 263.14 490.75 C 256.88 484.36 250.53 478.04 244.19 471.73 C 210.27 505.51 176.35 539.30 142.41 573.06 M 484.23 493.65 C 520.09 525.36 555.87 557.15 591.70 588.89 C 597.64 582.20 603.61 575.54 609.50 568.81 C 573.75 537.02 537.90 505.32 502.11 473.56 C 496.12 480.23 490.15 486.92 484.23 493.65 M 360.01 534.94 C 359.99 582.77 360.00 630.60 360.00 678.43 C 368.94 678.45 377.88 678.44 386.82 678.43 C 386.81 630.60 386.82 582.78 386.81 534.95 C 377.88 534.92 368.94 534.93 360.01 534.94 M 264.26 672.24 C 258.07 673.95 253.90 680.82 255.43 687.10 C 256.65 693.59 263.52 698.19 269.99 696.94 C 276.51 696.05 281.49 689.46 280.55 682.94 C 279.87 675.37 271.51 669.81 264.26 672.24 M 468.39 672.60 C 462.13 674.95 458.63 682.63 461.14 688.87 C 463.31 695.15 470.84 698.69 477.09 696.48 C 483.50 694.57 487.38 687.06 485.26 680.72 C 483.33 673.82 475.01 669.75 468.39 672.60 M 72.46 744.97 C 72.58 756.84 74.59 769.35 81.79 779.13 C 87.21 786.67 95.85 791.45 104.91 793.03 C 114.23 794.62 124.06 794.30 133.00 791.04 C 142.16 787.79 149.51 780.41 153.29 771.52 C 158.85 759.12 158.29 745.26 158.25 731.99 C 158.24 713.22 158.26 694.46 158.24 675.69 C 150.73 675.68 143.21 675.68 135.70 675.69 C 135.64 697.79 135.77 719.88 135.63 741.98 C 135.48 750.56 135.07 759.78 130.21 767.18 C 125.06 774.90 113.76 776.19 105.92 772.15 C 100.07 768.97 97.38 762.31 96.21 756.09 C 94.55 747.16 95.13 738.03 95.00 729.01 C 95.00 711.24 95.00 693.46 95.00 675.69 C 87.48 675.68 79.96 675.68 72.45 675.69 C 72.45 698.78 72.41 721.87 72.46 744.97 M 565.30 715.88 C 562.84 715.86 560.39 715.87 557.94 715.88 C 557.93 721.90 557.94 727.91 557.93 733.94 C 560.39 733.92 562.84 733.95 565.30 733.95 C 565.32 752.94 565.31 771.93 565.31 790.93 C 572.47 790.95 579.64 790.93 586.81 790.94 C 586.82 771.94 586.81 752.95 586.82 733.95 C 591.21 733.93 595.60 733.95 600.00 733.94 C 600.00 727.92 600.00 721.90 599.99 715.88 C 595.60 715.87 591.21 715.87 586.83 715.87 C 586.80 707.42 586.82 698.96 586.82 690.51 C 579.65 690.48 572.49 690.51 565.33 690.49 C 565.29 698.95 565.33 707.41 565.30 715.88 M 194.94 722.94 C 194.96 720.58 194.93 718.23 194.93 715.88 C 187.74 715.95 180.55 715.69 173.37 716.02 C 173.52 740.97 173.39 765.91 173.43 790.86 C 180.60 790.90 187.76 790.87 194.93 790.88 C 194.96 779.61 194.93 768.34 194.94 757.07 C 194.98 751.00 194.64 744.74 196.57 738.90 C 197.70 735.37 200.25 732.03 203.98 731.09 C 208.28 729.95 213.75 730.56 216.51 734.45 C 219.23 738.39 219.23 743.40 219.35 748.01 C 219.40 762.29 219.37 776.58 219.37 790.87 C 226.52 790.89 233.66 790.88 240.81 790.87 C 240.80 774.92 240.85 758.96 240.79 743.01 C 240.56 734.83 238.98 725.95 233.05 719.87 C 227.14 713.89 218.03 712.72 210.04 713.78 C 204.00 714.56 198.34 717.83 194.94 722.94 M 318.43 714.65 C 307.71 717.12 298.26 724.59 293.63 734.60 C 286.77 749.55 288.42 768.91 299.72 781.30 C 313.04 795.69 337.24 797.16 353.04 786.10 C 373.69 771.42 373.91 736.43 353.76 721.23 C 343.85 713.66 330.39 711.85 318.43 714.65 M 400.10 722.95 C 400.14 720.59 400.12 718.23 400.12 715.88 C 392.95 715.86 385.79 715.88 378.63 715.87 C 378.63 740.87 378.61 765.87 378.63 790.88 C 385.79 790.88 392.95 790.88 400.12 790.88 C 400.22 776.57 399.94 762.26 400.27 747.97 C 400.58 742.14 401.60 735.04 407.18 731.87 C 411.79 729.68 418.38 730.03 421.65 734.38 C 424.41 738.34 424.41 743.37 424.54 748.01 C 424.60 762.30 424.54 776.59 424.56 790.88 C 431.73 790.87 438.89 790.89 446.06 790.88 C 446.07 776.59 446.06 762.30 446.07 748.02 C 446.13 738.89 445.53 728.92 439.66 721.44 C 433.92 714.17 423.75 712.55 415.06 713.81 C 409.07 714.62 403.48 717.90 400.10 722.95 M 511.40 716.42 C 500.62 722.22 496.52 737.30 502.15 747.97 C 506.60 755.45 515.63 757.53 523.04 760.87 C 526.36 762.24 530.01 764.96 529.65 769.00 C 529.69 773.11 526.06 776.51 522.05 776.73 C 515.31 777.19 509.54 772.74 505.19 768.06 C 501.91 772.32 498.61 776.56 495.36 780.84 C 505.65 793.60 525.51 797.34 539.45 788.47 C 551.18 781.54 555.01 764.02 546.91 753.01 C 540.94 745.29 530.52 744.29 522.73 739.30 C 519.07 737.04 519.81 731.35 523.48 729.52 C 528.69 726.66 534.66 730.08 538.60 733.60 C 541.67 729.46 544.76 725.33 547.82 721.18 C 543.33 717.50 537.77 715.37 532.12 714.27 C 525.23 712.92 517.67 712.88 511.40 716.42 M 612.41 721.40 C 594.74 737.67 595.00 769.11 612.58 785.34 C 623.94 795.96 644.39 796.41 654.52 783.86 C 654.48 786.19 654.49 788.54 654.50 790.88 C 661.56 790.87 668.63 790.89 675.69 790.87 C 675.68 765.86 675.69 740.85 675.69 715.84 C 668.62 715.91 661.56 715.86 654.50 715.87 C 654.49 718.15 654.48 720.44 654.51 722.73 C 644.05 710.58 623.83 710.64 612.41 721.40 M 257.12 715.88 C 257.12 740.90 257.11 765.91 257.13 790.93 C 264.30 790.94 271.46 790.96 278.64 790.92 C 278.57 765.89 278.73 740.86 278.56 715.83 C 271.41 715.93 264.27 715.84 257.12 715.88 M 462.30 715.90 C 462.32 740.91 462.32 765.92 462.30 790.93 C 469.48 790.94 476.65 790.95 483.82 790.93 C 483.80 765.91 483.82 740.90 483.81 715.88 C 476.64 715.87 469.47 715.85 462.30 715.90 Z" />
<path fill="#273284" opacity="1.00" d=" M 323.33 733.49 C 329.18 731.11 336.31 732.74 340.60 737.36 C 349.19 746.23 348.81 762.14 339.52 770.38 C 334.38 775.07 326.07 775.66 320.36 771.67 C 307.43 762.90 308.65 739.78 323.33 733.49 Z" />
<path fill="#273284" opacity="1.00" d=" M 634.14 733.11 C 640.82 730.89 648.44 733.97 652.30 739.71 C 659.17 748.98 657.69 763.40 648.71 770.76 C 643.44 775.25 635.13 775.53 629.62 771.32 C 621.91 765.49 619.18 754.36 622.45 745.40 C 624.33 739.90 628.44 734.85 634.14 733.11 Z" />
</g>
<g id="#f7ed19ff">
<path fill="#f7ed19" opacity="1.00" d=" M 358.47 219.19 C 358.40 171.38 358.43 123.56 358.46 75.75 C 367.41 75.76 376.36 75.74 385.31 75.76 C 385.31 123.57 385.34 171.38 385.30 219.19 C 376.35 219.20 367.41 219.19 358.47 219.19 Z" />
<path fill="#f7ed19" opacity="1.00" d=" M 485.76 266.64 C 519.65 232.86 553.55 199.08 587.50 165.35 C 593.83 171.65 600.14 177.97 606.45 184.30 C 572.59 218.15 538.63 251.89 504.69 285.64 C 498.38 279.31 491.99 273.05 485.76 266.64 Z" />
<path fill="#f7ed19" opacity="1.00" d=" M 135.73 189.39 C 141.69 182.72 147.61 176.01 153.59 169.35 C 189.42 201.04 225.10 232.89 261.03 264.46 C 255.29 271.36 249.15 277.93 243.22 284.67 C 207.38 252.92 171.54 221.17 135.73 189.39 Z" />
<path fill="#f7ed19" opacity="1.00" d=" M 366.18 266.29 C 389.15 264.93 412.51 270.82 432.01 283.07 C 451.59 295.25 467.27 313.61 476.13 334.91 C 484.25 354.20 486.65 375.79 483.24 396.42 C 478.39 426.55 460.41 454.16 435.01 471.02 C 418.21 482.31 398.30 488.88 378.08 489.79 C 355.87 490.92 333.36 485.28 314.38 473.67 C 295.70 462.38 280.46 445.49 271.15 425.74 C 260.19 402.70 257.60 375.86 263.75 351.11 C 269.48 327.62 283.20 306.23 302.01 291.06 C 320.09 276.34 342.89 267.54 366.18 266.29 Z" />
<path fill="#f7ed19" opacity="1.00" d=" M 72.94 364.70 C 120.83 364.56 168.72 364.65 216.61 364.62 C 216.66 373.54 216.63 382.46 216.62 391.38 C 168.73 391.53 120.83 391.37 72.94 391.50 C 72.93 382.56 72.93 373.63 72.94 364.70 Z" />
<path fill="#f7ed19" opacity="1.00" d=" M 531.44 365.19 C 579.35 365.22 627.27 365.07 675.18 365.13 C 675.20 374.07 675.20 383.01 675.18 391.95 C 627.26 391.91 579.34 391.98 531.43 391.98 C 531.45 383.05 531.42 374.12 531.44 365.19 Z" />
<path fill="#f7ed19" opacity="1.00" d=" M 142.41 573.06 C 176.35 539.30 210.27 505.51 244.19 471.73 C 250.53 478.04 256.88 484.36 263.14 490.75 C 229.29 524.56 195.32 558.26 161.47 592.07 C 155.06 585.79 148.76 579.40 142.41 573.06 Z" />
<path fill="#f7ed19" opacity="1.00" d=" M 484.23 493.65 C 490.15 486.92 496.12 480.23 502.11 473.56 C 537.90 505.32 573.75 537.02 609.50 568.81 C 603.61 575.54 597.64 582.20 591.70 588.89 C 555.87 557.15 520.09 525.36 484.23 493.65 Z" />
<path fill="#f7ed19" opacity="1.00" d=" M 360.01 534.94 C 368.94 534.93 377.88 534.92 386.81 534.95 C 386.82 582.78 386.81 630.60 386.82 678.43 C 377.88 678.44 368.94 678.45 360.00 678.43 C 360.00 630.60 359.99 582.77 360.01 534.94 Z" />
</g>
</svg>
